<?xml version="1.0" standalone="no"?>
<!DOCTYPE svg PUBLIC "-//W3C//DTD SVG 1.1//EN" "http://www.w3.org/Graphics/SVG/1.1/DTD/svg11.dtd" >
<svg>
<metadata>
Created by FontForge 20120731 at Fri Nov 22 15:20:04 2013

Copyright (c) 2012 Jeremy Mickel, MCKL, Inc. All rights reserved.
</metadata>
<defs>
<font id="WWDisplay-Extrabold" horiz-adv-x="262" >
  <font-face 
    font-family="WWDisplay Extrabold"
    font-weight="800"
    font-stretch="normal"
    units-per-em="1000"
    panose-1="0 0 0 0 0 0 0 0 0 0"
    ascent="750"
    descent="-250"
    x-height="502"
    cap-height="700"
    bbox="-122 -355 1030 955"
    underline-thickness="50"
    underline-position="-50"
    unicode-range="U+0020-FB02"
  />
<missing-glyph horiz-adv-x="914" 
d="M110 700h694v-700h-694v700zM207 558v-429l188 216zM707 132v426l-186 -213zM459 414l172 199h-346zM293 87h327l-165 189z" />
    <glyph glyph-name="fi" unicode="fi" horiz-adv-x="656" 
d="M72 362h-71v140h71v27q0 54 15 93t42.5 64.5t65.5 37.5t83 12q43 0 75.5 -11t51.5 -25l-34 -119q-11 6 -24 10.5t-27 4.5q-30 0 -44 -16t-14 -52v-26h125v-140h-125v-362h-190v362zM619 502v-502h-194v502h194zM415 641q0 50 28 72.5t79 22.5t79 -22.5t28 -72.5
q0 -48 -28 -70.5t-79 -22.5t-79 22.5t-28 70.5z" />
    <glyph glyph-name="fl" unicode="fl" horiz-adv-x="656" 
d="M72 362h-71v140h71v27q0 54 15 93t42.5 64.5t65.5 37.5t83 12q41 0 74.5 -11t50.5 -25l-34 -119q-11 6 -24.5 10.5t-26.5 4.5q-26 0 -41 -16t-15 -52v-26h125v-140h-125v-362h-190v362zM619 0h-194v700h194v-700z" />
    <glyph glyph-name="triagup" unicode="&#x2d;^" horiz-adv-x="801" 
d="M20 0l380 659l380 -659h-760z" />
    <glyph glyph-name="triagdn" unicode="^&#x2d;" horiz-adv-x="801" 
d="M780 700l-380 -659l-380 659h760z" />
    <glyph glyph-name="triaglf" unicode="&#x3c;&#x2d;" horiz-adv-x="801" 
d="M702 -30l-658 380l658 380v-760z" />
    <glyph glyph-name="triagrt" unicode="&#x2d;&#x3e;" horiz-adv-x="801" 
d="M99 730l658 -380l-658 -380v760z" />
    <glyph glyph-name=".notdef" horiz-adv-x="914" 
d="M110 700h694v-700h-694v700zM207 558v-429l188 216zM707 132v426l-186 -213zM459 414l172 199h-346zM293 87h327l-165 189z" />
    <glyph glyph-name="space" unicode=" " horiz-adv-x="200" 
 />
    <glyph glyph-name="A" unicode="A" horiz-adv-x="707" 
d="M472 94h-244l-28 -94h-200l233 700h241l233 -700h-206zM272 244h156l-78 258z" />
    <glyph glyph-name="B" unicode="B" horiz-adv-x="661" 
d="M44 700h377q54 0 93.5 -14t65 -39t38 -59.5t12.5 -76.5q0 -49 -23.5 -86.5t-65.5 -57.5q28 -8 48 -24.5t32.5 -38.5t18.5 -48.5t6 -53.5q0 -202 -235 -202h-367v700zM239 279v-135h138q37 0 54.5 18.5t17.5 50.5q0 29 -16 47.5t-50 18.5h-144zM239 553v-133h130
q34 0 50 19t16 47q0 32 -17.5 49.5t-46.5 17.5h-132z" />
    <glyph glyph-name="C" unicode="C" horiz-adv-x="672" 
d="M367 -15q-179 0 -263 91t-84 275q0 189 88 276.5t267 87.5q110 0 182 -40t107 -131l-162 -78q-22 47 -50.5 65t-79.5 18q-35 0 -63 -9.5t-47 -32.5t-29 -62t-10 -98q0 -57 10 -96t29.5 -62t47.5 -33t64 -10q48 0 81 21t52 69l164 -75q-36 -84 -110 -130t-194 -46z" />
    <glyph glyph-name="D" unicode="D" horiz-adv-x="709" 
d="M332 160q36 0 64.5 10t48.5 32.5t30.5 59.5t10.5 90q0 97 -34 142.5t-103 45.5h-103v-380h86zM44 0v700h320q168 0 246.5 -84.5t78.5 -260.5q0 -173 -83 -264t-258 -91h-304z" />
    <glyph glyph-name="E" unicode="E" horiz-adv-x="628" 
d="M44 700h553v-160h-356v-108h306v-157h-306v-119h366v-156h-563v700z" />
    <glyph glyph-name="F" unicode="F" horiz-adv-x="595" 
d="M44 700h543v-160h-341v-125h292v-165h-292v-250h-202v700z" />
    <glyph glyph-name="G" unicode="G" horiz-adv-x="712" 
d="M338 -15q-73 0 -132 22.5t-100 68t-63.5 114t-22.5 161.5q0 187 88.5 275.5t266.5 88.5q108 0 178 -37t104 -122l-162 -82q-21 43 -48 59t-74 16q-37 0 -65 -10t-47 -33.5t-28.5 -61.5t-9.5 -95q0 -58 10 -97t29.5 -63t48.5 -34t66 -10q45 0 80 23t42 75h-122v148h303
v-391h-137l-12 79q-27 -44 -75.5 -69t-117.5 -25z" />
    <glyph glyph-name="H" unicode="H" horiz-adv-x="744" 
d="M498 263h-252v-263h-202v700h202v-266h252v266h202v-700h-202v263z" />
    <glyph glyph-name="I" unicode="I" horiz-adv-x="290" 
d="M44 700h202v-700h-202v700z" />
    <glyph glyph-name="J" unicode="J" horiz-adv-x="526" 
d="M191 -15q-50 0 -104.5 15.5t-99.5 53.5l79 137q25 -22 56.5 -33t61.5 -11q48 0 75 26.5t27 92.5v434h202v-436q0 -77 -22 -130t-61.5 -86t-94 -48t-119.5 -15z" />
    <glyph glyph-name="K" unicode="K" horiz-adv-x="700" 
d="M44 700h202l-1 -298l231 298h237l-257 -310l251 -390h-243l-147 244l-71 -80v-164h-202v700z" />
    <glyph glyph-name="L" unicode="L" horiz-adv-x="602" 
d="M587 166v-166h-543v700h203v-534h340z" />
    <glyph glyph-name="M" unicode="M" horiz-adv-x="922" 
d="M218 386l8 -386h-182v700h216l199 -470l197 470h222v-700h-189l9 403l-172 -403h-140z" />
    <glyph glyph-name="N" unicode="N" horiz-adv-x="741" 
d="M229 382l5 -382h-190v700h150l317 -415l-4 415h190v-700h-170z" />
    <glyph glyph-name="O" unicode="O" horiz-adv-x="745" 
d="M20 351q0 183 86 273.5t267 90.5q93 0 160 -23t109.5 -69t62.5 -114t20 -159q0 -183 -86.5 -274t-267.5 -91q-185 0 -268 92t-83 274zM223 349q0 -55 9.5 -93t28 -62t46 -34.5t64.5 -10.5t65 10.5t46.5 34.5t27.5 62.5t9 94.5q0 55 -9 93t-27.5 61.5t-46 34t-64.5 10.5
q-38 0 -65.5 -10.5t-46.5 -34t-28 -62t-9 -94.5z" />
    <glyph glyph-name="P" unicode="P" horiz-adv-x="660" 
d="M44 700h355q62 0 108.5 -19t78 -53.5t47 -82t15.5 -105.5q0 -62 -19.5 -109t-55 -79.5t-86 -49t-112.5 -16.5h-129v-186h-202v700zM246 531v-183h115q42 0 65 24.5t23 70.5q0 16 -5 32t-15.5 28.5t-27.5 20t-41 7.5h-114z" />
    <glyph glyph-name="Q" unicode="Q" horiz-adv-x="745" 
d="M675 -86h-170l-46 77q-41 -6 -88 -6q-185 0 -268 92t-83 274q0 183 86 273.5t267 90.5q93 0 160 -23t109.5 -69t62.5 -114t20 -159q0 -220 -126 -307zM223 347q0 -56 9 -94.5t27.5 -62.5t46 -35t63.5 -11l-61 104h172l18 -32q22 47 22 133q0 113 -37.5 159.5t-110.5 46.5
q-38 0 -65.5 -11t-46.5 -35.5t-28 -64t-9 -97.5z" />
    <glyph glyph-name="R" unicode="R" horiz-adv-x="668" 
d="M44 700h373q60 0 104.5 -17.5t74.5 -49t45 -76t15 -97.5q0 -75 -28.5 -127.5t-80.5 -81.5l114 -251h-221l-88 213h-110v-213h-198v700zM242 536v-165h131q38 0 60 21.5t22 62.5q0 33 -18 57t-61 24h-134z" />
    <glyph glyph-name="S" unicode="S" horiz-adv-x="577" 
d="M425 490q-25 36 -56 54.5t-80 18.5q-53 0 -73 -16.5t-20 -39.5q0 -25 21.5 -40.5t71.5 -27.5l60 -15q63 -16 105.5 -38t68 -49.5t36.5 -60t11 -68.5q0 -104 -75 -163.5t-223 -59.5q-43 0 -85 6.5t-79.5 22.5t-68.5 42t-52 65l124 96q26 -47 65 -67.5t96 -20.5
q55 0 81.5 15.5t26.5 44.5q0 20 -17 35.5t-65 27.5l-63 16q-63 16 -105.5 41t-68.5 55.5t-37 65.5t-11 72q0 46 17 85.5t51.5 67.5t86.5 44t122 16q89 0 157 -29t108 -104z" />
    <glyph glyph-name="T" unicode="T" horiz-adv-x="625" 
d="M620 700v-160h-207v-540h-201v540h-207v160h615z" />
    <glyph glyph-name="U" unicode="U" horiz-adv-x="721" 
d="M482 700h201v-410q0 -83 -22 -141t-63 -94.5t-100.5 -53t-135.5 -16.5q-158 0 -241 71.5t-83 233.5v410h201v-421q0 -63 31.5 -95.5t90.5 -32.5t90 32.5t31 95.5v421z" />
    <glyph glyph-name="V" unicode="V" horiz-adv-x="707" 
d="M210 700l146 -480l148 480h203l-237 -700h-234l-236 700h210z" />
    <glyph glyph-name="W" unicode="W" horiz-adv-x="986" 
d="M581 699l106 -427l101 428h198l-196 -700h-198l-101 419l-103 -419h-193l-195 700h205l97 -424l107 423h172z" />
    <glyph glyph-name="X" unicode="X" horiz-adv-x="713" 
d="M345 214l-128 -214h-217l234 352l-222 348h237l119 -218l117 218h217l-227 -343l238 -357h-238z" />
    <glyph glyph-name="Y" unicode="Y" horiz-adv-x="704" 
d="M0 700h224l135 -275l133 275h212l-251 -455v-245h-202v251z" />
    <glyph glyph-name="Z" unicode="Z" horiz-adv-x="604" 
d="M6 120l332 423l-320 -4v161h567v-118l-330 -425l339 4v-161h-588v120z" />
    <glyph glyph-name="Aacute" unicode="&#xc1;" horiz-adv-x="707" 
d="M472 94h-244l-28 -94h-200l233 700h241l233 -700h-206zM272 244h156l-78 258zM412 758h-147v5l84 136h199v-7z" />
    <glyph glyph-name="acute" unicode="&#xb4;" horiz-adv-x="596" 
d="M346 560h-147v5l84 136h199v-7z" />
    <glyph glyph-name="Abreve" unicode="&#x102;" horiz-adv-x="707" 
d="M472 94h-244l-28 -94h-200l233 700h241l233 -700h-206zM272 244h156l-78 258zM539 898q0 -42 -12.5 -70.5t-36.5 -46t-58.5 -24.5t-78.5 -7t-78.5 7t-58 24.5t-36 46t-12.5 70.5h112q0 -35 17.5 -47t55.5 -12t55.5 12t17.5 47h113z" />
    <glyph glyph-name="breve" unicode="&#x2d8;" horiz-adv-x="593" 
d="M482 700q0 -42 -12.5 -70.5t-36.5 -46t-58.5 -24.5t-78.5 -7t-78.5 7t-58 24.5t-36 46t-12.5 70.5h112q0 -35 17.5 -47t55.5 -12t55.5 12t17.5 47h113z" />
    <glyph glyph-name="Acircumflex" unicode="&#xc2;" horiz-adv-x="707" 
d="M472 94h-244l-28 -94h-200l233 700h241l233 -700h-206zM272 244h156l-78 258zM293 758h-141v4l124 137h155l125 -137v-4h-149l-58 52z" />
    <glyph glyph-name="circumflex" unicode="&#x2c6;" horiz-adv-x="589" 
d="M236 560h-141v4l124 137h155l125 -137v-4h-149l-58 52z" />
    <glyph glyph-name="Adieresis" unicode="&#xc4;" horiz-adv-x="707" 
d="M472 94h-244l-28 -94h-200l233 700h241l233 -700h-206zM272 244h156l-78 258zM143 837q0 43 25 63t70 20q46 0 70.5 -20t24.5 -63q0 -45 -24.5 -64.5t-70.5 -19.5q-45 0 -70 19.5t-25 64.5zM372 837q0 43 25 63t71 20t70.5 -20t24.5 -63q0 -45 -24.5 -64.5t-70.5 -19.5
t-71 19.5t-25 64.5z" />
    <glyph glyph-name="dieresis" unicode="&#xa8;" horiz-adv-x="607" 
d="M100 639q0 43 25 63t70 20q46 0 70.5 -20t24.5 -63q0 -45 -24.5 -64.5t-70.5 -19.5q-45 0 -70 19.5t-25 64.5zM329 639q0 43 25 63t71 20t70.5 -20t24.5 -63q0 -45 -24.5 -64.5t-70.5 -19.5t-71 19.5t-25 64.5z" />
    <glyph glyph-name="AE" unicode="&#xc6;" horiz-adv-x="1011" 
d="M479 94h-253l-30 -94h-196l248 700h732v-160h-443l36 -108h356v-157h-303l39 -119h325v-156h-482zM274 244h159l-79 250z" />
    <glyph glyph-name="Agrave" unicode="&#xc0;" horiz-adv-x="707" 
d="M472 94h-244l-28 -94h-200l233 700h241l233 -700h-206zM272 244h156l-78 258zM155 893v7h206l81 -136v-5h-151z" />
    <glyph glyph-name="grave" unicode="`" horiz-adv-x="598" 
d="M107 694v7h206l81 -136v-5h-151z" />
    <glyph glyph-name="Amacron" unicode="&#x100;" horiz-adv-x="707" 
d="M472 94h-244l-28 -94h-200l233 700h241l233 -700h-206zM272 244h156l-78 258zM506 772h-306v101h306v-101z" />
    <glyph glyph-name="macron" unicode="&#xaf;" horiz-adv-x="581" 
d="M439 574h-306v101h306v-101z" />
    <glyph glyph-name="Aogonek" unicode="&#x104;" horiz-adv-x="707" 
d="M272 244h156l-78 258zM672 -209q-47 -29 -108 -29q-29 0 -57.5 7t-51 22.5t-36.5 41.5t-14 65q0 48 24 82.5t61 54.5l-18 59h-244l-28 -94h-200l233 700h241l233 -700h-107q-48 -4 -68 -29t-20 -56q0 -29 20 -40t46 -11q17 0 34.5 4t33.5 13z" />
    <glyph glyph-name="Aring" unicode="&#xc5;" horiz-adv-x="707" 
d="M472 94h-244l-28 -94h-200l233 700h241l233 -700h-206zM272 244h156l-78 258zM229 847q0 53 35 80.5t89 27.5t88.5 -27.5t34.5 -80.5q0 -54 -35 -81.5t-89 -27.5t-88.5 27.5t-34.5 81.5zM309 847q0 -20 12 -31.5t31 -11.5q20 0 32 11.5t12 31.5t-12 30.5t-31 10.5
q-20 0 -32 -10.5t-12 -30.5z" />
    <glyph glyph-name="ring" unicode="&#x2da;" horiz-adv-x="582" 
d="M169 649q0 53 35 80.5t89 27.5t88.5 -27.5t34.5 -80.5q0 -54 -35 -81.5t-89 -27.5t-88.5 27.5t-34.5 81.5zM249 649q0 -20 12 -31.5t31 -11.5q20 0 32 11.5t12 31.5t-12 30.5t-31 10.5q-20 0 -32 -10.5t-12 -30.5z" />
    <glyph glyph-name="Atilde" unicode="&#xc3;" horiz-adv-x="707" 
d="M472 94h-244l-28 -94h-200l233 700h241l233 -700h-206zM272 244h156l-78 258zM546 896q3 -38 -6 -63.5t-25 -41t-37 -22t-41 -6.5q-23 0 -42.5 5t-37 10.5t-32.5 10.5t-30 5q-17 0 -22.5 -10.5t-5.5 -21.5h-109q-3 38 6 63.5t25 41t36.5 22t41.5 6.5q23 0 42.5 -5
t37 -10.5t32.5 -10.5t30 -5q18 0 23 9.5t5 22.5h109z" />
    <glyph glyph-name="tilde" unicode="&#x2dc;" horiz-adv-x="588" 
d="M494 698q3 -38 -6 -63.5t-25 -41t-37 -22t-41 -6.5q-23 0 -42.5 5t-37 10.5t-32.5 10.5t-30 5q-17 0 -22.5 -10.5t-5.5 -21.5h-109q-3 38 6 63.5t25 41t36.5 22t41.5 6.5q23 0 42.5 -5t37 -10.5t32.5 -10.5t30 -5q18 0 23 9.5t5 22.5h109z" />
    <glyph glyph-name="Cacute" unicode="&#x106;" horiz-adv-x="672" 
d="M367 -15q-179 0 -263 91t-84 275q0 189 88 276.5t267 87.5q110 0 182 -40t107 -131l-162 -78q-22 47 -50.5 65t-79.5 18q-35 0 -63 -9.5t-47 -32.5t-29 -62t-10 -98q0 -57 10 -96t29.5 -62t47.5 -33t64 -10q48 0 81 21t52 69l164 -75q-36 -84 -110 -130t-194 -46z
M434 758h-147v5l84 136h199v-7z" />
    <glyph glyph-name="Ccaron" unicode="&#x10c;" horiz-adv-x="672" 
d="M367 -15q-179 0 -263 91t-84 275q0 189 88 276.5t267 87.5q110 0 182 -40t107 -131l-162 -78q-22 47 -50.5 65t-79.5 18q-35 0 -63 -9.5t-47 -32.5t-29 -62t-10 -98q0 -57 10 -96t29.5 -62t47.5 -33t64 -10q48 0 81 21t52 69l164 -75q-36 -84 -110 -130t-194 -46z
M438 899h140v-3l-124 -138h-156l-124 138v3h148l59 -52z" />
    <glyph glyph-name="caron" unicode="&#x2c7;" horiz-adv-x="589" 
d="M356 701h140v-3l-124 -138h-156l-124 138v3h148l59 -52z" />
    <glyph glyph-name="Ccedilla" unicode="&#xc7;" horiz-adv-x="672" 
d="M368 -258q-48 0 -89 18t-64 56l60 62q16 -23 36.5 -35.5t49.5 -12.5q20 0 33.5 8t13.5 27q0 14 -13.5 24t-38.5 10q-6 0 -11.5 -1t-11.5 -2l-27 15l27 75q-161 8 -237 98.5t-76 266.5q0 189 88 276.5t267 87.5q110 0 182 -40t107 -131l-162 -78q-22 47 -50.5 65t-79.5 18
q-35 0 -63 -9.5t-47 -32.5t-29 -62t-10 -98q0 -57 10 -96t29.5 -62t47.5 -33t64 -10q48 0 81 21t52 69l164 -75q-32 -74 -92 -118.5t-156 -54.5l-14 -33h1q21 -2 40.5 -8.5t35 -18.5t24.5 -29.5t9 -39.5q0 -30 -12 -52t-33 -36.5t-48.5 -21.5t-57.5 -7z" />
    <glyph glyph-name="Ccircumflex" unicode="&#x108;" horiz-adv-x="672" 
d="M367 -15q-179 0 -263 91t-84 275q0 189 88 276.5t267 87.5q110 0 182 -40t107 -131l-162 -78q-22 47 -50.5 65t-79.5 18q-35 0 -63 -9.5t-47 -32.5t-29 -62t-10 -98q0 -57 10 -96t29.5 -62t47.5 -33t64 -10q48 0 81 21t52 69l164 -75q-36 -84 -110 -130t-194 -46z
M315 758h-141v4l124 137h155l125 -137v-4h-149l-58 52z" />
    <glyph glyph-name="Cdotaccent" unicode="&#x10a;" horiz-adv-x="672" 
d="M367 -15q-179 0 -263 91t-84 275q0 189 88 276.5t267 87.5q110 0 182 -40t107 -131l-162 -78q-22 47 -50.5 65t-79.5 18q-35 0 -63 -9.5t-47 -32.5t-29 -62t-10 -98q0 -57 10 -96t29.5 -62t47.5 -33t64 -10q48 0 81 21t52 69l164 -75q-36 -84 -110 -130t-194 -46z
M274 837q0 45 26.5 65t74.5 20t74 -20t26 -65q0 -44 -26 -64t-74 -20t-74.5 20t-26.5 64z" />
    <glyph glyph-name="dotaccent" unicode="&#x2d9;" horiz-adv-x="591" 
d="M195 639q0 45 26.5 65t74.5 20t74 -20t26 -65q0 -44 -26 -64t-74 -20t-74.5 20t-26.5 64z" />
    <glyph glyph-name="Dcaron" unicode="&#x10e;" horiz-adv-x="709" 
d="M332 160q36 0 64.5 10t48.5 32.5t30.5 59.5t10.5 90q0 97 -34 142.5t-103 45.5h-103v-380h86zM44 0v700h320q168 0 246.5 -84.5t78.5 -260.5q0 -173 -83 -264t-258 -91h-304zM425 899h140v-3l-124 -138h-156l-124 138v3h148l59 -52z" />
    <glyph glyph-name="Dcroat" unicode="&#x110;" horiz-adv-x="741" 
d="M78 0v270h-67v148h67v282h319q169 0 247 -84.5t78 -260.5q0 -173 -83 -264t-258 -91h-303zM365 160q36 0 64.5 10t48.5 32.5t31 59.5t11 90q0 97 -34.5 142.5t-103.5 45.5h-103v-122h101v-148h-101v-110h86z" />
    <glyph glyph-name="Eacute" unicode="&#xc9;" horiz-adv-x="628" 
d="M44 700h553v-160h-356v-108h306v-157h-306v-119h366v-156h-563v700zM387 758h-147v5l84 136h199v-7z" />
    <glyph glyph-name="Ebreve" unicode="&#x114;" horiz-adv-x="628" 
d="M44 700h553v-160h-356v-108h306v-157h-306v-119h366v-156h-563v700zM514 898q0 -42 -12.5 -70.5t-36.5 -46t-58.5 -24.5t-78.5 -7t-78.5 7t-58 24.5t-36 46t-12.5 70.5h112q0 -35 17.5 -47t55.5 -12t55.5 12t17.5 47h113z" />
    <glyph glyph-name="Ecaron" unicode="&#x11a;" horiz-adv-x="628" 
d="M44 700h553v-160h-356v-108h306v-157h-306v-119h366v-156h-563v700zM391 899h140v-3l-124 -138h-156l-124 138v3h148l59 -52z" />
    <glyph glyph-name="Ecircumflex" unicode="&#xca;" horiz-adv-x="628" 
d="M44 700h553v-160h-356v-108h306v-157h-306v-119h366v-156h-563v700zM268 758h-141v4l124 137h155l125 -137v-4h-149l-58 52z" />
    <glyph glyph-name="Edieresis" unicode="&#xcb;" horiz-adv-x="628" 
d="M44 700h553v-160h-356v-108h306v-157h-306v-119h366v-156h-563v700zM118 837q0 43 25 63t70 20q46 0 70.5 -20t24.5 -63q0 -45 -24.5 -64.5t-70.5 -19.5q-45 0 -70 19.5t-25 64.5zM347 837q0 43 25 63t71 20t70.5 -20t24.5 -63q0 -45 -24.5 -64.5t-70.5 -19.5t-71 19.5
t-25 64.5z" />
    <glyph glyph-name="Edotaccent" unicode="&#x116;" horiz-adv-x="628" 
d="M44 700h553v-160h-356v-108h306v-157h-306v-119h366v-156h-563v700zM227 837q0 45 26.5 65t74.5 20t74 -20t26 -65q0 -44 -26 -64t-74 -20t-74.5 20t-26.5 64z" />
    <glyph glyph-name="Egrave" unicode="&#xc8;" horiz-adv-x="628" 
d="M44 700h553v-160h-356v-108h306v-157h-306v-119h366v-156h-563v700zM130 893v7h206l81 -136v-5h-151z" />
    <glyph glyph-name="Emacron" unicode="&#x112;" horiz-adv-x="628" 
d="M44 700h553v-160h-356v-108h306v-157h-306v-119h366v-156h-563v700zM481 772h-306v101h306v-101z" />
    <glyph glyph-name="Eng" unicode="&#x14a;" horiz-adv-x="741" 
d="M506 24l-277 358l5 -382h-190v700h150l317 -415l-4 415h190v-678q0 -51 -15.5 -88.5t-43.5 -62.5t-67 -37t-86 -12q-29 0 -62.5 6t-59.5 20l30 122q22 -11 51 -11q33 0 47.5 16.5t14.5 56.5v-8z" />
    <glyph glyph-name="Eogonek" unicode="&#x118;" horiz-adv-x="626" 
d="M675 -209q-47 -29 -108 -29q-29 0 -57.5 7t-51 22.5t-36.5 41.5t-14 65q0 32 11 57.5t29 44.5h-404v700h553v-160h-356v-108h306v-157h-306v-119h366v-156q-51 -4 -71.5 -29t-20.5 -56q0 -29 20 -40t46 -11q17 0 34.5 4t33.5 13l26 -90v0z" />
    <glyph glyph-name="Eth" unicode="&#xd0;" horiz-adv-x="741" 
d="M78 0v270h-67v148h67v282h319q169 0 247 -84.5t78 -260.5q0 -173 -83 -264t-258 -91h-303zM365 160q36 0 64.5 10t48.5 32.5t31 59.5t11 90q0 97 -34.5 142.5t-103.5 45.5h-103v-122h101v-148h-101v-110h86z" />
    <glyph glyph-name="Gbreve" unicode="&#x11e;" horiz-adv-x="712" 
d="M338 -15q-73 0 -132 22.5t-100 68t-63.5 114t-22.5 161.5q0 187 88.5 275.5t266.5 88.5q108 0 178 -37t104 -122l-162 -82q-21 43 -48 59t-74 16q-37 0 -65 -10t-47 -33.5t-28.5 -61.5t-9.5 -95q0 -58 10 -97t29.5 -63t48.5 -34t66 -10q45 0 80 23t42 75h-122v148h303
v-391h-137l-12 79q-27 -44 -75.5 -69t-117.5 -25zM560 898q0 -42 -12.5 -70.5t-36.5 -46t-58.5 -24.5t-78.5 -7t-78.5 7t-58 24.5t-36 46t-12.5 70.5h112q0 -35 17.5 -47t55.5 -12t55.5 12t17.5 47h113z" />
    <glyph glyph-name="Gcircumflex" unicode="&#x11c;" horiz-adv-x="712" 
d="M338 -15q-73 0 -132 22.5t-100 68t-63.5 114t-22.5 161.5q0 187 88.5 275.5t266.5 88.5q108 0 178 -37t104 -122l-162 -82q-21 43 -48 59t-74 16q-37 0 -65 -10t-47 -33.5t-28.5 -61.5t-9.5 -95q0 -58 10 -97t29.5 -63t48.5 -34t66 -10q45 0 80 23t42 75h-122v148h303
v-391h-137l-12 79q-27 -44 -75.5 -69t-117.5 -25zM314 758h-141v4l124 137h155l125 -137v-4h-149l-58 52z" />
    <glyph glyph-name="Gcommaaccent" unicode="&#x122;" horiz-adv-x="712" 
d="M338 -15q-73 0 -132 22.5t-100 68t-63.5 114t-22.5 161.5q0 187 88.5 275.5t266.5 88.5q108 0 178 -37t104 -122l-162 -82q-21 43 -48 59t-74 16q-37 0 -65 -10t-47 -33.5t-28.5 -61.5t-9.5 -95q0 -58 10 -97t29.5 -63t48.5 -34t66 -10q45 0 80 23t42 75h-122v148h303
v-391h-137l-12 79q-27 -44 -75.5 -69t-117.5 -25zM267 -287q33 8 57 26.5t32 44.5q-44 0 -69 20.5t-25 59.5q0 43 25 64.5t73 21.5q47 0 73.5 -27t26.5 -81q0 -39 -11.5 -72t-32.5 -59t-50.5 -42.5t-65.5 -22.5z" />
    <glyph glyph-name="commaaccent" unicode="&#xf6c3;" horiz-adv-x="591" 
d="M202 -287q33 8 57 26.5t32 44.5q-44 0 -69 20.5t-25 59.5q0 43 25 64.5t73 21.5q47 0 73.5 -27t26.5 -81q0 -39 -11.5 -72t-32.5 -59t-50.5 -42.5t-65.5 -22.5z" />
    <glyph glyph-name="Gdotaccent" unicode="&#x120;" horiz-adv-x="712" 
d="M338 -15q-73 0 -132 22.5t-100 68t-63.5 114t-22.5 161.5q0 187 88.5 275.5t266.5 88.5q108 0 178 -37t104 -122l-162 -82q-21 43 -48 59t-74 16q-37 0 -65 -10t-47 -33.5t-28.5 -61.5t-9.5 -95q0 -58 10 -97t29.5 -63t48.5 -34t66 -10q45 0 80 23t42 75h-122v148h303
v-391h-137l-12 79q-27 -44 -75.5 -69t-117.5 -25zM273 837q0 45 26.5 65t74.5 20t74 -20t26 -65q0 -44 -26 -64t-74 -20t-74.5 20t-26.5 64z" />
    <glyph glyph-name="Hbar" unicode="&#x126;" horiz-adv-x="781" 
d="M517 263h-253v-263h-202v507h-62v97h62v96h202v-96h253v96h201v-96h63v-97h-63v-507h-201v263zM517 434v73h-253v-73h253z" />
    <glyph glyph-name="Hcircumflex" unicode="&#x124;" horiz-adv-x="744" 
d="M498 263h-252v-263h-202v700h202v-266h252v266h202v-700h-202v263zM312 758h-141v4l124 137h155l125 -137v-4h-149l-58 52z" />
    <glyph glyph-name="Iacute" unicode="&#xcd;" horiz-adv-x="290" 
d="M44 700h202v-700h-202v700zM206 758h-147v5l84 136h199v-7z" />
    <glyph glyph-name="Ibreve" unicode="&#x12c;" horiz-adv-x="290" 
d="M44 700h202v-700h-202v700zM333 898q0 -42 -12.5 -70.5t-36.5 -46t-58.5 -24.5t-78.5 -7t-78.5 7t-58 24.5t-36 46t-12.5 70.5h112q0 -35 17.5 -47t55.5 -12t55.5 12t17.5 47h113z" />
    <glyph glyph-name="Icircumflex" unicode="&#xce;" horiz-adv-x="290" 
d="M44 700h202v-700h-202v700zM87 758h-141v4l124 137h155l125 -137v-4h-149l-58 52z" />
    <glyph glyph-name="Idieresis" unicode="&#xcf;" horiz-adv-x="290" 
d="M44 700h202v-700h-202v700zM-63 837q0 43 25 63t70 20q46 0 70.5 -20t24.5 -63q0 -45 -24.5 -64.5t-70.5 -19.5q-45 0 -70 19.5t-25 64.5zM166 837q0 43 25 63t71 20t70.5 -20t24.5 -63q0 -45 -24.5 -64.5t-70.5 -19.5t-71 19.5t-25 64.5z" />
    <glyph glyph-name="Idotaccent" unicode="&#x130;" horiz-adv-x="290" 
d="M44 700h202v-700h-202v700zM46 837q0 45 26.5 65t74.5 20t74 -20t26 -65q0 -44 -26 -64t-74 -20t-74.5 20t-26.5 64z" />
    <glyph glyph-name="Igrave" unicode="&#xcc;" horiz-adv-x="290" 
d="M44 700h202v-700h-202v700zM-51 893v7h206l81 -136v-5h-151z" />
    <glyph glyph-name="IJ" unicode="&#x132;" horiz-adv-x="816" 
d="M44 700h202v-700h-202v700zM481 -15q-50 0 -104.5 15.5t-99.5 53.5l79 137q25 -22 56.5 -33t61.5 -11q48 0 75 26.5t27 92.5v434h202v-436q0 -77 -22 -130t-61.5 -86t-94 -48t-119.5 -15z" />
    <glyph glyph-name="Imacron" unicode="&#x12a;" horiz-adv-x="290" 
d="M44 700h202v-700h-202v700zM300 772h-306v101h306v-101z" />
    <glyph glyph-name="Iogonek" unicode="&#x12e;" horiz-adv-x="290" 
d="M110 -238q-29 0 -57.5 7t-51 22.5t-36.5 41.5t-14 65q0 51 26.5 86.5t66.5 53.5v662h202v-700h-100q-48 -4 -68 -29t-20 -56q0 -29 20 -40t46 -11q17 0 34.5 4t33.5 13l26 -90q-47 -29 -108 -29z" />
    <glyph glyph-name="Itilde" unicode="&#x128;" horiz-adv-x="290" 
d="M44 700h202v-700h-202v700zM341 896q3 -38 -6 -63.5t-25 -41t-37 -22t-41 -6.5q-23 0 -42.5 5t-37 10.5t-32.5 10.5t-30 5q-17 0 -22.5 -10.5t-5.5 -21.5h-109q-3 38 6 63.5t25 41t36.5 22t41.5 6.5q23 0 42.5 -5t37 -10.5t32.5 -10.5t30 -5q18 0 23 9.5t5 22.5h109z" />
    <glyph glyph-name="Jcircumflex" unicode="&#x134;" horiz-adv-x="526" 
d="M191 -15q-50 0 -104.5 15.5t-99.5 53.5l79 137q25 -22 56.5 -33t61.5 -11q48 0 75 26.5t27 92.5v434h202v-436q0 -77 -22 -130t-61.5 -86t-94 -48t-119.5 -15zM330 758h-141v4l124 137h155l125 -137v-4h-149l-58 52z" />
    <glyph glyph-name="Kcommaaccent" unicode="&#x136;" horiz-adv-x="700" 
d="M44 700h202l-1 -298l231 298h237l-257 -310l251 -390h-243l-147 244l-71 -80v-164h-202v700zM266 -287q33 8 57 26.5t32 44.5q-44 0 -69 20.5t-25 59.5q0 43 25 64.5t73 21.5q47 0 73.5 -27t26.5 -81q0 -39 -11.5 -72t-32.5 -59t-50.5 -42.5t-65.5 -22.5z" />
    <glyph glyph-name="Lacute" unicode="&#x139;" horiz-adv-x="602" 
d="M587 166v-166h-543v700h203v-534h340zM207 758h-147v5l84 136h199v-7z" />
    <glyph glyph-name="Lcaron" unicode="&#x13d;" horiz-adv-x="602" 
d="M385 421l7 279h150l-34 -279h-123zM587 166v-166h-543v700h203v-534h340z" />
    <glyph glyph-name="caronSlovak" horiz-adv-x="586" 
d="M241 421l7 279h150l-34 -279h-123z" />
    <glyph glyph-name="Lcommaaccent" unicode="&#x13b;" horiz-adv-x="602" 
d="M587 166v-166h-543v700h203v-534h340zM227 -287q33 8 57 26.5t32 44.5q-44 0 -69 20.5t-25 59.5q0 43 25 64.5t73 21.5q47 0 73.5 -27t26.5 -81q0 -39 -11.5 -72t-32.5 -59t-50.5 -42.5t-65.5 -22.5z" />
    <glyph glyph-name="Ldot" unicode="&#x13f;" horiz-adv-x="602" 
d="M587 166v-166h-543v700h203v-534h340zM343 352q0 45 26.5 65t74.5 20t74 -20t26 -65q0 -44 -26 -64t-74 -20t-74.5 20t-26.5 64z" />
    <glyph glyph-name="Lslash" unicode="&#x141;" horiz-adv-x="637" 
d="M622 166v-166h-543v201l-79 -42v151l79 41v349h202v-253l160 81v-151l-160 -81v-130h341z" />
    <glyph glyph-name="Nacute" unicode="&#x143;" horiz-adv-x="741" 
d="M229 382l5 -382h-190v700h150l317 -415l-4 415h190v-700h-170zM429 758h-147v5l84 136h199v-7z" />
    <glyph glyph-name="Ncaron" unicode="&#x147;" horiz-adv-x="741" 
d="M229 382l5 -382h-190v700h150l317 -415l-4 415h190v-700h-170zM433 899h140v-3l-124 -138h-156l-124 138v3h148l59 -52z" />
    <glyph glyph-name="Ncommaaccent" unicode="&#x145;" horiz-adv-x="741" 
d="M229 382l5 -382h-190v700h150l317 -415l-4 415h190v-700h-170zM281 -287q33 8 57 26.5t32 44.5q-44 0 -69 20.5t-25 59.5q0 43 25 64.5t73 21.5q47 0 73.5 -27t26.5 -81q0 -39 -11.5 -72t-32.5 -59t-50.5 -42.5t-65.5 -22.5z" />
    <glyph glyph-name="Ntilde" unicode="&#xd1;" horiz-adv-x="741" 
d="M229 382l5 -382h-190v700h150l317 -415l-4 415h190v-700h-170zM563 896q3 -38 -6 -63.5t-25 -41t-37 -22t-41 -6.5q-23 0 -42.5 5t-37 10.5t-32.5 10.5t-30 5q-17 0 -22.5 -10.5t-5.5 -21.5h-109q-3 38 6 63.5t25 41t36.5 22t41.5 6.5q23 0 42.5 -5t37 -10.5t32.5 -10.5
t30 -5q18 0 23 9.5t5 22.5h109z" />
    <glyph glyph-name="Oacute" unicode="&#xd3;" horiz-adv-x="745" 
d="M20 351q0 183 86 273.5t267 90.5q93 0 160 -23t109.5 -69t62.5 -114t20 -159q0 -183 -86.5 -274t-267.5 -91q-185 0 -268 92t-83 274zM223 349q0 -55 9.5 -93t28 -62t46 -34.5t64.5 -10.5t65 10.5t46.5 34.5t27.5 62.5t9 94.5q0 55 -9 93t-27.5 61.5t-46 34t-64.5 10.5
q-38 0 -65.5 -10.5t-46.5 -34t-28 -62t-9 -94.5zM427 758h-147v5l84 136h199v-7z" />
    <glyph glyph-name="Obreve" unicode="&#x14e;" horiz-adv-x="745" 
d="M20 351q0 183 86 273.5t267 90.5q93 0 160 -23t109.5 -69t62.5 -114t20 -159q0 -183 -86.5 -274t-267.5 -91q-185 0 -268 92t-83 274zM223 349q0 -55 9.5 -93t28 -62t46 -34.5t64.5 -10.5t65 10.5t46.5 34.5t27.5 62.5t9 94.5q0 55 -9 93t-27.5 61.5t-46 34t-64.5 10.5
q-38 0 -65.5 -10.5t-46.5 -34t-28 -62t-9 -94.5zM554 898q0 -42 -12.5 -70.5t-36.5 -46t-58.5 -24.5t-78.5 -7t-78.5 7t-58 24.5t-36 46t-12.5 70.5h112q0 -35 17.5 -47t55.5 -12t55.5 12t17.5 47h113z" />
    <glyph glyph-name="Ocircumflex" unicode="&#xd4;" horiz-adv-x="745" 
d="M20 351q0 183 86 273.5t267 90.5q93 0 160 -23t109.5 -69t62.5 -114t20 -159q0 -183 -86.5 -274t-267.5 -91q-185 0 -268 92t-83 274zM223 349q0 -55 9.5 -93t28 -62t46 -34.5t64.5 -10.5t65 10.5t46.5 34.5t27.5 62.5t9 94.5q0 55 -9 93t-27.5 61.5t-46 34t-64.5 10.5
q-38 0 -65.5 -10.5t-46.5 -34t-28 -62t-9 -94.5zM308 758h-141v4l124 137h155l125 -137v-4h-149l-58 52z" />
    <glyph glyph-name="Odieresis" unicode="&#xd6;" horiz-adv-x="745" 
d="M20 351q0 183 86 273.5t267 90.5q93 0 160 -23t109.5 -69t62.5 -114t20 -159q0 -183 -86.5 -274t-267.5 -91q-185 0 -268 92t-83 274zM223 349q0 -55 9.5 -93t28 -62t46 -34.5t64.5 -10.5t65 10.5t46.5 34.5t27.5 62.5t9 94.5q0 55 -9 93t-27.5 61.5t-46 34t-64.5 10.5
q-38 0 -65.5 -10.5t-46.5 -34t-28 -62t-9 -94.5zM158 837q0 43 25 63t70 20q46 0 70.5 -20t24.5 -63q0 -45 -24.5 -64.5t-70.5 -19.5q-45 0 -70 19.5t-25 64.5zM387 837q0 43 25 63t71 20t70.5 -20t24.5 -63q0 -45 -24.5 -64.5t-70.5 -19.5t-71 19.5t-25 64.5z" />
    <glyph glyph-name="OE" unicode="&#x152;" horiz-adv-x="1050" 
d="M360 0q-168 0 -254 86t-86 265q0 172 83.5 260.5t258.5 88.5h658v-160h-355v-108h305v-157h-305v-119h365v-156h-670zM467 160v380h-97q-71 0 -108.5 -43.5t-37.5 -147.5q0 -98 34 -143.5t102 -45.5h107z" />
    <glyph glyph-name="Ograve" unicode="&#xd2;" horiz-adv-x="745" 
d="M20 351q0 183 86 273.5t267 90.5q93 0 160 -23t109.5 -69t62.5 -114t20 -159q0 -183 -86.5 -274t-267.5 -91q-185 0 -268 92t-83 274zM223 349q0 -55 9.5 -93t28 -62t46 -34.5t64.5 -10.5t65 10.5t46.5 34.5t27.5 62.5t9 94.5q0 55 -9 93t-27.5 61.5t-46 34t-64.5 10.5
q-38 0 -65.5 -10.5t-46.5 -34t-28 -62t-9 -94.5zM170 893v7h206l81 -136v-5h-151z" />
    <glyph glyph-name="Ohungarumlaut" unicode="&#x150;" horiz-adv-x="745" 
d="M20 351q0 183 86 273.5t267 90.5q93 0 160 -23t109.5 -69t62.5 -114t20 -159q0 -183 -86.5 -274t-267.5 -91q-185 0 -268 92t-83 274zM223 349q0 -55 9.5 -93t28 -62t46 -34.5t64.5 -10.5t65 10.5t46.5 34.5t27.5 62.5t9 94.5q0 55 -9 93t-27.5 61.5t-46 34t-64.5 10.5
q-38 0 -65.5 -10.5t-46.5 -34t-28 -62t-9 -94.5zM310 758h-124v5l70 136h177v-7zM526 758h-137v5l79 136h192v-5z" />
    <glyph glyph-name="hungarumlaut" unicode="&#x2dd;" horiz-adv-x="615" 
d="M251 560h-124v5l70 136h177v-7zM467 560h-137v5l79 136h192v-5z" />
    <glyph glyph-name="Omacron" unicode="&#x14c;" horiz-adv-x="745" 
d="M20 351q0 183 86 273.5t267 90.5q93 0 160 -23t109.5 -69t62.5 -114t20 -159q0 -183 -86.5 -274t-267.5 -91q-185 0 -268 92t-83 274zM223 349q0 -55 9.5 -93t28 -62t46 -34.5t64.5 -10.5t65 10.5t46.5 34.5t27.5 62.5t9 94.5q0 55 -9 93t-27.5 61.5t-46 34t-64.5 10.5
q-38 0 -65.5 -10.5t-46.5 -34t-28 -62t-9 -94.5zM521 772h-306v101h306v-101z" />
    <glyph glyph-name="Oslash" unicode="&#xd8;" horiz-adv-x="744" 
d="M4 0l85 97q-36 47 -52.5 110t-16.5 143q0 183 86 274t267 91q132 0 212 -50l31 35h127l-86 -99q35 -46 51.5 -109t16.5 -142q0 -184 -85.5 -274.5t-263.5 -90.5q-136 0 -217 50l-30 -35h-125zM372 149q37 0 64.5 10t46 33.5t27.5 62.5t9 96q0 50 -9 85l-230 -261
q17 -14 40 -20t52 -6zM372 550q-38 0 -65.5 -10.5t-46.5 -34t-28 -61.5t-9 -94q0 -53 10 -86l228 260q-33 26 -89 26z" />
    <glyph glyph-name="Otilde" unicode="&#xd5;" horiz-adv-x="745" 
d="M20 351q0 183 86 273.5t267 90.5q93 0 160 -23t109.5 -69t62.5 -114t20 -159q0 -183 -86.5 -274t-267.5 -91q-185 0 -268 92t-83 274zM223 349q0 -55 9.5 -93t28 -62t46 -34.5t64.5 -10.5t65 10.5t46.5 34.5t27.5 62.5t9 94.5q0 55 -9 93t-27.5 61.5t-46 34t-64.5 10.5
q-38 0 -65.5 -10.5t-46.5 -34t-28 -62t-9 -94.5zM561 896q3 -38 -6 -63.5t-25 -41t-37 -22t-41 -6.5q-23 0 -42.5 5t-37 10.5t-32.5 10.5t-30 5q-17 0 -22.5 -10.5t-5.5 -21.5h-109q-3 38 6 63.5t25 41t36.5 22t41.5 6.5q23 0 42.5 -5t37 -10.5t32.5 -10.5t30 -5
q18 0 23 9.5t5 22.5h109z" />
    <glyph glyph-name="Racute" unicode="&#x154;" horiz-adv-x="668" 
d="M44 700h373q60 0 104.5 -17.5t74.5 -49t45 -76t15 -97.5q0 -75 -28.5 -127.5t-80.5 -81.5l114 -251h-221l-88 213h-110v-213h-198v700zM242 536v-165h131q38 0 60 21.5t22 62.5q0 33 -18 57t-61 24h-134zM412 758h-147v5l84 136h199v-7z" />
    <glyph glyph-name="Rcaron" unicode="&#x158;" horiz-adv-x="668" 
d="M44 700h373q60 0 104.5 -17.5t74.5 -49t45 -76t15 -97.5q0 -75 -28.5 -127.5t-80.5 -81.5l114 -251h-221l-88 213h-110v-213h-198v700zM242 536v-165h131q38 0 60 21.5t22 62.5q0 33 -18 57t-61 24h-134zM416 899h140v-3l-124 -138h-156l-124 138v3h148l59 -52z" />
    <glyph glyph-name="Rcommaaccent" unicode="&#x156;" horiz-adv-x="668" 
d="M44 700h373q60 0 104.5 -17.5t74.5 -49t45 -76t15 -97.5q0 -75 -28.5 -127.5t-80.5 -81.5l114 -251h-221l-88 213h-110v-213h-198v700zM242 536v-165h131q38 0 60 21.5t22 62.5q0 33 -18 57t-61 24h-134zM248 -287q33 8 57 26.5t32 44.5q-44 0 -69 20.5t-25 59.5
q0 43 25 64.5t73 21.5q47 0 73.5 -27t26.5 -81q0 -39 -11.5 -72t-32.5 -59t-50.5 -42.5t-65.5 -22.5z" />
    <glyph glyph-name="Sacute" unicode="&#x15a;" horiz-adv-x="577" 
d="M425 490q-25 36 -56 54.5t-80 18.5q-53 0 -73 -16.5t-20 -39.5q0 -25 21.5 -40.5t71.5 -27.5l60 -15q63 -16 105.5 -38t68 -49.5t36.5 -60t11 -68.5q0 -104 -75 -163.5t-223 -59.5q-43 0 -85 6.5t-79.5 22.5t-68.5 42t-52 65l124 96q26 -47 65 -67.5t96 -20.5
q55 0 81.5 15.5t26.5 44.5q0 20 -17 35.5t-65 27.5l-63 16q-63 16 -105.5 41t-68.5 55.5t-37 65.5t-11 72q0 46 17 85.5t51.5 67.5t86.5 44t122 16q89 0 157 -29t108 -104zM346 756h-147v5l84 136h199v-7z" />
    <glyph glyph-name="Scaron" unicode="&#x160;" horiz-adv-x="577" 
d="M425 490q-25 36 -56 54.5t-80 18.5q-53 0 -73 -16.5t-20 -39.5q0 -25 21.5 -40.5t71.5 -27.5l60 -15q63 -16 105.5 -38t68 -49.5t36.5 -60t11 -68.5q0 -104 -75 -163.5t-223 -59.5q-43 0 -85 6.5t-79.5 22.5t-68.5 42t-52 65l124 96q26 -47 65 -67.5t96 -20.5
q55 0 81.5 15.5t26.5 44.5q0 20 -17 35.5t-65 27.5l-63 16q-63 16 -105.5 41t-68.5 55.5t-37 65.5t-11 72q0 46 17 85.5t51.5 67.5t86.5 44t122 16q89 0 157 -29t108 -104zM351 897h140v-3l-124 -138h-156l-124 138v3h148l59 -52z" />
    <glyph glyph-name="Scedilla" unicode="&#x15e;" horiz-adv-x="577" 
d="M274 -260q-48 0 -89 18t-64 56l60 62q16 -23 36.5 -35.5t49.5 -12.5q20 0 33.5 8t13.5 27q0 14 -13.5 24t-38.5 10q-6 0 -11.5 -1t-11.5 -2l-27 15l28 77q-39 2 -76 10.5t-70 24t-60.5 40.5t-46.5 60l124 96q26 -47 65 -67.5t96 -20.5q55 0 81.5 15.5t26.5 44.5
q0 20 -17 35.5t-65 27.5l-63 16q-63 16 -105.5 41t-68.5 55.5t-37 65.5t-11 72q0 46 17 85.5t51.5 67.5t86.5 44t122 16q89 0 157 -29t108 -104l-130 -92q-25 36 -56 54.5t-80 18.5q-53 0 -73 -16.5t-20 -39.5q0 -25 21.5 -40.5t71.5 -27.5l60 -15q63 -16 105.5 -38
t68 -49.5t36.5 -60t11 -68.5q0 -94 -60.5 -151.5t-179.5 -68.5l-15 -35h1q21 -2 40.5 -8.5t35 -18.5t24.5 -29.5t9 -39.5q0 -30 -12 -52t-33 -36.5t-48.5 -21.5t-57.5 -7z" />
    <glyph glyph-name="Scircumflex" unicode="&#x15c;" horiz-adv-x="577" 
d="M425 490q-25 36 -56 54.5t-80 18.5q-53 0 -73 -16.5t-20 -39.5q0 -25 21.5 -40.5t71.5 -27.5l60 -15q63 -16 105.5 -38t68 -49.5t36.5 -60t11 -68.5q0 -104 -75 -163.5t-223 -59.5q-43 0 -85 6.5t-79.5 22.5t-68.5 42t-52 65l124 96q26 -47 65 -67.5t96 -20.5
q55 0 81.5 15.5t26.5 44.5q0 20 -17 35.5t-65 27.5l-63 16q-63 16 -105.5 41t-68.5 55.5t-37 65.5t-11 72q0 46 17 85.5t51.5 67.5t86.5 44t122 16q89 0 157 -29t108 -104zM228 756h-141v4l124 137h155l125 -137v-4h-149l-58 52z" />
    <glyph glyph-name="Scommaaccent" unicode="&#x218;" horiz-adv-x="577" 
d="M425 490q-25 36 -56 54.5t-80 18.5q-53 0 -73 -16.5t-20 -39.5q0 -25 21.5 -40.5t71.5 -27.5l60 -15q63 -16 105.5 -38t68 -49.5t36.5 -60t11 -68.5q0 -104 -75 -163.5t-223 -59.5q-43 0 -85 6.5t-79.5 22.5t-68.5 42t-52 65l124 96q26 -47 65 -67.5t96 -20.5
q55 0 81.5 15.5t26.5 44.5q0 20 -17 35.5t-65 27.5l-63 16q-63 16 -105.5 41t-68.5 55.5t-37 65.5t-11 72q0 46 17 85.5t51.5 67.5t86.5 44t122 16q89 0 157 -29t108 -104zM190 -288q33 8 57 26.5t32 44.5q-44 0 -69 20.5t-25 59.5q0 43 25 64.5t73 21.5q47 0 73.5 -27
t26.5 -81q0 -39 -11.5 -72t-32.5 -59t-50.5 -42.5t-65.5 -22.5z" />
    <glyph glyph-name="Tbar" unicode="&#x166;" horiz-adv-x="625" 
d="M413 262v-262h-201v262h-155v140h155v138h-207v160h615v-160h-207v-138h158v-140h-158z" />
    <glyph glyph-name="Tcaron" unicode="&#x164;" horiz-adv-x="625" 
d="M620 700v-160h-207v-540h-201v540h-207v160h615zM375 899h140v-3l-124 -138h-156l-124 138v3h148l59 -52z" />
    <glyph glyph-name="Tcommaaccent" unicode="&#x162;" horiz-adv-x="625" 
d="M620 700v-160h-207v-540h-201v540h-207v160h615zM223 -287q33 8 57 26.5t32 44.5q-44 0 -69 20.5t-25 59.5q0 43 25 64.5t73 21.5q47 0 73.5 -27t26.5 -81q0 -39 -11.5 -72t-32.5 -59t-50.5 -42.5t-65.5 -22.5z" />
    <glyph glyph-name="Thorn" unicode="&#xde;" horiz-adv-x="654" 
d="M44 700h202v-96h152q61 0 106.5 -18.5t76 -52.5t46 -80.5t15.5 -103.5q0 -60 -19.5 -106.5t-54.5 -78t-85 -48t-110 -16.5h-127v-100h-202v700zM246 435v-173h114q39 0 61 23t22 66q0 16 -4.5 31t-14.5 27t-26 19t-39 7h-113z" />
    <glyph glyph-name="Uacute" unicode="&#xda;" horiz-adv-x="721" 
d="M482 700h201v-410q0 -83 -22 -141t-63 -94.5t-100.5 -53t-135.5 -16.5q-158 0 -241 71.5t-83 233.5v410h201v-421q0 -63 31.5 -95.5t90.5 -32.5t90 32.5t31 95.5v421zM420 758h-147v5l84 136h199v-7z" />
    <glyph glyph-name="Ubreve" unicode="&#x16c;" horiz-adv-x="721" 
d="M482 700h201v-410q0 -83 -22 -141t-63 -94.5t-100.5 -53t-135.5 -16.5q-158 0 -241 71.5t-83 233.5v410h201v-421q0 -63 31.5 -95.5t90.5 -32.5t90 32.5t31 95.5v421zM547 898q0 -42 -12.5 -70.5t-36.5 -46t-58.5 -24.5t-78.5 -7t-78.5 7t-58 24.5t-36 46t-12.5 70.5h112
q0 -35 17.5 -47t55.5 -12t55.5 12t17.5 47h113z" />
    <glyph glyph-name="Ucircumflex" unicode="&#xdb;" horiz-adv-x="721" 
d="M482 700h201v-410q0 -83 -22 -141t-63 -94.5t-100.5 -53t-135.5 -16.5q-158 0 -241 71.5t-83 233.5v410h201v-421q0 -63 31.5 -95.5t90.5 -32.5t90 32.5t31 95.5v421zM301 758h-141v4l124 137h155l125 -137v-4h-149l-58 52z" />
    <glyph glyph-name="Udieresis" unicode="&#xdc;" horiz-adv-x="721" 
d="M482 700h201v-410q0 -83 -22 -141t-63 -94.5t-100.5 -53t-135.5 -16.5q-158 0 -241 71.5t-83 233.5v410h201v-421q0 -63 31.5 -95.5t90.5 -32.5t90 32.5t31 95.5v421zM151 837q0 43 25 63t70 20q46 0 70.5 -20t24.5 -63q0 -45 -24.5 -64.5t-70.5 -19.5q-45 0 -70 19.5
t-25 64.5zM380 837q0 43 25 63t71 20t70.5 -20t24.5 -63q0 -45 -24.5 -64.5t-70.5 -19.5t-71 19.5t-25 64.5z" />
    <glyph glyph-name="Ugrave" unicode="&#xd9;" horiz-adv-x="721" 
d="M482 700h201v-410q0 -83 -22 -141t-63 -94.5t-100.5 -53t-135.5 -16.5q-158 0 -241 71.5t-83 233.5v410h201v-421q0 -63 31.5 -95.5t90.5 -32.5t90 32.5t31 95.5v421zM163 893v7h206l81 -136v-5h-151z" />
    <glyph glyph-name="Uhungarumlaut" unicode="&#x170;" horiz-adv-x="721" 
d="M482 700h201v-410q0 -83 -22 -141t-63 -94.5t-100.5 -53t-135.5 -16.5q-158 0 -241 71.5t-83 233.5v410h201v-421q0 -63 31.5 -95.5t90.5 -32.5t90 32.5t31 95.5v421zM303 758h-124v5l70 136h177v-7zM519 758h-137v5l79 136h192v-5z" />
    <glyph glyph-name="Umacron" unicode="&#x16a;" horiz-adv-x="721" 
d="M482 700h201v-410q0 -83 -22 -141t-63 -94.5t-100.5 -53t-135.5 -16.5q-158 0 -241 71.5t-83 233.5v410h201v-421q0 -63 31.5 -95.5t90.5 -32.5t90 32.5t31 95.5v421zM514 772h-306v101h306v-101z" />
    <glyph glyph-name="Uogonek" unicode="&#x172;" horiz-adv-x="722" 
d="M345 -98q0 24 6 45t17 38h-9q-78 0 -138 17.5t-100.5 54.5t-61.5 94.5t-21 138.5v410h203v-421q0 -63 31 -95t89 -32q59 0 89.5 32t30.5 95v421h203v-410q0 -61 -11.5 -107t-34 -80.5t-55.5 -58.5t-76 -39q-31 -11 -43 -33t-12 -46q0 -35 20 -48.5t45 -13.5q37 0 69 18
l26 -90q-45 -29 -108 -29q-29 0 -57.5 7t-51 23t-36.5 43t-14 66z" />
    <glyph glyph-name="Uring" unicode="&#x16e;" horiz-adv-x="721" 
d="M482 700h201v-410q0 -83 -22 -141t-63 -94.5t-100.5 -53t-135.5 -16.5q-158 0 -241 71.5t-83 233.5v410h201v-421q0 -63 31.5 -95.5t90.5 -32.5t90 32.5t31 95.5v421zM237 847q0 53 35 80.5t89 27.5t88.5 -27.5t34.5 -80.5q0 -54 -35 -81.5t-89 -27.5t-88.5 27.5
t-34.5 81.5zM317 847q0 -20 12 -31.5t31 -11.5q20 0 32 11.5t12 31.5t-12 30.5t-31 10.5q-20 0 -32 -10.5t-12 -30.5z" />
    <glyph glyph-name="Utilde" unicode="&#x168;" horiz-adv-x="721" 
d="M482 700h201v-410q0 -83 -22 -141t-63 -94.5t-100.5 -53t-135.5 -16.5q-158 0 -241 71.5t-83 233.5v410h201v-421q0 -63 31.5 -95.5t90.5 -32.5t90 32.5t31 95.5v421zM554 896q3 -38 -6 -63.5t-25 -41t-37 -22t-41 -6.5q-23 0 -42.5 5t-37 10.5t-32.5 10.5t-30 5
q-17 0 -22.5 -10.5t-5.5 -21.5h-109q-3 38 6 63.5t25 41t36.5 22t41.5 6.5q23 0 42.5 -5t37 -10.5t32.5 -10.5t30 -5q18 0 23 9.5t5 22.5h109z" />
    <glyph glyph-name="Wacute" unicode="&#x1e82;" horiz-adv-x="986" 
d="M581 699l106 -427l101 428h198l-196 -700h-198l-101 419l-103 -419h-193l-195 700h205l97 -424l107 423h172zM552 758h-147v5l84 136h199v-7z" />
    <glyph glyph-name="Wdieresis" unicode="&#x1e84;" horiz-adv-x="986" 
d="M581 699l106 -427l101 428h198l-196 -700h-198l-101 419l-103 -419h-193l-195 700h205l97 -424l107 423h172zM283 837q0 43 25 63t70 20q46 0 70.5 -20t24.5 -63q0 -45 -24.5 -64.5t-70.5 -19.5q-45 0 -70 19.5t-25 64.5zM512 837q0 43 25 63t71 20t70.5 -20t24.5 -63
q0 -45 -24.5 -64.5t-70.5 -19.5t-71 19.5t-25 64.5z" />
    <glyph glyph-name="Wgrave" unicode="&#x1e80;" horiz-adv-x="986" 
d="M581 699l106 -427l101 428h198l-196 -700h-198l-101 419l-103 -419h-193l-195 700h205l97 -424l107 423h172zM295 893v7h206l81 -136v-5h-151z" />
    <glyph glyph-name="Wcircumflex" unicode="&#x174;" horiz-adv-x="986" 
d="M581 699l106 -427l101 428h198l-196 -700h-198l-101 419l-103 -419h-193l-195 700h205l97 -424l107 423h172zM433 758h-141v4l124 137h155l125 -137v-4h-149l-58 52z" />
    <glyph glyph-name="Yacute" unicode="&#xdd;" horiz-adv-x="704" 
d="M0 700h224l135 -275l133 275h212l-251 -455v-245h-202v251zM411 758h-147v5l84 136h199v-7z" />
    <glyph glyph-name="Ycircumflex" unicode="&#x176;" horiz-adv-x="704" 
d="M0 700h224l135 -275l133 275h212l-251 -455v-245h-202v251zM292 758h-141v4l124 137h155l125 -137v-4h-149l-58 52z" />
    <glyph glyph-name="Ydieresis" unicode="&#x178;" horiz-adv-x="704" 
d="M0 700h224l135 -275l133 275h212l-251 -455v-245h-202v251zM142 837q0 43 25 63t70 20q46 0 70.5 -20t24.5 -63q0 -45 -24.5 -64.5t-70.5 -19.5q-45 0 -70 19.5t-25 64.5zM371 837q0 43 25 63t71 20t70.5 -20t24.5 -63q0 -45 -24.5 -64.5t-70.5 -19.5t-71 19.5t-25 64.5z
" />
    <glyph glyph-name="Zacute" unicode="&#x179;" horiz-adv-x="604" 
d="M6 120l332 423l-320 -4v161h567v-118l-330 -425l339 4v-161h-588v120zM359 758h-147v5l84 136h199v-7z" />
    <glyph glyph-name="Zcaron" unicode="&#x17d;" horiz-adv-x="604" 
d="M6 120l332 423l-320 -4v161h567v-118l-330 -425l339 4v-161h-588v120zM363 899h140v-3l-124 -138h-156l-124 138v3h148l59 -52z" />
    <glyph glyph-name="Zdotaccent" unicode="&#x17b;" horiz-adv-x="604" 
d="M6 120l332 423l-320 -4v161h567v-118l-330 -425l339 4v-161h-588v120zM199 837q0 45 26.5 65t74.5 20t74 -20t26 -65q0 -44 -26 -64t-74 -20t-74.5 20t-26.5 64z" />
    <glyph glyph-name="a" unicode="a" horiz-adv-x="598" 
d="M374 250q0 68 -24.5 96.5t-63.5 28.5q-40 0 -62 -29t-22 -97q0 -121 84 -121q40 0 64 29.5t24 92.5zM390 75q-26 -45 -67 -67.5t-95 -22.5q-96 0 -154 65t-58 193q0 70 16 121.5t45 85.5t69.5 50t89.5 16q113 0 159 -83l14 69h155v-502h-162z" />
    <glyph glyph-name="b" unicode="b" horiz-adv-x="601" 
d="M228 437q28 42 68.5 60.5t88.5 18.5q92 0 146 -63.5t54 -191.5q0 -62 -14 -113t-42.5 -87t-71 -56t-98.5 -20q-57 0 -100.5 21t-69.5 60l-10 -66h-145v700h194v-263zM224 247q0 -63 23.5 -92.5t64.5 -29.5q88 0 88 123q0 68 -23.5 96.5t-63.5 28.5q-41 0 -65 -29t-24 -97
z" />
    <glyph glyph-name="c" unicode="c" horiz-adv-x="505" 
d="M279 -15q-60 0 -108.5 15t-83 47t-53 82t-18.5 121q0 139 72 202.5t200 63.5q80 0 134.5 -26t87.5 -85l-132 -96q-15 32 -36 43.5t-50 11.5q-44 0 -67.5 -24t-23.5 -91q0 -57 19.5 -89t69.5 -32q72 0 94 58l131 -75q-32 -61 -89 -93.5t-147 -32.5z" />
    <glyph glyph-name="d" unicode="d" horiz-adv-x="602" 
d="M396 73q-25 -42 -66.5 -65t-101.5 -23q-47 0 -86 16.5t-67 48.5t-43.5 80.5t-15.5 112.5q0 68 16.5 119t45.5 85.5t70 51.5t89 17q46 0 80 -16t57 -45v245h194v-700h-162zM377 250q0 68 -25.5 96.5t-65.5 28.5q-39 0 -61.5 -29t-22.5 -97q0 -121 85 -121q40 0 65 29.5
t25 92.5z" />
    <glyph glyph-name="e" unicode="e" horiz-adv-x="548" 
d="M280 384q-33 0 -54.5 -20.5t-26.5 -59.5h152q-2 38 -20 59t-51 21zM288 -15q-62 0 -112 16t-85.5 48.5t-55 81.5t-19.5 115q0 63 18 113t52 85t83 53.5t112 18.5q67 0 115 -20.5t78 -55.5t44 -82t14 -101q0 -16 -1 -31t-3 -31h-328q7 -44 34 -63t73 -19q36 0 61 12t41 40
l112 -71q-32 -54 -92 -81.5t-141 -27.5z" />
    <glyph glyph-name="f" unicode="f" horiz-adv-x="387" 
d="M72 502v27q0 54 15 93t42.5 64.5t65 37.5t82.5 12q16 0 35 -2t37.5 -5.5t35 -10t28.5 -15.5l-34 -119q-12 8 -26.5 11.5t-28.5 3.5q-62 0 -62 -71v-26h125v-140h-125v-362h-190v362h-71v140h71z" />
    <glyph glyph-name="g" unicode="g" horiz-adv-x="593" 
d="M559 73q0 -64 -22 -111t-62 -78t-94.5 -46.5t-119.5 -15.5q-75 0 -135 20.5t-101 74.5l96 98q24 -32 58.5 -46.5t72.5 -14.5q113 0 113 115v24q-23 -38 -57.5 -58t-87.5 -20q-45 0 -82.5 15t-64.5 45.5t-42 77t-15 108.5q0 64 16 111.5t44.5 79.5t68.5 48t88 16
q109 0 156 -83l14 69h156v-429zM367 265q0 54 -24 82t-60 28q-40 0 -61.5 -28t-21.5 -83q0 -60 21 -87t62 -27q38 0 61 29t23 86z" />
    <glyph glyph-name="h" unicode="h" horiz-adv-x="610" 
d="M228 413q26 50 70.5 76.5t99.5 26.5q47 0 81 -15t56 -42t32.5 -63.5t10.5 -79.5v-316h-194v247q0 58 -18 79t-54 21t-59.5 -25t-24.5 -78v-244h-194v700h194v-287z" />
    <glyph glyph-name="i" unicode="i" 
d="M228 502v-502h-194v502h194zM24 641q0 50 28 72.5t80 22.5q51 0 78.5 -22.5t27.5 -72.5q0 -48 -27.5 -70.5t-78.5 -22.5q-52 0 -80 22.5t-28 70.5z" />
    <glyph glyph-name="j" unicode="j" 
d="M24 641q0 50 28 72.5t80 22.5q51 0 78.5 -22.5t27.5 -72.5q0 -48 -27.5 -70.5t-78.5 -22.5q-52 0 -80 22.5t-28 70.5zM34 502h194v-480q0 -51 -15.5 -88.5t-44 -62.5t-67.5 -37t-86 -12q-29 0 -62 6t-60 20l31 117q11 -1 23.5 -6t26.5 -5q32 0 46 17t14 56v475z" />
    <glyph glyph-name="k" unicode="k" horiz-adv-x="571" 
d="M34 700h194l-6 -407l158 209h205l-183 -222l186 -280h-211l-101 156l-51 -58v-98h-191v700z" />
    <glyph glyph-name="l" unicode="l" 
d="M228 0h-194v700h194v-700z" />
    <glyph glyph-name="m" unicode="m" horiz-adv-x="919" 
d="M34 502h158l16 -85q28 48 73 73.5t99 25.5q65 0 102.5 -32.5t51.5 -80.5q25 54 71 83.5t107 29.5q46 0 79.5 -15t54.5 -41.5t31 -62.5t10 -79v-318h-194v255q0 48 -13.5 69.5t-45.5 21.5t-54 -22.5t-22 -73.5v-250h-194v254q0 49 -15 70.5t-47 21.5t-52.5 -22.5
t-21.5 -73.5v-250h-194v502z" />
    <glyph glyph-name="n" unicode="n" horiz-adv-x="610" 
d="M193 502l15 -89q29 49 76 76t107 27q50 0 85.5 -15t58 -42t33 -63.5t10.5 -79.5v-316h-194v247q0 58 -18 79t-54 21t-59.5 -25t-24.5 -78v-244h-194v502h159z" />
    <glyph glyph-name="o" unicode="o" horiz-adv-x="580" 
d="M381 250q0 64 -21 93.5t-70 29.5q-50 0 -71 -29.5t-21 -93.5q0 -66 22 -95.5t70 -29.5t69.5 29.5t21.5 95.5zM16 251q0 68 19 118t54.5 82.5t86 48.5t114.5 16q138 0 206 -64t68 -201q0 -132 -69.5 -199t-204.5 -67q-274 0 -274 266z" />
    <glyph glyph-name="p" unicode="p" horiz-adv-x="601" 
d="M194 502l15 -86q29 49 75.5 74.5t98.5 25.5q98 0 150 -65.5t52 -190.5q0 -62 -14 -112.5t-42.5 -86.5t-71.5 -56t-101 -20q-82 0 -128 49v-202h-194v670h160zM224 247q0 -62 24.5 -92t62.5 -30q89 0 89 123q0 68 -23 96.5t-65 28.5q-38 0 -63 -29t-25 -97z" />
    <glyph glyph-name="q" unicode="q" horiz-adv-x="601" 
d="M373 -168v218q-51 -65 -143 -65q-96 0 -155 64.5t-59 192.5q0 70 16.5 122t46 85.5t70 50t89.5 16.5q55 0 95.5 -20.5t64.5 -62.5l13 69h156v-670h-194zM286 128q41 0 66 29.5t25 92.5q0 68 -25.5 96.5t-65.5 28.5q-39 0 -61.5 -29t-22.5 -96q0 -122 84 -122z" />
    <glyph glyph-name="r" unicode="r" horiz-adv-x="394" 
d="M34 502h159l16 -97q26 53 71 83t103 30l2 -184q-81 5 -118.5 -38.5t-38.5 -116.5v-179h-194v502z" />
    <glyph glyph-name="s" unicode="s" horiz-adv-x="469" 
d="M76 172q20 -29 61.5 -45t87.5 -16q58 0 58 25q0 13 -12.5 19.5t-39.5 13.5l-43 10q-34 8 -64.5 21.5t-54 34t-37 48.5t-13.5 66q0 36 13.5 66.5t41 53t69.5 35t100 12.5q72 0 130.5 -21.5t94.5 -68.5l-95 -98q-19 22 -50.5 37.5t-73.5 15.5q-25 0 -40 -6t-15 -20
q0 -22 54 -34l57 -13q82 -19 120 -57t38 -95q0 -33 -12.5 -63.5t-41 -54.5t-74 -38t-111.5 -14q-82 0 -142.5 23t-92.5 68z" />
    <glyph glyph-name="t" unicode="t" horiz-adv-x="370" 
d="M32 642h190v-140h129v-140h-129v-170q0 -67 64 -67q35 0 62 14l25 -115q-29 -17 -65 -26.5t-79 -9.5q-40 0 -76 9t-63 30t-42.5 56.5t-15.5 89.5v469z" />
    <glyph glyph-name="u" unicode="u" horiz-adv-x="605" 
d="M399 83q-27 -48 -72.5 -73t-101.5 -25q-52 0 -88.5 15t-60 40.5t-34 60.5t-10.5 75v326h194v-272q0 -48 16.5 -69.5t54.5 -21.5q32 0 56 25.5t25 76.5v261h193v-502h-157z" />
    <glyph glyph-name="v" unicode="v" horiz-adv-x="581" 
d="M200 502l95 -301l88 301h198l-192 -502h-198l-191 502h200z" />
    <glyph glyph-name="w" unicode="w" horiz-adv-x="811" 
d="M182 502l71 -268l78 267h151l80 -269l67 270h178l-154 -502h-172l-77 278l-76 -278h-171l-157 502h182z" />
    <glyph glyph-name="x" unicode="x" horiz-adv-x="589" 
d="M12 502h219l73 -132l71 132h202l-167 -252l179 -250h-220l-82 132l-85 -132h-202l181 254z" />
    <glyph glyph-name="y" unicode="y" horiz-adv-x="585" 
d="M199 -12l-199 514h200l96 -293l90 293h199l-213 -550q-15 -37 -36.5 -62t-49.5 -40t-62 -21.5t-72 -6.5t-66.5 5.5t-54.5 16.5l17 129q36 -18 74 -18q60 0 79 55z" />
    <glyph glyph-name="z" unicode="z" horiz-adv-x="489" 
d="M9 106l220 256h-216v140h451v-112l-217 -251h226v-139h-464v106z" />
    <glyph glyph-name="aacute" unicode="&#xe1;" horiz-adv-x="598" 
d="M374 250q0 68 -24.5 96.5t-63.5 28.5q-40 0 -62 -29t-22 -97q0 -121 84 -121q40 0 64 29.5t24 92.5zM390 75q-26 -45 -67 -67.5t-95 -22.5q-96 0 -154 65t-58 193q0 70 16 121.5t45 85.5t69.5 50t89.5 16q113 0 159 -83l14 69h155v-502h-162zM347 560h-147v5l84 136h199
v-7z" />
    <glyph glyph-name="abreve" unicode="&#x103;" horiz-adv-x="598" 
d="M374 250q0 68 -24.5 96.5t-63.5 28.5q-40 0 -62 -29t-22 -97q0 -121 84 -121q40 0 64 29.5t24 92.5zM390 75q-26 -45 -67 -67.5t-95 -22.5q-96 0 -154 65t-58 193q0 70 16 121.5t45 85.5t69.5 50t89.5 16q113 0 159 -83l14 69h155v-502h-162zM475 700q0 -42 -12.5 -70.5
t-36.5 -46t-58.5 -24.5t-78.5 -7t-78.5 7t-58 24.5t-36 46t-12.5 70.5h112q0 -35 17.5 -47t55.5 -12t55.5 12t17.5 47h113z" />
    <glyph glyph-name="acircumflex" unicode="&#xe2;" horiz-adv-x="598" 
d="M374 250q0 68 -24.5 96.5t-63.5 28.5q-40 0 -62 -29t-22 -97q0 -121 84 -121q40 0 64 29.5t24 92.5zM390 75q-26 -45 -67 -67.5t-95 -22.5q-96 0 -154 65t-58 193q0 70 16 121.5t45 85.5t69.5 50t89.5 16q113 0 159 -83l14 69h155v-502h-162zM229 560h-141v4l124 137h155
l125 -137v-4h-149l-58 52z" />
    <glyph glyph-name="adieresis" unicode="&#xe4;" horiz-adv-x="598" 
d="M374 250q0 68 -24.5 96.5t-63.5 28.5q-40 0 -62 -29t-22 -97q0 -121 84 -121q40 0 64 29.5t24 92.5zM390 75q-26 -45 -67 -67.5t-95 -22.5q-96 0 -154 65t-58 193q0 70 16 121.5t45 85.5t69.5 50t89.5 16q113 0 159 -83l14 69h155v-502h-162zM79 639q0 43 25 63t70 20
q46 0 70.5 -20t24.5 -63q0 -45 -24.5 -64.5t-70.5 -19.5q-45 0 -70 19.5t-25 64.5zM308 639q0 43 25 63t71 20t70.5 -20t24.5 -63q0 -45 -24.5 -64.5t-70.5 -19.5t-71 19.5t-25 64.5z" />
    <glyph glyph-name="ae" unicode="&#xe6;" horiz-adv-x="855" 
d="M190 -14q-84 0 -134.5 37.5t-50.5 108.5q0 43 17 75.5t47.5 54t72 32t90.5 10.5h86q-3 44 -28.5 57.5t-63.5 13.5q-45 0 -82 -13.5t-62 -40.5l-66 107q39 44 100 66t139 22q51 0 93 -14t71 -47q32 29 75.5 45t99.5 16q65 0 111.5 -20t76 -55t43.5 -81.5t14 -99.5
q0 -16 -1 -29t-3 -28h-326q5 -46 32 -68t74 -22q36 0 60.5 12t40.5 40l112 -71q-64 -109 -232 -109q-66 0 -117.5 20.5t-85.5 63.5q-30 -39 -81 -61t-122 -22zM237 101q38 0 60 24t22 68v10h-63q-79 0 -79 -56q0 -46 60 -46zM592 384q-34 0 -56 -19.5t-27 -60.5h155
q-6 80 -72 80z" />
    <glyph glyph-name="agrave" unicode="&#xe0;" horiz-adv-x="598" 
d="M374 250q0 68 -24.5 96.5t-63.5 28.5q-40 0 -62 -29t-22 -97q0 -121 84 -121q40 0 64 29.5t24 92.5zM390 75q-26 -45 -67 -67.5t-95 -22.5q-96 0 -154 65t-58 193q0 70 16 121.5t45 85.5t69.5 50t89.5 16q113 0 159 -83l14 69h155v-502h-162zM91 695v7h206l81 -136v-5
h-151z" />
    <glyph glyph-name="amacron" unicode="&#x101;" horiz-adv-x="598" 
d="M374 250q0 68 -24.5 96.5t-63.5 28.5q-40 0 -62 -29t-22 -97q0 -121 84 -121q40 0 64 29.5t24 92.5zM390 75q-26 -45 -67 -67.5t-95 -22.5q-96 0 -154 65t-58 193q0 70 16 121.5t45 85.5t69.5 50t89.5 16q113 0 159 -83l14 69h155v-502h-162zM441 574h-306v101h306v-101z
" />
    <glyph glyph-name="aogonek" unicode="&#x105;" horiz-adv-x="598" 
d="M374 250q0 68 -24.5 96.5t-63.5 28.5q-40 0 -62 -29t-22 -97q0 -121 84 -121q40 0 64 29.5t24 92.5zM601 -209q-47 -29 -108 -29q-29 0 -57.5 7t-51 22.5t-36.5 41.5t-14 65q0 41 17.5 72.5t46.5 51.5l-8 53q-26 -45 -67 -67.5t-95 -22.5q-96 0 -154 65t-58 193
q0 70 16 121.5t45 85.5t69.5 50t89.5 16q113 0 159 -83l14 69h155v-502h-35q-48 -4 -68 -29t-20 -56q0 -29 20 -40t46 -11q17 0 34.5 4t33.5 13z" />
    <glyph glyph-name="aring" unicode="&#xe5;" horiz-adv-x="598" 
d="M374 250q0 68 -24.5 96.5t-63.5 28.5q-40 0 -62 -29t-22 -97q0 -121 84 -121q40 0 64 29.5t24 92.5zM390 75q-26 -45 -67 -67.5t-95 -22.5q-96 0 -154 65t-58 193q0 70 16 121.5t45 85.5t69.5 50t89.5 16q113 0 159 -83l14 69h155v-502h-162zM165 649q0 53 35 80.5
t89 27.5t88.5 -27.5t34.5 -80.5q0 -54 -35 -81.5t-89 -27.5t-88.5 27.5t-34.5 81.5zM245 649q0 -20 12 -31.5t31 -11.5q20 0 32 11.5t12 31.5t-12 30.5t-31 10.5q-20 0 -32 -10.5t-12 -30.5z" />
    <glyph glyph-name="atilde" unicode="&#xe3;" horiz-adv-x="598" 
d="M374 250q0 68 -24.5 96.5t-63.5 28.5q-40 0 -62 -29t-22 -97q0 -121 84 -121q40 0 64 29.5t24 92.5zM390 75q-26 -45 -67 -67.5t-95 -22.5q-96 0 -154 65t-58 193q0 70 16 121.5t45 85.5t69.5 50t89.5 16q113 0 159 -83l14 69h155v-502h-162zM483 698q3 -38 -6 -63.5
t-25 -41t-37 -22t-41 -6.5q-23 0 -42.5 5t-37 10.5t-32.5 10.5t-30 5q-17 0 -22.5 -10.5t-5.5 -21.5h-109q-3 38 6 63.5t25 41t36.5 22t41.5 6.5q23 0 42.5 -5t37 -10.5t32.5 -10.5t30 -5q18 0 23 9.5t5 22.5h109z" />
    <glyph glyph-name="cacute" unicode="&#x107;" horiz-adv-x="505" 
d="M279 -15q-60 0 -108.5 15t-83 47t-53 82t-18.5 121q0 139 72 202.5t200 63.5q80 0 134.5 -26t87.5 -85l-132 -96q-15 32 -36 43.5t-50 11.5q-44 0 -67.5 -24t-23.5 -91q0 -57 19.5 -89t69.5 -32q72 0 94 58l131 -75q-32 -61 -89 -93.5t-147 -32.5zM349 560h-147v5l84 136
h199v-7z" />
    <glyph glyph-name="ccaron" unicode="&#x10d;" horiz-adv-x="505" 
d="M279 -15q-60 0 -108.5 15t-83 47t-53 82t-18.5 121q0 139 72 202.5t200 63.5q80 0 134.5 -26t87.5 -85l-132 -96q-15 32 -36 43.5t-50 11.5q-44 0 -67.5 -24t-23.5 -91q0 -57 19.5 -89t69.5 -32q72 0 94 58l131 -75q-32 -61 -89 -93.5t-147 -32.5zM354 701h140v-3
l-124 -138h-156l-124 138v3h148l59 -52z" />
    <glyph glyph-name="ccedilla" unicode="&#xe7;" horiz-adv-x="505" 
d="M276 -258q-48 0 -89 18t-64 56l60 62q16 -23 36.5 -35.5t49.5 -12.5q20 0 33.5 8t13.5 27q0 14 -13.5 24t-38.5 10q-6 0 -11.5 -1t-11.5 -2l-27 15l27 76q-51 4 -93 21.5t-71 49.5t-45 79.5t-16 112.5q0 139 72 202.5t200 63.5q80 0 134.5 -26t87.5 -85l-132 -96
q-15 32 -36 43.5t-50 11.5q-44 0 -67.5 -24t-23.5 -91q0 -57 19.5 -89t69.5 -32q72 0 94 58l131 -75q-27 -51 -72 -82.5t-112 -40.5l-14 -33h1q21 -2 40.5 -8.5t35 -18.5t24.5 -29.5t9 -39.5q0 -30 -12 -52t-33 -36.5t-48.5 -21.5t-57.5 -7z" />
    <glyph glyph-name="ccircumflex" unicode="&#x109;" horiz-adv-x="505" 
d="M279 -15q-60 0 -108.5 15t-83 47t-53 82t-18.5 121q0 139 72 202.5t200 63.5q80 0 134.5 -26t87.5 -85l-132 -96q-15 32 -36 43.5t-50 11.5q-44 0 -67.5 -24t-23.5 -91q0 -57 19.5 -89t69.5 -32q72 0 94 58l131 -75q-32 -61 -89 -93.5t-147 -32.5zM231 560h-141v4
l124 137h155l125 -137v-4h-149l-58 52z" />
    <glyph glyph-name="cdotaccent" unicode="&#x10b;" horiz-adv-x="505" 
d="M279 -15q-60 0 -108.5 15t-83 47t-53 82t-18.5 121q0 139 72 202.5t200 63.5q80 0 134.5 -26t87.5 -85l-132 -96q-15 32 -36 43.5t-50 11.5q-44 0 -67.5 -24t-23.5 -91q0 -57 19.5 -89t69.5 -32q72 0 94 58l131 -75q-32 -61 -89 -93.5t-147 -32.5zM190 639q0 45 26.5 65
t74.5 20t74 -20t26 -65q0 -44 -26 -64t-74 -20t-74.5 20t-26.5 64z" />
    <glyph glyph-name="dcaron" unicode="&#x10f;" horiz-adv-x="793" 
d="M628 421l7 279h150l-34 -279h-123zM396 73q-25 -42 -66.5 -65t-101.5 -23q-47 0 -86 16.5t-67 48.5t-43.5 80.5t-15.5 112.5q0 68 16.5 119t45.5 85.5t70 51.5t89 17q46 0 80 -16t57 -45v245h194v-700h-162zM377 250q0 68 -25.5 96.5t-65.5 28.5q-39 0 -61.5 -29
t-22.5 -97q0 -121 85 -121q40 0 65 29.5t25 92.5z" />
    <glyph glyph-name="dcroat" unicode="&#x111;" horiz-adv-x="606" 
d="M621 541h-55v-541h-162l-11 77q-25 -43 -66 -67.5t-101 -24.5q-47 0 -86 16t-67 48.5t-43.5 80t-15.5 110.5q0 66 16.5 116t45.5 83.5t70 50.5t89 17q89 0 136 -58v92h-120v95h120v64h195v-64h55v-95zM376 249q0 64 -25 92t-64 28q-40 0 -63.5 -28.5t-23.5 -91.5
q0 -121 87 -121q40 0 64.5 30.5t24.5 90.5z" />
    <glyph glyph-name="dotlessi" unicode="&#x131;" 
d="M228 502v-502h-194v502h194z" />
    <glyph glyph-name="dotlessj" unicode="&#x237;" 
d="M34 502h194v-480q0 -51 -15.5 -88.5t-44 -62.5t-67.5 -37t-86 -12q-29 0 -62 6t-60 20l31 117q11 -1 23.5 -6t26.5 -5q32 0 46 17t14 56v475z" />
    <glyph glyph-name="eacute" unicode="&#xe9;" horiz-adv-x="544" 
d="M280 384q-33 0 -54.5 -20.5t-26.5 -59.5h152q-2 38 -20 59t-51 21zM288 -15q-62 0 -112 16t-85.5 48.5t-55 81.5t-19.5 115q0 63 18 113t52 85t83 53.5t112 18.5q67 0 115 -20.5t78 -55.5t44 -82t14 -101q0 -16 -1 -31t-3 -31h-328q7 -44 34 -63t73 -19q36 0 61 12t41 40
l112 -71q-32 -54 -92 -81.5t-141 -27.5zM334 560h-147v5l84 136h199v-7z" />
    <glyph glyph-name="ebreve" unicode="&#x115;" horiz-adv-x="544" 
d="M280 384q-33 0 -54.5 -20.5t-26.5 -59.5h152q-2 38 -20 59t-51 21zM288 -15q-62 0 -112 16t-85.5 48.5t-55 81.5t-19.5 115q0 63 18 113t52 85t83 53.5t112 18.5q67 0 115 -20.5t78 -55.5t44 -82t14 -101q0 -16 -1 -31t-3 -31h-328q7 -44 34 -63t73 -19q36 0 61 12t41 40
l112 -71q-32 -54 -92 -81.5t-141 -27.5zM461 700q0 -42 -12.5 -70.5t-36.5 -46t-58.5 -24.5t-78.5 -7t-78.5 7t-58 24.5t-36 46t-12.5 70.5h112q0 -35 17.5 -47t55.5 -12t55.5 12t17.5 47h113z" />
    <glyph glyph-name="ecaron" unicode="&#x11b;" horiz-adv-x="544" 
d="M280 384q-33 0 -54.5 -20.5t-26.5 -59.5h152q-2 38 -20 59t-51 21zM288 -15q-62 0 -112 16t-85.5 48.5t-55 81.5t-19.5 115q0 63 18 113t52 85t83 53.5t112 18.5q67 0 115 -20.5t78 -55.5t44 -82t14 -101q0 -16 -1 -31t-3 -31h-328q7 -44 34 -63t73 -19q36 0 61 12t41 40
l112 -71q-32 -54 -92 -81.5t-141 -27.5zM338 701h140v-3l-124 -138h-156l-124 138v3h148l59 -52z" />
    <glyph glyph-name="ecircumflex" unicode="&#xea;" horiz-adv-x="544" 
d="M280 384q-33 0 -54.5 -20.5t-26.5 -59.5h152q-2 38 -20 59t-51 21zM288 -15q-62 0 -112 16t-85.5 48.5t-55 81.5t-19.5 115q0 63 18 113t52 85t83 53.5t112 18.5q67 0 115 -20.5t78 -55.5t44 -82t14 -101q0 -16 -1 -31t-3 -31h-328q7 -44 34 -63t73 -19q36 0 61 12t41 40
l112 -71q-32 -54 -92 -81.5t-141 -27.5zM215 560h-141v4l124 137h155l125 -137v-4h-149l-58 52z" />
    <glyph glyph-name="edieresis" unicode="&#xeb;" horiz-adv-x="544" 
d="M280 384q-33 0 -54.5 -20.5t-26.5 -59.5h152q-2 38 -20 59t-51 21zM288 -15q-62 0 -112 16t-85.5 48.5t-55 81.5t-19.5 115q0 63 18 113t52 85t83 53.5t112 18.5q67 0 115 -20.5t78 -55.5t44 -82t14 -101q0 -16 -1 -31t-3 -31h-328q7 -44 34 -63t73 -19q36 0 61 12t41 40
l112 -71q-32 -54 -92 -81.5t-141 -27.5zM65 639q0 43 25 63t70 20q46 0 70.5 -20t24.5 -63q0 -45 -24.5 -64.5t-70.5 -19.5q-45 0 -70 19.5t-25 64.5zM294 639q0 43 25 63t71 20t70.5 -20t24.5 -63q0 -45 -24.5 -64.5t-70.5 -19.5t-71 19.5t-25 64.5z" />
    <glyph glyph-name="edotaccent" unicode="&#x117;" horiz-adv-x="544" 
d="M280 384q-33 0 -54.5 -20.5t-26.5 -59.5h152q-2 38 -20 59t-51 21zM288 -15q-62 0 -112 16t-85.5 48.5t-55 81.5t-19.5 115q0 63 18 113t52 85t83 53.5t112 18.5q67 0 115 -20.5t78 -55.5t44 -82t14 -101q0 -16 -1 -31t-3 -31h-328q7 -44 34 -63t73 -19q36 0 61 12t41 40
l112 -71q-32 -54 -92 -81.5t-141 -27.5zM174 639q0 45 26.5 65t74.5 20t74 -20t26 -65q0 -44 -26 -64t-74 -20t-74.5 20t-26.5 64z" />
    <glyph glyph-name="egrave" unicode="&#xe8;" horiz-adv-x="544" 
d="M280 384q-33 0 -54.5 -20.5t-26.5 -59.5h152q-2 38 -20 59t-51 21zM288 -15q-62 0 -112 16t-85.5 48.5t-55 81.5t-19.5 115q0 63 18 113t52 85t83 53.5t112 18.5q67 0 115 -20.5t78 -55.5t44 -82t14 -101q0 -16 -1 -31t-3 -31h-328q7 -44 34 -63t73 -19q36 0 61 12t41 40
l112 -71q-32 -54 -92 -81.5t-141 -27.5zM77 695v7h206l81 -136v-5h-151z" />
    <glyph glyph-name="emacron" unicode="&#x113;" horiz-adv-x="544" 
d="M280 384q-33 0 -54.5 -20.5t-26.5 -59.5h152q-2 38 -20 59t-51 21zM288 -15q-62 0 -112 16t-85.5 48.5t-55 81.5t-19.5 115q0 63 18 113t52 85t83 53.5t112 18.5q67 0 115 -20.5t78 -55.5t44 -82t14 -101q0 -16 -1 -31t-3 -31h-328q7 -44 34 -63t73 -19q36 0 61 12t41 40
l112 -71q-32 -54 -92 -81.5t-141 -27.5zM428 574h-306v101h306v-101z" />
    <glyph glyph-name="eng" unicode="&#x14b;" horiz-adv-x="610" 
d="M384 247q0 58 -18 79t-54 21t-59.5 -25t-24.5 -78v-244h-194v502h159l16 -88q28 51 75 76.5t107 25.5q50 0 85.5 -15t58 -42t33 -63.5t10.5 -79.5v-294q0 -51 -15.5 -88.5t-43.5 -62.5t-67 -37t-86 -12q-29 0 -62 6t-60 20l31 122q21 -11 50 -11q32 0 45.5 16.5
t13.5 56.5v215z" />
    <glyph glyph-name="eogonek" unicode="&#x119;" horiz-adv-x="544" 
d="M222 -104q0 54 28 91q-107 9 -170.5 73t-63.5 186q0 63 18 113t52 85t83 53.5t112 18.5q66 0 113 -20.5t77 -55.5t43.5 -82t13.5 -101q0 -14 -1 -28t-3 -30h-326q7 -46 34.5 -66t72.5 -20q35 0 59.5 12t40.5 40l112 -71q-22 -38 -57 -63t-81 -36q-23 -11 -36.5 -29.5
t-13.5 -46.5q0 -33 20 -44t46 -11q17 0 34.5 4t34.5 13l25 -90q-46 -29 -107 -29q-30 0 -58.5 7t-51 22.5t-36.5 41t-14 63.5zM279 384q-34 0 -55.5 -20.5t-26.5 -61.5h156q-2 39 -20.5 60.5t-53.5 21.5z" />
    <glyph glyph-name="eth" unicode="&#xf0;" horiz-adv-x="582" 
d="M505 688l-63 -40q61 -60 92.5 -150.5t31.5 -200.5v-31q0 -149 -70 -215t-204 -66q-137 0 -206.5 64.5t-69.5 190.5q0 66 18 114t50.5 79t78.5 46t103 15q61 0 102 -29q-20 58 -58 97l-75 -48l-37 53l54 36q-21 12 -45.5 20.5t-52.5 14.5l41 118q113 -9 195 -65l78 51z
M382 239q0 63 -21.5 91.5t-69.5 28.5t-70 -28.5t-22 -91.5q0 -61 23 -88.5t69 -27.5t68.5 27.5t22.5 88.5z" />
    <glyph glyph-name="gbreve" unicode="&#x11f;" horiz-adv-x="593" 
d="M559 73q0 -64 -22 -111t-62 -78t-94.5 -46.5t-119.5 -15.5q-75 0 -135 20.5t-101 74.5l96 98q24 -32 58.5 -46.5t72.5 -14.5q113 0 113 115v24q-23 -38 -57.5 -58t-87.5 -20q-45 0 -82.5 15t-64.5 45.5t-42 77t-15 108.5q0 64 16 111.5t44.5 79.5t68.5 48t88 16
q109 0 156 -83l14 69h156v-429zM367 265q0 54 -24 82t-60 28q-40 0 -61.5 -28t-21.5 -83q0 -60 21 -87t62 -27q38 0 61 29t23 86zM463 700q0 -42 -12.5 -70.5t-36.5 -46t-58.5 -24.5t-78.5 -7t-78.5 7t-58 24.5t-36 46t-12.5 70.5h112q0 -35 17.5 -47t55.5 -12t55.5 12
t17.5 47h113z" />
    <glyph glyph-name="gcircumflex" unicode="&#x11d;" horiz-adv-x="593" 
d="M559 73q0 -64 -22 -111t-62 -78t-94.5 -46.5t-119.5 -15.5q-75 0 -135 20.5t-101 74.5l96 98q24 -32 58.5 -46.5t72.5 -14.5q113 0 113 115v24q-23 -38 -57.5 -58t-87.5 -20q-45 0 -82.5 15t-64.5 45.5t-42 77t-15 108.5q0 64 16 111.5t44.5 79.5t68.5 48t88 16
q109 0 156 -83l14 69h156v-429zM367 265q0 54 -24 82t-60 28q-40 0 -61.5 -28t-21.5 -83q0 -60 21 -87t62 -27q38 0 61 29t23 86zM217 560h-141v4l124 137h155l125 -137v-4h-149l-58 52z" />
    <glyph glyph-name="gcommaaccent" unicode="&#x123;" horiz-adv-x="593" 
d="M559 73q0 -64 -22 -111t-62 -78t-94.5 -46.5t-119.5 -15.5q-75 0 -135 20.5t-101 74.5l96 98q24 -32 58.5 -46.5t72.5 -14.5q113 0 113 115v24q-23 -38 -57.5 -58t-87.5 -20q-45 0 -82.5 15t-64.5 45.5t-42 77t-15 108.5q0 64 16 111.5t44.5 79.5t68.5 48t88 16
q109 0 156 -83l14 69h156v-429zM367 265q0 54 -24 82t-60 28q-40 0 -61.5 -28t-21.5 -83q0 -60 21 -87t62 -27q38 0 61 29t23 86zM369 792q-33 -8 -57 -26.5t-32 -44.5q44 0 69 -20.5t25 -59.5q0 -43 -25 -64.5t-73 -21.5q-47 0 -73.5 27t-26.5 81q0 39 11.5 72t32.5 59
t50.5 42.5t65.5 22.5z" />
    <glyph glyph-name="gdotaccent" unicode="&#x121;" horiz-adv-x="593" 
d="M559 73q0 -64 -22 -111t-62 -78t-94.5 -46.5t-119.5 -15.5q-75 0 -135 20.5t-101 74.5l96 98q24 -32 58.5 -46.5t72.5 -14.5q113 0 113 115v24q-23 -38 -57.5 -58t-87.5 -20q-45 0 -82.5 15t-64.5 45.5t-42 77t-15 108.5q0 64 16 111.5t44.5 79.5t68.5 48t88 16
q109 0 156 -83l14 69h156v-429zM367 265q0 54 -24 82t-60 28q-40 0 -61.5 -28t-21.5 -83q0 -60 21 -87t62 -27q38 0 61 29t23 86zM176 639q0 45 26.5 65t74.5 20t74 -20t26 -65q0 -44 -26 -64t-74 -20t-74.5 20t-26.5 64z" />
    <glyph glyph-name="germandbls" unicode="&#xdf;" horiz-adv-x="643" 
d="M293 294v144h39q38 0 60 20.5t22 53.5q0 38 -26 55.5t-64 17.5q-100 0 -100 -106v-479h-190v481q0 118 71.5 184t217.5 66q74 0 125.5 -15.5t84 -42.5t47 -63t14.5 -77q0 -55 -23.5 -91.5t-61.5 -58.5q63 -20 90.5 -68.5t27.5 -110.5q0 -51 -18 -90.5t-49.5 -66.5
t-75 -41t-94.5 -14q-30 0 -59.5 4t-52.5 14l13 133q23 -11 55 -11q40 0 67.5 20.5t27.5 62.5q0 39 -26 59t-69 20h-53z" />
    <glyph glyph-name="hbar" unicode="&#x127;" horiz-adv-x="612" 
d="M-19 636h56v64h193v-64h120v-95h-120v-137q26 51 71 78.5t100 27.5q82 0 130.5 -51t48.5 -152v-307h-194v234q0 59 -18 81t-53 22q-36 0 -60 -25t-25 -81v-231h-193v541h-56v95z" />
    <glyph glyph-name="hcircumflex" unicode="&#x125;" horiz-adv-x="610" 
d="M228 413q26 50 70.5 76.5t99.5 26.5q47 0 81 -15t56 -42t32.5 -63.5t10.5 -79.5v-316h-194v247q0 58 -18 79t-54 21t-59.5 -25t-24.5 -78v-244h-194v700h194v-287zM71 758h-141v4l124 137h155l125 -137v-4h-149l-58 52z" />
    <glyph glyph-name="iacute" unicode="&#xed;" 
d="M228 502v-502h-194v502h194zM190 560h-147v5l84 136h199v-7z" />
    <glyph glyph-name="ibreve" unicode="&#x12d;" 
d="M228 502v-502h-194v502h194zM317 700q0 -42 -12.5 -70.5t-36.5 -46t-58.5 -24.5t-78.5 -7t-78.5 7t-58 24.5t-36 46t-12.5 70.5h112q0 -35 17.5 -47t55.5 -12t55.5 12t17.5 47h113z" />
    <glyph glyph-name="icircumflex" unicode="&#xee;" 
d="M228 502v-502h-194v502h194zM71 560h-141v4l124 137h155l125 -137v-4h-149l-58 52z" />
    <glyph glyph-name="idieresis" unicode="&#xef;" 
d="M228 502v-502h-194v502h194zM-79 639q0 43 25 63t70 20q46 0 70.5 -20t24.5 -63q0 -45 -24.5 -64.5t-70.5 -19.5q-45 0 -70 19.5t-25 64.5zM150 639q0 43 25 63t71 20t70.5 -20t24.5 -63q0 -45 -24.5 -64.5t-70.5 -19.5t-71 19.5t-25 64.5z" />
    <glyph glyph-name="idotaccent" 
d="M228 502v-502h-194v502h194zM24 641q0 50 28 72.5t80 22.5q51 0 78.5 -22.5t27.5 -72.5q0 -48 -27.5 -70.5t-78.5 -22.5q-52 0 -80 22.5t-28 70.5z" />
    <glyph glyph-name="igrave" unicode="&#xec;" 
d="M228 502v-502h-194v502h194zM-67 695v7h206l81 -136v-5h-151z" />
    <glyph glyph-name="ij" unicode="&#x133;" horiz-adv-x="524" 
d="M228 502v-502h-194v502h194zM24 641q0 50 28 72.5t80 22.5q51 0 78.5 -22.5t27.5 -72.5q0 -48 -27.5 -70.5t-78.5 -22.5q-52 0 -80 22.5t-28 70.5zM286 641q0 50 28 72.5t80 22.5q51 0 78.5 -22.5t27.5 -72.5q0 -48 -27.5 -70.5t-78.5 -22.5q-52 0 -80 22.5t-28 70.5z
M296 502h194v-480q0 -51 -15.5 -88.5t-44 -62.5t-67.5 -37t-86 -12q-29 0 -62 6t-60 20l31 117q11 -1 23.5 -6t26.5 -5q32 0 46 17t14 56v475z" />
    <glyph glyph-name="imacron" unicode="&#x12b;" 
d="M228 502v-502h-194v502h194zM284 574h-306v101h306v-101z" />
    <glyph glyph-name="iogonek" unicode="&#x12f;" 
d="M24 641q0 50 28 72.5t80 22.5q51 0 78.5 -22.5t27.5 -72.5q0 -48 -27.5 -70.5t-78.5 -22.5q-52 0 -80 22.5t-28 70.5zM95 -238q-29 0 -57 7t-50.5 22.5t-36.5 41.5t-14 65q0 52 27.5 88t69.5 54v462h194v-502h-96q-48 -4 -68 -29t-20 -56q0 -29 20 -40t46 -11
q17 0 34.5 4t33.5 13l26 -90q-47 -29 -109 -29z" />
    <glyph glyph-name="itilde" unicode="&#x129;" 
d="M228 502v-502h-194v502h194zM325 698q3 -38 -6 -63.5t-25 -41t-37 -22t-41 -6.5q-23 0 -42.5 5t-37 10.5t-32.5 10.5t-30 5q-17 0 -22.5 -10.5t-5.5 -21.5h-109q-3 38 6 63.5t25 41t36.5 22t41.5 6.5q23 0 42.5 -5t37 -10.5t32.5 -10.5t30 -5q18 0 23 9.5t5 22.5h109z
" />
    <glyph glyph-name="jcircumflex" unicode="&#x135;" 
d="M34 502h194v-480q0 -51 -15.5 -88.5t-44 -62.5t-67.5 -37t-86 -12q-29 0 -62 6t-60 20l31 117q11 -1 23.5 -6t26.5 -5q32 0 46 17t14 56v475zM72 560h-141v4l124 137h155l125 -137v-4h-149l-58 52z" />
    <glyph glyph-name="kcommaaccent" unicode="&#x137;" horiz-adv-x="571" 
d="M34 700h194l-6 -407l158 209h205l-183 -222l186 -280h-211l-101 156l-51 -58v-98h-191v700zM209 -287q33 8 57 26.5t32 44.5q-44 0 -69 20.5t-25 59.5q0 43 25 64.5t73 21.5q47 0 73.5 -27t26.5 -81q0 -39 -11.5 -72t-32.5 -59t-50.5 -42.5t-65.5 -22.5z" />
    <glyph glyph-name="kgreenlandic" unicode="&#x138;" horiz-adv-x="571" 
d="M34 502h190l-2 -210l158 210h205l-183 -222l186 -280h-211l-101 155l-51 -57v-98h-191v502z" />
    <glyph glyph-name="lacute" unicode="&#x13a;" 
d="M228 0h-194v700h194v-700zM190 758h-147v5l84 136h199v-7z" />
    <glyph glyph-name="lcaron" unicode="&#x13e;" horiz-adv-x="463" 
d="M298 421l7 279h150l-34 -279h-123zM228 0h-194v700h194v-700z" />
    <glyph glyph-name="lcommaaccent" unicode="&#x13c;" 
d="M228 0h-194v700h194v-700zM43 -287q33 8 57 26.5t32 44.5q-44 0 -69 20.5t-25 59.5q0 43 25 64.5t73 21.5q47 0 73.5 -27t26.5 -81q0 -39 -11.5 -72t-32.5 -59t-50.5 -42.5t-65.5 -22.5z" />
    <glyph glyph-name="ldot" unicode="&#x140;" horiz-adv-x="476" 
d="M228 0h-194v700h194v-700zM271 294q0 45 26.5 65t74.5 20t74 -20t26 -65q0 -44 -26 -64t-74 -20t-74.5 20t-26.5 64z" />
    <glyph glyph-name="lslash" unicode="&#x142;" horiz-adv-x="339" 
d="M267 470l77 55v-151l-77 -54v-320h-194v203l-72 -51v151l72 51v346h194v-230z" />
    <glyph glyph-name="nacute" unicode="&#x144;" horiz-adv-x="610" 
d="M193 502l15 -89q29 49 76 76t107 27q50 0 85.5 -15t58 -42t33 -63.5t10.5 -79.5v-316h-194v247q0 58 -18 79t-54 21t-59.5 -25t-24.5 -78v-244h-194v502h159zM386 560h-147v5l84 136h199v-7z" />
    <glyph glyph-name="ncaron" unicode="&#x148;" horiz-adv-x="610" 
d="M193 502l15 -89q29 49 76 76t107 27q50 0 85.5 -15t58 -42t33 -63.5t10.5 -79.5v-316h-194v247q0 58 -18 79t-54 21t-59.5 -25t-24.5 -78v-244h-194v502h159zM390 701h140v-3l-124 -138h-156l-124 138v3h148l59 -52z" />
    <glyph glyph-name="ncommaaccent" unicode="&#x146;" horiz-adv-x="610" 
d="M193 502l15 -89q29 49 76 76t107 27q50 0 85.5 -15t58 -42t33 -63.5t10.5 -79.5v-316h-194v247q0 58 -18 79t-54 21t-59.5 -25t-24.5 -78v-244h-194v502h159zM218 -287q33 8 57 26.5t32 44.5q-44 0 -69 20.5t-25 59.5q0 43 25 64.5t73 21.5q47 0 73.5 -27t26.5 -81
q0 -39 -11.5 -72t-32.5 -59t-50.5 -42.5t-65.5 -22.5z" />
    <glyph glyph-name="ntilde" unicode="&#xf1;" horiz-adv-x="610" 
d="M193 502l15 -89q29 49 76 76t107 27q50 0 85.5 -15t58 -42t33 -63.5t10.5 -79.5v-316h-194v247q0 58 -18 79t-54 21t-59.5 -25t-24.5 -78v-244h-194v502h159zM520 698q3 -38 -6 -63.5t-25 -41t-37 -22t-41 -6.5q-23 0 -42.5 5t-37 10.5t-32.5 10.5t-30 5
q-17 0 -22.5 -10.5t-5.5 -21.5h-109q-3 38 6 63.5t25 41t36.5 22t41.5 6.5q23 0 42.5 -5t37 -10.5t32.5 -10.5t30 -5q18 0 23 9.5t5 22.5h109z" />
    <glyph glyph-name="oacute" unicode="&#xf3;" horiz-adv-x="580" 
d="M381 250q0 64 -21 93.5t-70 29.5q-50 0 -71 -29.5t-21 -93.5q0 -66 22 -95.5t70 -29.5t69.5 29.5t21.5 95.5zM16 251q0 68 19 118t54.5 82.5t86 48.5t114.5 16q138 0 206 -64t68 -201q0 -132 -69.5 -199t-204.5 -67q-274 0 -274 266zM349 560h-147v5l84 136h199v-7z" />
    <glyph glyph-name="obreve" unicode="&#x14f;" horiz-adv-x="580" 
d="M381 250q0 64 -21 93.5t-70 29.5q-50 0 -71 -29.5t-21 -93.5q0 -66 22 -95.5t70 -29.5t69.5 29.5t21.5 95.5zM16 251q0 68 19 118t54.5 82.5t86 48.5t114.5 16q138 0 206 -64t68 -201q0 -132 -69.5 -199t-204.5 -67q-274 0 -274 266zM477 700q0 -42 -12.5 -70.5
t-36.5 -46t-58.5 -24.5t-78.5 -7t-78.5 7t-58 24.5t-36 46t-12.5 70.5h112q0 -35 17.5 -47t55.5 -12t55.5 12t17.5 47h113z" />
    <glyph glyph-name="ocircumflex" unicode="&#xf4;" horiz-adv-x="580" 
d="M381 250q0 64 -21 93.5t-70 29.5q-50 0 -71 -29.5t-21 -93.5q0 -66 22 -95.5t70 -29.5t69.5 29.5t21.5 95.5zM16 251q0 68 19 118t54.5 82.5t86 48.5t114.5 16q138 0 206 -64t68 -201q0 -132 -69.5 -199t-204.5 -67q-274 0 -274 266zM231 560h-141v4l124 137h155
l125 -137v-4h-149l-58 52z" />
    <glyph glyph-name="odieresis" unicode="&#xf6;" horiz-adv-x="580" 
d="M381 250q0 64 -21 93.5t-70 29.5q-50 0 -71 -29.5t-21 -93.5q0 -66 22 -95.5t70 -29.5t69.5 29.5t21.5 95.5zM16 251q0 68 19 118t54.5 82.5t86 48.5t114.5 16q138 0 206 -64t68 -201q0 -132 -69.5 -199t-204.5 -67q-274 0 -274 266zM81 639q0 43 25 63t70 20
q46 0 70.5 -20t24.5 -63q0 -45 -24.5 -64.5t-70.5 -19.5q-45 0 -70 19.5t-25 64.5zM310 639q0 43 25 63t71 20t70.5 -20t24.5 -63q0 -45 -24.5 -64.5t-70.5 -19.5t-71 19.5t-25 64.5z" />
    <glyph glyph-name="oe" unicode="&#x153;" horiz-adv-x="913" 
d="M16 251q0 136 73.5 200.5t201.5 64.5q120 0 182 -56q68 56 177 56q66 0 113 -20.5t77 -55.5t43.5 -82t13.5 -101q0 -14 -1 -28t-3 -30h-326q7 -46 34.5 -66t72.5 -20q35 0 59.5 12t40.5 40l112 -71q-32 -55 -90.5 -82t-138.5 -27q-58 0 -105.5 13.5t-82.5 42.5
q-64 -56 -178 -56q-275 0 -275 266zM382 250q0 64 -21 93.5t-71 29.5q-49 0 -70 -29.5t-21 -93.5q0 -66 21.5 -95.5t69.5 -29.5t70 29.5t22 95.5zM648 384q-34 0 -55.5 -20.5t-26.5 -61.5h156q-2 39 -20.5 60.5t-53.5 21.5z" />
    <glyph glyph-name="ograve" unicode="&#xf2;" horiz-adv-x="580" 
d="M381 250q0 64 -21 93.5t-70 29.5q-50 0 -71 -29.5t-21 -93.5q0 -66 22 -95.5t70 -29.5t69.5 29.5t21.5 95.5zM16 251q0 68 19 118t54.5 82.5t86 48.5t114.5 16q138 0 206 -64t68 -201q0 -132 -69.5 -199t-204.5 -67q-274 0 -274 266zM93 695v7h206l81 -136v-5h-151z" />
    <glyph glyph-name="ohungarumlaut" unicode="&#x151;" horiz-adv-x="580" 
d="M381 250q0 64 -21 93.5t-70 29.5q-50 0 -71 -29.5t-21 -93.5q0 -66 22 -95.5t70 -29.5t69.5 29.5t21.5 95.5zM16 251q0 68 19 118t54.5 82.5t86 48.5t114.5 16q138 0 206 -64t68 -201q0 -132 -69.5 -199t-204.5 -67q-274 0 -274 266zM233 560h-124v5l70 136h177v-7z
M449 560h-137v5l79 136h192v-5z" />
    <glyph glyph-name="omacron" unicode="&#x14d;" horiz-adv-x="580" 
d="M381 250q0 64 -21 93.5t-70 29.5q-50 0 -71 -29.5t-21 -93.5q0 -66 22 -95.5t70 -29.5t69.5 29.5t21.5 95.5zM16 251q0 68 19 118t54.5 82.5t86 48.5t114.5 16q138 0 206 -64t68 -201q0 -132 -69.5 -199t-204.5 -67q-274 0 -274 266zM443 574h-306v101h306v-101z" />
    <glyph glyph-name="oslash" unicode="&#xf8;" horiz-adv-x="580" 
d="M517 426q47 -65 47 -175q0 -132 -69.5 -199t-204.5 -67q-103 0 -169 40l-25 -25h-105l74 75q-49 64 -49 176q0 68 19 118t54.5 82.5t86 48.5t114.5 16q106 0 172 -39l24 25h105zM384 250q0 8 -0.5 20.5t-2.5 18.5l-151 -154q21 -17 60 -17q50 0 72 31.5t22 100.5z
M349 363q-23 17 -59 17q-52 0 -73.5 -31.5t-21.5 -98.5q0 -10 1 -22t3 -18z" />
    <glyph glyph-name="otilde" unicode="&#xf5;" horiz-adv-x="580" 
d="M381 250q0 64 -21 93.5t-70 29.5q-50 0 -71 -29.5t-21 -93.5q0 -66 22 -95.5t70 -29.5t69.5 29.5t21.5 95.5zM16 251q0 68 19 118t54.5 82.5t86 48.5t114.5 16q138 0 206 -64t68 -201q0 -132 -69.5 -199t-204.5 -67q-274 0 -274 266zM485 698q3 -38 -6 -63.5t-25 -41
t-37 -22t-41 -6.5q-23 0 -42.5 5t-37 10.5t-32.5 10.5t-30 5q-17 0 -22.5 -10.5t-5.5 -21.5h-109q-3 38 6 63.5t25 41t36.5 22t41.5 6.5q23 0 42.5 -5t37 -10.5t32.5 -10.5t30 -5q18 0 23 9.5t5 22.5h109z" />
    <glyph glyph-name="racute" unicode="&#x155;" horiz-adv-x="394" 
d="M34 502h159l16 -97q26 53 71 83t103 30l2 -184q-81 5 -118.5 -38.5t-38.5 -116.5v-179h-194v502zM348 560h-147v5l84 136h199v-7z" />
    <glyph glyph-name="rcaron" unicode="&#x159;" horiz-adv-x="394" 
d="M34 502h159l16 -97q26 53 71 83t103 30l2 -184q-81 5 -118.5 -38.5t-38.5 -116.5v-179h-194v502zM353 701h140v-3l-124 -138h-156l-124 138v3h148l59 -52z" />
    <glyph glyph-name="rcommaaccent" unicode="&#x157;" horiz-adv-x="394" 
d="M34 502h159l16 -97q26 53 71 83t103 30l2 -184q-81 5 -118.5 -38.5t-38.5 -116.5v-179h-194v502zM42 -287q33 8 57 26.5t32 44.5q-44 0 -69 20.5t-25 59.5q0 43 25 64.5t73 21.5q47 0 73.5 -27t26.5 -81q0 -39 -11.5 -72t-32.5 -59t-50.5 -42.5t-65.5 -22.5z" />
    <glyph glyph-name="sacute" unicode="&#x15b;" horiz-adv-x="469" 
d="M76 172q20 -29 61.5 -45t87.5 -16q58 0 58 25q0 13 -12.5 19.5t-39.5 13.5l-43 10q-34 8 -64.5 21.5t-54 34t-37 48.5t-13.5 66q0 36 13.5 66.5t41 53t69.5 35t100 12.5q72 0 130.5 -21.5t94.5 -68.5l-95 -98q-19 22 -50.5 37.5t-73.5 15.5q-25 0 -40 -6t-15 -20
q0 -22 54 -34l57 -13q82 -19 120 -57t38 -95q0 -33 -12.5 -63.5t-41 -54.5t-74 -38t-111.5 -14q-82 0 -142.5 23t-92.5 68zM296 560h-147v5l84 136h199v-7z" />
    <glyph glyph-name="scaron" unicode="&#x161;" horiz-adv-x="469" 
d="M76 172q20 -29 61.5 -45t87.5 -16q58 0 58 25q0 13 -12.5 19.5t-39.5 13.5l-43 10q-34 8 -64.5 21.5t-54 34t-37 48.5t-13.5 66q0 36 13.5 66.5t41 53t69.5 35t100 12.5q72 0 130.5 -21.5t94.5 -68.5l-95 -98q-19 22 -50.5 37.5t-73.5 15.5q-25 0 -40 -6t-15 -20
q0 -22 54 -34l57 -13q82 -19 120 -57t38 -95q0 -33 -12.5 -63.5t-41 -54.5t-74 -38t-111.5 -14q-82 0 -142.5 23t-92.5 68zM300 701h140v-3l-124 -138h-156l-124 138v3h148l59 -52z" />
    <glyph glyph-name="scedilla" unicode="&#x15f;" horiz-adv-x="469" 
d="M213 -258q-48 0 -89 18t-64 56l60 62q16 -23 36.5 -35.5t49.5 -12.5q20 0 33.5 8t13.5 27q0 14 -13.5 24t-38.5 10q-6 0 -11.5 -1t-11.5 -2l-27 15l28 77q-66 5 -114.5 28t-75.5 61l87 95q20 -29 61.5 -45t87.5 -16q58 0 58 25q0 13 -12.5 19.5t-39.5 13.5l-43 10
q-34 8 -64.5 21.5t-54 34t-37 48.5t-13.5 66q0 36 13.5 66.5t41 53t69.5 35t100 12.5q72 0 130.5 -21.5t94.5 -68.5l-95 -98q-19 22 -50.5 37.5t-73.5 15.5q-25 0 -40 -6t-15 -20q0 -22 54 -34l57 -13q82 -19 120 -57t38 -95q0 -30 -10.5 -58t-34 -51t-60.5 -38.5t-90 -20.5
l-14 -33h1q21 -2 40.5 -8.5t35 -18.5t24.5 -29.5t9 -39.5q0 -30 -12 -52t-33 -36.5t-48.5 -21.5t-57.5 -7z" />
    <glyph glyph-name="scircumflex" unicode="&#x15d;" horiz-adv-x="469" 
d="M76 172q20 -29 61.5 -45t87.5 -16q58 0 58 25q0 13 -12.5 19.5t-39.5 13.5l-43 10q-34 8 -64.5 21.5t-54 34t-37 48.5t-13.5 66q0 36 13.5 66.5t41 53t69.5 35t100 12.5q72 0 130.5 -21.5t94.5 -68.5l-95 -98q-19 22 -50.5 37.5t-73.5 15.5q-25 0 -40 -6t-15 -20
q0 -22 54 -34l57 -13q82 -19 120 -57t38 -95q0 -33 -12.5 -63.5t-41 -54.5t-74 -38t-111.5 -14q-82 0 -142.5 23t-92.5 68zM177 560h-141v4l124 137h155l125 -137v-4h-149l-58 52z" />
    <glyph glyph-name="scommaaccent" unicode="&#x219;" horiz-adv-x="469" 
d="M76 172q20 -29 61.5 -45t87.5 -16q58 0 58 25q0 13 -12.5 19.5t-39.5 13.5l-43 10q-34 8 -64.5 21.5t-54 34t-37 48.5t-13.5 66q0 36 13.5 66.5t41 53t69.5 35t100 12.5q72 0 130.5 -21.5t94.5 -68.5l-95 -98q-19 22 -50.5 37.5t-73.5 15.5q-25 0 -40 -6t-15 -20
q0 -22 54 -34l57 -13q82 -19 120 -57t38 -95q0 -33 -12.5 -63.5t-41 -54.5t-74 -38t-111.5 -14q-82 0 -142.5 23t-92.5 68zM129 -287q33 8 57 26.5t32 44.5q-44 0 -69 20.5t-25 59.5q0 43 25 64.5t73 21.5q47 0 73.5 -27t26.5 -81q0 -39 -11.5 -72t-32.5 -59t-50.5 -42.5
t-65.5 -22.5z" />
    <glyph glyph-name="tbar" unicode="&#x167;" horiz-adv-x="422" 
d="M403 362h-129v-51h128v-96h-128v-32q3 -61 64 -61q17 0 32.5 3.5t29.5 11.5l25 -116q-29 -17 -65 -26.5t-79 -9.5q-40 0 -76 9t-63 30t-42.5 56.5t-15.5 89.5v45h-71v96h71v51h-71v140h71v140h190v-140h129v-140z" />
    <glyph glyph-name="tcaron" unicode="&#x165;" horiz-adv-x="370" 
d="M285 554l7 197h135l-24 -197h-118zM32 642h190v-140h129v-140h-129v-170q0 -67 64 -67q35 0 62 14l25 -115q-29 -17 -65 -26.5t-79 -9.5q-40 0 -76 9t-63 30t-42.5 56.5t-15.5 89.5v469z" />
    <glyph glyph-name="tcommaaccent" unicode="&#x163;" horiz-adv-x="370" 
d="M32 642h190v-140h129v-140h-129v-170q0 -67 64 -67q35 0 62 14l25 -115q-29 -17 -65 -26.5t-79 -9.5q-40 0 -76 9t-63 30t-42.5 56.5t-15.5 89.5v469zM136 -287q33 8 57 26.5t32 44.5q-44 0 -69 20.5t-25 59.5q0 43 25 64.5t73 21.5q47 0 73.5 -27t26.5 -81
q0 -39 -11.5 -72t-32.5 -59t-50.5 -42.5t-65.5 -22.5z" />
    <glyph glyph-name="thorn" unicode="&#xfe;" horiz-adv-x="601" 
d="M228 441q26 39 67.5 57t87.5 18q98 0 150 -65.5t52 -190.5q0 -62 -14 -112.5t-42.5 -86.5t-71.5 -56t-101 -20q-84 0 -128 52v-205h-194v868h194v-259zM224 247q0 -62 24.5 -92t62.5 -30q89 0 89 123q0 68 -23 96.5t-65 28.5q-38 0 -63 -29t-25 -97z" />
    <glyph glyph-name="uacute" unicode="&#xfa;" horiz-adv-x="605" 
d="M399 83q-27 -48 -72.5 -73t-101.5 -25q-52 0 -88.5 15t-60 40.5t-34 60.5t-10.5 75v326h194v-272q0 -48 16.5 -69.5t54.5 -21.5q32 0 56 25.5t25 76.5v261h193v-502h-157zM360 560h-147v5l84 136h199v-7z" />
    <glyph glyph-name="ubreve" unicode="&#x16d;" horiz-adv-x="605" 
d="M399 83q-27 -48 -72.5 -73t-101.5 -25q-52 0 -88.5 15t-60 40.5t-34 60.5t-10.5 75v326h194v-272q0 -48 16.5 -69.5t54.5 -21.5q32 0 56 25.5t25 76.5v261h193v-502h-157zM487 700q0 -42 -12.5 -70.5t-36.5 -46t-58.5 -24.5t-78.5 -7t-78.5 7t-58 24.5t-36 46t-12.5 70.5
h112q0 -35 17.5 -47t55.5 -12t55.5 12t17.5 47h113z" />
    <glyph glyph-name="ucircumflex" unicode="&#xfb;" horiz-adv-x="605" 
d="M399 83q-27 -48 -72.5 -73t-101.5 -25q-52 0 -88.5 15t-60 40.5t-34 60.5t-10.5 75v326h194v-272q0 -48 16.5 -69.5t54.5 -21.5q32 0 56 25.5t25 76.5v261h193v-502h-157zM241 560h-141v4l124 137h155l125 -137v-4h-149l-58 52z" />
    <glyph glyph-name="udieresis" unicode="&#xfc;" horiz-adv-x="605" 
d="M399 83q-27 -48 -72.5 -73t-101.5 -25q-52 0 -88.5 15t-60 40.5t-34 60.5t-10.5 75v326h194v-272q0 -48 16.5 -69.5t54.5 -21.5q32 0 56 25.5t25 76.5v261h193v-502h-157zM92 639q0 43 25 63t70 20q46 0 70.5 -20t24.5 -63q0 -45 -24.5 -64.5t-70.5 -19.5q-45 0 -70 19.5
t-25 64.5zM321 639q0 43 25 63t71 20t70.5 -20t24.5 -63q0 -45 -24.5 -64.5t-70.5 -19.5t-71 19.5t-25 64.5z" />
    <glyph glyph-name="ugrave" unicode="&#xf9;" horiz-adv-x="605" 
d="M399 83q-27 -48 -72.5 -73t-101.5 -25q-52 0 -88.5 15t-60 40.5t-34 60.5t-10.5 75v326h194v-272q0 -48 16.5 -69.5t54.5 -21.5q32 0 56 25.5t25 76.5v261h193v-502h-157zM104 695v7h206l81 -136v-5h-151z" />
    <glyph glyph-name="uhungarumlaut" unicode="&#x171;" horiz-adv-x="605" 
d="M399 83q-27 -48 -72.5 -73t-101.5 -25q-52 0 -88.5 15t-60 40.5t-34 60.5t-10.5 75v326h194v-272q0 -48 16.5 -69.5t54.5 -21.5q32 0 56 25.5t25 76.5v261h193v-502h-157zM244 560h-124v5l70 136h177v-7zM460 560h-137v5l79 136h192v-5z" />
    <glyph glyph-name="umacron" unicode="&#x16b;" horiz-adv-x="605" 
d="M399 83q-27 -48 -72.5 -73t-101.5 -25q-52 0 -88.5 15t-60 40.5t-34 60.5t-10.5 75v326h194v-272q0 -48 16.5 -69.5t54.5 -21.5q32 0 56 25.5t25 76.5v261h193v-502h-157zM454 574h-306v101h306v-101z" />
    <glyph glyph-name="uogonek" unicode="&#x173;" horiz-adv-x="605" 
d="M509 -238q-29 0 -57.5 7t-51 22.5t-36.5 41.5t-14 65q0 40 17 69.5t43 49.5l-11 66q-27 -48 -72.5 -73t-101.5 -25q-52 0 -88.5 15t-60 40.5t-34 60.5t-10.5 75v326h194v-272q0 -48 16.5 -69.5t54.5 -21.5q32 0 56 25.5t25 76.5v261h193v-502q-35 0 -57 -7.5t-35 -19.5
t-17.5 -27.5t-4.5 -30.5q0 -29 20 -40t46 -11q17 0 34.5 4t34.5 13l25 -90q-46 -29 -108 -29z" />
    <glyph glyph-name="uring" unicode="&#x16f;" horiz-adv-x="605" 
d="M399 83q-27 -48 -72.5 -73t-101.5 -25q-52 0 -88.5 15t-60 40.5t-34 60.5t-10.5 75v326h194v-272q0 -48 16.5 -69.5t54.5 -21.5q32 0 56 25.5t25 76.5v261h193v-502h-157zM177 649q0 53 35 80.5t89 27.5t88.5 -27.5t34.5 -80.5q0 -54 -35 -81.5t-89 -27.5t-88.5 27.5
t-34.5 81.5zM257 649q0 -20 12 -31.5t31 -11.5q20 0 32 11.5t12 31.5t-12 30.5t-31 10.5q-20 0 -32 -10.5t-12 -30.5z" />
    <glyph glyph-name="utilde" unicode="&#x169;" horiz-adv-x="605" 
d="M399 83q-27 -48 -72.5 -73t-101.5 -25q-52 0 -88.5 15t-60 40.5t-34 60.5t-10.5 75v326h194v-272q0 -48 16.5 -69.5t54.5 -21.5q32 0 56 25.5t25 76.5v261h193v-502h-157zM494 698q3 -38 -6 -63.5t-25 -41t-37 -22t-41 -6.5q-23 0 -42.5 5t-37 10.5t-32.5 10.5t-30 5
q-17 0 -22.5 -10.5t-5.5 -21.5h-109q-3 38 6 63.5t25 41t36.5 22t41.5 6.5q23 0 42.5 -5t37 -10.5t32.5 -10.5t30 -5q18 0 23 9.5t5 22.5h109z" />
    <glyph glyph-name="wacute" unicode="&#x1e83;" horiz-adv-x="811" 
d="M182 502l71 -268l78 267h151l80 -269l67 270h178l-154 -502h-172l-77 278l-76 -278h-171l-157 502h182zM457 560h-147v5l84 136h199v-7z" />
    <glyph glyph-name="wdieresis" unicode="&#x1e85;" horiz-adv-x="811" 
d="M182 502l71 -268l78 267h151l80 -269l67 270h178l-154 -502h-172l-77 278l-76 -278h-171l-157 502h182zM188 639q0 43 25 63t70 20q46 0 70.5 -20t24.5 -63q0 -45 -24.5 -64.5t-70.5 -19.5q-45 0 -70 19.5t-25 64.5zM417 639q0 43 25 63t71 20t70.5 -20t24.5 -63
q0 -45 -24.5 -64.5t-70.5 -19.5t-71 19.5t-25 64.5z" />
    <glyph glyph-name="wgrave" unicode="&#x1e81;" horiz-adv-x="811" 
d="M182 502l71 -268l78 267h151l80 -269l67 270h178l-154 -502h-172l-77 278l-76 -278h-171l-157 502h182zM200 695v7h206l81 -136v-5h-151z" />
    <glyph glyph-name="wcircumflex" unicode="&#x175;" horiz-adv-x="811" 
d="M182 502l71 -268l78 267h151l80 -269l67 270h178l-154 -502h-172l-77 278l-76 -278h-171l-157 502h182zM338 560h-141v4l124 137h155l125 -137v-4h-149l-58 52z" />
    <glyph glyph-name="yacute" unicode="&#xfd;" horiz-adv-x="585" 
d="M199 -12l-199 514h200l96 -293l90 293h199l-213 -550q-15 -37 -36.5 -62t-49.5 -40t-62 -21.5t-72 -6.5t-66.5 5.5t-54.5 16.5l17 129q36 -18 74 -18q60 0 79 55zM351 560h-147v5l84 136h199v-7z" />
    <glyph glyph-name="ycircumflex" unicode="&#x177;" horiz-adv-x="585" 
d="M199 -12l-199 514h200l96 -293l90 293h199l-213 -550q-15 -37 -36.5 -62t-49.5 -40t-62 -21.5t-72 -6.5t-66.5 5.5t-54.5 16.5l17 129q36 -18 74 -18q60 0 79 55zM233 560h-141v4l124 137h155l125 -137v-4h-149l-58 52z" />
    <glyph glyph-name="ydieresis" unicode="&#xff;" horiz-adv-x="585" 
d="M199 -12l-199 514h200l96 -293l90 293h199l-213 -550q-15 -37 -36.5 -62t-49.5 -40t-62 -21.5t-72 -6.5t-66.5 5.5t-54.5 16.5l17 129q36 -18 74 -18q60 0 79 55zM83 639q0 43 25 63t70 20q46 0 70.5 -20t24.5 -63q0 -45 -24.5 -64.5t-70.5 -19.5q-45 0 -70 19.5
t-25 64.5zM312 639q0 43 25 63t71 20t70.5 -20t24.5 -63q0 -45 -24.5 -64.5t-70.5 -19.5t-71 19.5t-25 64.5z" />
    <glyph glyph-name="zacute" unicode="&#x17a;" horiz-adv-x="489" 
d="M9 106l220 256h-216v140h451v-112l-217 -251h226v-139h-464v106zM301 560h-147v5l84 136h199v-7z" />
    <glyph glyph-name="zcaron" unicode="&#x17e;" horiz-adv-x="489" 
d="M9 106l220 256h-216v140h451v-112l-217 -251h226v-139h-464v106zM305 701h140v-3l-124 -138h-156l-124 138v3h148l59 -52z" />
    <glyph glyph-name="zdotaccent" unicode="&#x17c;" horiz-adv-x="489" 
d="M9 106l220 256h-216v140h451v-112l-217 -251h226v-139h-464v106zM141 639q0 45 26.5 65t74.5 20t74 -20t26 -65q0 -44 -26 -64t-74 -20t-74.5 20t-26.5 64z" />
    <glyph glyph-name="ordfeminine" unicode="&#xaa;" horiz-adv-x="458" 
d="M295 399q-19 -31 -48.5 -47t-67.5 -16q-69 0 -110.5 46.5t-41.5 137.5q0 101 43.5 148t113.5 47q82 0 114 -59l10 48h112v-357h-117zM283 525q0 48 -17.5 68t-45.5 20t-43.5 -20t-15.5 -68q0 -85 60 -85q28 0 45 21t17 64z" />
    <glyph glyph-name="ordmasculine" unicode="&#xba;" horiz-adv-x="434" 
d="M285 526q0 44 -14.5 64.5t-48.5 20.5q-33 0 -47 -20.5t-14 -64.5q0 -45 14.5 -65.5t46.5 -20.5q63 0 63 86zM27 526q0 97 52.5 143t143.5 46q99 0 147.5 -45.5t48.5 -143.5q0 -94 -49.5 -142t-146.5 -48q-196 0 -196 190z" />
    <glyph glyph-name="cordinal" horiz-adv-x="393" 
d="M215 336q-43 0 -77.5 10.5t-59 33.5t-38 59t-13.5 86q0 100 51.5 145t143.5 45q57 0 96 -18.5t62 -60.5l-95 -70q-11 23 -25.5 31.5t-34.5 8.5q-31 0 -47.5 -17t-16.5 -64q0 -40 13.5 -62.5t48.5 -22.5q50 0 66 40l95 -54q-23 -44 -63.5 -67t-105.5 -23z" />
    <glyph glyph-name="ampersand" unicode="&#x26;" horiz-adv-x="704" 
d="M696 487q0 -99 -19.5 -182t-58.5 -146q20 -14 41.5 -27.5t45.5 -27.5l-84 -127q-6 4 -22.5 14t-35.5 21.5t-35 22t-21 13.5q-95 -63 -236 -63q-59 0 -107.5 11.5t-83.5 35t-54 59.5t-19 86q0 36 9.5 64.5t26 52t38.5 42.5t47 36q-35 49 -49 88.5t-14 71.5q0 88 55 135.5
t164 47.5q101 0 150 -40t49 -115q0 -67 -33.5 -116t-100.5 -94q26 -24 60.5 -51.5t79.5 -58.5q26 47 40 109t13 138h154zM281 114q52 0 93 26q-50 37 -89 69.5t-69 62.5q-21 -15 -34 -33t-13 -44q0 -35 27.5 -58t84.5 -23zM216 531q0 -16 7.5 -37.5t29.5 -50.5q44 27 63 48
t19 49q0 50 -57 50q-62 0 -62 -59z" />
    <glyph glyph-name="cedilla" unicode="&#xb8;" horiz-adv-x="588" 
d="M375 0l-19 -45h1q21 -2 40.5 -8.5t35 -18.5t24.5 -29.5t9 -39.5q0 -30 -12 -52t-33 -36.5t-48.5 -21.5t-57.5 -7q-48 0 -89 18t-64 56l60 62q16 -23 36.5 -35.5t49.5 -12.5q20 0 33.5 8t13.5 27q0 14 -13.5 24t-38.5 10q-6 0 -11.5 -1t-11.5 -2l-27 15l32 89h90z" />
    <glyph glyph-name="ogonek" unicode="&#x2db;" horiz-adv-x="586" 
d="M319 -238q-29 0 -57.5 7t-51 22.5t-36.5 41.5t-14 65t17 70t44 51.5t62 30t71 6.5l1 -56q-48 -4 -68 -29t-20 -56q0 -29 20 -40t46 -11q17 0 34.5 4t33.5 13l26 -90q-47 -29 -108 -29z" />
    <glyph glyph-name="period" unicode="." horiz-adv-x="250" 
d="M23 86q0 48 26.5 71.5t75.5 23.5t75.5 -23.5t26.5 -71.5q0 -46 -26.5 -70t-75.5 -24t-75.5 23.5t-26.5 70.5z" />
    <glyph glyph-name="comma" unicode="," horiz-adv-x="251" 
d="M24 -82q31 9 53.5 27.5t33.5 48.5q-45 3 -67 27t-22 65q0 48 27 71.5t76 23.5t77 -27.5t28 -87.5q0 -91 -43 -148.5t-124 -77.5l-39 78v0z" />
    <glyph glyph-name="colon" unicode=":" horiz-adv-x="250" 
d="M23 86q0 48 26.5 71.5t75.5 23.5t75.5 -23.5t26.5 -71.5q0 -46 -26.5 -70t-75.5 -24t-75.5 23.5t-26.5 70.5zM23 408q0 48 26.5 71.5t75.5 23.5t75.5 -23.5t26.5 -71.5q0 -46 -26.5 -70t-75.5 -24t-75.5 23.5t-26.5 70.5z" />
    <glyph glyph-name="semicolon" unicode=";" horiz-adv-x="251" 
d="M22 -82q31 9 53.5 27.5t33.5 48.5q-45 3 -67 27t-22 65q0 48 27 71.5t76 23.5t77 -27.5t28 -87.5q0 -91 -43 -148.5t-124 -77.5l-39 78v0zM21 408q0 48 26.5 71.5t75.5 23.5t75.5 -23.5t26.5 -71.5q0 -46 -26.5 -70t-75.5 -24t-75.5 23.5t-26.5 70.5z" />
    <glyph glyph-name="ellipsis" unicode="&#x2026;" horiz-adv-x="791" 
d="M23 86q0 48 26.5 71.5t75.5 23.5t75.5 -23.5t26.5 -71.5q0 -46 -26.5 -70t-75.5 -24t-75.5 23.5t-26.5 70.5zM293 86q0 48 26.5 71.5t75.5 23.5q50 0 76 -23.5t26 -71.5q0 -46 -26 -70t-76 -24q-49 0 -75.5 23.5t-26.5 70.5zM564 86q0 48 26.5 71.5t75.5 23.5t75 -23.5
t26 -71.5q0 -46 -26 -70t-75 -24t-75.5 23.5t-26.5 70.5z" />
    <glyph glyph-name="exclam" unicode="!" horiz-adv-x="249" 
d="M193 229h-136l-29 472h194zM23 86q0 48 26 71.5t76 23.5q49 0 75.5 -23.5t26.5 -71.5q0 -46 -26.5 -70t-75.5 -24q-50 0 -76 23.5t-26 70.5z" />
    <glyph glyph-name="exclamdown" unicode="&#xa1;" horiz-adv-x="249" 
d="M226 426q0 -48 -26 -71.5t-76 -23.5q-49 0 -75.5 23.5t-26.5 71.5q0 46 26.5 70t75.5 24q50 0 76 -23.5t26 -70.5zM56 283h136l29 -472h-194z" />
    <glyph glyph-name="exclamdown.cap" horiz-adv-x="251" 
d="M226 614q0 -48 -26 -71.5t-76 -23.5q-49 0 -75.5 23.5t-26.5 71.5q0 46 26.5 70t75.5 24q50 0 76 -23.5t26 -70.5zM56 471h136l29 -472h-194z" />
    <glyph glyph-name="question" unicode="?" horiz-adv-x="491" 
d="M152 414h65q51 0 77 21t26 67q0 34 -24.5 56.5t-78.5 22.5q-40 0 -69.5 -18t-51.5 -67l-115 74q37 75 102 114.5t159 39.5q124 0 187 -52t63 -159q0 -49 -13.5 -86t-37.5 -62.5t-57.5 -40.5t-72.5 -19l-7 -76h-143zM126 86q0 48 26.5 71.5t75.5 23.5t75.5 -23.5
t26.5 -71.5q0 -46 -26.5 -70t-75.5 -24t-75.5 23.5t-26.5 70.5z" />
    <glyph glyph-name="questiondown" unicode="&#xbf;" horiz-adv-x="491" 
d="M378 425q0 -48 -26.5 -71.5t-75.5 -23.5t-75.5 23.5t-26.5 71.5q0 46 26.5 70t75.5 24t75.5 -23.5t26.5 -70.5zM352 97h-65q-51 0 -77 -21t-26 -67q0 -34 24.5 -56.5t78.5 -22.5q40 0 69.5 18t51.5 67l115 -74q-37 -75 -102 -114.5t-159 -39.5q-124 0 -187 52t-63 159
q0 49 13.5 86t37.5 62.5t57.5 40t72.5 19.5l7 76h143z" />
    <glyph glyph-name="questiondown.cap" horiz-adv-x="491" 
d="M365 619q0 -48 -26.5 -71.5t-75.5 -23.5t-75.5 23.5t-26.5 71.5q0 46 26.5 70t75.5 24t75.5 -23.5t26.5 -70.5zM339 291h-65q-51 0 -77 -21t-26 -67q0 -34 24.5 -56.5t78.5 -22.5q40 0 69.5 18t51.5 67l115 -74q-37 -75 -102 -114.5t-159 -39.5q-124 0 -187 52t-63 159
q0 49 13.5 86t37.5 62.5t57.5 40t72.5 19.5l7 76h143z" />
    <glyph glyph-name="quoteleft" unicode="&#x2018;" horiz-adv-x="236" 
d="M212 684q-29 -8 -50 -25.5t-31 -45.5q42 -3 62.5 -26t20.5 -61q0 -45 -25 -67t-72 -22q-46 0 -72 26t-26 82q0 86 40.5 140t116.5 73l36 -74v0z" />
    <glyph glyph-name="quoteright" unicode="&#x2019;" horiz-adv-x="236" 
d="M25 503q29 8 50 25.5t31 45.5q-42 3 -62.5 25.5t-20.5 61.5q0 45 25 67t71 22t72.5 -26t26.5 -82q0 -86 -40.5 -140t-116.5 -72l-36 73v0z" />
    <glyph glyph-name="quotedblleft" unicode="&#x201c;" horiz-adv-x="458" 
d="M435 684q-29 -8 -50 -25.5t-31 -45.5q42 -3 62.5 -26t20.5 -61q0 -45 -25 -67t-72 -22q-46 0 -72 26t-26 82q0 86 40.5 140t116.5 73l36 -74v0zM212 684q-29 -8 -50 -25.5t-31 -45.5q42 -3 62.5 -26t20.5 -61q0 -45 -25 -67t-72 -22q-46 0 -72 26t-26 82q0 86 40.5 140
t116.5 73l36 -74v0z" />
    <glyph glyph-name="quotedblright" unicode="&#x201d;" horiz-adv-x="458" 
d="M23 503q29 8 50 25.5t31 45.5q-42 3 -62.5 25.5t-20.5 61.5q0 45 25 67t71 22t72.5 -26t26.5 -82q0 -86 -40.5 -140t-116.5 -72l-36 73v0zM246 503q29 8 50 25.5t31 45.5q-42 3 -62.5 25.5t-20.5 61.5q0 45 25 67t71 22t72.5 -26t26.5 -82q0 -86 -40.5 -140t-116.5 -72
l-36 73v0z" />
    <glyph glyph-name="quotesinglbase" unicode="&#x201a;" horiz-adv-x="235" 
d="M22 -77q29 9 50 26t32 45q-42 3 -62.5 25.5t-20.5 60.5q0 45 25 67t71 22q45 0 71.5 -25.5t26.5 -81.5q0 -85 -40.5 -139t-115.5 -73l-37 73v0z" />
    <glyph glyph-name="quotedblbase" unicode="&#x201e;" horiz-adv-x="458" 
d="M22 -77q29 9 50 26t32 45q-42 3 -62.5 25.5t-20.5 60.5q0 45 25 67t71 22q45 0 71.5 -25.5t26.5 -81.5q0 -85 -40.5 -139t-115.5 -72l-37 72v0zM245 -77q29 9 50 26t32 45q-42 3 -62.5 25.5t-20.5 60.5q0 45 25 67t71 22q45 0 71.5 -25.5t26.5 -81.5q0 -85 -40.5 -139
t-115.5 -72l-37 72v0z" />
    <glyph glyph-name="reversequoteleft" horiz-adv-x="235" 
d="M132 574q10 -28 31 -45.5t50 -25.5l-36 -74q-76 19 -116.5 73t-40.5 140q0 56 26.5 82t72.5 26t71 -22t25 -67q0 -38 -20.5 -61t-62.5 -26z" />
    <glyph glyph-name="reversequotedblleft" horiz-adv-x="457" 
d="M355 574q10 -28 31 -45.5t50 -25.5l-36 -74q-76 19 -116.5 73t-40.5 140q0 56 26.5 82t72.5 26t71 -22t25 -67q0 -38 -20.5 -61t-62.5 -26zM132 574q10 -28 31 -45.5t50 -25.5l-36 -74q-76 19 -116.5 73t-40.5 140q0 56 26.5 82t72.5 26t71 -22t25 -67q0 -38 -20.5 -61
t-62.5 -26z" />
    <glyph glyph-name="guilsinglleft" unicode="&#x2039;" horiz-adv-x="424" 
d="M23 249v3l195 250h186l-197 -249l202 -253h-189z" />
    <glyph glyph-name="guilsinglright" unicode="&#x203a;" horiz-adv-x="424" 
d="M401 253v-3l-195 -250h-186l197 249l-202 253h189z" />
    <glyph glyph-name="guillemotleft" unicode="&#xab;" horiz-adv-x="689" 
d="M23 249v3l197 250h186l-199 -249l203 -253h-189zM279 252v3l198 247h186l-200 -246l211 -256h-189z" />
    <glyph glyph-name="guillemotright" unicode="&#xbb;" horiz-adv-x="689" 
d="M410 250v-3l-198 -247h-186l200 246l-211 256h189zM666 253v-3l-197 -250h-186l199 249l-203 253h189z" />
    <glyph glyph-name="slash" unicode="/" horiz-adv-x="551" 
d="M198 0h-213l367 700h214z" />
    <glyph glyph-name="backslash" unicode="\" horiz-adv-x="554" 
d="M-15 700h212l367 -700h-212z" />
    <glyph glyph-name="bar" unicode="|" horiz-adv-x="272" 
d="M49 766h175v-831h-175v831z" />
    <glyph glyph-name="doublebar" horiz-adv-x="510" 
d="M49 766h175v-831h-175v831zM287 766h174v-831h-174v831z" />
    <glyph glyph-name="brokenbar" unicode="&#xa6;" horiz-adv-x="272" 
d="M49 766h175v-385h-175v385zM49 320h175v-385h-175v385z" />
    <glyph glyph-name="bullet" unicode="&#x2022;" horiz-adv-x="405" 
d="M31 327q0 77 45.5 123t126.5 46t126 -46t45 -123q0 -78 -45 -123.5t-126 -45.5t-126.5 45.5t-45.5 123.5z" />
    <glyph glyph-name="nonbreakingspace" unicode="&#xa0;" horiz-adv-x="205" 
 />
    <glyph glyph-name="periodcentered" unicode="&#xb7;" horiz-adv-x="250" 
d="M23 339q0 48 26.5 71.5t75.5 23.5t75.5 -23.5t26.5 -71.5q0 -46 -26.5 -70t-75.5 -24t-75.5 23.5t-26.5 70.5z" />
    <glyph glyph-name="hyphen" unicode="-" horiz-adv-x="464" 
d="M433 263h-401v148h401v-148z" />
    <glyph glyph-name="endash" unicode="&#x2013;" horiz-adv-x="553" 
d="M523 263h-491v148h491v-148z" />
    <glyph glyph-name="emdash" unicode="&#x2014;" horiz-adv-x="753" 
d="M722 263h-690v148h690v-148z" />
    <glyph glyph-name="parenleft" unicode="(" horiz-adv-x="351" 
d="M326 -167q-158 11 -234 125t-76 322q0 209 74.5 322t230.5 124l21 -156q-41 -5 -72 -21.5t-52 -50.5t-32 -87t-11 -131t11 -131.5t32 -87.5t52 -50.5t72 -20.5z" />
    <glyph glyph-name="parenright" unicode=")" horiz-adv-x="351" 
d="M9 -10q41 4 72 20.5t52 50.5t32 87.5t11 131.5t-11 131t-32 87t-52 50.5t-72 21.5l21 156q156 -11 230.5 -124t74.5 -322q0 -208 -76 -322t-234 -125z" />
    <glyph glyph-name="bracketleft" unicode="[" horiz-adv-x="342" 
d="M46 717h286v-139h-112v-613h113v-139h-287v891z" />
    <glyph glyph-name="bracketright" unicode="]" horiz-adv-x="342" 
d="M296 -174h-287v139h113v613h-112v139h286v-891z" />
    <glyph glyph-name="braceleft" unicode="{" horiz-adv-x="381" 
d="M349 -166q-48 1 -89.5 12.5t-72 32.5t-48 52t-17.5 72q0 35 3.5 65t3.5 62q0 44 -27.5 63t-80.5 19h-21v138h21q53 0 80.5 19.5t27.5 62.5q0 32 -3.5 62t-3.5 65q0 40 17.5 71.5t48 52.5t72 32.5t89.5 12.5l23 -152q-45 1 -68 -20t-23 -62q0 -26 3.5 -50.5t3.5 -52.5
q0 -36 -21.5 -63.5t-60.5 -46.5q39 -20 60.5 -47.5t21.5 -62.5q0 -27 -3.5 -52t-3.5 -51q0 -41 23 -62t68 -20l-23 -152v0z" />
    <glyph glyph-name="braceright" unicode="}" horiz-adv-x="381" 
d="M259 3q0 -41 -17.5 -72t-48 -52t-72 -32.5t-89.5 -12.5l-23 152q45 -1 68 20t23 62q0 26 -3.5 51t-3.5 52q0 35 21.5 62.5t60.5 47.5q-39 19 -60.5 46.5t-21.5 63.5q0 28 3.5 52.5t3.5 50.5q0 41 -23 62t-68 20l23 152q48 -1 89.5 -12.5t72 -32.5t48 -52.5t17.5 -71.5
q0 -35 -3.5 -65t-3.5 -62q0 -43 27.5 -62.5t80.5 -19.5h21v-138h-21q-53 0 -80.5 -19t-27.5 -63q0 -32 3.5 -62t3.5 -65z" />
    <glyph glyph-name="asterisk" unicode="*" horiz-adv-x="419" 
d="M33 402l63 77l-90 25l36 131l95 -31l-7 111h153l-6 -111l96 31l36 -133l-90 -23l63 -77l-112 -89l-63 89l-63 -89z" />
    <glyph glyph-name="dagger" unicode="&#x2020;" horiz-adv-x="300" 
d="M221 477l-2 -220h-140v220h-66v124h64l-2 114h150l-3 -114h64v-124h-65z" />
    <glyph glyph-name="daggerdbl" unicode="&#x2021;" horiz-adv-x="300" 
d="M80 463v47h-67v124h64l-2 81h150l-2 -81h63v-124h-66v-47h66v-124h-63l2 -82h-150l2 82h-64v124h67z" />
    <glyph glyph-name="section" unicode="&#xa7;" horiz-adv-x="460" 
d="M221 -37q-75 0 -129 20t-87 64l90 88q20 -24 48.5 -39t73.5 -15q68 0 68 39q0 17 -16.5 26.5t-48.5 16.5l-33 8q-93 23 -132 66t-39 102q0 32 13.5 60.5t43.5 46.5q-26 21 -37 47.5t-11 56.5q0 72 52.5 118.5t159.5 46.5q133 0 195 -78l-88 -90q-23 22 -47 33.5t-58 11.5
q-61 0 -61 -39q0 -12 11.5 -23t46.5 -19l53 -12q83 -19 122.5 -57.5t39.5 -103.5q0 -31 -13 -59t-45 -47q53 -38 53 -105q0 -32 -11.5 -62t-38 -52.5t-69.5 -36t-106 -13.5zM303 327q0 20 -14.5 32.5t-48.5 20.5l-14 3q-34 8 -50 -4.5t-16 -32.5q0 -18 14.5 -31.5
t48.5 -21.5l14 -3q34 -8 50 4.5t16 32.5z" />
    <glyph glyph-name="paragraph" unicode="&#xb6;" horiz-adv-x="649" 
d="M605 0h-145v186h-53v-186h-142v187q-54 4 -100.5 22.5t-80.5 50.5t-53 77.5t-19 102.5t17.5 104.5t50.5 82t80.5 54t107.5 19.5h337v-700zM407 542v-208h53v208h-53zM179 443q0 -47 24 -76.5t62 -29.5v202q-21 0 -37 -8t-27 -21.5t-16.5 -31t-5.5 -35.5z" />
    <glyph glyph-name="asciicircum" unicode="^" horiz-adv-x="484" 
d="M330 700l147 -339v-4h-156l-83 211l-82 -211h-149v4l147 339h176z" />
    <glyph glyph-name="asciitilde" unicode="~" horiz-adv-x="540" 
d="M533 409q-6 -85 -50 -127.5t-110 -42.5q-29 0 -55 8t-49.5 17t-45 17t-42.5 8q-19 0 -31 -11t-14 -39l-129 21q6 85 50 127.5t111 42.5q29 0 54.5 -8t49 -17t45 -17t42.5 -8q20 0 31.5 11t13.5 39z" />
    <glyph glyph-name="underscore" unicode="_" horiz-adv-x="444" 
d="M467 -146h-490v146h490v-146z" />
    <glyph glyph-name="quotesingle" unicode="'" horiz-adv-x="215" 
d="M30 715h157l-18 -302h-121z" />
    <glyph glyph-name="quotedbl" unicode="&#x22;" horiz-adv-x="407" 
d="M55 413l-25 302h157l-11 -302h-121zM222 715h158l-25 -302h-121z" />
    <glyph glyph-name="at" unicode="@" horiz-adv-x="726" 
d="M409 241q0 45 -15.5 64.5t-41.5 19.5q-28 0 -42.5 -19.5t-14.5 -65.5q0 -80 57 -80q26 0 41.5 20t15.5 61zM536 181q0 -24 11.5 -33t27.5 -9q12 0 24.5 7t22 22t16 37.5t6.5 53.5q0 70 -20.5 122t-57 86t-86.5 50.5t-108 16.5q-62 0 -114.5 -18t-91 -54t-60.5 -91
t-22 -129t22 -129t60.5 -91t91 -53.5t114.5 -17.5q71 0 129.5 21t98.5 66l41 -42q-45 -51 -113 -78.5t-156 -27.5q-85 0 -151 25.5t-111.5 71.5t-69.5 111t-24 144t24 144t69.5 111t111.5 71t151 25q82 0 145.5 -24t106.5 -67.5t65 -105.5t22 -137q0 -90 -49 -138t-133 -48
q-45 0 -71.5 15.5t-40.5 40.5l3 -4q-17 -30 -45 -45t-63 -15q-64 0 -102.5 43.5t-38.5 128.5q0 94 40.5 138t106.5 44q37 0 64 -13.5t42 -42.5l9 46h103v-228z" />
    <glyph glyph-name="at.cap" horiz-adv-x="726" 
d="M409 349q0 45 -15.5 64.5t-41.5 19.5q-28 0 -42.5 -19.5t-14.5 -65.5q0 -80 57 -80q26 0 41.5 20t15.5 61zM536 289q0 -24 11.5 -33t27.5 -9q12 0 24.5 7t22 22t16 37.5t6.5 53.5q0 70 -20.5 122t-57 86t-86.5 50.5t-108 16.5q-62 0 -114.5 -18t-91 -54t-60.5 -91
t-22 -129t22 -129t60.5 -91t91 -53.5t114.5 -17.5q71 0 129.5 21t98.5 66l41 -42q-45 -51 -113 -78.5t-156 -27.5q-85 0 -151 25.5t-111.5 71.5t-69.5 111t-24 144t24 144t69.5 111t111.5 71t151 25q82 0 145.5 -24t106.5 -67.5t65 -105.5t22 -137q0 -90 -49 -138t-133 -48
q-45 0 -71.5 15.5t-40.5 40.5l3 -4q-17 -30 -45 -45t-63 -15q-64 0 -102.5 43.5t-38.5 128.5q0 94 40.5 138t106.5 44q37 0 64 -13.5t42 -42.5l9 46h103v-228z" />
    <glyph glyph-name="copyright" unicode="&#xa9;" horiz-adv-x="741" 
d="M16 350q0 79 24 143t69 110t111 71t150 25t149.5 -25t111 -71t69.5 -110t24 -143t-24 -143.5t-69.5 -110.5t-111 -71t-149.5 -25t-150 25t-111 71t-69 110.5t-24 143.5zM77 350q0 -75 21.5 -130t60.5 -91t93 -54t118 -18t118 18t93 54t60.5 91t21.5 130t-21.5 130
t-60.5 91.5t-93 54.5t-118 18t-118 -18t-93 -54.5t-60.5 -91.5t-21.5 -130zM377 155q-95 0 -146.5 47.5t-51.5 151.5q0 105 51 154t151 49q61 0 101 -21t63 -62l-96 -70q-11 25 -27.5 34.5t-39.5 9.5q-39 0 -56.5 -22t-17.5 -73q0 -50 18.5 -71t55.5 -21q26 0 45 11t27 33
l95 -55q-24 -48 -68 -71.5t-104 -23.5z" />
    <glyph glyph-name="registered" unicode="&#xae;" horiz-adv-x="423" 
d="M14 521q0 89 51.5 141.5t146.5 52.5q94 0 145.5 -52.5t51.5 -141.5q0 -87 -51.5 -140.5t-145.5 -53.5q-47 0 -84 14t-62.5 39.5t-38.5 61t-13 79.5zM53 521q0 -80 45 -120.5t114 -40.5q34 0 63 10t50 30.5t33 50.5t12 70t-12 70t-33 50.5t-50 30.5t-63 10
q-69 0 -114 -40.5t-45 -120.5zM127 621h101q35 0 52.5 -19.5t17.5 -52.5q0 -21 -7.5 -35t-21.5 -23l32 -62h-64l-23 49h-28v-49h-59v192zM186 572v-44h24q30 0 30 23q0 21 -27 21h-27z" />
    <glyph glyph-name="trademark" unicode="&#x2122;" horiz-adv-x="733" 
d="M317 700h116l80 -190l85 190h108v-294h-94l1 134l-59 -134h-86l-59 135l2 -135h-94v294zM290 700v-90h-93v-204h-103v204h-96v90h292z" />
    <glyph glyph-name="Euro" unicode="&#x20ac;" horiz-adv-x="702" 
d="M412 -16q-143 0 -224 59.5t-106 182.5h-69v87h59q-1 8 -1 16.5v17.5v6h-58v87h63q19 142 105 208.5t240 66.5q103 0 172.5 -38t101.5 -127l-156 -77q-21 48 -47.5 65t-73.5 17q-56 0 -93 -25t-51 -90h212l-24 -87h-198v-6v-17.5t1 -16.5h186l-24 -87h-140
q16 -47 48.5 -65t80.5 -18q45 0 77 18.5t49 61.5l159 -75q-34 -80 -104.5 -122t-184.5 -42z" />
    <glyph glyph-name="dollar" unicode="$" horiz-adv-x="562" 
d="M231 0q-76 5 -138.5 34.5t-102.5 95.5l121 94q43 -71 120 -83v130l-11 3q-102 23 -159 77.5t-57 144.5q0 86 56.5 141.5t170.5 63.5v65h83v-67q69 -7 123.5 -36t88.5 -89l-124 -86q-19 26 -39 42t-49 23v-133l20 -5q63 -15 104.5 -35t66 -45.5t34.5 -56.5t10 -66
q0 -95 -58.5 -149.5t-176.5 -62.5v-62h-83v62zM174 503q0 -23 14 -37t43 -24v114q-32 -5 -44.5 -19t-12.5 -34zM372 196q0 18 -13 31t-45 24v-110q58 11 58 55z" />
    <glyph glyph-name="cent" unicode="&#xa2;" horiz-adv-x="490" 
d="M235 3q-106 8 -163.5 69t-57.5 185q0 123 56 185t165 72v66h84v-66q123 -13 174 -111l-116 -79q-22 38 -58 47v-229q43 10 61 52l120 -64q-26 -55 -72.5 -86.5t-108.5 -39.5v-66h-84v65zM179 255q0 -48 13.5 -75t42.5 -36v225q-30 -9 -43 -36t-13 -78z" />
    <glyph glyph-name="sterling" unicode="&#xa3;" horiz-adv-x="602" 
d="M13 153h30q41 0 38 84l-2 43h-66v119h62l-3 79q-2 71 21 117t62 72.5t89 37t100 10.5q47 0 84 -7.5t67 -25t54.5 -45.5t45.5 -68l-131 -92q-20 37 -44.5 58t-66.5 21q-49 0 -69 -26t-18 -74l2 -57h146v-119h-139l1 -45v-19.5t-1.5 -23.5t-3.5 -23t-6 -17h131q79 0 137 58
l83 -120q-44 -55 -98.5 -72.5t-124.5 -17.5h-380v153z" />
    <glyph glyph-name="florin" unicode="&#x192;" horiz-adv-x="438" 
d="M79 243h-73l21 139h74l7 38q17 106 78.5 156.5t150.5 50.5q16 0 34.5 -2t36 -5.5t33 -10t26.5 -15.5l-48 -119q-11 8 -25 11.5t-28 3.5q-60 0 -72 -71l-7 -37h124l-22 -139h-124l-40 -266q-17 -102 -78 -151t-152 -49q-28 0 -61 6t-56 20l44 122q19 -11 47 -11
q30 0 47 16.5t23 55.5z" />
    <glyph glyph-name="yen" unicode="&#xa5;" horiz-adv-x="704" 
d="M624 204h-170v-204h-203v204h-168v88h145l-23 40h-122v88h74l-157 280h224l135 -275l133 275h212l-155 -280h75v-88h-124l-22 -40h146v-88z" />
    <glyph glyph-name="numbersign" unicode="#" horiz-adv-x="771" 
d="M92 530h107l48 170h185l-48 -170h100l48 170h186l-48 -170h108l-35 -128h-108l-28 -97h110l-35 -128h-110l-50 -177h-186l49 177h-98l-49 -177h-187l50 177h-106l36 128h105l28 97h-107zM321 305h100l28 97h-99z" />
    <glyph glyph-name="zero" unicode="0" horiz-adv-x="675" 
d="M338 715q166 0 241.5 -90.5t75.5 -274.5q0 -185 -75.5 -275t-241.5 -90q-167 0 -242.5 90t-75.5 275q0 184 75.5 274.5t242.5 90.5zM338 562q-29 0 -51.5 -10.5t-38 -35.5t-23.5 -65.5t-8 -100.5t8 -101t23 -65.5t37.5 -35.5t51.5 -11t51.5 11t38 35.5t23.5 65.5t8 101
t-8 100.5t-23 65t-37.5 35.5t-51.5 11z" />
    <glyph glyph-name="one" unicode="1" horiz-adv-x="371" 
d="M128 0v480l-76 -46l-73 154l217 121h131v-709h-199z" />
    <glyph glyph-name="two" unicode="2" horiz-adv-x="591" 
d="M20 137l233 203q21 18 39 35t31.5 34t21 35t7.5 38q0 40 -25 55.5t-63 15.5q-53 0 -83 -22t-55 -66l-130 92q47 88 119 123t172 35q54 0 102.5 -10t84.5 -34t57.5 -63.5t21.5 -97.5q0 -75 -38 -135t-111 -126l-101 -92l276 6v-163h-558z" />
    <glyph glyph-name="three" unicode="3" horiz-adv-x="578" 
d="M279 -15q-97 0 -168 33t-118 112l141 91q27 -46 58.5 -65t76.5 -19q46 0 73 18t27 56q0 35 -24 52t-81 17h-73v139h73q90 0 90 68q0 35 -24 52.5t-69 17.5q-44 0 -69 -18.5t-46 -55.5l-138 78q44 84 111.5 119t163.5 35q132 0 199.5 -54t67.5 -147q0 -57 -25 -94t-67 -62
q48 -23 75.5 -59t27.5 -98q0 -99 -73 -157.5t-209 -58.5z" />
    <glyph glyph-name="four" unicode="4" horiz-adv-x="676" 
d="M20 270l201 430h195l-197 -402h182v243h185v-243h83v-162h-83v-136h-185v136h-381v134z" />
    <glyph glyph-name="five" unicode="5" horiz-adv-x="595" 
d="M213 436q51 24 120 24q117 0 182.5 -58t65.5 -169q0 -120 -76 -184t-218 -64q-91 0 -166 29t-121 97l134 97q26 -39 59.5 -58.5t79.5 -19.5q56 0 84.5 25.5t28.5 70.5q0 49 -30.5 70t-75.5 21q-77 0 -113 -40l-130 61l31 362h488v-162h-333z" />
    <glyph glyph-name="six" unicode="6" horiz-adv-x="644" 
d="M348 -15q-157 0 -242.5 88.5t-85.5 273.5q0 88 19.5 156.5t60 115.5t102.5 71.5t147 24.5q91 0 159.5 -29t99.5 -89l-117 -102q-7 13 -17 26t-24.5 23t-35.5 16.5t-49 6.5q-78 0 -114 -49.5t-36 -160.5v-20q21 46 65.5 75t111.5 29q51 0 93.5 -14t73 -41.5t47 -68.5
t16.5 -95q0 -51 -17 -94.5t-51 -75t-85.5 -49.5t-120.5 -18zM237 219q0 -39 24.5 -63.5t69.5 -24.5q46 0 72 23t26 65q0 39 -22.5 63.5t-71.5 24.5q-40 0 -69 -21.5t-29 -66.5z" />
    <glyph glyph-name="seven" unicode="7" horiz-adv-x="552" 
d="M6 540v160h544v-130q-49 -60 -87.5 -119t-65 -125.5t-40.5 -146t-14 -179.5h-220q0 85 16.5 163t46.5 146.5t71 126.5t90 104h-341z" />
    <glyph glyph-name="eight" unicode="8" horiz-adv-x="624" 
d="M311 -15q-143 0 -217 53t-74 155q0 66 31 109t88 64q-44 22 -68.5 59t-24.5 90q0 102 67.5 151t198.5 49t198.5 -49t67.5 -151q0 -53 -25 -90t-69 -59q57 -21 88.5 -63.5t31.5 -109.5q0 -102 -73.5 -155t-219.5 -53zM410 200q0 38 -26.5 59.5t-69.5 21.5q-46 0 -73 -21.5
t-27 -59.5q0 -41 27 -61t72 -20q43 0 70 20t27 61zM402 504q0 35 -24 54t-64 19q-43 0 -67.5 -19t-24.5 -54t24.5 -54t66.5 -19q41 0 65 19t24 54z" />
    <glyph glyph-name="nine" unicode="9" horiz-adv-x="641" 
d="M292 -15q-92 0 -164.5 25.5t-105.5 81.5l114 104q19 -29 54.5 -46t85.5 -17q78 0 113.5 48.5t35.5 158.5v19q-20 -48 -65 -78t-112 -30q-50 0 -91.5 14.5t-71.5 43t-46.5 71t-16.5 98.5q0 52 16.5 95.5t50.5 75t84.5 49t119.5 17.5q157 0 242.5 -88.5t85.5 -273.5
q0 -175 -80 -271.5t-249 -96.5zM401 478q0 39 -25 63.5t-70 24.5t-69.5 -23.5t-24.5 -66.5q0 -39 21.5 -63t68.5 -24q40 0 69.5 22t29.5 67z" />
    <glyph glyph-name="uni2070" unicode="&#x2070;" horiz-adv-x="428" 
d="M14 497q0 109 47 164t152 55q104 0 151.5 -55t47.5 -164t-47 -163.5t-152 -54.5t-152 54.5t-47 163.5zM276 497q0 65 -16.5 90t-46.5 25t-46.5 -24.5t-16.5 -89.5t16.5 -90t46.5 -25t46.5 24.5t16.5 89.5z" />
    <glyph glyph-name="onesuperior" unicode="&#xb9;" horiz-adv-x="254" 
d="M80 294v263l-41 -23l-50 102l138 73h91v-415h-138z" />
    <glyph glyph-name="twosuperior" unicode="&#xb2;" horiz-adv-x="367" 
d="M12 382l141 118q21 19 36 36t15 37t-13 27t-31 7q-28 0 -44 -12t-32 -37l-90 63q31 54 76 74t107 20q33 0 63 -6t53 -20t37 -37.5t14 -59.5q0 -45 -23.5 -81t-62.5 -70l-47 -42l148 4v-109h-347v88z" />
    <glyph glyph-name="threesuperior" unicode="&#xb3;" horiz-adv-x="365" 
d="M175 280q-59 0 -103.5 20t-73.5 68l95 59q16 -26 32.5 -35t41.5 -9q23 0 36.5 8t13.5 26q0 16 -13 24t-43 8h-38v91h38q47 0 47 35q0 33 -46 33q-23 0 -36.5 -10t-24.5 -31l-96 52q29 53 70.5 74.5t101.5 21.5q84 0 126 -33.5t42 -89.5q0 -32 -15 -54.5t-40 -37.5
q28 -14 44.5 -34.5t16.5 -56.5q0 -60 -46.5 -94.5t-129.5 -34.5z" />
    <glyph glyph-name="uni2074" unicode="&#x2074;" horiz-adv-x="405" 
d="M4 456l117 247h134l-114 -228h92v120h129v-120h42v-108h-42v-73h-129v73h-229v89z" />
    <glyph glyph-name="fraction" unicode="&#x2044;" horiz-adv-x="555" 
d="M176 0h-166l352 700h164z" />
    <glyph glyph-name="onehalf" unicode="&#xbd;" horiz-adv-x="894" 
d="M538 88l141 118q21 19 36 36t15 37t-13 27t-31 7q-28 0 -44 -12t-32 -37l-90 63q31 54 76 74t107 20q33 0 63 -6t53 -20t37 -37.5t14 -59.5q0 -45 -23.5 -81t-62.5 -70l-47 -42l148 4v-109h-347v88zM80 294v263l-41 -23l-50 102l138 73h91v-415h-138zM296 0h-166l352 700
h164z" />
    <glyph glyph-name="onequarter" unicode="&#xbc;" horiz-adv-x="870" 
d="M469 162l117 247h134l-114 -228h92v120h129v-120h42v-108h-42v-73h-129v73h-229v89zM80 294v263l-41 -23l-50 102l138 73h91v-415h-138zM296 0h-166l352 700h164z" />
    <glyph glyph-name="threequarters" unicode="&#xbe;" horiz-adv-x="961" 
d="M175 280q-59 0 -103.5 20t-73.5 68l95 59q16 -26 32.5 -35t41.5 -9q23 0 36.5 8t13.5 26q0 16 -13 24t-43 8h-38v91h38q47 0 47 35q0 33 -46 33q-23 0 -36.5 -10t-24.5 -31l-96 52q29 53 70.5 74.5t101.5 21.5q84 0 126 -33.5t42 -89.5q0 -32 -15 -54.5t-40 -37.5
q28 -14 44.5 -34.5t16.5 -56.5q0 -60 -46.5 -94.5t-129.5 -34.5zM560 162l117 247h134l-114 -228h92v120h129v-120h42v-108h-42v-73h-129v73h-229v89zM385 0h-166l352 700h164z" />
    <glyph glyph-name="percent" unicode="%" horiz-adv-x="1026" 
d="M612 203q0 109 47 164t152 55q104 0 151.5 -55t47.5 -164t-47 -163.5t-152 -54.5t-152 54.5t-47 163.5zM874 203q0 65 -16.5 90t-46.5 25t-46.5 -24.5t-16.5 -89.5t16.5 -90t46.5 -25t46.5 24.5t16.5 89.5zM14 497q0 109 47 164t152 55q104 0 151.5 -55t47.5 -164
t-47 -163.5t-152 -54.5t-152 54.5t-47 163.5zM276 497q0 65 -16.5 90t-46.5 25t-46.5 -24.5t-16.5 -89.5t16.5 -90t46.5 -25t46.5 24.5t16.5 89.5zM420 0h-166l352 700h164z" />
    <glyph glyph-name="plus" unicode="+" horiz-adv-x="476" 
d="M177 110v149h-145v104h145v152h122v-152h145v-104h-145v-149h-122z" />
    <glyph glyph-name="minus" unicode="&#x2212;" horiz-adv-x="476" 
d="M444 259h-412v104h412v-104z" />
    <glyph glyph-name="multiply" unicode="&#xd7;" horiz-adv-x="480" 
d="M45 192l118 118l-120 121l77 78l121 -121l120 120l72 -73l-120 -119l123 -123l-78 -78l-122 123l-119 -119z" />
    <glyph glyph-name="divide" unicode="&#xf7;" horiz-adv-x="476" 
d="M444 259h-412v104h412v-104zM153 127q0 36 24 59.5t60 23.5q37 0 61 -23.5t24 -59.5q0 -35 -24 -58.5t-61 -23.5q-36 0 -60 23.5t-24 58.5zM153 495q0 36 24 59.5t60 23.5q37 0 61 -23.5t24 -59.5q0 -35 -24 -58.5t-61 -23.5q-36 0 -60 23.5t-24 58.5z" />
    <glyph glyph-name="equal" unicode="=" horiz-adv-x="476" 
d="M444 181h-412v104h412v-104zM444 333h-412v104h412v-104z" />
    <glyph glyph-name="less" unicode="&#x3c;" horiz-adv-x="439" 
d="M413 431l-241 -170l244 -170l-71 -93l-321 226v69l321 227z" />
    <glyph glyph-name="greater" unicode="&#x3e;" horiz-adv-x="439" 
d="M26 87l241 170l-244 170l71 93l321 -226v-69l-321 -227z" />
    <glyph glyph-name="degree" unicode="&#xb0;" horiz-adv-x="425" 
d="M28 532q0 84 48 133.5t137 49.5q88 0 136.5 -49.5t48.5 -133.5q0 -82 -48.5 -132.5t-136.5 -50.5q-89 0 -137 50.5t-48 132.5zM137 532q0 -42 21 -63t55 -21q33 0 54.5 21t21.5 63t-21.5 63.5t-54.5 21.5q-34 0 -55 -21.5t-21 -63.5z" />
    </font>
</defs>
</svg>
