<?xml version="1.0" standalone="no"?>
<!DOCTYPE svg PUBLIC "-//W3C//DTD SVG 1.1//EN" "http://www.w3.org/Graphics/SVG/1.1/DTD/svg11.dtd" >
<svg>
<metadata>
Created by FontForge 20120731 at Fri Nov 22 15:22:04 2013

Copyright (c) 2012 Jeremy Mickel, MCKL, Inc. All rights reserved.
</metadata>
<defs>
<font id="WWText-Book" horiz-adv-x="251" >
  <font-face 
    font-family="WWText Book"
    font-weight="400"
    font-stretch="normal"
    units-per-em="1000"
    panose-1="0 0 0 0 0 0 0 0 0 0"
    ascent="750"
    descent="-250"
    x-height="487"
    cap-height="700"
    bbox="-111 -292 1052 949"
    underline-thickness="50"
    underline-position="-50"
    unicode-range="U+0020-FB02"
  />
<missing-glyph horiz-adv-x="889" 
d="M98 700h694v-700h-694v700zM166 623v-550l241 275zM724 74v548l-240 -274zM446 390l219 253h-439zM228 57h435l-219 249z" />
    <glyph glyph-name="fi" unicode="fi" horiz-adv-x="579" 
d="M104 487v59q0 92 41.5 132t114.5 40q20 0 41 -3.5t38 -10.5l-14 -72q-14 5 -27 8.5t-32 3.5q-36 0 -57 -21.5t-21 -81.5v-54h141v-67h-141v-420h-84v420h-90v67h90zM497 487v-487h-86v487h86zM395 628q0 28 15.5 42t43.5 14t43.5 -14t15.5 -42t-15.5 -42.5t-43.5 -14.5
t-43.5 14.5t-15.5 42.5z" />
    <glyph glyph-name="fl" unicode="fl" horiz-adv-x="579" 
d="M104 487v59q0 92 41.5 132t114.5 40q20 0 41 -3.5t38 -10.5l-14 -72q-14 5 -27 8.5t-32 3.5q-36 0 -57 -21.5t-21 -81.5v-54h141v-67h-141v-420h-84v420h-90v67h90zM497 0h-86v700h86v-700z" />
    <glyph glyph-name="triagup" unicode="&#x2d;^" horiz-adv-x="801" 
d="M20 0l380 659l380 -659h-760z" />
    <glyph glyph-name="triagdn" unicode="^&#x2d;" horiz-adv-x="801" 
d="M780 700l-380 -659l-380 659h760z" />
    <glyph glyph-name="triaglf" unicode="&#x3c;&#x2d;" horiz-adv-x="801" 
d="M702 -30l-658 380l658 380v-760z" />
    <glyph glyph-name="triagrt" unicode="&#x2d;&#x3e;" horiz-adv-x="801" 
d="M99 730l658 -380l-658 -380v760z" />
    <glyph glyph-name=".notdef" horiz-adv-x="889" 
d="M98 700h694v-700h-694v700zM166 623v-550l241 275zM724 74v548l-240 -274zM446 390l219 253h-439zM228 57h435l-219 249z" />
    <glyph glyph-name="space" unicode=" " horiz-adv-x="210" 
 />
    <glyph glyph-name="A" unicode="A" horiz-adv-x="602" 
d="M460 143h-321l-48 -143h-91l245 700h112l245 -700h-94zM164 218h270l-136 401z" />
    <glyph glyph-name="B" unicode="B" horiz-adv-x="666" 
d="M98 700h293q56 0 95 -13t64 -37t36 -57.5t11 -73.5q0 -58 -27 -98t-75 -58q31 -6 53.5 -22t37.5 -38.5t22 -49t7 -53.5q0 -99 -58 -149.5t-177 -50.5h-282v700zM185 319v-245h200q142 0 142 127q0 57 -32.5 87.5t-106.5 30.5h-203zM185 626v-230h202q33 0 56 9.5t37.5 25
t21.5 36.5t7 45q0 60 -31.5 87t-86.5 27h-206z" />
    <glyph glyph-name="C" unicode="C" horiz-adv-x="674" 
d="M380 -12q-78 0 -137 20t-98.5 63.5t-59.5 112.5t-20 167t20 166.5t59.5 112t98.5 63t137 19.5q94 0 156.5 -30t98.5 -102l-70 -47q-29 61 -73.5 84t-111.5 23q-54 0 -96 -13t-71 -46t-44 -88.5t-15 -140.5t15 -141t44 -89.5t71 -47.5t96 -14q68 0 117 26t84 91l66 -45
q-43 -78 -109 -111t-158 -33z" />
    <glyph glyph-name="D" unicode="D" horiz-adv-x="728" 
d="M358 76q50 0 90 13.5t68.5 45.5t44 85t15.5 131q0 76 -14 128.5t-41 84.5t-66.5 46t-89.5 14h-178v-548h171zM98 0v700h264q153 0 228 -82.5t75 -263.5t-76.5 -267.5t-227.5 -86.5h-263z" />
    <glyph glyph-name="E" unicode="E" horiz-adv-x="641" 
d="M98 700h506v-76h-419v-233h367v-78h-367v-237h429v-76h-516v700z" />
    <glyph glyph-name="F" unicode="F" horiz-adv-x="589" 
d="M98 700h488v-76h-399v-236h358v-78h-358v-310h-89v700z" />
    <glyph glyph-name="G" unicode="G" horiz-adv-x="718" 
d="M365 -12q-146 0 -223 87.5t-77 275.5q0 98 20 166.5t59.5 112t98.5 63t137 19.5q94 0 156 -30.5t98 -97.5l-71 -48q-29 56 -73 80t-110 24q-54 0 -96.5 -12.5t-71 -45t-43.5 -88.5t-15 -143q0 -84 14.5 -139.5t43 -89.5t70 -48t94.5 -14q34 0 68.5 9.5t62.5 32t46.5 60.5
t19.5 96v25h-191v70h273v-353h-74l-6 99q-29 -53 -85 -82t-125 -29z" />
    <glyph glyph-name="H" unicode="H" horiz-adv-x="770" 
d="M584 313h-397v-313h-89v700h89v-309h397v309h89v-700h-89v313z" />
    <glyph glyph-name="I" unicode="I" horiz-adv-x="284" 
d="M98 700h89v-700h-89v700z" />
    <glyph glyph-name="J" unicode="J" horiz-adv-x="484" 
d="M162 -12q-43 0 -83 11.5t-75 37.5l41 67q26 -21 58 -31.5t66 -10.5q66 0 106.5 43.5t40.5 145.5v449h89v-442q0 -77 -18 -129t-50.5 -83.5t-77 -44.5t-97.5 -13z" />
    <glyph glyph-name="K" unicode="K" horiz-adv-x="616" 
d="M98 700h89v-389l319 389h106l-262 -313l277 -387h-106l-230 322l-104 -123v-199h-89v700z" />
    <glyph glyph-name="L" unicode="L" horiz-adv-x="608" 
d="M594 76v-76h-496v700h89v-624h407z" />
    <glyph glyph-name="M" unicode="M" horiz-adv-x="924" 
d="M180 547l3 -547h-85v700h96l270 -599l268 599h95v-700h-86l4 547l-247 -547h-71z" />
    <glyph glyph-name="N" unicode="N" horiz-adv-x="758" 
d="M181 569l3 -569h-86v700h90l389 -569l-2 569h86v-700h-92z" />
    <glyph glyph-name="O" unicode="O" horiz-adv-x="757" 
d="M65 351q0 96 19.5 164.5t58.5 112t98 64t138 20.5q82 0 141.5 -20.5t98 -64t57 -112t18.5 -164.5q0 -192 -79 -277.5t-236 -85.5q-80 0 -139 20.5t-98 65t-58 113t-19 164.5zM154 350q0 -83 14.5 -138.5t43 -89.5t70.5 -48t97 -14t97.5 14t71 47.5t43 89.5t14.5 141
q0 82 -14.5 137.5t-43 89t-71 47.5t-97.5 14t-97 -13.5t-70.5 -46.5t-43 -89t-14.5 -141z" />
    <glyph glyph-name="P" unicode="P" horiz-adv-x="647" 
d="M98 700h279q121 0 180.5 -57t59.5 -163q0 -116 -63 -175.5t-187 -59.5h-180v-245h-89v700zM187 624v-303h190q71 0 111 39t40 117q0 71 -37 109t-113 38h-191z" />
    <glyph glyph-name="Q" unicode="Q" horiz-adv-x="754" 
d="M643 -92h-101l-66 90q-43 -10 -97 -10q-80 0 -139 20.5t-98 65t-58 113t-19 164.5t19.5 164.5t58.5 112t98 64t138 20.5q82 0 141.5 -20.5t98 -64t57 -112t18.5 -164.5q0 -128 -34.5 -207.5t-103.5 -117.5zM154 350q0 -83 14.5 -138.5t43 -89.5t70.5 -48t97 -14
q25 0 48 3l-95 129h102l75 -103q48 29 72.5 91t24.5 172q0 82 -15 137.5t-43.5 89t-71 47.5t-97.5 14t-97 -13.5t-70.5 -46.5t-43 -89t-14.5 -141z" />
    <glyph glyph-name="R" unicode="R" horiz-adv-x="651" 
d="M98 700h278q119 0 177 -54.5t58 -155.5q0 -83 -36 -135t-102 -75l150 -280h-98l-142 265h-196v-265h-89v700zM187 624v-282h188q69 0 108 35.5t39 109.5q0 66 -35.5 101.5t-110.5 35.5h-189z" />
    <glyph glyph-name="S" unicode="S" horiz-adv-x="604" 
d="M470 544q-28 51 -68.5 75t-106.5 24q-44 0 -74 -8.5t-49 -23.5t-27 -35t-8 -44q0 -22 6.5 -41t22 -35.5t41.5 -29.5t64 -22l65 -15q115 -26 168 -73t53 -128q0 -100 -67.5 -150t-189.5 -50q-44 0 -83.5 7t-74 23t-64 42t-52.5 64l70 44q39 -58 85 -84.5t117 -26.5
q92 0 133 32t41 92q0 26 -7 45t-24.5 33.5t-46 25.5t-71.5 22l-65 16q-204 50 -204 205q0 82 60 133t181 51q50 0 88 -8t67 -23.5t50.5 -39t39.5 -53.5z" />
    <glyph glyph-name="T" unicode="T" horiz-adv-x="546" 
d="M547 700v-76h-229v-624h-89v624h-229v76h547z" />
    <glyph glyph-name="U" unicode="U" horiz-adv-x="727" 
d="M559 700h89v-425q0 -142 -75.5 -214.5t-208.5 -72.5q-135 0 -209.5 72t-74.5 215v425h89v-429q0 -56 14 -96t39.5 -65.5t61.5 -37.5t80 -12t80 12t61.5 37.5t39.5 65.5t14 96v429z" />
    <glyph glyph-name="V" unicode="V" horiz-adv-x="602" 
d="M94 700l208 -619l209 619h91l-245 -700h-112l-245 700h94z" />
    <glyph glyph-name="W" unicode="W" horiz-adv-x="897" 
d="M493 698l158 -569l160 571h86l-205 -700h-85l-159 572l-158 -572h-86l-204 700h91l157 -575l158 573h87z" />
    <glyph glyph-name="X" unicode="X" horiz-adv-x="608" 
d="M302 291l-203 -291h-99l252 358l-236 342h103l188 -275l186 275h99l-236 -340l252 -360h-104z" />
    <glyph glyph-name="Y" unicode="Y" horiz-adv-x="590" 
d="M0 700h96l201 -346l200 346h93l-250 -420v-280h-89v280z" />
    <glyph glyph-name="Z" unicode="Z" horiz-adv-x="545" 
d="M8 67l423 558l-398 -1v76h504v-67l-426 -558l429 1v-76h-532v67z" />
    <glyph glyph-name="Aacute" unicode="&#xc1;" horiz-adv-x="602" 
d="M460 143h-321l-48 -143h-91l245 700h112l245 -700h-94zM164 218h270l-136 401zM335 787h-73v4l76 113h111v-6z" />
    <glyph glyph-name="acute" unicode="&#xb4;" horiz-adv-x="575" 
d="M310 574h-73v4l76 113h111v-6z" />
    <glyph glyph-name="Abreve" unicode="&#x102;" horiz-adv-x="602" 
d="M460 143h-321l-48 -143h-91l245 700h112l245 -700h-94zM164 218h270l-136 401zM444 904q0 -35 -10 -59t-28 -38t-44.5 -20t-59.5 -6t-59.5 6t-45 20t-28.5 38t-10 59h66q0 -39 19 -53.5t57 -14.5t57.5 14.5t19.5 53.5h66z" />
    <glyph glyph-name="breve" unicode="&#x2d8;" horiz-adv-x="575" 
d="M430 691q0 -35 -10 -59t-28 -38t-44.5 -20t-59.5 -6t-59.5 6t-45 20t-28.5 38t-10 59h66q0 -39 19 -53.5t57 -14.5t57.5 14.5t19.5 53.5h66z" />
    <glyph glyph-name="Acircumflex" unicode="&#xc2;" horiz-adv-x="602" 
d="M460 143h-321l-48 -143h-91l245 700h112l245 -700h-94zM164 218h270l-136 401zM233 787h-93v3l122 114h83l123 -114v-3h-98l-67 69z" />
    <glyph glyph-name="circumflex" unicode="&#x2c6;" horiz-adv-x="575" 
d="M216 574h-93v3l122 114h83l123 -114v-3h-98l-67 69z" />
    <glyph glyph-name="Adieresis" unicode="&#xc4;" horiz-adv-x="602" 
d="M460 143h-321l-48 -143h-91l245 700h112l245 -700h-94zM164 218h270l-136 401zM155 840q0 28 16 42t44 14t43.5 -14t15.5 -42t-15.5 -42.5t-43.5 -14.5t-44 14.5t-16 42.5zM328 840q0 28 16 42t44 14t43.5 -14t15.5 -42t-15.5 -42.5t-43.5 -14.5t-44 14.5t-16 42.5z" />
    <glyph glyph-name="dieresis" unicode="&#xa8;" horiz-adv-x="575" 
d="M147 627q0 28 16 42t44 14t43.5 -14t15.5 -42t-15.5 -42.5t-43.5 -14.5t-44 14.5t-16 42.5zM320 627q0 28 16 42t44 14t43.5 -14t15.5 -42t-15.5 -42.5t-43.5 -14.5t-44 14.5t-16 42.5z" />
    <glyph glyph-name="AE" unicode="&#xc6;" horiz-adv-x="902" 
d="M453 143h-316l-48 -143h-91l249 700h618v-76h-474l76 -233h345v-78h-320l77 -237h306v-76h-376zM164 218h266l-128 405z" />
    <glyph glyph-name="Agrave" unicode="&#xc0;" horiz-adv-x="602" 
d="M460 143h-321l-48 -143h-91l245 700h112l245 -700h-94zM164 218h270l-136 401zM158 900v6h111l77 -113v-4h-73z" />
    <glyph glyph-name="grave" unicode="`" horiz-adv-x="575" 
d="M148 685v6h111l77 -113v-4h-73z" />
    <glyph glyph-name="Amacron" unicode="&#x100;" horiz-adv-x="602" 
d="M460 143h-321l-48 -143h-91l245 700h112l245 -700h-94zM164 218h270l-136 401zM430 814h-254v59h254v-59z" />
    <glyph glyph-name="macron" unicode="&#xaf;" horiz-adv-x="575" 
d="M419 601h-254v59h254v-59z" />
    <glyph glyph-name="Aogonek" unicode="&#x104;" horiz-adv-x="602" 
d="M164 218h270l-136 401zM606 -189q-38 -23 -86 -23q-22 0 -43 5t-37 16.5t-26 31t-10 48.5q0 26 8 47.5t21 39t30.5 29.5t36.5 20l-40 118h-321l-48 -143h-91l245 700h112l245 -700h-37q-23 -2 -41 -11.5t-30 -23.5t-18.5 -31.5t-6.5 -34.5q0 -28 15 -39t43 -11
q36 0 66 18z" />
    <glyph glyph-name="Aring" unicode="&#xc5;" horiz-adv-x="602" 
d="M460 143h-321l-48 -143h-91l245 700h112l245 -700h-94zM164 218h270l-136 401zM206 854q0 44 27.5 69t69.5 25t69 -25t27 -69t-27.5 -69t-69.5 -25t-69 25t-27 69zM254 854q0 -23 13.5 -38t34.5 -15t35 15t14 38t-14 37.5t-34 14.5q-22 0 -35.5 -14.5t-13.5 -37.5z" />
    <glyph glyph-name="ring" unicode="&#x2da;" horiz-adv-x="575" 
d="M194 641q0 44 27.5 69t69.5 25t69 -25t27 -69t-27.5 -69t-69.5 -25t-69 25t-27 69zM242 641q0 -23 13.5 -38t34.5 -15t35 15t14 38t-14 37.5t-34 14.5q-22 0 -35.5 -14.5t-13.5 -37.5z" />
    <glyph glyph-name="Atilde" unicode="&#xc3;" horiz-adv-x="602" 
d="M460 143h-321l-48 -143h-91l245 700h112l245 -700h-94zM164 218h270l-136 401zM458 897q2 -29 -5.5 -48.5t-20.5 -31t-29.5 -16.5t-32.5 -5q-21 0 -39 6.5t-34 14t-30.5 14t-27.5 6.5q-18 0 -23.5 -11.5t-5.5 -25.5h-66q-2 29 5.5 48.5t20 31t28.5 16.5t33 5
q22 0 40.5 -6.5t34.5 -14t30 -14t28 -6.5q18 0 23.5 11t5.5 26h65z" />
    <glyph glyph-name="tilde" unicode="&#x2dc;" horiz-adv-x="575" 
d="M451 684q2 -29 -5.5 -48.5t-20.5 -31t-29.5 -16.5t-32.5 -5q-21 0 -39 6.5t-34 14t-30.5 14t-27.5 6.5q-18 0 -23.5 -11.5t-5.5 -25.5h-66q-2 29 5.5 48.5t20 31t28.5 16.5t33 5q22 0 40.5 -6.5t34.5 -14t30 -14t28 -6.5q18 0 23.5 11t5.5 26h65z" />
    <glyph glyph-name="Cacute" unicode="&#x106;" horiz-adv-x="674" 
d="M380 -12q-78 0 -137 20t-98.5 63.5t-59.5 112.5t-20 167t20 166.5t59.5 112t98.5 63t137 19.5q94 0 156.5 -30t98.5 -102l-70 -47q-29 61 -73.5 84t-111.5 23q-54 0 -96 -13t-71 -46t-44 -88.5t-15 -140.5t15 -141t44 -89.5t71 -47.5t96 -14q68 0 117 26t84 91l66 -45
q-43 -78 -109 -111t-158 -33zM413 788h-73v4l76 113h111v-6z" />
    <glyph glyph-name="Ccaron" unicode="&#x10c;" horiz-adv-x="674" 
d="M380 -12q-78 0 -137 20t-98.5 63.5t-59.5 112.5t-20 167t20 166.5t59.5 112t98.5 63t137 19.5q94 0 156.5 -30t98.5 -102l-70 -47q-29 61 -73.5 84t-111.5 23q-54 0 -96 -13t-71 -46t-44 -88.5t-15 -140.5t15 -141t44 -89.5t71 -47.5t96 -14q68 0 117 26t84 91l66 -45
q-43 -78 -109 -111t-158 -33zM452 905h93v-2l-123 -115h-83l-122 115v2h96l68 -67z" />
    <glyph glyph-name="caron" unicode="&#x2c7;" horiz-adv-x="575" 
d="M358 691h93v-2l-123 -115h-83l-122 115v2h96l68 -67z" />
    <glyph glyph-name="Ccedilla" unicode="&#xc7;" horiz-adv-x="674" 
d="M369 -237q-38 0 -68.5 14t-49.5 45l42 40q14 -23 30 -34.5t43 -11.5q23 0 38.5 9.5t15.5 29.5t-14.5 31t-39.5 11q-6 0 -11.5 -0.5t-11.5 -1.5l-16 15l20 79q-70 4 -122.5 26t-88 66t-53.5 110.5t-18 159.5q0 98 20 166.5t59.5 112t98.5 63t137 19.5q94 0 156.5 -30
t98.5 -102l-70 -47q-29 61 -73.5 84t-111.5 23q-54 0 -96 -13t-71 -46t-44 -88.5t-15 -140.5t15 -141t44 -89.5t71 -47.5t96 -14q68 0 117 26t84 91l66 -45q-40 -72 -99 -105t-140 -38l-14 -50h3q35 0 61 -21t26 -63q0 -23 -9.5 -40.5t-25 -29t-36.5 -17t-44 -5.5z" />
    <glyph glyph-name="Ccircumflex" unicode="&#x108;" horiz-adv-x="674" 
d="M380 -12q-78 0 -137 20t-98.5 63.5t-59.5 112.5t-20 167t20 166.5t59.5 112t98.5 63t137 19.5q94 0 156.5 -30t98.5 -102l-70 -47q-29 61 -73.5 84t-111.5 23q-54 0 -96 -13t-71 -46t-44 -88.5t-15 -140.5t15 -141t44 -89.5t71 -47.5t96 -14q68 0 117 26t84 91l66 -45
q-43 -78 -109 -111t-158 -33zM311 788h-93v3l122 114h83l123 -114v-3h-98l-67 69z" />
    <glyph glyph-name="Cdotaccent" unicode="&#x10a;" horiz-adv-x="674" 
d="M380 -12q-78 0 -137 20t-98.5 63.5t-59.5 112.5t-20 167t20 166.5t59.5 112t98.5 63t137 19.5q94 0 156.5 -30t98.5 -102l-70 -47q-29 61 -73.5 84t-111.5 23q-54 0 -96 -13t-71 -46t-44 -88.5t-15 -140.5t15 -141t44 -89.5t71 -47.5t96 -14q68 0 117 26t84 91l66 -45
q-43 -78 -109 -111t-158 -33zM322 841q0 28 16 42t44 14t43.5 -14t15.5 -42t-15.5 -42.5t-43.5 -14.5t-44 14.5t-16 42.5z" />
    <glyph glyph-name="dotaccent" unicode="&#x2d9;" horiz-adv-x="575" 
d="M230 627q0 28 16 42t44 14t43.5 -14t15.5 -42t-15.5 -42.5t-43.5 -14.5t-44 14.5t-16 42.5z" />
    <glyph glyph-name="Dcaron" unicode="&#x10e;" horiz-adv-x="728" 
d="M358 76q50 0 90 13.5t68.5 45.5t44 85t15.5 131q0 76 -14 128.5t-41 84.5t-66.5 46t-89.5 14h-178v-548h171zM98 0v700h264q153 0 228 -82.5t75 -263.5t-76.5 -267.5t-227.5 -86.5h-263zM445 904h93v-2l-123 -115h-83l-122 115v2h96l68 -67z" />
    <glyph glyph-name="Dcroat" unicode="&#x110;" horiz-adv-x="748" 
d="M118 0v323h-82v71h82v306h264q153 0 228 -82.5t75 -263.5t-76.5 -267.5t-227.5 -86.5h-263zM378 76q50 0 90 13.5t68.5 45.5t44 85t15.5 131q0 76 -14 128.5t-41 84.5t-66.5 46t-89.5 14h-178v-230h160v-71h-160v-247h171z" />
    <glyph glyph-name="Eacute" unicode="&#xc9;" horiz-adv-x="641" 
d="M98 700h506v-76h-419v-233h367v-78h-367v-237h429v-76h-516v700zM395 787h-73v4l76 113h111v-6z" />
    <glyph glyph-name="Ebreve" unicode="&#x114;" horiz-adv-x="641" 
d="M98 700h506v-76h-419v-233h367v-78h-367v-237h429v-76h-516v700zM504 904q0 -35 -10 -59t-28 -38t-44.5 -20t-59.5 -6t-59.5 6t-45 20t-28.5 38t-10 59h66q0 -39 19 -53.5t57 -14.5t57.5 14.5t19.5 53.5h66z" />
    <glyph glyph-name="Ecaron" unicode="&#x11a;" horiz-adv-x="641" 
d="M98 700h506v-76h-419v-233h367v-78h-367v-237h429v-76h-516v700zM434 904h93v-2l-123 -115h-83l-122 115v2h96l68 -67z" />
    <glyph glyph-name="Ecircumflex" unicode="&#xca;" horiz-adv-x="641" 
d="M98 700h506v-76h-419v-233h367v-78h-367v-237h429v-76h-516v700zM293 787h-93v3l122 114h83l123 -114v-3h-98l-67 69z" />
    <glyph glyph-name="Edieresis" unicode="&#xcb;" horiz-adv-x="641" 
d="M98 700h506v-76h-419v-233h367v-78h-367v-237h429v-76h-516v700zM215 840q0 28 16 42t44 14t43.5 -14t15.5 -42t-15.5 -42.5t-43.5 -14.5t-44 14.5t-16 42.5zM388 840q0 28 16 42t44 14t43.5 -14t15.5 -42t-15.5 -42.5t-43.5 -14.5t-44 14.5t-16 42.5z" />
    <glyph glyph-name="Edotaccent" unicode="&#x116;" horiz-adv-x="641" 
d="M98 700h506v-76h-419v-233h367v-78h-367v-237h429v-76h-516v700zM304 840q0 28 16 42t44 14t43.5 -14t15.5 -42t-15.5 -42.5t-43.5 -14.5t-44 14.5t-16 42.5z" />
    <glyph glyph-name="Egrave" unicode="&#xc8;" horiz-adv-x="641" 
d="M98 700h506v-76h-419v-233h367v-78h-367v-237h429v-76h-516v700zM218 900v6h111l77 -113v-4h-73z" />
    <glyph glyph-name="Emacron" unicode="&#x112;" horiz-adv-x="641" 
d="M98 700h506v-76h-419v-233h367v-78h-367v-237h429v-76h-516v700zM490 814h-254v59h254v-59z" />
    <glyph glyph-name="Eng" unicode="&#x14a;" horiz-adv-x="758" 
d="M573 -6l-392 575l3 -569h-86v700h90l389 -569l-2 569h86v-729q0 -90 -41 -131t-112 -41q-20 0 -37 2.5t-40 10.5l14 72q14 -5 26.5 -8t30.5 -3q17 0 30 5t22 17.5t14 33.5t5 53v12z" />
    <glyph glyph-name="Eogonek" unicode="&#x118;" horiz-adv-x="641" 
d="M98 700h506v-75h-418v-234h366v-78h-366v-238h428v-75q-28 -2 -48.5 -11.5t-34 -23.5t-20 -31.5t-6.5 -34.5q0 -28 15.5 -39t42.5 -11q36 0 66 18l13 -56q-19 -11 -39.5 -17t-46.5 -6q-22 0 -43 5t-37 16.5t-25.5 31t-9.5 48.5q0 37 14.5 65t38.5 46h-396v700z" />
    <glyph glyph-name="Eth" unicode="&#xd0;" horiz-adv-x="748" 
d="M118 0v323h-82v71h82v306h264q153 0 228 -82.5t75 -263.5t-76.5 -267.5t-227.5 -86.5h-263zM378 76q50 0 90 13.5t68.5 45.5t44 85t15.5 131q0 76 -14 128.5t-41 84.5t-66.5 46t-89.5 14h-178v-230h160v-71h-160v-247h171z" />
    <glyph glyph-name="Gbreve" unicode="&#x11e;" horiz-adv-x="718" 
d="M365 -12q-146 0 -223 87.5t-77 275.5q0 98 20 166.5t59.5 112t98.5 63t137 19.5q94 0 156 -30.5t98 -97.5l-71 -48q-29 56 -73 80t-110 24q-54 0 -96.5 -12.5t-71 -45t-43.5 -88.5t-15 -143q0 -84 14.5 -139.5t43 -89.5t70 -48t94.5 -14q34 0 68.5 9.5t62.5 32t46.5 60.5
t19.5 96v25h-191v70h273v-353h-74l-6 99q-29 -53 -85 -82t-125 -29zM518 905q0 -35 -10 -59t-28 -38t-44.5 -20t-59.5 -6t-59.5 6t-45 20t-28.5 38t-10 59h66q0 -39 19 -53.5t57 -14.5t57.5 14.5t19.5 53.5h66z" />
    <glyph glyph-name="Gcircumflex" unicode="&#x11c;" horiz-adv-x="718" 
d="M365 -12q-146 0 -223 87.5t-77 275.5q0 98 20 166.5t59.5 112t98.5 63t137 19.5q94 0 156 -30.5t98 -97.5l-71 -48q-29 56 -73 80t-110 24q-54 0 -96.5 -12.5t-71 -45t-43.5 -88.5t-15 -143q0 -84 14.5 -139.5t43 -89.5t70 -48t94.5 -14q34 0 68.5 9.5t62.5 32t46.5 60.5
t19.5 96v25h-191v70h273v-353h-74l-6 99q-29 -53 -85 -82t-125 -29zM307 788h-93v3l122 114h83l123 -114v-3h-98l-67 69z" />
    <glyph glyph-name="Gcommaaccent" unicode="&#x122;" horiz-adv-x="718" 
d="M365 -12q-146 0 -223 87.5t-77 275.5q0 98 20 166.5t59.5 112t98.5 63t137 19.5q94 0 156 -30.5t98 -97.5l-71 -48q-29 56 -73 80t-110 24q-54 0 -96.5 -12.5t-71 -45t-43.5 -88.5t-15 -143q0 -84 14.5 -139.5t43 -89.5t70 -48t94.5 -14q34 0 68.5 9.5t62.5 32t46.5 60.5
t19.5 96v25h-191v70h273v-353h-74l-6 99q-29 -53 -85 -82t-125 -29zM314 -252q29 8 44.5 29.5t18.5 50.5h-5q-59 0 -59 55q0 26 15 39.5t41 13.5q29 0 45 -18.5t16 -62.5q0 -51 -24 -92t-75 -55z" />
    <glyph glyph-name="commaaccent" unicode="&#xf6c3;" horiz-adv-x="575" 
d="M229 -252q29 8 44.5 29.5t18.5 50.5h-5q-59 0 -59 55q0 26 15 39.5t41 13.5q29 0 45 -18.5t16 -62.5q0 -51 -24 -92t-75 -55z" />
    <glyph glyph-name="Gdotaccent" unicode="&#x120;" horiz-adv-x="718" 
d="M365 -12q-146 0 -223 87.5t-77 275.5q0 98 20 166.5t59.5 112t98.5 63t137 19.5q94 0 156 -30.5t98 -97.5l-71 -48q-29 56 -73 80t-110 24q-54 0 -96.5 -12.5t-71 -45t-43.5 -88.5t-15 -143q0 -84 14.5 -139.5t43 -89.5t70 -48t94.5 -14q34 0 68.5 9.5t62.5 32t46.5 60.5
t19.5 96v25h-191v70h273v-353h-74l-6 99q-29 -53 -85 -82t-125 -29zM318 841q0 28 16 42t44 14t43.5 -14t15.5 -42t-15.5 -42.5t-43.5 -14.5t-44 14.5t-16 42.5z" />
    <glyph glyph-name="Hbar" unicode="&#x126;" horiz-adv-x="790" 
d="M594 313h-397v-313h-89v490h-72v61h72v149h89v-149h397v149h89v-149h72v-61h-72v-490h-89v313zM594 391v99h-397v-99h397z" />
    <glyph glyph-name="Hcircumflex" unicode="&#x124;" horiz-adv-x="770" 
d="M584 313h-397v-313h-89v700h89v-309h397v309h89v-700h-89v313zM316 788h-93v3l122 114h83l123 -114v-3h-98l-67 69z" />
    <glyph glyph-name="Iacute" unicode="&#xcd;" horiz-adv-x="284" 
d="M98 700h89v-700h-89v700zM179 787h-73v4l76 113h111v-6z" />
    <glyph glyph-name="Ibreve" unicode="&#x12c;" horiz-adv-x="284" 
d="M98 700h89v-700h-89v700zM288 904q0 -35 -10 -59t-28 -38t-44.5 -20t-59.5 -6t-59.5 6t-45 20t-28.5 38t-10 59h66q0 -39 19 -53.5t57 -14.5t57.5 14.5t19.5 53.5h66z" />
    <glyph glyph-name="Icircumflex" unicode="&#xce;" horiz-adv-x="284" 
d="M98 700h89v-700h-89v700zM77 787h-93v3l122 114h83l123 -114v-3h-98l-67 69z" />
    <glyph glyph-name="Idieresis" unicode="&#xcf;" horiz-adv-x="284" 
d="M98 700h89v-700h-89v700zM-1 840q0 28 16 42t44 14t43.5 -14t15.5 -42t-15.5 -42.5t-43.5 -14.5t-44 14.5t-16 42.5zM172 840q0 28 16 42t44 14t43.5 -14t15.5 -42t-15.5 -42.5t-43.5 -14.5t-44 14.5t-16 42.5z" />
    <glyph glyph-name="Idotaccent" unicode="&#x130;" horiz-adv-x="284" 
d="M98 700h89v-700h-89v700zM88 840q0 28 16 42t44 14t43.5 -14t15.5 -42t-15.5 -42.5t-43.5 -14.5t-44 14.5t-16 42.5z" />
    <glyph glyph-name="Igrave" unicode="&#xcc;" horiz-adv-x="284" 
d="M98 700h89v-700h-89v700zM2 900v6h111l77 -113v-4h-73z" />
    <glyph glyph-name="IJ" unicode="&#x132;" horiz-adv-x="797" 
d="M98 700h89v-700h-89v700zM475 -12q-43 0 -83 11.5t-75 37.5l41 67q26 -21 58 -31.5t66 -10.5q66 0 106.5 43.5t40.5 145.5v449h89v-442q0 -77 -18 -129t-50.5 -83.5t-77 -44.5t-97.5 -13z" />
    <glyph glyph-name="Imacron" unicode="&#x12a;" horiz-adv-x="284" 
d="M98 700h89v-700h-89v700zM274 814h-254v59h254v-59z" />
    <glyph glyph-name="Iogonek" unicode="&#x12e;" horiz-adv-x="284" 
d="M101 -212q-22 0 -43 5t-37 16.5t-25.5 31t-9.5 48.5t9.5 52.5t25 41t35.5 29.5t42 18v670h89v-700h-41q-23 -2 -41 -11.5t-30 -23.5t-18.5 -31.5t-6.5 -34.5q0 -28 15.5 -39t42.5 -11q36 0 66 18l13 -56q-19 -11 -39.5 -17t-46.5 -6z" />
    <glyph glyph-name="Itilde" unicode="&#x128;" horiz-adv-x="284" 
d="M98 700h89v-700h-89v700zM302 897q2 -29 -5.5 -48.5t-20.5 -31t-29.5 -16.5t-32.5 -5q-21 0 -39 6.5t-34 14t-30.5 14t-27.5 6.5q-18 0 -23.5 -11.5t-5.5 -25.5h-66q-2 29 5.5 48.5t20 31t28.5 16.5t33 5q22 0 40.5 -6.5t34.5 -14t30 -14t28 -6.5q18 0 23.5 11t5.5 26h65
z" />
    <glyph glyph-name="Jcircumflex" unicode="&#x134;" horiz-adv-x="484" 
d="M162 -12q-43 0 -83 11.5t-75 37.5l41 67q26 -21 58 -31.5t66 -10.5q66 0 106.5 43.5t40.5 145.5v449h89v-442q0 -77 -18 -129t-50.5 -83.5t-77 -44.5t-97.5 -13zM292 787h-93v3l122 114h83l123 -114v-3h-98l-67 69z" />
    <glyph glyph-name="Kcommaaccent" unicode="&#x136;" horiz-adv-x="616" 
d="M98 700h89v-389l319 389h106l-262 -313l277 -387h-106l-230 322l-104 -123v-199h-89v700zM278 -252q29 8 44.5 29.5t18.5 50.5h-5q-59 0 -59 55q0 26 15 39.5t41 13.5q29 0 45 -18.5t16 -62.5q0 -51 -24 -92t-75 -55z" />
    <glyph glyph-name="Lacute" unicode="&#x139;" horiz-adv-x="608" 
d="M594 76v-76h-496v700h89v-624h407zM176 787h-73v4l76 113h111v-6z" />
    <glyph glyph-name="Lcaron" unicode="&#x13d;" horiz-adv-x="608" 
d="M383 481l7 220h84l-32 -220h-59zM594 76v-76h-496v700h89v-624h407z" />
    <glyph glyph-name="caronSlovak" horiz-adv-x="575" 
d="M247 481l7 220h84l-32 -220h-59z" />
    <glyph glyph-name="Lcommaaccent" unicode="&#x13b;" horiz-adv-x="608" 
d="M594 76v-76h-496v700h89v-624h407zM290 -252q29 8 44.5 29.5t18.5 50.5h-5q-59 0 -59 55q0 26 15 39.5t41 13.5q29 0 45 -18.5t16 -62.5q0 -51 -24 -92t-75 -55z" />
    <glyph glyph-name="Ldot" unicode="&#x13f;" horiz-adv-x="608" 
d="M594 76v-76h-496v700h89v-624h407zM383 350q0 28 16 42t44 14t43.5 -14t15.5 -42t-15.5 -42.5t-43.5 -14.5t-44 14.5t-16 42.5z" />
    <glyph glyph-name="Lslash" unicode="&#x141;" horiz-adv-x="628" 
d="M614 76v-76h-496v251l-105 -66v81l105 66v368h89v-312l177 111v-82l-177 -111v-230h407z" />
    <glyph glyph-name="Nacute" unicode="&#x143;" horiz-adv-x="758" 
d="M181 569l3 -569h-86v700h90l389 -569l-2 569h86v-700h-92zM411 788h-73v4l76 113h111v-6z" />
    <glyph glyph-name="Ncaron" unicode="&#x147;" horiz-adv-x="758" 
d="M181 569l3 -569h-86v700h90l389 -569l-2 569h86v-700h-92zM450 905h93v-2l-123 -115h-83l-122 115v2h96l68 -67z" />
    <glyph glyph-name="Ncommaaccent" unicode="&#x145;" horiz-adv-x="758" 
d="M181 569l3 -569h-86v700h90l389 -569l-2 569h86v-700h-92zM323 -252q29 8 44.5 29.5t18.5 50.5h-5q-59 0 -59 55q0 26 15 39.5t41 13.5q29 0 45 -18.5t16 -62.5q0 -51 -24 -92t-75 -55z" />
    <glyph glyph-name="Ntilde" unicode="&#xd1;" horiz-adv-x="758" 
d="M181 569l3 -569h-86v700h90l389 -569l-2 569h86v-700h-92zM534 898q2 -29 -5.5 -48.5t-20.5 -31t-29.5 -16.5t-32.5 -5q-21 0 -39 6.5t-34 14t-30.5 14t-27.5 6.5q-18 0 -23.5 -11.5t-5.5 -25.5h-66q-2 29 5.5 48.5t20 31t28.5 16.5t33 5q22 0 40.5 -6.5t34.5 -14t30 -14
t28 -6.5q18 0 23.5 11t5.5 26h65z" />
    <glyph glyph-name="Oacute" unicode="&#xd3;" horiz-adv-x="757" 
d="M65 351q0 96 19.5 164.5t58.5 112t98 64t138 20.5q82 0 141.5 -20.5t98 -64t57 -112t18.5 -164.5q0 -192 -79 -277.5t-236 -85.5q-80 0 -139 20.5t-98 65t-58 113t-19 164.5zM154 350q0 -83 14.5 -138.5t43 -89.5t70.5 -48t97 -14t97.5 14t71 47.5t43 89.5t14.5 141
q0 82 -14.5 137.5t-43 89t-71 47.5t-97.5 14t-97 -13.5t-70.5 -46.5t-43 -89t-14.5 -141zM412 788h-73v4l76 113h111v-6z" />
    <glyph glyph-name="Obreve" unicode="&#x14e;" horiz-adv-x="757" 
d="M65 351q0 96 19.5 164.5t58.5 112t98 64t138 20.5q82 0 141.5 -20.5t98 -64t57 -112t18.5 -164.5q0 -192 -79 -277.5t-236 -85.5q-80 0 -139 20.5t-98 65t-58 113t-19 164.5zM154 350q0 -83 14.5 -138.5t43 -89.5t70.5 -48t97 -14t97.5 14t71 47.5t43 89.5t14.5 141
q0 82 -14.5 137.5t-43 89t-71 47.5t-97.5 14t-97 -13.5t-70.5 -46.5t-43 -89t-14.5 -141zM521 905q0 -35 -10 -59t-28 -38t-44.5 -20t-59.5 -6t-59.5 6t-45 20t-28.5 38t-10 59h66q0 -39 19 -53.5t57 -14.5t57.5 14.5t19.5 53.5h66z" />
    <glyph glyph-name="Ocircumflex" unicode="&#xd4;" horiz-adv-x="757" 
d="M65 351q0 96 19.5 164.5t58.5 112t98 64t138 20.5q82 0 141.5 -20.5t98 -64t57 -112t18.5 -164.5q0 -192 -79 -277.5t-236 -85.5q-80 0 -139 20.5t-98 65t-58 113t-19 164.5zM154 350q0 -83 14.5 -138.5t43 -89.5t70.5 -48t97 -14t97.5 14t71 47.5t43 89.5t14.5 141
q0 82 -14.5 137.5t-43 89t-71 47.5t-97.5 14t-97 -13.5t-70.5 -46.5t-43 -89t-14.5 -141zM310 788h-93v3l122 114h83l123 -114v-3h-98l-67 69z" />
    <glyph glyph-name="Odieresis" unicode="&#xd6;" horiz-adv-x="757" 
d="M65 351q0 96 19.5 164.5t58.5 112t98 64t138 20.5q82 0 141.5 -20.5t98 -64t57 -112t18.5 -164.5q0 -192 -79 -277.5t-236 -85.5q-80 0 -139 20.5t-98 65t-58 113t-19 164.5zM154 350q0 -83 14.5 -138.5t43 -89.5t70.5 -48t97 -14t97.5 14t71 47.5t43 89.5t14.5 141
q0 82 -14.5 137.5t-43 89t-71 47.5t-97.5 14t-97 -13.5t-70.5 -46.5t-43 -89t-14.5 -141zM232 841q0 28 16 42t44 14t43.5 -14t15.5 -42t-15.5 -42.5t-43.5 -14.5t-44 14.5t-16 42.5zM405 841q0 28 16 42t44 14t43.5 -14t15.5 -42t-15.5 -42.5t-43.5 -14.5t-44 14.5
t-16 42.5z" />
    <glyph glyph-name="OE" unicode="&#x152;" horiz-adv-x="1079" 
d="M371 0q-156 0 -231.5 86t-75.5 268q0 181 76 263.5t233 82.5h669v-76h-411v-233h359v-78h-359v-237h421v-76h-681zM542 76v548h-172q-52 0 -92.5 -14t-68 -46t-42 -84.5t-14.5 -128.5q0 -78 15 -131t43.5 -85t69.5 -45.5t93 -13.5h168z" />
    <glyph glyph-name="Ograve" unicode="&#xd2;" horiz-adv-x="757" 
d="M65 351q0 96 19.5 164.5t58.5 112t98 64t138 20.5q82 0 141.5 -20.5t98 -64t57 -112t18.5 -164.5q0 -192 -79 -277.5t-236 -85.5q-80 0 -139 20.5t-98 65t-58 113t-19 164.5zM154 350q0 -83 14.5 -138.5t43 -89.5t70.5 -48t97 -14t97.5 14t71 47.5t43 89.5t14.5 141
q0 82 -14.5 137.5t-43 89t-71 47.5t-97.5 14t-97 -13.5t-70.5 -46.5t-43 -89t-14.5 -141zM235 901v6h111l77 -113v-4h-73z" />
    <glyph glyph-name="Ohungarumlaut" unicode="&#x150;" horiz-adv-x="757" 
d="M65 351q0 96 19.5 164.5t58.5 112t98 64t138 20.5q82 0 141.5 -20.5t98 -64t57 -112t18.5 -164.5q0 -192 -79 -277.5t-236 -85.5q-80 0 -139 20.5t-98 65t-58 113t-19 164.5zM154 350q0 -83 14.5 -138.5t43 -89.5t70.5 -48t97 -14t97.5 14t71 47.5t43 89.5t14.5 141
q0 82 -14.5 137.5t-43 89t-71 47.5t-97.5 14t-97 -13.5t-70.5 -46.5t-43 -89t-14.5 -141zM331 788h-70v4l62 113h100v-6zM460 788h-70v4l77 113h113v-6z" />
    <glyph glyph-name="hungarumlaut" unicode="&#x2dd;" horiz-adv-x="575" 
d="M246 574h-70v4l62 113h100v-6zM375 574h-70v4l77 113h113v-6z" />
    <glyph glyph-name="Omacron" unicode="&#x14c;" horiz-adv-x="757" 
d="M65 351q0 96 19.5 164.5t58.5 112t98 64t138 20.5q82 0 141.5 -20.5t98 -64t57 -112t18.5 -164.5q0 -192 -79 -277.5t-236 -85.5q-80 0 -139 20.5t-98 65t-58 113t-19 164.5zM154 350q0 -83 14.5 -138.5t43 -89.5t70.5 -48t97 -14t97.5 14t71 47.5t43 89.5t14.5 141
q0 82 -14.5 137.5t-43 89t-71 47.5t-97.5 14t-97 -13.5t-70.5 -46.5t-43 -89t-14.5 -141zM507 815h-254v59h254v-59z" />
    <glyph glyph-name="Oslash" unicode="&#xd8;" horiz-adv-x="767" 
d="M33 0l91 104q-54 87 -54 247q0 96 19.5 164.5t58.5 112t98 64t138 20.5q72 0 126 -15.5t92 -48.5l46 52h94l-94 -107q51 -87 51 -242q0 -192 -79 -277.5t-236 -85.5q-69 0 -122 14.5t-91 46.5l-43 -49h-95zM384 60q55 0 97.5 14t71 47.5t43 89.5t14.5 141q0 107 -25 169
l-359 -410q28 -28 67.5 -39.5t90.5 -11.5zM384 640q-55 0 -97 -13.5t-70.5 -46.5t-43 -89t-14.5 -141q0 -112 27 -176l361 410q-29 30 -69.5 43t-93.5 13z" />
    <glyph glyph-name="Otilde" unicode="&#xd5;" horiz-adv-x="757" 
d="M65 351q0 96 19.5 164.5t58.5 112t98 64t138 20.5q82 0 141.5 -20.5t98 -64t57 -112t18.5 -164.5q0 -192 -79 -277.5t-236 -85.5q-80 0 -139 20.5t-98 65t-58 113t-19 164.5zM154 350q0 -83 14.5 -138.5t43 -89.5t70.5 -48t97 -14t97.5 14t71 47.5t43 89.5t14.5 141
q0 82 -14.5 137.5t-43 89t-71 47.5t-97.5 14t-97 -13.5t-70.5 -46.5t-43 -89t-14.5 -141zM535 898q2 -29 -5.5 -48.5t-20.5 -31t-29.5 -16.5t-32.5 -5q-21 0 -39 6.5t-34 14t-30.5 14t-27.5 6.5q-18 0 -23.5 -11.5t-5.5 -25.5h-66q-2 29 5.5 48.5t20 31t28.5 16.5t33 5
q22 0 40.5 -6.5t34.5 -14t30 -14t28 -6.5q18 0 23.5 11t5.5 26h65z" />
    <glyph glyph-name="Racute" unicode="&#x154;" horiz-adv-x="651" 
d="M98 700h278q119 0 177 -54.5t58 -155.5q0 -83 -36 -135t-102 -75l150 -280h-98l-142 265h-196v-265h-89v700zM187 624v-282h188q69 0 108 35.5t39 109.5q0 66 -35.5 101.5t-110.5 35.5h-189zM395 787h-73v4l76 113h111v-6z" />
    <glyph glyph-name="Rcaron" unicode="&#x158;" horiz-adv-x="651" 
d="M98 700h278q119 0 177 -54.5t58 -155.5q0 -83 -36 -135t-102 -75l150 -280h-98l-142 265h-196v-265h-89v700zM187 624v-282h188q69 0 108 35.5t39 109.5q0 66 -35.5 101.5t-110.5 35.5h-189zM434 904h93v-2l-123 -115h-83l-122 115v2h96l68 -67z" />
    <glyph glyph-name="Rcommaaccent" unicode="&#x156;" horiz-adv-x="651" 
d="M98 700h278q119 0 177 -54.5t58 -155.5q0 -83 -36 -135t-102 -75l150 -280h-98l-142 265h-196v-265h-89v700zM187 624v-282h188q69 0 108 35.5t39 109.5q0 66 -35.5 101.5t-110.5 35.5h-189zM278 -252q29 8 44.5 29.5t18.5 50.5h-5q-59 0 -59 55q0 26 15 39.5t41 13.5
q29 0 45 -18.5t16 -62.5q0 -51 -24 -92t-75 -55z" />
    <glyph glyph-name="Sacute" unicode="&#x15a;" horiz-adv-x="604" 
d="M470 544q-28 51 -68.5 75t-106.5 24q-44 0 -74 -8.5t-49 -23.5t-27 -35t-8 -44q0 -22 6.5 -41t22 -35.5t41.5 -29.5t64 -22l65 -15q115 -26 168 -73t53 -128q0 -100 -67.5 -150t-189.5 -50q-44 0 -83.5 7t-74 23t-64 42t-52.5 64l70 44q39 -58 85 -84.5t117 -26.5
q92 0 133 32t41 92q0 26 -7 45t-24.5 33.5t-46 25.5t-71.5 22l-65 16q-204 50 -204 205q0 82 60 133t181 51q50 0 88 -8t67 -23.5t50.5 -39t39.5 -53.5zM330 787h-73v4l76 113h111v-6z" />
    <glyph glyph-name="Scaron" unicode="&#x160;" horiz-adv-x="604" 
d="M470 544q-28 51 -68.5 75t-106.5 24q-44 0 -74 -8.5t-49 -23.5t-27 -35t-8 -44q0 -22 6.5 -41t22 -35.5t41.5 -29.5t64 -22l65 -15q115 -26 168 -73t53 -128q0 -100 -67.5 -150t-189.5 -50q-44 0 -83.5 7t-74 23t-64 42t-52.5 64l70 44q39 -58 85 -84.5t117 -26.5
q92 0 133 32t41 92q0 26 -7 45t-24.5 33.5t-46 25.5t-71.5 22l-65 16q-204 50 -204 205q0 82 60 133t181 51q50 0 88 -8t67 -23.5t50.5 -39t39.5 -53.5zM369 904h93v-2l-123 -115h-83l-122 115v2h96l68 -67z" />
    <glyph glyph-name="Scedilla" unicode="&#x15e;" horiz-adv-x="604" 
d="M290 -238q-38 0 -68.5 14t-49.5 45l42 40q14 -23 30 -34.5t43 -11.5q23 0 38.5 9.5t15.5 29.5t-14.5 31t-39.5 11q-6 0 -11.5 -0.5t-11.5 -1.5l-16 15l20 80q-77 5 -138.5 35t-103.5 100l70 44q39 -58 85 -84.5t117 -26.5q92 0 133 32t41 92q0 26 -7 45t-24.5 33.5
t-46 25.5t-71.5 22l-65 16q-204 50 -204 205q0 82 60 133t181 51q50 0 88 -8t67 -23.5t50.5 -39t39.5 -53.5l-70 -44q-28 51 -68.5 75t-106.5 24q-44 0 -74 -8.5t-49 -23.5t-27 -35t-8 -44q0 -22 6.5 -41t22 -35.5t41.5 -29.5t64 -22l65 -15q115 -26 168 -73t53 -128
q0 -94 -59.5 -143.5t-168.5 -55.5l-14 -51h3q35 0 61 -21t26 -63q0 -23 -9.5 -40.5t-25 -29t-36.5 -17t-44 -5.5z" />
    <glyph glyph-name="Scircumflex" unicode="&#x15c;" horiz-adv-x="604" 
d="M470 544q-28 51 -68.5 75t-106.5 24q-44 0 -74 -8.5t-49 -23.5t-27 -35t-8 -44q0 -22 6.5 -41t22 -35.5t41.5 -29.5t64 -22l65 -15q115 -26 168 -73t53 -128q0 -100 -67.5 -150t-189.5 -50q-44 0 -83.5 7t-74 23t-64 42t-52.5 64l70 44q39 -58 85 -84.5t117 -26.5
q92 0 133 32t41 92q0 26 -7 45t-24.5 33.5t-46 25.5t-71.5 22l-65 16q-204 50 -204 205q0 82 60 133t181 51q50 0 88 -8t67 -23.5t50.5 -39t39.5 -53.5zM228 787h-93v3l122 114h83l123 -114v-3h-98l-67 69z" />
    <glyph glyph-name="Scommaaccent" unicode="&#x218;" horiz-adv-x="604" 
d="M470 544q-28 51 -68.5 75t-106.5 24q-44 0 -74 -8.5t-49 -23.5t-27 -35t-8 -44q0 -22 6.5 -41t22 -35.5t41.5 -29.5t64 -22l65 -15q115 -26 168 -73t53 -128q0 -100 -67.5 -150t-189.5 -50q-44 0 -83.5 7t-74 23t-64 42t-52.5 64l70 44q39 -58 85 -84.5t117 -26.5
q92 0 133 32t41 92q0 26 -7 45t-24.5 33.5t-46 25.5t-71.5 22l-65 16q-204 50 -204 205q0 82 60 133t181 51q50 0 88 -8t67 -23.5t50.5 -39t39.5 -53.5zM243 -252q29 8 44.5 29.5t18.5 50.5h-5q-59 0 -59 55q0 26 15 39.5t41 13.5q29 0 45 -18.5t16 -62.5q0 -51 -24 -92
t-75 -55z" />
    <glyph glyph-name="Tbar" unicode="&#x166;" horiz-adv-x="546" 
d="M547 700v-76h-228v-243h180v-60h-180v-321h-90v321h-180v60h180v243h-228v76h546z" />
    <glyph glyph-name="Tcaron" unicode="&#x164;" horiz-adv-x="546" 
d="M547 700v-76h-229v-624h-89v624h-229v76h547zM346 904h93v-2l-123 -115h-83l-122 115v2h96l68 -67z" />
    <glyph glyph-name="Tcommaaccent" unicode="&#x162;" horiz-adv-x="546" 
d="M547 700v-76h-229v-624h-89v624h-229v76h547zM219 -252q29 8 44.5 29.5t18.5 50.5h-5q-59 0 -59 55q0 26 15 39.5t41 13.5q29 0 45 -18.5t16 -62.5q0 -51 -24 -92t-75 -55z" />
    <glyph glyph-name="Thorn" unicode="&#xde;" horiz-adv-x="628" 
d="M98 700h89v-131h186q115 0 170 -53t55 -151q0 -109 -61.5 -163.5t-174.5 -54.5h-175v-147h-89v700zM187 492v-269h185q66 0 101.5 33.5t35.5 102.5q0 64 -33 98.5t-103 34.5h-186z" />
    <glyph glyph-name="Uacute" unicode="&#xda;" horiz-adv-x="727" 
d="M559 700h89v-425q0 -142 -75.5 -214.5t-208.5 -72.5q-135 0 -209.5 72t-74.5 215v425h89v-429q0 -56 14 -96t39.5 -65.5t61.5 -37.5t80 -12t80 12t61.5 37.5t39.5 65.5t14 96v429zM398 788h-73v4l76 113h111v-6z" />
    <glyph glyph-name="Ubreve" unicode="&#x16c;" horiz-adv-x="727" 
d="M559 700h89v-425q0 -142 -75.5 -214.5t-208.5 -72.5q-135 0 -209.5 72t-74.5 215v425h89v-429q0 -56 14 -96t39.5 -65.5t61.5 -37.5t80 -12t80 12t61.5 37.5t39.5 65.5t14 96v429zM507 905q0 -35 -10 -59t-28 -38t-44.5 -20t-59.5 -6t-59.5 6t-45 20t-28.5 38t-10 59h66
q0 -39 19 -53.5t57 -14.5t57.5 14.5t19.5 53.5h66z" />
    <glyph glyph-name="Ucircumflex" unicode="&#xdb;" horiz-adv-x="727" 
d="M559 700h89v-425q0 -142 -75.5 -214.5t-208.5 -72.5q-135 0 -209.5 72t-74.5 215v425h89v-429q0 -56 14 -96t39.5 -65.5t61.5 -37.5t80 -12t80 12t61.5 37.5t39.5 65.5t14 96v429zM296 788h-93v3l122 114h83l123 -114v-3h-98l-67 69z" />
    <glyph glyph-name="Udieresis" unicode="&#xdc;" horiz-adv-x="727" 
d="M559 700h89v-425q0 -142 -75.5 -214.5t-208.5 -72.5q-135 0 -209.5 72t-74.5 215v425h89v-429q0 -56 14 -96t39.5 -65.5t61.5 -37.5t80 -12t80 12t61.5 37.5t39.5 65.5t14 96v429zM218 841q0 28 16 42t44 14t43.5 -14t15.5 -42t-15.5 -42.5t-43.5 -14.5t-44 14.5
t-16 42.5zM391 841q0 28 16 42t44 14t43.5 -14t15.5 -42t-15.5 -42.5t-43.5 -14.5t-44 14.5t-16 42.5z" />
    <glyph glyph-name="Ugrave" unicode="&#xd9;" horiz-adv-x="727" 
d="M559 700h89v-425q0 -142 -75.5 -214.5t-208.5 -72.5q-135 0 -209.5 72t-74.5 215v425h89v-429q0 -56 14 -96t39.5 -65.5t61.5 -37.5t80 -12t80 12t61.5 37.5t39.5 65.5t14 96v429zM221 901v6h111l77 -113v-4h-73z" />
    <glyph glyph-name="Uhungarumlaut" unicode="&#x170;" horiz-adv-x="727" 
d="M559 700h89v-425q0 -142 -75.5 -214.5t-208.5 -72.5q-135 0 -209.5 72t-74.5 215v425h89v-429q0 -56 14 -96t39.5 -65.5t61.5 -37.5t80 -12t80 12t61.5 37.5t39.5 65.5t14 96v429zM317 788h-70v4l62 113h100v-6zM446 788h-70v4l77 113h113v-6z" />
    <glyph glyph-name="Umacron" unicode="&#x16a;" horiz-adv-x="727" 
d="M559 700h89v-425q0 -142 -75.5 -214.5t-208.5 -72.5q-135 0 -209.5 72t-74.5 215v425h89v-429q0 -56 14 -96t39.5 -65.5t61.5 -37.5t80 -12t80 12t61.5 37.5t39.5 65.5t14 96v429zM493 815h-254v59h254v-59z" />
    <glyph glyph-name="Uogonek" unicode="&#x172;" horiz-adv-x="728" 
d="M325 -99q0 27 9 49t24 39h-4q-129 4 -201 75.5t-72 210.5v425h89v-429q0 -56 14 -96t39.5 -65.5t61.5 -37t80 -11.5t80 11.5t61.5 37t39.5 65.5t14 96v429h89v-425q0 -116 -51 -183.5t-142 -93.5q-32 -10 -49.5 -35.5t-17.5 -51.5q0 -35 15.5 -48.5t42.5 -13.5
q36 0 66 18l13 -56q-19 -11 -39.5 -17t-46.5 -6q-22 0 -43 5.5t-37 18.5t-25.5 34.5t-9.5 54.5z" />
    <glyph glyph-name="Uring" unicode="&#x16e;" horiz-adv-x="727" 
d="M559 700h89v-425q0 -142 -75.5 -214.5t-208.5 -72.5q-135 0 -209.5 72t-74.5 215v425h89v-429q0 -56 14 -96t39.5 -65.5t61.5 -37.5t80 -12t80 12t61.5 37.5t39.5 65.5t14 96v429zM269 855q0 44 27.5 69t69.5 25t69 -25t27 -69t-27.5 -69t-69.5 -25t-69 25t-27 69z
M317 855q0 -23 13.5 -38t34.5 -15t35 15t14 38t-14 37.5t-34 14.5q-22 0 -35.5 -14.5t-13.5 -37.5z" />
    <glyph glyph-name="Utilde" unicode="&#x168;" horiz-adv-x="727" 
d="M559 700h89v-425q0 -142 -75.5 -214.5t-208.5 -72.5q-135 0 -209.5 72t-74.5 215v425h89v-429q0 -56 14 -96t39.5 -65.5t61.5 -37.5t80 -12t80 12t61.5 37.5t39.5 65.5t14 96v429zM521 898q2 -29 -5.5 -48.5t-20.5 -31t-29.5 -16.5t-32.5 -5q-21 0 -39 6.5t-34 14
t-30.5 14t-27.5 6.5q-18 0 -23.5 -11.5t-5.5 -25.5h-66q-2 29 5.5 48.5t20 31t28.5 16.5t33 5q22 0 40.5 -6.5t34.5 -14t30 -14t28 -6.5q18 0 23.5 11t5.5 26h65z" />
    <glyph glyph-name="Wacute" unicode="&#x1e82;" horiz-adv-x="897" 
d="M493 698l158 -569l160 571h86l-205 -700h-85l-159 572l-158 -572h-86l-204 700h91l157 -575l158 573h87zM481 787h-73v4l76 113h111v-6z" />
    <glyph glyph-name="Wdieresis" unicode="&#x1e84;" horiz-adv-x="897" 
d="M493 698l158 -569l160 571h86l-205 -700h-85l-159 572l-158 -572h-86l-204 700h91l157 -575l158 573h87zM301 840q0 28 16 42t44 14t43.5 -14t15.5 -42t-15.5 -42.5t-43.5 -14.5t-44 14.5t-16 42.5zM474 840q0 28 16 42t44 14t43.5 -14t15.5 -42t-15.5 -42.5t-43.5 -14.5
t-44 14.5t-16 42.5z" />
    <glyph glyph-name="Wgrave" unicode="&#x1e80;" horiz-adv-x="897" 
d="M493 698l158 -569l160 571h86l-205 -700h-85l-159 572l-158 -572h-86l-204 700h91l157 -575l158 573h87zM304 900v6h111l77 -113v-4h-73z" />
    <glyph glyph-name="Wcircumflex" unicode="&#x174;" horiz-adv-x="897" 
d="M493 698l158 -569l160 571h86l-205 -700h-85l-159 572l-158 -572h-86l-204 700h91l157 -575l158 573h87zM379 787h-93v3l122 114h83l123 -114v-3h-98l-67 69z" />
    <glyph glyph-name="Yacute" unicode="&#xdd;" horiz-adv-x="590" 
d="M0 700h96l201 -346l200 346h93l-250 -420v-280h-89v280zM329 788h-73v4l76 113h111v-6z" />
    <glyph glyph-name="Ycircumflex" unicode="&#x176;" horiz-adv-x="590" 
d="M0 700h96l201 -346l200 346h93l-250 -420v-280h-89v280zM227 788h-93v3l122 114h83l123 -114v-3h-98l-67 69z" />
    <glyph glyph-name="Ydieresis" unicode="&#x178;" horiz-adv-x="590" 
d="M0 700h96l201 -346l200 346h93l-250 -420v-280h-89v280zM149 841q0 28 16 42t44 14t43.5 -14t15.5 -42t-15.5 -42.5t-43.5 -14.5t-44 14.5t-16 42.5zM322 841q0 28 16 42t44 14t43.5 -14t15.5 -42t-15.5 -42.5t-43.5 -14.5t-44 14.5t-16 42.5z" />
    <glyph glyph-name="Zacute" unicode="&#x179;" horiz-adv-x="545" 
d="M8 67l423 558l-398 -1v76h504v-67l-426 -558l429 1v-76h-532v67zM308 787h-73v4l76 113h111v-6z" />
    <glyph glyph-name="Zcaron" unicode="&#x17d;" horiz-adv-x="545" 
d="M8 67l423 558l-398 -1v76h504v-67l-426 -558l429 1v-76h-532v67zM347 904h93v-2l-123 -115h-83l-122 115v2h96l68 -67z" />
    <glyph glyph-name="Zdotaccent" unicode="&#x17b;" horiz-adv-x="545" 
d="M8 67l423 558l-398 -1v76h504v-67l-426 -558l429 1v-76h-532v67zM217 840q0 28 16 42t44 14t43.5 -14t15.5 -42t-15.5 -42.5t-43.5 -14.5t-44 14.5t-16 42.5z" />
    <glyph glyph-name="a" unicode="a" horiz-adv-x="586" 
d="M422 87q-24 -50 -68 -74.5t-104 -24.5q-100 0 -152.5 65.5t-52.5 190.5t55.5 190t160.5 65q56 0 97.5 -23t65.5 -71l9 82h73v-487h-79zM420 245q0 49 -11.5 84t-31 57.5t-46 33t-57.5 10.5q-73 0 -108 -45t-35 -142t35.5 -141.5t106.5 -44.5q31 0 58 10.5t46.5 33.5
t31 58.5t11.5 85.5z" />
    <glyph glyph-name="b" unicode="b" horiz-adv-x="589" 
d="M167 405q25 48 69 71t105 23q100 0 152 -63.5t52 -191.5q0 -125 -56 -190.5t-161 -65.5q-55 0 -97 21.5t-68 69.5l-5 -79h-77v700h86v-295zM167 242q0 -49 11 -84t30.5 -57.5t47 -33t59.5 -10.5q72 0 108 44.5t36 141.5t-36 142t-105 45q-66 0 -108.5 -44.5t-42.5 -143.5
z" />
    <glyph glyph-name="c" unicode="c" horiz-adv-x="507" 
d="M277 -12q-111 0 -171.5 60.5t-60.5 195.5q0 132 60.5 193.5t172.5 61.5q76 0 123.5 -28t76.5 -81l-62 -40q-20 38 -54.5 59t-83.5 21q-38 0 -66 -9.5t-46 -31.5t-26.5 -58t-8.5 -88q0 -103 36 -144.5t110 -41.5q53 0 86 19t56 67l65 -34q-29 -64 -81 -92.5t-126 -28.5z
" />
    <glyph glyph-name="d" unicode="d" horiz-adv-x="589" 
d="M425 87q-24 -50 -68.5 -74.5t-106.5 -24.5q-100 0 -152.5 65.5t-52.5 190.5t55.5 190t160.5 65q110 0 162 -82v283h86v-700h-79zM423 245q0 49 -11.5 84t-31.5 57.5t-47 33t-59 10.5q-73 0 -108 -45t-35 -142t35.5 -141.5t106.5 -44.5q32 0 59.5 10.5t47.5 33.5
t31.5 58.5t11.5 85.5z" />
    <glyph glyph-name="e" unicode="e" horiz-adv-x="522" 
d="M275 -12q-110 0 -170 61.5t-60 193.5q0 126 59 191t173 65q54 0 93 -17.5t64.5 -49t38 -74.5t12.5 -94q0 -11 -0.5 -22.5t-1.5 -23.5h-353q5 -89 41.5 -125t105.5 -36q52 0 86 17.5t57 67.5l64 -33q-29 -64 -83 -92.5t-126 -28.5zM273 431q-63 0 -99 -33.5t-43 -113.5
h269q-3 79 -36 113t-91 34z" />
    <glyph glyph-name="f" unicode="f" horiz-adv-x="328" 
d="M104 487v59q0 92 41.5 132t114.5 40q20 0 41 -3.5t38 -10.5l-14 -72q-14 5 -27 8.5t-32 3.5q-36 0 -57 -21.5t-21 -81.5v-54h141v-67h-141v-420h-84v420h-90v67h90z" />
    <glyph glyph-name="g" unicode="g" horiz-adv-x="588" 
d="M508 29q0 -61 -18 -104.5t-50.5 -71.5t-77.5 -41t-99 -13q-72 0 -125.5 25t-84.5 90l62 44q25 -50 61 -69.5t87 -19.5q35 0 64 8.5t50 26.5t33 46.5t12 69.5v73q-24 -47 -67 -69.5t-103 -22.5q-98 0 -152.5 63t-54.5 187q0 121 53 184.5t155 63.5q60 0 104 -22.5
t68 -68.5l9 79h74v-458zM422 253q0 48 -11.5 81.5t-31.5 55t-47.5 31.5t-59.5 10q-72 0 -106.5 -43t-34.5 -136q0 -94 35 -137.5t106 -43.5q32 0 59.5 10t47.5 32t31.5 56.5t11.5 83.5z" />
    <glyph glyph-name="h" unicode="h" horiz-adv-x="605" 
d="M167 393q27 57 77.5 81.5t107.5 24.5q92 0 136 -49t44 -146v-304h-86v282q0 78 -31.5 111t-88.5 33q-72 0 -114.5 -47.5t-44.5 -135.5v-243h-86v700h86v-307z" />
    <glyph glyph-name="i" unicode="i" 
d="M169 487v-487h-86v487h86zM67 628q0 28 15.5 42t43.5 14t43.5 -14t15.5 -42t-15.5 -42.5t-43.5 -14.5t-43.5 14.5t-15.5 42.5z" />
    <glyph glyph-name="j" unicode="j" 
d="M83 487h86v-516q0 -90 -40.5 -131t-112.5 -41q-20 0 -37 2.5t-40 10.5l14 72q14 -5 26.5 -8t31.5 -3q17 0 30.5 5t22.5 17.5t14 33.5t5 53v505zM67 628q0 28 15.5 42t43.5 14t43.5 -14t15.5 -42t-15.5 -42.5t-43.5 -14.5t-43.5 14.5t-15.5 42.5z" />
    <glyph glyph-name="k" unicode="k" horiz-adv-x="499" 
d="M81 700h86v-475l232 262h104l-201 -218l203 -269h-102l-156 211l-80 -85v-126h-86v700z" />
    <glyph glyph-name="l" unicode="l" 
d="M169 0h-86v700h86v-700z" />
    <glyph glyph-name="m" unicode="m" horiz-adv-x="904" 
d="M81 487h74l9 -90q27 56 73.5 79t94.5 23q66 0 102.5 -34t47.5 -85q25 64 76 91.5t110 27.5q84 0 123.5 -48.5t39.5 -142.5v-308h-86v286q0 76 -26.5 107.5t-76.5 31.5q-64 0 -103 -43.5t-41 -128.5v-253h-86v282q0 78 -27.5 110.5t-79.5 32.5q-62 0 -99 -43.5t-39 -130.5
v-251h-86v487z" />
    <glyph glyph-name="n" unicode="n" horiz-adv-x="605" 
d="M156 487l9 -93q28 57 77.5 81t109.5 24q92 0 136 -49t44 -146v-304h-86v284q0 77 -31 109.5t-89 32.5q-72 0 -114.5 -47.5t-44.5 -135.5v-243h-86v487h75z" />
    <glyph glyph-name="o" unicode="o" horiz-adv-x="561" 
d="M431 244q0 52 -9 87.5t-27.5 57.5t-47 31.5t-66.5 9.5q-39 0 -67.5 -9.5t-46.5 -31.5t-27 -57.5t-9 -87.5q0 -103 36.5 -145t113.5 -42t113.5 42t36.5 145zM45 245q0 132 61.5 193t174.5 61q119 0 177.5 -60t58.5 -194q0 -132 -60 -194.5t-176 -62.5q-115 0 -175.5 61
t-60.5 196z" />
    <glyph glyph-name="p" unicode="p" horiz-adv-x="589" 
d="M155 487l9 -88q24 50 69 75t108 25q100 0 152 -64.5t52 -189.5t-56 -191t-162 -66q-54 0 -94.5 20t-65.5 61v-256h-86v674h74zM167 243q0 -98 41 -142t106 -44q73 0 109 45.5t36 141.5q0 97 -35.5 141.5t-105.5 44.5q-33 0 -60.5 -10.5t-47.5 -33.5t-31.5 -58.5
t-11.5 -84.5z" />
    <glyph glyph-name="q" unicode="q" horiz-adv-x="589" 
d="M423 -186v267q-52 -93 -174 -93q-99 0 -151.5 63.5t-52.5 191.5q0 125 55.5 190.5t160.5 65.5q56 0 97.5 -22.5t66.5 -69.5l9 80h75v-673h-86zM423 245q0 49 -11 84t-31 57.5t-47.5 33t-59.5 10.5q-72 0 -107.5 -44.5t-35.5 -141.5t36 -142t106 -45q33 0 60.5 10.5
t47.5 33.5t31 58.5t11 85.5z" />
    <glyph glyph-name="r" unicode="r" horiz-adv-x="356" 
d="M81 487h74l9 -103q26 60 74.5 88t111.5 23v-82q-91 9 -136 -38t-47 -141v-234h-86v487z" />
    <glyph glyph-name="s" unicode="s" horiz-adv-x="486" 
d="M237 54q61 0 87.5 20t26.5 55q0 32 -22.5 48t-74.5 27l-44 9q-44 10 -74.5 24t-49.5 32.5t-27 40.5t-8 48q0 30 11 56t33.5 44.5t57.5 29.5t84 11q65 0 105.5 -20t71.5 -58l-55 -53q-26 32 -53.5 47.5t-74.5 15.5q-100 0 -100 -67q0 -13 4 -24.5t14 -21t27.5 -17.5
t43.5 -14l55 -12q46 -10 76 -23.5t48 -31t25.5 -39t7.5 -46.5q0 -28 -9.5 -54.5t-32 -47t-60 -33t-94.5 -12.5q-72 0 -123.5 22t-84.5 77l61 44q26 -43 61 -60t87 -17z" />
    <glyph glyph-name="t" unicode="t" horiz-adv-x="335" 
d="M91 487v143h84v-143h141v-67h-141v-255q0 -32 6 -52.5t17 -31.5t26 -15t33 -4q19 0 32 2.5t27 7.5l14 -70q-26 -9 -44 -11.5t-39 -2.5q-72 0 -114 41t-42 133v258h-86v67h86z" />
    <glyph glyph-name="u" unicode="u" horiz-adv-x="601" 
d="M440 86q-29 -53 -76.5 -75.5t-101.5 -22.5q-97 0 -142.5 53t-45.5 150v296h86v-284q0 -145 122 -145q71 0 111 46t42 134v249h86v-487h-74z" />
    <glyph glyph-name="v" unicode="v" horiz-adv-x="488" 
d="M91 487l155 -405l154 405h88l-196 -487h-95l-197 487h91z" />
    <glyph glyph-name="w" unicode="w" horiz-adv-x="718" 
d="M406 484l115 -387l115 390h82l-155 -487h-91l-113 387l-111 -387h-91l-157 487h86l117 -389l114 386h89z" />
    <glyph glyph-name="x" unicode="x" horiz-adv-x="490" 
d="M114 487l134 -180l132 180h99l-184 -238l195 -249h-102l-145 190l-144 -190h-99l196 250l-184 237h102z" />
    <glyph glyph-name="y" unicode="y" horiz-adv-x="488" 
d="M199 -9l-201 496h91l155 -406l155 406h89l-229 -565q-29 -71 -73.5 -97t-101.5 -26q-20 0 -37.5 2.5t-40.5 10.5l14 72q17 -5 31 -8t34 -3q12 0 25 2t26.5 10t26 23.5t22.5 41.5z" />
    <glyph glyph-name="z" unicode="z" horiz-adv-x="464" 
d="M28 64l297 354h-292v69h394v-65l-299 -353h307v-69h-407v64z" />
    <glyph glyph-name="aacute" unicode="&#xe1;" horiz-adv-x="586" 
d="M422 87q-24 -50 -68 -74.5t-104 -24.5q-100 0 -152.5 65.5t-52.5 190.5t55.5 190t160.5 65q56 0 97.5 -23t65.5 -71l9 82h73v-487h-79zM420 245q0 49 -11.5 84t-31 57.5t-46 33t-57.5 10.5q-73 0 -108 -45t-35 -142t35.5 -141.5t106.5 -44.5q31 0 58 10.5t46.5 33.5
t31 58.5t11.5 85.5zM306 574h-73v4l76 113h111v-6z" />
    <glyph glyph-name="abreve" unicode="&#x103;" horiz-adv-x="586" 
d="M422 87q-24 -50 -68 -74.5t-104 -24.5q-100 0 -152.5 65.5t-52.5 190.5t55.5 190t160.5 65q56 0 97.5 -23t65.5 -71l9 82h73v-487h-79zM420 245q0 49 -11.5 84t-31 57.5t-46 33t-57.5 10.5q-73 0 -108 -45t-35 -142t35.5 -141.5t106.5 -44.5q31 0 58 10.5t46.5 33.5
t31 58.5t11.5 85.5zM415 691q0 -35 -10 -59t-28 -38t-44.5 -20t-59.5 -6t-59.5 6t-45 20t-28.5 38t-10 59h66q0 -39 19 -53.5t57 -14.5t57.5 14.5t19.5 53.5h66z" />
    <glyph glyph-name="acircumflex" unicode="&#xe2;" horiz-adv-x="586" 
d="M422 87q-24 -50 -68 -74.5t-104 -24.5q-100 0 -152.5 65.5t-52.5 190.5t55.5 190t160.5 65q56 0 97.5 -23t65.5 -71l9 82h73v-487h-79zM420 245q0 49 -11.5 84t-31 57.5t-46 33t-57.5 10.5q-73 0 -108 -45t-35 -142t35.5 -141.5t106.5 -44.5q31 0 58 10.5t46.5 33.5
t31 58.5t11.5 85.5zM204 574h-93v3l122 114h83l123 -114v-3h-98l-67 69z" />
    <glyph glyph-name="adieresis" unicode="&#xe4;" horiz-adv-x="586" 
d="M422 87q-24 -50 -68 -74.5t-104 -24.5q-100 0 -152.5 65.5t-52.5 190.5t55.5 190t160.5 65q56 0 97.5 -23t65.5 -71l9 82h73v-487h-79zM420 245q0 49 -11.5 84t-31 57.5t-46 33t-57.5 10.5q-73 0 -108 -45t-35 -142t35.5 -141.5t106.5 -44.5q31 0 58 10.5t46.5 33.5
t31 58.5t11.5 85.5zM126 627q0 28 16 42t44 14t43.5 -14t15.5 -42t-15.5 -42.5t-43.5 -14.5t-44 14.5t-16 42.5zM299 627q0 28 16 42t44 14t43.5 -14t15.5 -42t-15.5 -42.5t-43.5 -14.5t-44 14.5t-16 42.5z" />
    <glyph glyph-name="ae" unicode="&#xe6;" horiz-adv-x="866" 
d="M216 -12q-37 0 -67.5 9.5t-53 28t-35 46t-12.5 62.5q0 33 11 61.5t36.5 50t66 34t100.5 12.5h126q-1 79 -33 108.5t-98 29.5q-54 0 -87 -18t-54 -47l-48 52q28 41 76.5 61.5t120.5 20.5q60 0 105.5 -18.5t69.5 -65.5q57 84 179 84q54 0 93 -17.5t64.5 -48t37.5 -72.5
t12 -90v-22.5t-2 -22.5h-353q3 -93 40.5 -131t107.5 -38q52 0 86 17.5t57 67.5l64 -33q-29 -64 -83 -92.5t-126 -28.5t-121.5 27.5t-74.5 86.5q-24 -53 -75.5 -83.5t-129.5 -30.5zM235 57q66 0 109 44.5t44 124.5h-125q-70 0 -100.5 -23t-30.5 -71q0 -35 24.5 -55t78.5 -20z
M615 431q-62 0 -98 -32t-44 -107h268q-5 77 -37 108t-89 31z" />
    <glyph glyph-name="agrave" unicode="&#xe0;" horiz-adv-x="586" 
d="M422 87q-24 -50 -68 -74.5t-104 -24.5q-100 0 -152.5 65.5t-52.5 190.5t55.5 190t160.5 65q56 0 97.5 -23t65.5 -71l9 82h73v-487h-79zM420 245q0 49 -11.5 84t-31 57.5t-46 33t-57.5 10.5q-73 0 -108 -45t-35 -142t35.5 -141.5t106.5 -44.5q31 0 58 10.5t46.5 33.5
t31 58.5t11.5 85.5zM129 687v6h111l77 -113v-4h-73z" />
    <glyph glyph-name="amacron" unicode="&#x101;" horiz-adv-x="586" 
d="M422 87q-24 -50 -68 -74.5t-104 -24.5q-100 0 -152.5 65.5t-52.5 190.5t55.5 190t160.5 65q56 0 97.5 -23t65.5 -71l9 82h73v-487h-79zM420 245q0 49 -11.5 84t-31 57.5t-46 33t-57.5 10.5q-73 0 -108 -45t-35 -142t35.5 -141.5t106.5 -44.5q31 0 58 10.5t46.5 33.5
t31 58.5t11.5 85.5zM401 601h-254v59h254v-59z" />
    <glyph glyph-name="aogonek" unicode="&#x105;" horiz-adv-x="586" 
d="M428 -212q-22 0 -43 5t-37 16.5t-26 31t-10 48.5q0 36 15 64t38 46.5t50 27.5q5 2 10 3l-3 57q-24 -50 -68 -74.5t-104 -24.5q-100 0 -152.5 65.5t-52.5 190.5t55.5 190t160.5 65q56 0 97.5 -23t65.5 -71l9 82h73v-487h-36q-21 -2 -38 -11q-18 -10 -30 -24t-18.5 -31.5
t-6.5 -34.5q0 -28 15 -39t43 -11q36 0 66 18l13 -56q-38 -23 -86 -23zM420 245q0 49 -11.5 84t-31 57.5t-46 33t-57.5 10.5q-73 0 -108 -45t-35 -142t35.5 -141.5t106.5 -44.5q31 0 58 10.5t46.5 33.5t31 58.5t11.5 85.5z" />
    <glyph glyph-name="ogonek" unicode="&#x2db;" horiz-adv-x="575" 
d="M296 -212q-22 0 -43 5t-37 16.5t-26 31t-10 48.5q0 36 15 64t38 46.5t50.5 28t53.5 9.5l4 -37q-23 -2 -41 -11.5t-30 -23.5t-18.5 -31.5t-6.5 -34.5q0 -28 15 -39t43 -11q36 0 66 18l13 -56q-38 -23 -86 -23z" />
    <glyph glyph-name="aring" unicode="&#xe5;" horiz-adv-x="586" 
d="M422 87q-24 -50 -68 -74.5t-104 -24.5q-100 0 -152.5 65.5t-52.5 190.5t55.5 190t160.5 65q56 0 97.5 -23t65.5 -71l9 82h73v-487h-79zM420 245q0 49 -11.5 84t-31 57.5t-46 33t-57.5 10.5q-73 0 -108 -45t-35 -142t35.5 -141.5t106.5 -44.5q31 0 58 10.5t46.5 33.5
t31 58.5t11.5 85.5zM177 641q0 44 27.5 69t69.5 25t69 -25t27 -69t-27.5 -69t-69.5 -25t-69 25t-27 69zM225 641q0 -23 13.5 -38t34.5 -15t35 15t14 38t-14 37.5t-34 14.5q-22 0 -35.5 -14.5t-13.5 -37.5z" />
    <glyph glyph-name="atilde" unicode="&#xe3;" horiz-adv-x="586" 
d="M422 87q-24 -50 -68 -74.5t-104 -24.5q-100 0 -152.5 65.5t-52.5 190.5t55.5 190t160.5 65q56 0 97.5 -23t65.5 -71l9 82h73v-487h-79zM420 245q0 49 -11.5 84t-31 57.5t-46 33t-57.5 10.5q-73 0 -108 -45t-35 -142t35.5 -141.5t106.5 -44.5q31 0 58 10.5t46.5 33.5
t31 58.5t11.5 85.5zM429 684q2 -29 -5.5 -48.5t-20.5 -31t-29.5 -16.5t-32.5 -5q-21 0 -39 6.5t-34 14t-30.5 14t-27.5 6.5q-18 0 -23.5 -11.5t-5.5 -25.5h-66q-2 29 5.5 48.5t20 31t28.5 16.5t33 5q22 0 40.5 -6.5t34.5 -14t30 -14t28 -6.5q18 0 23.5 11t5.5 26h65z" />
    <glyph glyph-name="cacute" unicode="&#x107;" horiz-adv-x="507" 
d="M277 -12q-111 0 -171.5 60.5t-60.5 195.5q0 132 60.5 193.5t172.5 61.5q76 0 123.5 -28t76.5 -81l-62 -40q-20 38 -54.5 59t-83.5 21q-38 0 -66 -9.5t-46 -31.5t-26.5 -58t-8.5 -88q0 -103 36 -144.5t110 -41.5q53 0 86 19t56 67l65 -34q-29 -64 -81 -92.5t-126 -28.5z
M310 574h-73v4l76 113h111v-6z" />
    <glyph glyph-name="ccaron" unicode="&#x10d;" horiz-adv-x="507" 
d="M277 -12q-111 0 -171.5 60.5t-60.5 195.5q0 132 60.5 193.5t172.5 61.5q76 0 123.5 -28t76.5 -81l-62 -40q-20 38 -54.5 59t-83.5 21q-38 0 -66 -9.5t-46 -31.5t-26.5 -58t-8.5 -88q0 -103 36 -144.5t110 -41.5q53 0 86 19t56 67l65 -34q-29 -64 -81 -92.5t-126 -28.5z
M350 691h93v-2l-123 -115h-83l-122 115v2h96l68 -67z" />
    <glyph glyph-name="ccedilla" unicode="&#xe7;" horiz-adv-x="507" 
d="M269 -237q-38 0 -68.5 14t-49.5 45l42 40q14 -23 30 -34.5t43 -11.5q23 0 38.5 9.5t15.5 29.5t-14.5 31t-39.5 11q-6 0 -11.5 -0.5t-11.5 -1.5l-16 15l20 79q-97 7 -149.5 68t-52.5 187q0 132 60.5 193.5t172.5 61.5q76 0 123.5 -28t76.5 -81l-62 -40q-20 38 -54.5 59
t-83.5 21q-38 0 -66 -9.5t-46 -31.5t-26.5 -58t-8.5 -88q0 -103 36 -144.5t110 -41.5q53 0 86 19t56 67l65 -34q-26 -57 -70 -86t-106 -34l-14 -50h3q35 0 61 -21t26 -63q0 -23 -9.5 -40.5t-25 -29t-36.5 -17t-44 -5.5z" />
    <glyph glyph-name="ccircumflex" unicode="&#x109;" horiz-adv-x="507" 
d="M277 -12q-111 0 -171.5 60.5t-60.5 195.5q0 132 60.5 193.5t172.5 61.5q76 0 123.5 -28t76.5 -81l-62 -40q-20 38 -54.5 59t-83.5 21q-38 0 -66 -9.5t-46 -31.5t-26.5 -58t-8.5 -88q0 -103 36 -144.5t110 -41.5q53 0 86 19t56 67l65 -34q-29 -64 -81 -92.5t-126 -28.5z
M209 574h-93v3l122 114h83l123 -114v-3h-98l-67 69z" />
    <glyph glyph-name="cdotaccent" unicode="&#x10b;" horiz-adv-x="507" 
d="M277 -12q-111 0 -171.5 60.5t-60.5 195.5q0 132 60.5 193.5t172.5 61.5q76 0 123.5 -28t76.5 -81l-62 -40q-20 38 -54.5 59t-83.5 21q-38 0 -66 -9.5t-46 -31.5t-26.5 -58t-8.5 -88q0 -103 36 -144.5t110 -41.5q53 0 86 19t56 67l65 -34q-29 -64 -81 -92.5t-126 -28.5z
M220 627q0 28 16 42t44 14t43.5 -14t15.5 -42t-15.5 -42.5t-43.5 -14.5t-44 14.5t-16 42.5z" />
    <glyph glyph-name="dcaron" unicode="&#x10f;" horiz-adv-x="637" 
d="M594 481l7 220h84l-32 -220h-59zM425 87q-24 -50 -68.5 -74.5t-106.5 -24.5q-100 0 -152.5 65.5t-52.5 190.5t55.5 190t160.5 65q110 0 162 -82v283h86v-700h-79zM423 245q0 49 -11.5 84t-31.5 57.5t-47 33t-59 10.5q-73 0 -108 -45t-35 -142t35.5 -141.5t106.5 -44.5
q32 0 59.5 10.5t47.5 33.5t31.5 58.5t11.5 85.5z" />
    <glyph glyph-name="dcroat" unicode="&#x111;" horiz-adv-x="606" 
d="M588 557h-79v-557h-79l-5 87q-24 -49 -68.5 -74t-106.5 -25q-100 0 -152.5 65.5t-52.5 190.5t55.5 190t160.5 65q54 0 95 -20t67 -61v139h-157v58h157v85h86v-85h79v-58zM423 245q0 49 -11.5 84t-31.5 57.5t-47 33.5t-59 11q-73 0 -108 -45.5t-35 -142.5q0 -96 35.5 -141
t106.5 -45q32 0 59.5 11t47.5 33.5t31.5 58t11.5 85.5z" />
    <glyph glyph-name="dotlessi" unicode="&#x131;" 
d="M169 487v-487h-86v487h86z" />
    <glyph glyph-name="dotlessj" unicode="&#x237;" 
d="M83 487h86v-516q0 -90 -40.5 -131t-112.5 -41q-20 0 -37 2.5t-40 10.5l14 72q14 -5 26.5 -8t31.5 -3q17 0 30.5 5t22.5 17.5t14 33.5t5 53v505z" />
    <glyph glyph-name="eacute" unicode="&#xe9;" horiz-adv-x="522" 
d="M275 -12q-110 0 -170 61.5t-60 193.5q0 126 59 191t173 65q54 0 93 -17.5t64.5 -49t38 -74.5t12.5 -94q0 -11 -0.5 -22.5t-1.5 -23.5h-353q5 -89 41.5 -125t105.5 -36q52 0 86 17.5t57 67.5l64 -33q-29 -64 -83 -92.5t-126 -28.5zM273 431q-63 0 -99 -33.5t-43 -113.5
h269q-3 79 -36 113t-91 34zM305 574h-73v4l76 113h111v-6z" />
    <glyph glyph-name="ebreve" unicode="&#x115;" horiz-adv-x="522" 
d="M275 -12q-110 0 -170 61.5t-60 193.5q0 126 59 191t173 65q54 0 93 -17.5t64.5 -49t38 -74.5t12.5 -94q0 -11 -0.5 -22.5t-1.5 -23.5h-353q5 -89 41.5 -125t105.5 -36q52 0 86 17.5t57 67.5l64 -33q-29 -64 -83 -92.5t-126 -28.5zM273 431q-63 0 -99 -33.5t-43 -113.5
h269q-3 79 -36 113t-91 34zM414 691q0 -35 -10 -59t-28 -38t-44.5 -20t-59.5 -6t-59.5 6t-45 20t-28.5 38t-10 59h66q0 -39 19 -53.5t57 -14.5t57.5 14.5t19.5 53.5h66z" />
    <glyph glyph-name="ecaron" unicode="&#x11b;" horiz-adv-x="522" 
d="M275 -12q-110 0 -170 61.5t-60 193.5q0 126 59 191t173 65q54 0 93 -17.5t64.5 -49t38 -74.5t12.5 -94q0 -11 -0.5 -22.5t-1.5 -23.5h-353q5 -89 41.5 -125t105.5 -36q52 0 86 17.5t57 67.5l64 -33q-29 -64 -83 -92.5t-126 -28.5zM273 431q-63 0 -99 -33.5t-43 -113.5
h269q-3 79 -36 113t-91 34zM344 691h93v-2l-123 -115h-83l-122 115v2h96l68 -67z" />
    <glyph glyph-name="ecircumflex" unicode="&#xea;" horiz-adv-x="522" 
d="M275 -12q-110 0 -170 61.5t-60 193.5q0 126 59 191t173 65q54 0 93 -17.5t64.5 -49t38 -74.5t12.5 -94q0 -11 -0.5 -22.5t-1.5 -23.5h-353q5 -89 41.5 -125t105.5 -36q52 0 86 17.5t57 67.5l64 -33q-29 -64 -83 -92.5t-126 -28.5zM273 431q-63 0 -99 -33.5t-43 -113.5
h269q-3 79 -36 113t-91 34zM203 574h-93v3l122 114h83l123 -114v-3h-98l-67 69z" />
    <glyph glyph-name="edieresis" unicode="&#xeb;" horiz-adv-x="522" 
d="M275 -12q-110 0 -170 61.5t-60 193.5q0 126 59 191t173 65q54 0 93 -17.5t64.5 -49t38 -74.5t12.5 -94q0 -11 -0.5 -22.5t-1.5 -23.5h-353q5 -89 41.5 -125t105.5 -36q52 0 86 17.5t57 67.5l64 -33q-29 -64 -83 -92.5t-126 -28.5zM273 431q-63 0 -99 -33.5t-43 -113.5
h269q-3 79 -36 113t-91 34zM125 627q0 28 16 42t44 14t43.5 -14t15.5 -42t-15.5 -42.5t-43.5 -14.5t-44 14.5t-16 42.5zM298 627q0 28 16 42t44 14t43.5 -14t15.5 -42t-15.5 -42.5t-43.5 -14.5t-44 14.5t-16 42.5z" />
    <glyph glyph-name="edotaccent" unicode="&#x117;" horiz-adv-x="522" 
d="M275 -12q-110 0 -170 61.5t-60 193.5q0 126 59 191t173 65q54 0 93 -17.5t64.5 -49t38 -74.5t12.5 -94q0 -11 -0.5 -22.5t-1.5 -23.5h-353q5 -89 41.5 -125t105.5 -36q52 0 86 17.5t57 67.5l64 -33q-29 -64 -83 -92.5t-126 -28.5zM273 431q-63 0 -99 -33.5t-43 -113.5
h269q-3 79 -36 113t-91 34zM214 627q0 28 16 42t44 14t43.5 -14t15.5 -42t-15.5 -42.5t-43.5 -14.5t-44 14.5t-16 42.5z" />
    <glyph glyph-name="egrave" unicode="&#xe8;" horiz-adv-x="522" 
d="M275 -12q-110 0 -170 61.5t-60 193.5q0 126 59 191t173 65q54 0 93 -17.5t64.5 -49t38 -74.5t12.5 -94q0 -11 -0.5 -22.5t-1.5 -23.5h-353q5 -89 41.5 -125t105.5 -36q52 0 86 17.5t57 67.5l64 -33q-29 -64 -83 -92.5t-126 -28.5zM273 431q-63 0 -99 -33.5t-43 -113.5
h269q-3 79 -36 113t-91 34zM128 687v6h111l77 -113v-4h-73z" />
    <glyph glyph-name="emacron" unicode="&#x113;" horiz-adv-x="522" 
d="M275 -12q-110 0 -170 61.5t-60 193.5q0 126 59 191t173 65q54 0 93 -17.5t64.5 -49t38 -74.5t12.5 -94q0 -11 -0.5 -22.5t-1.5 -23.5h-353q5 -89 41.5 -125t105.5 -36q52 0 86 17.5t57 67.5l64 -33q-29 -64 -83 -92.5t-126 -28.5zM273 431q-63 0 -99 -33.5t-43 -113.5
h269q-3 79 -36 113t-91 34zM400 601h-254v59h254v-59z" />
    <glyph glyph-name="eng" unicode="&#x14b;" horiz-adv-x="605" 
d="M446 284q0 77 -31 109.5t-89 32.5q-72 0 -114.5 -47.5t-44.5 -135.5v-243h-86v487h75l10 -91q27 56 77 79.5t109 23.5q92 0 136 -49t44 -146v-333q0 -90 -40.5 -131t-112.5 -41q-20 0 -36.5 2.5t-39.5 10.5l14 72q13 -5 25.5 -8t31.5 -3q17 0 30.5 5t22.5 17.5t14 33.5
t5 53v302z" />
    <glyph glyph-name="eogonek" unicode="&#x119;" horiz-adv-x="522" 
d="M210 -111q0 32 11 57t29 43q-99 7 -152 68t-53 186q0 126 59 191t173 65q54 0 93 -17.5t64.5 -49t38 -74.5t12.5 -94q0 -11 -0.5 -22.5t-1.5 -23.5h-354q5 -89 42 -125t106 -36q52 0 86 17.5t57 67.5l64 -33q-21 -46 -54.5 -73.5t-78.5 -38.5q-37 -10 -56.5 -38.5
t-19.5 -59.5q0 -28 15 -39t43 -11q36 0 66 18l13 -56q-38 -23 -86 -23q-22 0 -43 5t-37 16.5t-26 31t-10 48.5zM273 431q-63 0 -99.5 -33.5t-43.5 -113.5h270q-3 79 -36 113t-91 34z" />
    <glyph glyph-name="eth" unicode="&#xf0;" horiz-adv-x="567" 
d="M499 671l-80 -51q54 -65 76.5 -156.5t22.5 -209.5v-12q0 -131 -59.5 -192.5t-175.5 -61.5q-115 0 -176.5 60t-61.5 194q0 132 62.5 193t175.5 61q87 0 135 -47q-9 38 -25 70.5t-40 59.5l-83 -53l-31 47l72 47q-52 40 -131 61l28 59q104 -24 170 -80l89 58zM432 242
q0 101 -36.5 143.5t-112.5 42.5q-78 0 -115 -42.5t-37 -143.5t37.5 -143t114.5 -42q76 0 112.5 42t36.5 143z" />
    <glyph glyph-name="gbreve" unicode="&#x11f;" horiz-adv-x="588" 
d="M508 29q0 -61 -18 -104.5t-50.5 -71.5t-77.5 -41t-99 -13q-72 0 -125.5 25t-84.5 90l62 44q25 -50 61 -69.5t87 -19.5q35 0 64 8.5t50 26.5t33 46.5t12 69.5v73q-24 -47 -67 -69.5t-103 -22.5q-98 0 -152.5 63t-54.5 187q0 121 53 184.5t155 63.5q60 0 104 -22.5
t68 -68.5l9 79h74v-458zM422 253q0 48 -11.5 81.5t-31.5 55t-47.5 31.5t-59.5 10q-72 0 -106.5 -43t-34.5 -136q0 -94 35 -137.5t106 -43.5q32 0 59.5 10t47.5 32t31.5 56.5t11.5 83.5zM409 691q0 -35 -10 -59t-28 -38t-44.5 -20t-59.5 -6t-59.5 6t-45 20t-28.5 38t-10 59
h66q0 -39 19 -53.5t57 -14.5t57.5 14.5t19.5 53.5h66z" />
    <glyph glyph-name="gcircumflex" unicode="&#x11d;" horiz-adv-x="588" 
d="M508 29q0 -61 -18 -104.5t-50.5 -71.5t-77.5 -41t-99 -13q-72 0 -125.5 25t-84.5 90l62 44q25 -50 61 -69.5t87 -19.5q35 0 64 8.5t50 26.5t33 46.5t12 69.5v73q-24 -47 -67 -69.5t-103 -22.5q-98 0 -152.5 63t-54.5 187q0 121 53 184.5t155 63.5q60 0 104 -22.5
t68 -68.5l9 79h74v-458zM422 253q0 48 -11.5 81.5t-31.5 55t-47.5 31.5t-59.5 10q-72 0 -106.5 -43t-34.5 -136q0 -94 35 -137.5t106 -43.5q32 0 59.5 10t47.5 32t31.5 56.5t11.5 83.5zM198 574h-93v3l122 114h83l123 -114v-3h-98l-67 69z" />
    <glyph glyph-name="gcommaaccent" unicode="&#x123;" horiz-adv-x="588" 
d="M347 752q-29 -8 -44.5 -29.5t-18.5 -50.5h5q59 0 59 -55q0 -26 -15 -39.5t-41 -13.5q-29 0 -45 18.5t-16 62.5q0 51 24 92t75 55zM508 29q0 -61 -18 -104.5t-50.5 -71.5t-77.5 -41t-99 -13q-72 0 -125.5 25t-84.5 90l62 44q25 -50 61 -69.5t87 -19.5q35 0 64 8.5t50 26.5
t33 46.5t12 69.5v73q-24 -47 -67 -69.5t-103 -22.5q-98 0 -152.5 63t-54.5 187q0 121 53 184.5t155 63.5q60 0 104 -22.5t68 -68.5l9 79h74v-458zM422 253q0 48 -11.5 81.5t-31.5 55t-47.5 31.5t-59.5 10q-72 0 -106.5 -43t-34.5 -136q0 -94 35 -137.5t106 -43.5
q32 0 59.5 10t47.5 32t31.5 56.5t11.5 83.5z" />
    <glyph glyph-name="gdotaccent" unicode="&#x121;" horiz-adv-x="588" 
d="M508 29q0 -61 -18 -104.5t-50.5 -71.5t-77.5 -41t-99 -13q-72 0 -125.5 25t-84.5 90l62 44q25 -50 61 -69.5t87 -19.5q35 0 64 8.5t50 26.5t33 46.5t12 69.5v73q-24 -47 -67 -69.5t-103 -22.5q-98 0 -152.5 63t-54.5 187q0 121 53 184.5t155 63.5q60 0 104 -22.5
t68 -68.5l9 79h74v-458zM422 253q0 48 -11.5 81.5t-31.5 55t-47.5 31.5t-59.5 10q-72 0 -106.5 -43t-34.5 -136q0 -94 35 -137.5t106 -43.5q32 0 59.5 10t47.5 32t31.5 56.5t11.5 83.5zM209 627q0 28 16 42t44 14t43.5 -14t15.5 -42t-15.5 -42.5t-43.5 -14.5t-44 14.5
t-16 42.5z" />
    <glyph glyph-name="germandbls" unicode="&#xdf;" horiz-adv-x="597" 
d="M279 342v68h51q29 0 49 9t32.5 25t18 36.5t5.5 44.5q0 62 -34.5 89t-96.5 27q-70 0 -106 -41.5t-36 -119.5v-480h-86v487q0 109 60.5 167t166.5 58q104 0 160.5 -48.5t56.5 -135.5q0 -50 -18.5 -86t-50.5 -58q57 -18 86.5 -63t29.5 -111q0 -48 -15 -87.5t-43.5 -68
t-69 -44.5t-91.5 -16q-28 0 -50.5 3.5t-47.5 13.5l17 69q19 -7 34.5 -10.5t35.5 -3.5q70 0 107.5 35t37.5 106q0 30 -7.5 54.5t-25 42.5t-47 28t-72.5 10h-51z" />
    <glyph glyph-name="hbar" unicode="&#x127;" horiz-adv-x="620" 
d="M18 615h78v85h86v-85h157v-58h-157v-165q27 58 77.5 83t107.5 25q92 0 136 -49.5t44 -146.5v-304h-86v282q0 78 -31.5 110.5t-88.5 32.5q-72 0 -114.5 -47t-44.5 -135v-243h-86v557h-78v58z" />
    <glyph glyph-name="hcircumflex" unicode="&#x125;" horiz-adv-x="605" 
d="M62 754h-93v3l122 114h83l123 -114v-3h-98l-67 69zM167 393q27 57 77.5 81.5t107.5 24.5q92 0 136 -49t44 -146v-304h-86v282q0 78 -31.5 111t-88.5 33q-72 0 -114.5 -47.5t-44.5 -135.5v-243h-86v700h86v-307z" />
    <glyph glyph-name="iacute" unicode="&#xed;" 
d="M160 574h-73v4l76 113h111v-6zM169 487v-487h-86v487h86z" />
    <glyph glyph-name="ibreve" unicode="&#x12d;" 
d="M169 487v-487h-86v487h86zM269 691q0 -35 -10 -59t-28 -38t-44.5 -20t-59.5 -6t-59.5 6t-45 20t-28.5 38t-10 59h66q0 -39 19 -53.5t57 -14.5t57.5 14.5t19.5 53.5h66z" />
    <glyph glyph-name="icircumflex" unicode="&#xee;" 
d="M58 574h-93v3l122 114h83l123 -114v-3h-98l-67 69zM169 487v-487h-86v487h86z" />
    <glyph glyph-name="idieresis" unicode="&#xef;" 
d="M-20 627q0 28 16 42t44 14t43.5 -14t15.5 -42t-15.5 -42.5t-43.5 -14.5t-44 14.5t-16 42.5zM153 627q0 28 16 42t44 14t43.5 -14t15.5 -42t-15.5 -42.5t-43.5 -14.5t-44 14.5t-16 42.5zM169 487v-487h-86v487h86z" />
    <glyph glyph-name="idotaccent" 
d="M169 487v-487h-86v487h86zM67 628q0 28 15.5 42t43.5 14t43.5 -14t15.5 -42t-15.5 -42.5t-43.5 -14.5t-43.5 14.5t-15.5 42.5z" />
    <glyph glyph-name="igrave" unicode="&#xec;" 
d="M169 487v-487h-86v487h86zM-17 685v6h111l77 -113v-4h-73z" />
    <glyph glyph-name="ij" unicode="&#x133;" horiz-adv-x="526" 
d="M169 487v-487h-86v487h86zM67 628q0 28 15.5 42t43.5 14t43.5 -14t15.5 -42t-15.5 -42.5t-43.5 -14.5t-43.5 14.5t-15.5 42.5zM359 487h86v-516q0 -90 -40.5 -131t-112.5 -41q-20 0 -37 2.5t-40 10.5l14 72q14 -5 26.5 -8t31.5 -3q17 0 30.5 5t22.5 17.5t14 33.5t5 53
v505zM343 628q0 28 15.5 42t43.5 14t43.5 -14t15.5 -42t-15.5 -42.5t-43.5 -14.5t-43.5 14.5t-15.5 42.5z" />
    <glyph glyph-name="imacron" unicode="&#x12b;" 
d="M169 487v-487h-86v487h86zM255 601h-254v59h254v-59z" />
    <glyph glyph-name="iogonek" unicode="&#x12f;" 
d="M88 -212q-22 0 -42.5 5t-36.5 16.5t-26 31t-10 48.5q0 28 9 51.5t24.5 41t35.5 30t41 18.5v457h86v-487h-35q-23 -2 -41 -11.5t-30 -23.5t-18.5 -31.5t-6.5 -34.5q0 -28 15 -39t43 -11q35 0 65 18l14 -56q-38 -23 -87 -23zM67 628q0 28 15.5 42t43.5 14t43.5 -14
t15.5 -42t-15.5 -42.5t-43.5 -14.5t-43.5 14.5t-15.5 42.5z" />
    <glyph glyph-name="itilde" unicode="&#x129;" 
d="M169 487v-487h-86v487h86zM283 684q2 -29 -5.5 -48.5t-20.5 -31t-29.5 -16.5t-32.5 -5q-21 0 -39 6.5t-34 14t-30.5 14t-27.5 6.5q-18 0 -23.5 -11.5t-5.5 -25.5h-66q-2 29 5.5 48.5t20 31t28.5 16.5t33 5q22 0 40.5 -6.5t34.5 -14t30 -14t28 -6.5q18 0 23.5 11t5.5 26
h65z" />
    <glyph glyph-name="jcircumflex" unicode="&#x135;" 
d="M83 487h86v-516q0 -90 -40.5 -131t-112.5 -41q-20 0 -37 2.5t-40 10.5l14 72q14 -5 26.5 -8t31.5 -3q17 0 30.5 5t22.5 17.5t14 33.5t5 53v505zM57 574h-93v3l122 114h83l123 -114v-3h-98l-67 69z" />
    <glyph glyph-name="kcommaaccent" unicode="&#x137;" horiz-adv-x="499" 
d="M81 700h86v-475l232 262h104l-201 -218l203 -269h-102l-156 211l-80 -85v-126h-86v700zM216 -252q29 8 44.5 29.5t18.5 50.5h-5q-59 0 -59 55q0 26 15 39.5t41 13.5q29 0 45 -18.5t16 -62.5q0 -51 -24 -92t-75 -55z" />
    <glyph glyph-name="kgreenlandic" unicode="&#x138;" horiz-adv-x="499" 
d="M81 487h86v-261l232 261h104l-201 -218l203 -269h-102l-155 211l-81 -85v-126h-86v487z" />
    <glyph glyph-name="lacute" unicode="&#x13a;" horiz-adv-x="250" 
d="M153 789h-73v4l76 113h111v-6zM171 0h-86v700h86v-700z" />
    <glyph glyph-name="lcaron" unicode="&#x13e;" horiz-adv-x="297" 
d="M254 481l7 220h84l-32 -220h-59zM171 0h-86v700h86v-700z" />
    <glyph glyph-name="lcommaaccent" unicode="&#x13c;" 
d="M169 0h-86v700h86v-700zM72 -252q29 8 44.5 29.5t18.5 50.5h-5q-59 0 -59 55q0 26 15 39.5t41 13.5q29 0 45 -18.5t16 -62.5q0 -51 -24 -92t-75 -55z" />
    <glyph glyph-name="ldot" unicode="&#x140;" horiz-adv-x="336" 
d="M171 0h-86v700h86v-700zM241 297q0 28 16 42t44 14t43.5 -14t15.5 -42t-15.5 -42.5t-43.5 -14.5t-44 14.5t-16 42.5z" />
    <glyph glyph-name="lslash" unicode="&#x142;" horiz-adv-x="281" 
d="M184 411l108 85v-82l-108 -84v-330h-86v263l-97 -75v81l97 76v355h86v-289z" />
    <glyph glyph-name="nacute" unicode="&#x144;" horiz-adv-x="605" 
d="M156 487l9 -93q28 57 77.5 81t109.5 24q92 0 136 -49t44 -146v-304h-86v284q0 77 -31 109.5t-89 32.5q-72 0 -114.5 -47.5t-44.5 -135.5v-243h-86v487h75zM352 574h-73v4l76 113h111v-6z" />
    <glyph glyph-name="ncaron" unicode="&#x148;" horiz-adv-x="605" 
d="M156 487l9 -93q28 57 77.5 81t109.5 24q92 0 136 -49t44 -146v-304h-86v284q0 77 -31 109.5t-89 32.5q-72 0 -114.5 -47.5t-44.5 -135.5v-243h-86v487h75zM391 691h93v-2l-123 -115h-83l-122 115v2h96l68 -67z" />
    <glyph glyph-name="ncommaaccent" unicode="&#x146;" horiz-adv-x="605" 
d="M156 487l9 -93q28 57 77.5 81t109.5 24q92 0 136 -49t44 -146v-304h-86v284q0 77 -31 109.5t-89 32.5q-72 0 -114.5 -47.5t-44.5 -135.5v-243h-86v487h75zM256 -252q29 8 44.5 29.5t18.5 50.5h-5q-59 0 -59 55q0 26 15 39.5t41 13.5q29 0 45 -18.5t16 -62.5
q0 -51 -24 -92t-75 -55z" />
    <glyph glyph-name="ntilde" unicode="&#xf1;" horiz-adv-x="605" 
d="M156 487l9 -93q28 57 77.5 81t109.5 24q92 0 136 -49t44 -146v-304h-86v284q0 77 -31 109.5t-89 32.5q-72 0 -114.5 -47.5t-44.5 -135.5v-243h-86v487h75zM475 684q2 -29 -5.5 -48.5t-20.5 -31t-29.5 -16.5t-32.5 -5q-21 0 -39 6.5t-34 14t-30.5 14t-27.5 6.5
q-18 0 -23.5 -11.5t-5.5 -25.5h-66q-2 29 5.5 48.5t20 31t28.5 16.5t33 5q22 0 40.5 -6.5t34.5 -14t30 -14t28 -6.5q18 0 23.5 11t5.5 26h65z" />
    <glyph glyph-name="oacute" unicode="&#xf3;" horiz-adv-x="561" 
d="M431 244q0 52 -9 87.5t-27.5 57.5t-47 31.5t-66.5 9.5q-39 0 -67.5 -9.5t-46.5 -31.5t-27 -57.5t-9 -87.5q0 -103 36.5 -145t113.5 -42t113.5 42t36.5 145zM45 245q0 132 61.5 193t174.5 61q119 0 177.5 -60t58.5 -194q0 -132 -60 -194.5t-176 -62.5q-115 0 -175.5 61
t-60.5 196zM314 574h-73v4l76 113h111v-6z" />
    <glyph glyph-name="obreve" unicode="&#x14f;" horiz-adv-x="561" 
d="M431 244q0 52 -9 87.5t-27.5 57.5t-47 31.5t-66.5 9.5q-39 0 -67.5 -9.5t-46.5 -31.5t-27 -57.5t-9 -87.5q0 -103 36.5 -145t113.5 -42t113.5 42t36.5 145zM45 245q0 132 61.5 193t174.5 61q119 0 177.5 -60t58.5 -194q0 -132 -60 -194.5t-176 -62.5q-115 0 -175.5 61
t-60.5 196zM424 691q0 -35 -10 -59t-28 -38t-44.5 -20t-59.5 -6t-59.5 6t-45 20t-28.5 38t-10 59h66q0 -39 19 -53.5t57 -14.5t57.5 14.5t19.5 53.5h66z" />
    <glyph glyph-name="ocircumflex" unicode="&#xf4;" horiz-adv-x="561" 
d="M431 244q0 52 -9 87.5t-27.5 57.5t-47 31.5t-66.5 9.5q-39 0 -67.5 -9.5t-46.5 -31.5t-27 -57.5t-9 -87.5q0 -103 36.5 -145t113.5 -42t113.5 42t36.5 145zM45 245q0 132 61.5 193t174.5 61q119 0 177.5 -60t58.5 -194q0 -132 -60 -194.5t-176 -62.5q-115 0 -175.5 61
t-60.5 196zM213 574h-93v3l122 114h83l123 -114v-3h-98l-67 69z" />
    <glyph glyph-name="odieresis" unicode="&#xf6;" horiz-adv-x="561" 
d="M431 244q0 52 -9 87.5t-27.5 57.5t-47 31.5t-66.5 9.5q-39 0 -67.5 -9.5t-46.5 -31.5t-27 -57.5t-9 -87.5q0 -103 36.5 -145t113.5 -42t113.5 42t36.5 145zM45 245q0 132 61.5 193t174.5 61q119 0 177.5 -60t58.5 -194q0 -132 -60 -194.5t-176 -62.5q-115 0 -175.5 61
t-60.5 196zM135 627q0 28 16 42t44 14t43.5 -14t15.5 -42t-15.5 -42.5t-43.5 -14.5t-44 14.5t-16 42.5zM308 627q0 28 16 42t44 14t43.5 -14t15.5 -42t-15.5 -42.5t-43.5 -14.5t-44 14.5t-16 42.5z" />
    <glyph glyph-name="oe" unicode="&#x153;" horiz-adv-x="912" 
d="M45 245q0 132 61.5 193t174.5 61q143 0 196 -92q56 92 189 92q54 0 93 -17.5t64.5 -49t38 -74.5t12.5 -94q0 -11 -0.5 -22.5t-1.5 -23.5h-354q5 -89 42 -125t106 -36q52 0 86 17.5t57 67.5l64 -33q-29 -64 -83 -92.5t-126 -28.5q-66 0 -113.5 22t-75.5 70
q-56 -92 -194 -92q-115 0 -175.5 61t-60.5 196zM431 244q0 52 -9 87.5t-27.5 57.5t-47 31.5t-66.5 9.5q-39 0 -67.5 -9.5t-46.5 -31.5t-27 -57.5t-9 -87.5q0 -103 36.5 -145t113.5 -42t113.5 42t36.5 145zM662 431q-63 0 -99.5 -33.5t-43.5 -113.5h270q-3 79 -36 113t-91 34
z" />
    <glyph glyph-name="ograve" unicode="&#xf2;" horiz-adv-x="561" 
d="M431 244q0 52 -9 87.5t-27.5 57.5t-47 31.5t-66.5 9.5q-39 0 -67.5 -9.5t-46.5 -31.5t-27 -57.5t-9 -87.5q0 -103 36.5 -145t113.5 -42t113.5 42t36.5 145zM45 245q0 132 61.5 193t174.5 61q119 0 177.5 -60t58.5 -194q0 -132 -60 -194.5t-176 -62.5q-115 0 -175.5 61
t-60.5 196zM138 687v6h111l77 -113v-4h-73z" />
    <glyph glyph-name="ohungarumlaut" unicode="&#x151;" horiz-adv-x="561" 
d="M431 244q0 52 -9 87.5t-27.5 57.5t-47 31.5t-66.5 9.5q-39 0 -67.5 -9.5t-46.5 -31.5t-27 -57.5t-9 -87.5q0 -103 36.5 -145t113.5 -42t113.5 42t36.5 145zM45 245q0 132 61.5 193t174.5 61q119 0 177.5 -60t58.5 -194q0 -132 -60 -194.5t-176 -62.5q-115 0 -175.5 61
t-60.5 196zM234 574h-70v4l62 113h100v-6zM363 574h-70v4l77 113h113v-6z" />
    <glyph glyph-name="omacron" unicode="&#x14d;" horiz-adv-x="561" 
d="M431 244q0 52 -9 87.5t-27.5 57.5t-47 31.5t-66.5 9.5q-39 0 -67.5 -9.5t-46.5 -31.5t-27 -57.5t-9 -87.5q0 -103 36.5 -145t113.5 -42t113.5 42t36.5 145zM45 245q0 132 61.5 193t174.5 61q119 0 177.5 -60t58.5 -194q0 -132 -60 -194.5t-176 -62.5q-115 0 -175.5 61
t-60.5 196zM410 601h-254v59h254v-59z" />
    <glyph glyph-name="oslash" unicode="&#xf8;" horiz-adv-x="571" 
d="M487 404q35 -61 35 -159q0 -132 -60 -194.5t-176 -62.5q-99 0 -157 46l-33 -34h-87l78 81q-37 59 -37 164q0 132 61.5 193t174.5 61q102 0 161 -47l34 35h87zM436 244q0 29 -3 52t-8 43l-243 -250q19 -17 44.5 -24.5t59.5 -7.5q77 0 113.5 42t36.5 145zM392 396
q-18 18 -44.5 26t-61.5 8q-39 0 -67.5 -9.5t-46.5 -31.5t-27 -57.5t-9 -87.5q0 -61 12 -100z" />
    <glyph glyph-name="otilde" unicode="&#xf5;" horiz-adv-x="561" 
d="M431 244q0 52 -9 87.5t-27.5 57.5t-47 31.5t-66.5 9.5q-39 0 -67.5 -9.5t-46.5 -31.5t-27 -57.5t-9 -87.5q0 -103 36.5 -145t113.5 -42t113.5 42t36.5 145zM45 245q0 132 61.5 193t174.5 61q119 0 177.5 -60t58.5 -194q0 -132 -60 -194.5t-176 -62.5q-115 0 -175.5 61
t-60.5 196zM438 684q2 -29 -5.5 -48.5t-20.5 -31t-29.5 -16.5t-32.5 -5q-21 0 -39 6.5t-34 14t-30.5 14t-27.5 6.5q-18 0 -23.5 -11.5t-5.5 -25.5h-66q-2 29 5.5 48.5t20 31t28.5 16.5t33 5q22 0 40.5 -6.5t34.5 -14t30 -14t28 -6.5q18 0 23.5 11t5.5 26h65z" />
    <glyph glyph-name="racute" unicode="&#x155;" horiz-adv-x="356" 
d="M81 487h74l9 -103q26 60 74.5 88t111.5 23v-82q-91 9 -136 -38t-47 -141v-234h-86v487zM297 574h-73v4l76 113h111v-6z" />
    <glyph glyph-name="rcaron" unicode="&#x159;" horiz-adv-x="356" 
d="M81 487h74l9 -103q26 60 74.5 88t111.5 23v-82q-91 9 -136 -38t-47 -141v-234h-86v487zM336 691h93v-2l-123 -115h-83l-122 115v2h96l68 -67z" />
    <glyph glyph-name="rcommaaccent" unicode="&#x157;" horiz-adv-x="356" 
d="M81 487h74l9 -103q26 60 74.5 88t111.5 23v-82q-91 9 -136 -38t-47 -141v-234h-86v487zM68 -252q29 8 44.5 29.5t18.5 50.5h-5q-59 0 -59 55q0 26 15 39.5t41 13.5q29 0 45 -18.5t16 -62.5q0 -51 -24 -92t-75 -55z" />
    <glyph glyph-name="sacute" unicode="&#x15b;" horiz-adv-x="486" 
d="M237 54q61 0 87.5 20t26.5 55q0 32 -22.5 48t-74.5 27l-44 9q-44 10 -74.5 24t-49.5 32.5t-27 40.5t-8 48q0 30 11 56t33.5 44.5t57.5 29.5t84 11q65 0 105.5 -20t71.5 -58l-55 -53q-26 32 -53.5 47.5t-74.5 15.5q-100 0 -100 -67q0 -13 4 -24.5t14 -21t27.5 -17.5
t43.5 -14l55 -12q46 -10 76 -23.5t48 -31t25.5 -39t7.5 -46.5q0 -28 -9.5 -54.5t-32 -47t-60 -33t-94.5 -12.5q-72 0 -123.5 22t-84.5 77l61 44q26 -43 61 -60t87 -17zM264 574h-73v4l76 113h111v-6z" />
    <glyph glyph-name="scaron" unicode="&#x161;" horiz-adv-x="486" 
d="M237 54q61 0 87.5 20t26.5 55q0 32 -22.5 48t-74.5 27l-44 9q-44 10 -74.5 24t-49.5 32.5t-27 40.5t-8 48q0 30 11 56t33.5 44.5t57.5 29.5t84 11q65 0 105.5 -20t71.5 -58l-55 -53q-26 32 -53.5 47.5t-74.5 15.5q-100 0 -100 -67q0 -13 4 -24.5t14 -21t27.5 -17.5
t43.5 -14l55 -12q46 -10 76 -23.5t48 -31t25.5 -39t7.5 -46.5q0 -28 -9.5 -54.5t-32 -47t-60 -33t-94.5 -12.5q-72 0 -123.5 22t-84.5 77l61 44q26 -43 61 -60t87 -17zM303 691h93v-2l-123 -115h-83l-122 115v2h96l68 -67z" />
    <glyph glyph-name="scedilla" unicode="&#x15f;" horiz-adv-x="486" 
d="M225 -237q-38 0 -68.5 14t-49.5 45l42 40q14 -23 30 -34.5t43 -11.5q23 0 38.5 9.5t15.5 29.5t-14.5 31t-39.5 11q-6 0 -11.5 -0.5t-11.5 -1.5l-16 15l20 79q-59 5 -102.5 27.5t-72.5 70.5l61 44q26 -43 61 -60t87 -17q61 0 87.5 20t26.5 55q0 32 -22.5 48t-74.5 27
l-44 9q-44 10 -74.5 24t-49.5 32.5t-27 40.5t-8 48q0 30 11 56t33.5 44.5t57.5 29.5t84 11q65 0 105.5 -20t71.5 -58l-55 -53q-26 32 -53.5 47.5t-74.5 15.5q-100 0 -100 -67q0 -13 4 -24.5t14 -21t27.5 -17.5t43.5 -14l55 -12q46 -10 76 -23.5t48 -31t25.5 -39t7.5 -46.5
q0 -26 -8 -51t-27.5 -45t-52 -33.5t-80.5 -16.5l-14 -50h3q35 0 61 -21t26 -63q0 -23 -9.5 -40.5t-25 -29t-36.5 -17t-44 -5.5z" />
    <glyph glyph-name="scircumflex" unicode="&#x15d;" horiz-adv-x="486" 
d="M237 54q61 0 87.5 20t26.5 55q0 32 -22.5 48t-74.5 27l-44 9q-44 10 -74.5 24t-49.5 32.5t-27 40.5t-8 48q0 30 11 56t33.5 44.5t57.5 29.5t84 11q65 0 105.5 -20t71.5 -58l-55 -53q-26 32 -53.5 47.5t-74.5 15.5q-100 0 -100 -67q0 -13 4 -24.5t14 -21t27.5 -17.5
t43.5 -14l55 -12q46 -10 76 -23.5t48 -31t25.5 -39t7.5 -46.5q0 -28 -9.5 -54.5t-32 -47t-60 -33t-94.5 -12.5q-72 0 -123.5 22t-84.5 77l61 44q26 -43 61 -60t87 -17zM162 574h-93v3l122 114h83l123 -114v-3h-98l-67 69z" />
    <glyph glyph-name="scommaaccent" unicode="&#x219;" horiz-adv-x="486" 
d="M237 54q61 0 87.5 20t26.5 55q0 32 -22.5 48t-74.5 27l-44 9q-44 10 -74.5 24t-49.5 32.5t-27 40.5t-8 48q0 30 11 56t33.5 44.5t57.5 29.5t84 11q65 0 105.5 -20t71.5 -58l-55 -53q-26 32 -53.5 47.5t-74.5 15.5q-100 0 -100 -67q0 -13 4 -24.5t14 -21t27.5 -17.5
t43.5 -14l55 -12q46 -10 76 -23.5t48 -31t25.5 -39t7.5 -46.5q0 -28 -9.5 -54.5t-32 -47t-60 -33t-94.5 -12.5q-72 0 -123.5 22t-84.5 77l61 44q26 -43 61 -60t87 -17zM179 -252q29 8 44.5 29.5t18.5 50.5h-5q-59 0 -59 55q0 26 15 39.5t41 13.5q29 0 45 -18.5t16 -62.5
q0 -51 -24 -92t-75 -55z" />
    <glyph glyph-name="tbar" unicode="&#x167;" horiz-adv-x="327" 
d="M316 420h-141v-92h141v-58h-141v-105q0 -32 6 -52.5t17 -31.5t26 -15t33 -4q19 0 32 2.5t27 7.5l14 -70q-26 -9 -44 -11.5t-39 -2.5q-72 0 -114 41t-42 133v108h-86v58h86v92h-86v67h86v143h84v-143h141v-67z" />
    <glyph glyph-name="tcaron" unicode="&#x165;" horiz-adv-x="335" 
d="M246 555l7 195h84l-32 -195h-59zM91 487v143h84v-143h141v-67h-141v-255q0 -32 6 -52.5t17 -31.5t26 -15t33 -4q19 0 32 2.5t27 7.5l14 -70q-26 -9 -44 -11.5t-39 -2.5q-72 0 -114 41t-42 133v258h-86v67h86z" />
    <glyph glyph-name="tcommaaccent" unicode="&#x163;" horiz-adv-x="335" 
d="M91 487v143h84v-143h141v-67h-141v-255q0 -32 6 -52.5t17 -31.5t26 -15t33 -4q19 0 32 2.5t27 7.5l14 -70q-26 -9 -44 -11.5t-39 -2.5q-72 0 -114 41t-42 133v258h-86v67h86zM186 -252q29 8 44.5 29.5t18.5 50.5h-5q-59 0 -59 55q0 26 15 39.5t41 13.5q29 0 45 -18.5
t16 -62.5q0 -51 -24 -92t-75 -55z" />
    <glyph glyph-name="thorn" unicode="&#xfe;" horiz-adv-x="590" 
d="M167 405q25 47 69.5 70.5t104.5 23.5q100 0 152 -64.5t52 -189.5t-56 -191t-162 -66q-54 0 -94.5 20t-65.5 61v-256h-86v887h86v-295zM167 243q0 -98 41 -142t106 -44q73 0 109 45.5t36 141.5q0 97 -35.5 141.5t-105.5 44.5q-33 0 -60.5 -10.5t-47.5 -33.5t-31.5 -58.5
t-11.5 -84.5z" />
    <glyph glyph-name="uacute" unicode="&#xfa;" horiz-adv-x="601" 
d="M440 86q-29 -53 -76.5 -75.5t-101.5 -22.5q-97 0 -142.5 53t-45.5 150v296h86v-284q0 -145 122 -145q71 0 111 46t42 134v249h86v-487h-74zM330 574h-73v4l76 113h111v-6z" />
    <glyph glyph-name="ubreve" unicode="&#x16d;" horiz-adv-x="601" 
d="M440 86q-29 -53 -76.5 -75.5t-101.5 -22.5q-97 0 -142.5 53t-45.5 150v296h86v-284q0 -145 122 -145q71 0 111 46t42 134v249h86v-487h-74zM439 691q0 -35 -10 -59t-28 -38t-44.5 -20t-59.5 -6t-59.5 6t-45 20t-28.5 38t-10 59h66q0 -39 19 -53.5t57 -14.5t57.5 14.5
t19.5 53.5h66z" />
    <glyph glyph-name="ucircumflex" unicode="&#xfb;" horiz-adv-x="601" 
d="M440 86q-29 -53 -76.5 -75.5t-101.5 -22.5q-97 0 -142.5 53t-45.5 150v296h86v-284q0 -145 122 -145q71 0 111 46t42 134v249h86v-487h-74zM228 574h-93v3l122 114h83l123 -114v-3h-98l-67 69z" />
    <glyph glyph-name="udieresis" unicode="&#xfc;" horiz-adv-x="601" 
d="M440 86q-29 -53 -76.5 -75.5t-101.5 -22.5q-97 0 -142.5 53t-45.5 150v296h86v-284q0 -145 122 -145q71 0 111 46t42 134v249h86v-487h-74zM150 627q0 28 16 42t44 14t43.5 -14t15.5 -42t-15.5 -42.5t-43.5 -14.5t-44 14.5t-16 42.5zM323 627q0 28 16 42t44 14t43.5 -14
t15.5 -42t-15.5 -42.5t-43.5 -14.5t-44 14.5t-16 42.5z" />
    <glyph glyph-name="ugrave" unicode="&#xf9;" horiz-adv-x="601" 
d="M440 86q-29 -53 -76.5 -75.5t-101.5 -22.5q-97 0 -142.5 53t-45.5 150v296h86v-284q0 -145 122 -145q71 0 111 46t42 134v249h86v-487h-74zM153 687v6h111l77 -113v-4h-73z" />
    <glyph glyph-name="uhungarumlaut" unicode="&#x171;" horiz-adv-x="601" 
d="M440 86q-29 -53 -76.5 -75.5t-101.5 -22.5q-97 0 -142.5 53t-45.5 150v296h86v-284q0 -145 122 -145q71 0 111 46t42 134v249h86v-487h-74zM249 574h-70v4l62 113h100v-6zM378 574h-70v4l77 113h113v-6z" />
    <glyph glyph-name="umacron" unicode="&#x16b;" horiz-adv-x="601" 
d="M440 86q-29 -53 -76.5 -75.5t-101.5 -22.5q-97 0 -142.5 53t-45.5 150v296h86v-284q0 -145 122 -145q71 0 111 46t42 134v249h86v-487h-74zM425 601h-254v59h254v-59z" />
    <glyph glyph-name="uogonek" unicode="&#x173;" horiz-adv-x="601" 
d="M475 -212q-22 0 -42.5 5t-36.5 16.5t-26 31t-10 48.5q0 49 25 81.5t60 49.5l-6 66q-28 -53 -76 -75.5t-101 -22.5q-97 0 -142.5 53t-45.5 150v296h86v-284q0 -145 122 -145q71 0 111 46t42 134v249h86v-487q-23 -2 -41 -11.5t-30 -23.5t-18.5 -31.5t-6.5 -34.5
q0 -28 15 -39t43 -11q35 0 65 18l14 -56q-38 -23 -87 -23z" />
    <glyph glyph-name="uring" unicode="&#x16f;" horiz-adv-x="601" 
d="M440 86q-29 -53 -76.5 -75.5t-101.5 -22.5q-97 0 -142.5 53t-45.5 150v296h86v-284q0 -145 122 -145q71 0 111 46t42 134v249h86v-487h-74zM201 641q0 44 27.5 69t69.5 25t69 -25t27 -69t-27.5 -69t-69.5 -25t-69 25t-27 69zM249 641q0 -23 13.5 -38t34.5 -15t35 15
t14 38t-14 37.5t-34 14.5q-22 0 -35.5 -14.5t-13.5 -37.5z" />
    <glyph glyph-name="utilde" unicode="&#x169;" horiz-adv-x="601" 
d="M440 86q-29 -53 -76.5 -75.5t-101.5 -22.5q-97 0 -142.5 53t-45.5 150v296h86v-284q0 -145 122 -145q71 0 111 46t42 134v249h86v-487h-74zM453 684q2 -29 -5.5 -48.5t-20.5 -31t-29.5 -16.5t-32.5 -5q-21 0 -39 6.5t-34 14t-30.5 14t-27.5 6.5q-18 0 -23.5 -11.5
t-5.5 -25.5h-66q-2 29 5.5 48.5t20 31t28.5 16.5t33 5q22 0 40.5 -6.5t34.5 -14t30 -14t28 -6.5q18 0 23.5 11t5.5 26h65z" />
    <glyph glyph-name="wacute" unicode="&#x1e83;" horiz-adv-x="718" 
d="M406 484l115 -387l115 390h82l-155 -487h-91l-113 387l-111 -387h-91l-157 487h86l117 -389l114 386h89zM392 574h-73v4l76 113h111v-6z" />
    <glyph glyph-name="wdieresis" unicode="&#x1e85;" horiz-adv-x="718" 
d="M406 484l115 -387l115 390h82l-155 -487h-91l-113 387l-111 -387h-91l-157 487h86l117 -389l114 386h89zM212 627q0 28 16 42t44 14t43.5 -14t15.5 -42t-15.5 -42.5t-43.5 -14.5t-44 14.5t-16 42.5zM385 627q0 28 16 42t44 14t43.5 -14t15.5 -42t-15.5 -42.5t-43.5 -14.5
t-44 14.5t-16 42.5z" />
    <glyph glyph-name="wgrave" unicode="&#x1e81;" horiz-adv-x="718" 
d="M406 484l115 -387l115 390h82l-155 -487h-91l-113 387l-111 -387h-91l-157 487h86l117 -389l114 386h89zM215 687v6h111l77 -113v-4h-73z" />
    <glyph glyph-name="wcircumflex" unicode="&#x175;" horiz-adv-x="718" 
d="M406 484l115 -387l115 390h82l-155 -487h-91l-113 387l-111 -387h-91l-157 487h86l117 -389l114 386h89zM290 574h-93v3l122 114h83l123 -114v-3h-98l-67 69z" />
    <glyph glyph-name="yacute" unicode="&#xfd;" horiz-adv-x="488" 
d="M199 -9l-201 496h91l155 -406l155 406h89l-229 -565q-29 -71 -73.5 -97t-101.5 -26q-20 0 -37.5 2.5t-40.5 10.5l14 72q17 -5 31 -8t34 -3q12 0 25 2t26.5 10t26 23.5t22.5 41.5zM277 574h-73v4l76 113h111v-6z" />
    <glyph glyph-name="ycircumflex" unicode="&#x177;" horiz-adv-x="488" 
d="M199 -9l-201 496h91l155 -406l155 406h89l-229 -565q-29 -71 -73.5 -97t-101.5 -26q-20 0 -37.5 2.5t-40.5 10.5l14 72q17 -5 31 -8t34 -3q12 0 25 2t26.5 10t26 23.5t22.5 41.5zM175 574h-93v3l122 114h83l123 -114v-3h-98l-67 69z" />
    <glyph glyph-name="ydieresis" unicode="&#xff;" horiz-adv-x="488" 
d="M199 -9l-201 496h91l155 -406l155 406h89l-229 -565q-29 -71 -73.5 -97t-101.5 -26q-20 0 -37.5 2.5t-40.5 10.5l14 72q17 -5 31 -8t34 -3q12 0 25 2t26.5 10t26 23.5t22.5 41.5zM97 627q0 28 16 42t44 14t43.5 -14t15.5 -42t-15.5 -42.5t-43.5 -14.5t-44 14.5t-16 42.5z
M270 627q0 28 16 42t44 14t43.5 -14t15.5 -42t-15.5 -42.5t-43.5 -14.5t-44 14.5t-16 42.5z" />
    <glyph glyph-name="zacute" unicode="&#x17a;" horiz-adv-x="464" 
d="M28 64l297 354h-292v69h394v-65l-299 -353h307v-69h-407v64zM265 574h-73v4l76 113h111v-6z" />
    <glyph glyph-name="zcaron" unicode="&#x17e;" horiz-adv-x="464" 
d="M28 64l297 354h-292v69h394v-65l-299 -353h307v-69h-407v64zM304 691h93v-2l-123 -115h-83l-122 115v2h96l68 -67z" />
    <glyph glyph-name="zdotaccent" unicode="&#x17c;" horiz-adv-x="464" 
d="M28 64l297 354h-292v69h394v-65l-299 -353h307v-69h-407v64zM174 627q0 28 16 42t44 14t43.5 -14t15.5 -42t-15.5 -42.5t-43.5 -14.5t-44 14.5t-16 42.5z" />
    <glyph glyph-name="ordfeminine" unicode="&#xaa;" horiz-adv-x="416" 
d="M295 416q-33 -68 -120 -68q-70 0 -107.5 46t-37.5 136q0 91 39.5 136.5t113.5 45.5q39 0 68 -16.5t46 -49.5l7 55h56v-342h-61zM293 531q0 67 -28 97t-70 30q-50 0 -74 -31t-24 -97t24.5 -96.5t72.5 -30.5q44 0 71.5 30t27.5 98z" />
    <glyph glyph-name="ordmasculine" unicode="&#xba;" horiz-adv-x="399" 
d="M303 531q0 69 -25.5 98.5t-77.5 29.5q-53 0 -78 -29.5t-25 -98.5q0 -71 25.5 -100t77.5 -29t77.5 29t25.5 100zM30 531q0 94 44.5 137.5t125.5 43.5q85 0 127.5 -42.5t42.5 -138.5q0 -94 -43.5 -138.5t-126.5 -44.5q-82 0 -126 43t-44 140z" />
    <glyph glyph-name="cordinal" horiz-adv-x="369" 
d="M197 348q-79 0 -122.5 43t-43.5 140q0 94 43.5 137.5t123.5 43.5q54 0 88 -20t54 -57l-48 -33q-14 27 -37 42t-57 15q-52 0 -76.5 -28.5t-24.5 -100.5q0 -70 25 -98.5t76 -28.5q36 0 58.5 13t37.5 45l51 -26q-20 -46 -57 -66.5t-91 -20.5z" />
    <glyph glyph-name="ampersand" unicode="&#x26;" horiz-adv-x="683" 
d="M634 476q0 -106 -20.5 -190.5t-59.5 -146.5q31 -22 64.5 -44t71.5 -46l-41 -61q-40 25 -75.5 47t-67.5 45q-46 -45 -106.5 -68.5t-136.5 -23.5q-50 0 -94 11t-76 33.5t-50.5 57.5t-18.5 84q0 40 11.5 69.5t31.5 52.5t46 42t55 37q-45 60 -60 105t-15 77q0 74 47 114.5
t141 40.5q88 0 127 -34.5t39 -97.5q0 -35 -11.5 -64t-33.5 -54.5t-52.5 -49.5t-69.5 -49q35 -38 86.5 -82.5t123.5 -96.5q32 52 48 125t14 167h82zM269 57q51 0 95 16.5t79 50.5q-78 57 -134 105.5t-95 91.5q-23 -14 -42 -28.5t-32.5 -31.5t-21.5 -37.5t-8 -45.5
q0 -56 41.5 -88.5t117.5 -32.5zM175 553q0 -24 12 -58t47 -79q34 22 59 41t41.5 36.5t24 35.5t7.5 39q0 76 -89 76q-52 0 -77 -24t-25 -67z" />
    <glyph glyph-name="cedilla" unicode="&#xb8;" horiz-adv-x="575" 
d="M349 0l-17 -61h3q35 0 61 -21t26 -63q0 -23 -9.5 -40.5t-25 -29t-36.5 -17t-44 -5.5q-38 0 -68.5 14t-49.5 45l42 40q14 -23 30 -34.5t43 -11.5q23 0 38.5 9.5t15.5 29.5t-14.5 31t-39.5 11q-6 0 -11.5 -0.5t-11.5 -1.5l-16 15l23 90h61z" />
    <glyph glyph-name="period" unicode="." horiz-adv-x="205" 
d="M44 52q0 29 16 43t44 14q27 0 42.5 -14t15.5 -43q0 -27 -15.5 -42t-42.5 -15q-28 0 -44 15t-16 42z" />
    <glyph glyph-name="comma" unicode="," horiz-adv-x="205" 
d="M109 -2q-2 -1 -3 -1h-5q-26 0 -41.5 15t-15.5 41q0 29 15.5 42.5t41.5 13.5q29 0 45 -19t16 -64q0 -27 -6 -52t-19 -46t-32 -36t-45 -22l-17 39q29 10 46 33.5t20 55.5z" />
    <glyph glyph-name="colon" unicode=":" horiz-adv-x="205" 
d="M44 52q0 29 16 43t44 14q27 0 42.5 -14t15.5 -43q0 -27 -15.5 -42t-42.5 -15q-28 0 -44 15t-16 42zM44 429q0 29 16 43t44 14q27 0 42.5 -14t15.5 -43q0 -27 -15.5 -42t-42.5 -15q-28 0 -44 15t-16 42z" />
    <glyph glyph-name="semicolon" unicode=";" horiz-adv-x="205" 
d="M109 -2q-2 -1 -3 -1h-5q-26 0 -41.5 15t-15.5 41q0 29 15.5 42.5t41.5 13.5q29 0 45 -19t16 -64q0 -27 -6 -52t-19 -46t-32 -36t-45 -22l-17 39q29 10 46 33.5t20 55.5zM45 429q0 29 16 43t44 14q27 0 42.5 -14t15.5 -43q0 -27 -15.5 -42t-42.5 -15q-28 0 -44 15t-16 42z
" />
    <glyph glyph-name="ellipsis" unicode="&#x2026;" horiz-adv-x="666" 
d="M44 52q0 29 16 43t44 14q27 0 42.5 -14t15.5 -43q0 -27 -15.5 -42t-42.5 -15q-28 0 -44 15t-16 42zM274 52q0 29 16 43t44 14t43.5 -14t15.5 -43q0 -27 -15.5 -42t-43.5 -15t-44 15t-16 42zM505 52q0 29 16 43t43 14q28 0 43.5 -14t15.5 -43q0 -27 -15.5 -42t-43.5 -15
q-27 0 -43 15t-16 42z" />
    <glyph glyph-name="exclam" unicode="!" horiz-adv-x="202" 
d="M137 194h-71l-12 506h95zM43 52q0 29 15.5 43t43.5 14q27 0 43 -14t16 -43q0 -27 -16 -42t-43 -15q-28 0 -43.5 15t-15.5 42z" />
    <glyph glyph-name="exclamdown" unicode="&#xa1;" horiz-adv-x="202" 
d="M90 304h71l12 -506h-95zM184 446q0 -29 -15.5 -43t-43.5 -14q-27 0 -43 14t-16 43q0 27 16 42t43 15q28 0 43.5 -15t15.5 -42z" />
    <glyph glyph-name="exclamdown.cap" horiz-adv-x="206" 
d="M68 506h71l12 -506h-95zM162 648q0 -29 -15.5 -43t-43.5 -14q-27 0 -43 14t-16 43q0 27 16 42t43 15q28 0 43.5 -15t15.5 -42z" />
    <glyph glyph-name="question" unicode="?" horiz-adv-x="482" 
d="M184 349h44q161 0 161 150q0 69 -41.5 104t-118.5 35q-59 0 -100.5 -25t-73.5 -89l-62 45q36 76 96 109.5t150 33.5q54 0 98 -14.5t74.5 -41t47.5 -65t17 -86.5q0 -95 -52.5 -148.5t-153.5 -61.5v-101h-86v155zM167 52q0 29 16 43t44 14q27 0 42.5 -14t15.5 -43
q0 -27 -15.5 -42t-42.5 -15q-28 0 -44 15t-16 42z" />
    <glyph glyph-name="questiondown" unicode="&#xbf;" horiz-adv-x="482" 
d="M315 149h-44q-161 0 -161 -150q0 -69 41.5 -104t118.5 -35q59 0 100.5 24.5t73.5 89.5l62 -45q-36 -76 -96 -109.5t-150 -33.5q-54 0 -98 14.5t-74.5 41t-47.5 65t-17 86.5q0 95 52.5 148.5t153.5 61.5v101h86v-155zM332 446q0 -29 -16 -43t-44 -14q-27 0 -42.5 14
t-15.5 43q0 27 15.5 42t42.5 15q28 0 44 -15t16 -42z" />
    <glyph glyph-name="questiondown.cap" horiz-adv-x="478" 
d="M306 355h-44q-161 0 -161 -150q0 -69 41.5 -104t118.5 -35q59 0 100.5 24.5t73.5 89.5l62 -45q-36 -76 -96 -109.5t-150 -33.5q-54 0 -98 14.5t-74.5 41t-47.5 65t-17 86.5q0 95 52.5 148.5t153.5 61.5v101h86v-155zM323 652q0 -29 -16 -43t-44 -14q-27 0 -42.5 14
t-15.5 43q0 27 15.5 42t42.5 15q28 0 44 -15t16 -42z" />
    <glyph glyph-name="quoteleft" unicode="&#x2018;" horiz-adv-x="203" 
d="M103 607q2 1 3 1h5q26 0 41.5 -15t15.5 -41q0 -29 -15.5 -42.5t-41.5 -13.5q-29 0 -45 19t-16 64q0 27 6 52t19 46t32 36t45 22l17 -39q-29 -10 -46 -33.5t-20 -55.5z" />
    <glyph glyph-name="quoteright" unicode="&#x2019;" horiz-adv-x="203" 
d="M110 612q-2 -1 -3 -1h-5q-26 0 -41.5 15t-15.5 41q0 29 15.5 42.5t41.5 13.5q29 0 45 -19t16 -64q0 -27 -6 -52t-19 -46t-32 -36t-45 -22l-17 39q29 10 46 33.5t20 55.5z" />
    <glyph glyph-name="quotedblleft" unicode="&#x201c;" horiz-adv-x="359" 
d="M258 607q2 1 3 1h5q26 0 41.5 -15t15.5 -41q0 -29 -15.5 -42.5t-41.5 -13.5q-29 0 -45 19t-16 64q0 27 6 52t19 46t32 36t45 22l17 -39q-29 -10 -46 -33.5t-20 -55.5zM103 607q2 1 3 1h5q26 0 41.5 -15t15.5 -41q0 -29 -15.5 -42.5t-41.5 -13.5q-29 0 -45 19t-16 64
q0 27 6 52t19 46t32 36t45 22l17 -39q-29 -10 -46 -33.5t-20 -55.5z" />
    <glyph glyph-name="quotedblright" unicode="&#x201d;" horiz-adv-x="359" 
d="M107 611q-2 -1 -3 -1h-5q-26 0 -41.5 15t-15.5 41q0 29 15.5 42.5t41.5 13.5q29 0 45 -19t16 -64q0 -27 -6 -52t-19 -46t-32 -36t-45 -22l-17 39q29 10 46 33.5t20 55.5zM265 611q-2 -1 -3 -1h-5q-26 0 -41.5 15t-15.5 41q0 29 15.5 42.5t41.5 13.5q29 0 45 -19t16 -64
q0 -27 -6 -52t-19 -46t-32 -36t-45 -22l-17 39q29 10 46 33.5t20 55.5z" />
    <glyph glyph-name="quotesinglbase" unicode="&#x201a;" horiz-adv-x="201" 
d="M108 -1q-2 -1 -3 -1h-5q-25 0 -40.5 14.5t-15.5 40.5q0 28 15.5 41.5t40.5 13.5q28 0 44 -18.5t16 -63.5q0 -26 -6 -50.5t-18.5 -45t-31.5 -35.5t-44 -21l-17 38q29 10 45.5 33t19.5 54z" />
    <glyph glyph-name="quotedblbase" unicode="&#x201e;" horiz-adv-x="357" 
d="M108 -2q-2 -1 -3 -1h-5q-25 0 -40.5 14.5t-15.5 40.5q0 28 15.5 41.5t40.5 13.5q28 0 44 -18.5t16 -63.5q0 -26 -6 -50.5t-18.5 -45t-31.5 -35.5t-44 -21l-17 38q29 10 45.5 33t19.5 54zM264 -2q-2 -1 -3 -1h-5q-25 0 -40.5 14.5t-15.5 40.5q0 28 15.5 41.5t40.5 13.5
q28 0 44 -18.5t16 -63.5q0 -26 -6 -50.5t-18.5 -45t-31.5 -35.5t-44 -21l-17 38q29 10 45.5 33t19.5 54z" />
    <glyph glyph-name="reversequoteleft" horiz-adv-x="203" 
d="M106 612q3 -32 20 -55.5t46 -33.5l-17 -39q-26 7 -45 22t-32 36t-19 46t-6 52q0 45 16 64t45 19q26 0 41.5 -13.5t15.5 -42.5q0 -26 -15.5 -41t-41.5 -15h-6q-2 0 -2 1z" />
    <glyph glyph-name="reversequotedblleft" horiz-adv-x="359" 
d="M106 612q3 -32 20 -55.5t46 -33.5l-17 -39q-26 7 -45 22t-32 36t-19 46t-6 52q0 45 16 64t45 19q26 0 41.5 -13.5t15.5 -42.5q0 -26 -15.5 -41t-41.5 -15h-6q-2 0 -2 1zM264 612q3 -32 20 -55.5t46 -33.5l-17 -39q-26 7 -45 22t-32 36t-19 46t-6 52q0 45 16 64t45 19
q26 0 41.5 -13.5t15.5 -42.5q0 -26 -15.5 -41t-41.5 -15h-6q-2 0 -2 1z" />
    <glyph glyph-name="guilsinglleft" unicode="&#x2039;" horiz-adv-x="389" 
d="M43 242v3l191 242h98l-192 -241l195 -246h-101z" />
    <glyph glyph-name="guilsinglright" unicode="&#x203a;" horiz-adv-x="389" 
d="M371 245v-3l-191 -242h-98l192 241l-195 246h101z" />
    <glyph glyph-name="guillemotleft" unicode="&#xab;" horiz-adv-x="609" 
d="M43 242v3l191 242h98l-192 -241l196 -246h-101zM256 244v3l192 240h99l-194 -239l201 -248h-100z" />
    <glyph glyph-name="guillemotright" unicode="&#xbb;" horiz-adv-x="609" 
d="M591 245v-3l-191 -242h-98l192 241l-196 246h101zM378 243v-3l-192 -240h-99l194 239l-201 248h100z" />
    <glyph glyph-name="slash" unicode="/" horiz-adv-x="481" 
d="M85 0h-92l403 700h93z" />
    <glyph glyph-name="backslash" unicode="\" horiz-adv-x="486" 
d="M-7 700h89l403 -700h-89z" />
    <glyph glyph-name="bar" unicode="|" horiz-adv-x="272" 
d="M98 766h78v-831h-78v831z" />
    <glyph glyph-name="doublebar" horiz-adv-x="422" 
d="M98 766h78v-831h-78v831zM248 766h78v-831h-78v831z" />
    <glyph glyph-name="brokenbar" unicode="&#xa6;" horiz-adv-x="272" 
d="M98 766h78v-378h-78v378zM98 314h78v-379h-78v379z" />
    <glyph glyph-name="bullet" unicode="&#x2022;" horiz-adv-x="406" 
d="M48 327q0 69 41 111t115 42q73 0 114 -42t41 -111q0 -70 -41 -111.5t-114 -41.5q-74 0 -115 41.5t-41 111.5z" />
    <glyph glyph-name="periodcentered" unicode="&#xb7;" horiz-adv-x="205" 
d="M44 337q0 29 16 43t44 14q27 0 42.5 -14t15.5 -43q0 -27 -15.5 -42t-42.5 -15q-28 0 -44 15t-16 42z" />
    <glyph glyph-name="hyphen" unicode="-" horiz-adv-x="406" 
d="M371 299h-334v72h334v-72z" />
    <glyph glyph-name="endash" unicode="&#x2013;" horiz-adv-x="563" 
d="M528 299h-491v72h491v-72z" />
    <glyph glyph-name="emdash" unicode="&#x2014;" horiz-adv-x="763" 
d="M728 299h-691v72h691v-72z" />
    <glyph glyph-name="parenleft" unicode="(" horiz-adv-x="319" 
d="M287 -81q-131 13 -192.5 112t-61.5 291t61.5 291t192.5 112l6 -64q-44 -7 -78 -28t-56.5 -61t-34 -101.5t-11.5 -148.5t11.5 -148.5t34 -101.5t56.5 -61t78 -28z" />
    <glyph glyph-name="parenright" unicode=")" horiz-adv-x="319" 
d="M51 -17q44 7 78 28t56.5 61t34 101.5t11.5 148.5t-11.5 148.5t-34 101.5t-56.5 61t-78 28l6 64q131 -13 192.5 -112t61.5 -291t-61.5 -291t-192.5 -112z" />
    <glyph glyph-name="bracketleft" unicode="[" horiz-adv-x="314" 
d="M60 716h224v-65h-146v-691h149v-65h-227v821z" />
    <glyph glyph-name="bracketright" unicode="]" horiz-adv-x="314" 
d="M279 -105h-227v65h149v691h-146v65h224v-821z" />
    <glyph glyph-name="braceleft" unicode="{" horiz-adv-x="322" 
d="M281 -82q-76 7 -115 41t-39 103q0 32 5 61t5 58q0 57 -25.5 82.5t-79.5 25.5h-35v65h35q54 0 79.5 25.5t25.5 82.5q0 29 -5 58t-5 62q0 69 39 102.5t115 40.5l6 -65q-39 -5 -60 -24t-21 -61q0 -31 4.5 -60.5t4.5 -61.5q0 -98 -87 -131q87 -35 87 -132q0 -32 -4.5 -61.5
t-4.5 -59.5q0 -42 21 -61.5t60 -24.5l-6 -65v0z" />
    <glyph glyph-name="braceright" unicode="}" horiz-adv-x="322" 
d="M64 -82l-6 65q39 5 60 24.5t21 61.5q0 30 -4.5 59.5t-4.5 61.5q0 97 87 132q-87 33 -87 131q0 32 4.5 61.5t4.5 60.5q0 42 -21 61t-60 24l6 65q76 -7 115 -40.5t39 -102.5q0 -33 -5 -62t-5 -58q0 -57 25.5 -82.5t79.5 -25.5h35v-65h-35q-54 0 -79.5 -25.5t-25.5 -82.5
q0 -29 5 -58t5 -61q0 -69 -39 -103t-115 -41z" />
    <glyph glyph-name="asterisk" unicode="*" horiz-adv-x="392" 
d="M51 394l91 109l-129 33l19 69l127 -44l-7 151h79l-9 -151l129 44l19 -68l-128 -34l90 -109l-57 -45l-84 116l-83 -116z" />
    <glyph glyph-name="dagger" unicode="&#x2020;" horiz-adv-x="283" 
d="M178 527l-1 -231h-71v231h-69v63h68l-3 120h80l-3 -120h67v-63h-68z" />
    <glyph glyph-name="daggerdbl" unicode="&#x2021;" horiz-adv-x="283" 
d="M107 476v60h-70v63h68l-3 111h80l-4 -111h68v-63h-69v-60h69v-63h-68l4 -117h-80l3 117h-68v63h70z" />
    <glyph glyph-name="section" unicode="&#xa7;" horiz-adv-x="494" 
d="M248 -23q-65 0 -114 19.5t-81 73.5l61 41q25 -39 55.5 -54.5t78.5 -15.5q60 0 84 20t24 54q0 28 -21 46.5t-77 31.5l-44 10q-83 20 -116 58t-33 88q0 34 17.5 66t65.5 46q-37 21 -52.5 50t-15.5 63q0 26 8 51t27.5 44.5t52 31t81.5 11.5q60 0 96.5 -17t66.5 -52l-54 -50
q-23 29 -47.5 42.5t-64.5 13.5q-50 0 -70.5 -19.5t-20.5 -52.5q0 -24 18.5 -46t66.5 -34l53 -13q86 -22 122 -55t36 -89q0 -34 -18.5 -65t-67.5 -46q37 -19 54 -46t17 -66q0 -26 -8.5 -50.5t-30 -44.5t-58 -32.5t-91.5 -12.5zM370 333q1 29 -20 51t-80 33l-30 6
q-26 4 -44.5 -0.5t-30.5 -15t-18 -24.5t-6 -29q-1 -24 17.5 -48t64.5 -32l30 -6q53 -10 84.5 7.5t32.5 57.5z" />
    <glyph glyph-name="paragraph" unicode="&#xb6;" horiz-adv-x="635" 
d="M583 0h-86v245h-73v-245h-87v245h-5q-127 0 -191.5 59.5t-64.5 175.5q0 106 60.5 163t185.5 57h261v-700zM424 625v-303h73v303h-73zM162 477q0 -78 40 -116.5t111 -38.5h24v303h-25q-76 0 -113 -38.5t-37 -109.5z" />
    <glyph glyph-name="asciicircum" unicode="^" horiz-adv-x="409" 
d="M248 700l149 -315v-2h-88l-104 231l-107 -231h-85v2l150 315h85z" />
    <glyph glyph-name="asciitilde" unicode="~" horiz-adv-x="507" 
d="M496 405q-4 -68 -40 -101t-94 -33q-32 0 -62.5 12t-58.5 26q-23 11 -45.5 20.5t-44.5 9.5q-25 0 -41.5 -16t-19.5 -50l-76 10q4 69 40.5 101.5t95.5 32.5q34 0 64 -11.5t57 -25.5q23 -11 45 -20t43 -9q26 0 42.5 15.5t18.5 48.5z" />
    <glyph glyph-name="underscore" unicode="_" horiz-adv-x="455" 
d="M473 -66h-490v66h490v-66z" />
    <glyph glyph-name="quotesingle" unicode="'" horiz-adv-x="162" 
d="M44 712h80l-6 -211h-67z" />
    <glyph glyph-name="quotedbl" unicode="&#x22;" horiz-adv-x="284" 
d="M51 501l-7 211h80l-6 -211h-67zM165 712h81l-8 -211h-66z" />
    <glyph glyph-name="at" unicode="@" horiz-adv-x="793" 
d="M479 147v1l20 15l-4 -8q-23 -45 -57 -64t-76 -19q-69 0 -105 44.5t-36 131.5q0 86 38.5 130.5t110.5 44.5q79 0 112 -65l-4 -1l6 57h54v-2v-225q0 -32 12.5 -48t43.5 -16q42 0 68 37t26 109q0 69 -20.5 120t-57.5 85.5t-88.5 51.5t-114.5 17q-67 0 -122.5 -19t-95 -57
t-61.5 -94.5t-22 -130.5q0 -75 22 -131.5t61.5 -94.5t95 -57t123.5 -19q74 0 134 22t102 66l28 -31q-45 -48 -111 -74t-154 -26q-83 0 -147.5 25t-109.5 70t-68.5 108.5t-23.5 141.5q0 77 23.5 140.5t68.5 108.5t109.5 69.5t147.5 24.5q80 0 141 -22.5t102.5 -64t63 -99.5
t21.5 -128q0 -90 -40 -141t-115 -51q-39 0 -66 16t-35 52zM476 248q0 33 -7.5 56.5t-20.5 38.5t-31 22t-38 7q-95 0 -95 -125q0 -64 23 -94t71 -30q42 0 70 29.5t28 95.5z" />
    <glyph glyph-name="at.cap" horiz-adv-x="793" 
d="M479 255v1l20 15l-4 -8q-23 -45 -57 -64t-76 -19q-69 0 -105 44.5t-36 131.5q0 86 38.5 130.5t110.5 44.5q79 0 112 -65l-4 -1l6 57h54v-2v-225q0 -32 12.5 -48t43.5 -16q42 0 68 37t26 109q0 69 -20.5 120t-57.5 85.5t-88.5 51.5t-114.5 17q-67 0 -122.5 -19t-95 -57
t-61.5 -94.5t-22 -130.5q0 -75 22 -131.5t61.5 -94.5t95 -57t123.5 -19q74 0 134 22t102 66l28 -31q-45 -48 -111 -74t-154 -26q-83 0 -147.5 25t-109.5 70t-68.5 108.5t-23.5 141.5q0 77 23.5 140.5t68.5 108.5t109.5 69.5t147.5 24.5q80 0 141 -22.5t102.5 -64t63 -99.5
t21.5 -128q0 -90 -40 -141t-115 -51q-39 0 -66 16t-35 52zM476 356q0 33 -7.5 56.5t-20.5 38.5t-31 22t-38 7q-95 0 -95 -125q0 -64 23 -94t71 -30q42 0 70 29.5t28 95.5z" />
    <glyph glyph-name="copyright" unicode="&#xa9;" horiz-adv-x="808" 
d="M60 350q0 77 23 140t67.5 107.5t108.5 69t146 24.5q81 0 145 -24.5t108.5 -69t67.5 -107.5t23 -140t-23 -140t-67.5 -108t-108.5 -69.5t-145 -24.5q-82 0 -146 24.5t-108.5 69.5t-67.5 108t-23 140zM104 350q0 -75 22 -131.5t61.5 -94.5t95 -57t122.5 -19t122.5 19t95 57
t61.5 94.5t22 131.5t-22 131.5t-61.5 94.5t-95 57t-122.5 19t-122.5 -19t-95 -57t-61.5 -94.5t-22 -131.5zM409 176q-84 0 -127 43t-43 134t43 135t127 44q55 0 90 -20t55 -57l-48 -31q-14 26 -38 41t-59 15q-54 0 -79.5 -30t-25.5 -97t25.5 -95t79.5 -28q38 0 60.5 12.5
t38.5 44.5l50 -26q-20 -45 -57.5 -65t-91.5 -20z" />
    <glyph glyph-name="registered" unicode="&#xae;" horiz-adv-x="448" 
d="M36 525q0 84 49.5 135.5t139.5 51.5q45 0 80 -13.5t59 -38t37 -59t13 -76.5t-13 -76.5t-37 -59t-59 -38t-80 -13.5q-90 0 -139.5 51.5t-49.5 135.5zM66 525q0 -80 44 -121t115 -41q70 0 114 41t44 121q0 79 -44 120t-114 41q-71 0 -115 -41t-44 -120zM153 621h78
q34 0 51.5 -16t17.5 -43q0 -24 -10 -38t-27 -21l36 -66h-38l-33 61h-41v-61h-34v184zM187 592v-65h39q19 0 29 7t10 26q0 32 -34 32h-44z" />
    <glyph glyph-name="trademark" unicode="&#x2122;" horiz-adv-x="661" 
d="M300 700h60l104 -236l106 236h59v-294h-53v198l-89 -198h-46l-89 194l2 -194h-54v294zM262 700v-47h-98v-247h-54v247h-98v47h250z" />
    <glyph glyph-name="Euro" unicode="&#x20ac;" horiz-adv-x="657" 
d="M378 -12q-127 0 -201 59t-94 194h-90v68h84q-1 10 -1 20.5v21.5v14h-83v68h87q15 149 89.5 214t208.5 65q91 0 151.5 -31.5t95.5 -106.5l-70 -48q-29 64 -71 89.5t-106 25.5q-44 0 -80 -10t-62.5 -34t-43.5 -64t-23 -100h315l-17 -68h-302v-13v-22t1 -21h287l-17 -68
h-263q9 -51 26.5 -85.5t43 -55.5t59.5 -30t76 -9q63 0 108.5 24t77.5 84l67 -44q-42 -74 -103.5 -105.5t-149.5 -31.5z" />
    <glyph glyph-name="dollar" unicode="$" horiz-adv-x="563" 
d="M252 20q-69 5 -123 34t-92 92l63 42q33 -46 67.5 -68.5t84.5 -27.5v231q-103 26 -146 74t-43 114q0 72 46 117t143 52v86h71v-87q67 -5 111 -32t73 -76l-66 -43q-21 36 -48.5 55.5t-69.5 24.5v-223q105 -26 151.5 -66.5t46.5 -114.5q0 -86 -52 -131t-146 -53v-82h-71v82z
M438 199q0 43 -25.5 67t-89.5 41v-216q60 7 87.5 34t27.5 74zM143 515q0 -41 24 -69t85 -44v207q-109 -9 -109 -94z" />
    <glyph glyph-name="cent" unicode="&#xa2;" horiz-adv-x="524" 
d="M245 15q-92 10 -141.5 67.5t-49.5 174.5q0 115 49 173t142 68v80h71v-79q60 -5 98.5 -31.5t62.5 -71.5l-62 -40q-31 61 -99 72v-345q38 5 62.5 23.5t44.5 56.5l65 -34q-25 -55 -68.5 -82.5t-103.5 -32.5v-76h-71v77zM140 256q0 -83 25.5 -122.5t79.5 -48.5v343
q-55 -9 -80 -48.5t-25 -123.5z" />
    <glyph glyph-name="sterling" unicode="&#xa3;" horiz-adv-x="544" 
d="M22 69h38q36 0 44.5 29.5t6.5 83.5l-4 120h-85v68h83l-3 117q-3 114 53 169.5t161 55.5q71 0 117.5 -30t75.5 -87l-66 -43q-20 44 -51 67.5t-78 23.5q-66 0 -97 -38t-29 -119l4 -116h188v-68h-185l3 -124q1 -37 -4 -65t-19 -44h177q46 0 77 14t57 47l48 -48
q-33 -45 -75 -63.5t-105 -18.5h-332v69z" />
    <glyph glyph-name="florin" unicode="&#x192;" horiz-adv-x="355" 
d="M107 306h-87l10 66h87l13 76q14 92 60 132t118 40q20 0 42 -3.5t38 -10.5l-25 -72q-13 5 -25.5 8t-30.5 3q-35 0 -59 -21t-34 -81l-12 -71h138l-10 -66h-138l-51 -335q-14 -89 -58.5 -130.5t-116.5 -41.5q-20 0 -40 3t-37 10l25 72q13 -5 24.5 -8t29.5 -3q33 0 55.5 21.5
t32.5 82.5z" />
    <glyph glyph-name="yen" unicode="&#xa5;" horiz-adv-x="585" 
d="M535 219h-197v-219h-89v219h-197v68h193l-34 56h-159v68h119l-173 289h96l201 -346l200 346h93l-172 -289h119v-68h-160l-33 -56h193v-68z" />
    <glyph glyph-name="numbersign" unicode="#" horiz-adv-x="699" 
d="M106 507h112l61 193h88l-61 -193h190l62 193h88l-62 -193h109l-19 -66h-111l-51 -163h119l-20 -66h-121l-66 -212h-88l66 212h-189l-66 -212h-89l67 212h-101l20 66h102l51 163h-111zM234 278h190l51 163h-189z" />
    <glyph glyph-name="zero" unicode="0" horiz-adv-x="702" 
d="M350 712q72 0 125 -20.5t87 -64t50.5 -112.5t16.5 -165q0 -189 -67.5 -275.5t-211.5 -86.5q-72 0 -124 20.5t-86 64.5t-50.5 112.5t-16.5 164.5t16.5 165t50.5 112.5t86 64t124 20.5zM350 641q-46 0 -81 -14.5t-59 -48t-36.5 -89.5t-12.5 -140t12.5 -140t36.5 -89.5
t59 -47.5t81 -14t82 14t60 47.5t36.5 90t12.5 141.5q0 81 -12.5 136.5t-36.5 89.5t-60 49t-82 15z" />
    <glyph glyph-name="one" unicode="1" horiz-adv-x="312" 
d="M131 0v589l-95 -64l-38 69l163 106h57v-700h-87z" />
    <glyph glyph-name="two" unicode="2" horiz-adv-x="571" 
d="M39 83l232 214q40 36 68.5 66t46.5 56.5t26.5 51.5t8.5 52q0 60 -36.5 89.5t-103.5 29.5q-69 0 -111.5 -29.5t-71.5 -92.5l-64 46q38 76 98.5 111t155.5 35q109 0 164.5 -48.5t55.5 -136.5q0 -33 -9.5 -64.5t-31.5 -65.5t-56.5 -72t-83.5 -85l-178 -167l393 1v-74h-503
v83z" />
    <glyph glyph-name="three" unicode="3" horiz-adv-x="590" 
d="M277 -12q-90 0 -150 29t-96 90l62 49q56 -98 181 -98q82 0 126 35.5t44 108.5q0 60 -33.5 93t-104.5 33h-99v76h96q55 0 88.5 31.5t33.5 88.5q0 62 -39 90t-110 28q-60 0 -99.5 -24t-71.5 -81l-62 47q37 66 94.5 97t146.5 31q52 0 94 -11t72 -34t46 -57.5t16 -82.5
q0 -49 -24 -91t-72 -67q57 -17 86.5 -58.5t29.5 -102.5q0 -47 -15 -87.5t-46 -70t-79.5 -46t-114.5 -16.5z" />
    <glyph glyph-name="four" unicode="4" horiz-adv-x="614" 
d="M24 243l234 457h91l-230 -441h293v319h87v-319h106v-76h-106v-183h-87v183h-388v60z" />
    <glyph glyph-name="five" unicode="5" horiz-adv-x="567" 
d="M144 405q32 20 74 30t85 10q47 0 89.5 -12t75 -38t52 -67.5t19.5 -99.5q0 -53 -17 -97t-50.5 -76t-83 -49.5t-114.5 -17.5q-81 0 -143 29t-97 91l63 50q59 -101 178 -101q85 0 131 45.5t46 123.5q0 76 -44 113t-123 37q-56 0 -98.5 -16.5t-77.5 -44.5l-49 26l35 359h407
v-76h-337z" />
    <glyph glyph-name="six" unicode="6" horiz-adv-x="652" 
d="M353 -12q-62 0 -113.5 20.5t-88.5 64t-57 112t-20 163.5q0 96 19 165t55.5 113t89 65t119.5 21q82 0 138.5 -27.5t87.5 -86.5l-65 -47q-27 48 -68 69.5t-97 21.5q-41 0 -76.5 -14t-61.5 -48.5t-40.5 -93t-14.5 -146.5v-26q21 59 76 92t126 33q112 0 173.5 -56.5
t61.5 -161.5q0 -52 -15.5 -95t-46 -73.5t-76.5 -47.5t-106 -17zM184 209q0 -68 43.5 -110t121.5 -42q35 0 64.5 9.5t51 28.5t33.5 48.5t12 69.5q0 75 -40 115.5t-123 40.5q-37 0 -67 -11.5t-51.5 -32.5t-33 -50.5t-11.5 -65.5z" />
    <glyph glyph-name="seven" unicode="7" horiz-adv-x="473" 
d="M151 0q0 83 15.5 170t45 169.5t72 155.5t97.5 129h-358v76h469v-77q-59 -35 -106 -100.5t-80 -149.5t-50.5 -180.5t-17.5 -192.5h-87v0z" />
    <glyph glyph-name="eight" unicode="8" horiz-adv-x="627" 
d="M313 -12q-121 0 -187 54.5t-66 149.5q0 73 38.5 115.5t96.5 56.5q-51 17 -81 57.5t-30 102.5q0 94 58.5 141t170.5 47t171 -47t59 -140q0 -62 -29.5 -103t-80.5 -58q57 -14 95.5 -56.5t38.5 -115.5q0 -95 -66.5 -149.5t-187.5 -54.5zM481 195q0 65 -45 99t-122 34
q-78 0 -123 -34t-45 -99q0 -68 43.5 -102.5t123.5 -34.5t124 34.5t44 102.5zM459 524q0 60 -37.5 90.5t-108.5 30.5t-108 -30.5t-37 -90.5q0 -57 36.5 -90t108.5 -33q74 0 110 33.5t36 89.5z" />
    <glyph glyph-name="nine" unicode="9" horiz-adv-x="651" 
d="M298 -12q-82 0 -138.5 27.5t-87.5 86.5l65 47q27 -48 68 -69.5t97 -21.5q41 0 76.5 14t61.5 48.5t40.5 93t14.5 146.5v26q-21 -61 -76 -95.5t-126 -34.5q-112 0 -173.5 58t-61.5 165q0 52 15.5 95t46 73.5t76.5 47.5t106 17q62 0 113.5 -20.5t88 -64t57 -112t20.5 -163.5
q0 -96 -19 -165t-55.5 -113t-89 -65t-119.5 -21zM471 491q0 68 -43.5 110t-121.5 42q-71 0 -116 -39.5t-45 -121.5q0 -75 40 -115.5t123 -40.5q74 0 118.5 45.5t44.5 119.5z" />
    <glyph glyph-name="uni2070" unicode="&#x2070;" horiz-adv-x="407" 
d="M203 712q89 0 129.5 -51t40.5 -163q0 -111 -41 -162.5t-129 -51.5q-90 0 -131 51t-41 163t41 163t131 51zM203 651q-24 0 -43 -7.5t-31.5 -25.5t-19 -47.5t-6.5 -73.5q0 -87 25.5 -119.5t73.5 -32.5q24 0 42.5 7.5t31 25t19 47t6.5 73.5q0 87 -25.5 120t-72.5 33z" />
    <glyph glyph-name="onesuperior" unicode="&#xb9;" horiz-adv-x="200" 
d="M78 294v320l-51 -32l-28 57l105 64h46v-409h-72z" />
    <glyph glyph-name="twosuperior" unicode="&#xb2;" horiz-adv-x="345" 
d="M21 355l133 119q42 38 61 63t19 53q0 32 -19 46t-53 14q-38 0 -59.5 -15t-38.5 -48l-50 37q24 48 61.5 68t93.5 20q63 0 100.5 -28.5t37.5 -86.5q0 -20 -6 -38.5t-18 -37.5t-31.5 -40t-46.5 -45l-85 -78l203 3v-67h-302v61z" />
    <glyph glyph-name="threesuperior" unicode="&#xb3;" horiz-adv-x="347" 
d="M165 284q-108 0 -152 74l51 39q32 -53 96 -53q42 0 64.5 16.5t22.5 51.5q0 29 -18 45.5t-56 16.5h-53v60h52q30 0 46.5 15t16.5 43q0 59 -74 59q-32 0 -53 -12t-38 -43l-49 35q22 43 57.5 62t89.5 19q65 0 102.5 -28.5t37.5 -85.5q0 -61 -56 -92q31 -11 48.5 -34
t17.5 -59q0 -57 -37.5 -93t-115.5 -36z" />
    <glyph glyph-name="uni2074" unicode="&#x2074;" horiz-adv-x="370" 
d="M13 442l130 260h72l-126 -247h150v167h67v-167h57v-64h-57v-97h-67v97h-226v51z" />
    <glyph glyph-name="fraction" unicode="&#x2044;" horiz-adv-x="481" 
d="M112 0h-81l339 700h80z" />
    <glyph glyph-name="onehalf" unicode="&#xbd;" horiz-adv-x="802" 
d="M478 61l133 119q42 38 61 63t19 53q0 32 -19 46t-53 14q-38 0 -59.5 -15t-38.5 -48l-50 37q24 48 61.5 68t93.5 20q63 0 100.5 -28.5t37.5 -86.5q0 -20 -6 -38.5t-18 -37.5t-31.5 -40t-46.5 -45l-85 -78l203 3v-67h-302v61zM206 0h-81l339 700h80zM78 294v320l-51 -32
l-28 57l105 64h46v-409h-72z" />
    <glyph glyph-name="onequarter" unicode="&#xbc;" horiz-adv-x="827" 
d="M470 148l130 260h72l-126 -247h150v167h67v-167h57v-64h-57v-97h-67v97h-226v51zM206 0h-81l339 700h80zM78 294v320l-51 -32l-28 57l105 64h46v-409h-72z" />
    <glyph glyph-name="threequarters" unicode="&#xbe;" horiz-adv-x="927" 
d="M570 148l130 260h72l-126 -247h150v167h67v-167h57v-64h-57v-97h-67v97h-226v51zM331 0h-81l339 700h80zM165 284q-108 0 -152 74l51 39q32 -53 96 -53q42 0 64.5 16.5t22.5 51.5q0 29 -18 45.5t-56 16.5h-53v60h52q30 0 46.5 15t16.5 43q0 59 -74 59q-32 0 -53 -12
t-38 -43l-49 35q22 43 57.5 62t89.5 19q65 0 102.5 -28.5t37.5 -85.5q0 -61 -56 -92q31 -11 48.5 -34t17.5 -59q0 -57 -37.5 -93t-115.5 -36z" />
    <glyph glyph-name="percent" unicode="%" horiz-adv-x="1019" 
d="M376 0h-81l339 700h80zM815 418q89 0 129.5 -51t40.5 -163q0 -111 -41 -162.5t-129 -51.5q-90 0 -131 51t-41 163t41 163t131 51zM815 357q-24 0 -43 -7.5t-31.5 -25.5t-19 -47.5t-6.5 -73.5q0 -87 25.5 -119.5t73.5 -32.5q24 0 42.5 7.5t31 25t19 47t6.5 73.5
q0 87 -25.5 120t-72.5 33zM203 712q89 0 129.5 -51t40.5 -163q0 -111 -41 -162.5t-129 -51.5q-90 0 -131 51t-41 163t41 163t131 51zM203 651q-24 0 -43 -7.5t-31.5 -25.5t-19 -47.5t-6.5 -73.5q0 -87 25.5 -119.5t73.5 -32.5q24 0 42.5 7.5t31 25t19 47t6.5 73.5
q0 87 -25.5 120t-72.5 33z" />
    <glyph glyph-name="plus" unicode="+" horiz-adv-x="481" 
d="M204 110v164h-166v71h166v165h75v-165h165v-71h-165v-164h-75z" />
    <glyph glyph-name="minus" unicode="&#x2212;" horiz-adv-x="481" 
d="M444 274h-406v71h406v-71z" />
    <glyph glyph-name="multiply" unicode="&#xd7;" horiz-adv-x="468" 
d="M59 189l125 124l-126 127l52 52l126 -127l126 126l48 -48l-126 -126l127 -126l-52 -52l-127 126l-124 -125z" />
    <glyph glyph-name="divide" unicode="&#xf7;" horiz-adv-x="481" 
d="M444 274h-406v71h406v-71zM181 147q0 29 15.5 43t43.5 14t44 -14t16 -43q0 -28 -16 -42.5t-44 -14.5t-43.5 14.5t-15.5 42.5zM181 475q0 28 15.5 42.5t43.5 14.5t44 -14.5t16 -42.5q0 -27 -16 -42t-44 -15t-43.5 15t-15.5 42z" />
    <glyph glyph-name="equal" unicode="=" horiz-adv-x="481" 
d="M444 202h-406v71h406v-71zM444 346h-406v71h406v-71z" />
    <glyph glyph-name="less" unicode="&#x3c;" horiz-adv-x="465" 
d="M391 468l-219 -158l220 -157l-44 -60l-277 196v39l278 196z" />
    <glyph glyph-name="greater" unicode="&#x3e;" horiz-adv-x="465" 
d="M75 149l220 158l-221 158l44 59l277 -196v-38l-278 -197z" />
    <glyph glyph-name="degree" unicode="&#xb0;" horiz-adv-x="442" 
d="M40 531q0 82 47.5 131.5t135.5 49.5q86 0 134 -49.5t48 -131.5q0 -41 -12.5 -74t-36 -57t-57 -37t-76.5 -13q-88 0 -135.5 50t-47.5 131zM107 531q0 -61 31.5 -92t84.5 -31q51 0 82.5 31t31.5 92t-31.5 92t-82.5 31q-53 0 -84.5 -31t-31.5 -92z" />
    </font>
</defs>
</svg>
