<?xml version="1.0" standalone="no"?>
<!DOCTYPE svg PUBLIC "-//W3C//DTD SVG 1.1//EN" "http://www.w3.org/Graphics/SVG/1.1/DTD/svg11.dtd" >
<svg>
<metadata>
Created by FontForge 20120731 at Fri Nov 22 15:21:56 2013

Copyright (c) 2012 Jeremy Mickel, MCKL, Inc. All rights reserved.
</metadata>
<defs>
<font id="WWText-BookItalic" horiz-adv-x="591" >
  <font-face 
    font-family="WWText Book"
    font-weight="400"
    font-style="italic"
    font-stretch="normal"
    units-per-em="1000"
    panose-1="0 0 0 0 0 0 0 0 0 0"
    ascent="750"
    descent="-250"
    x-height="487"
    cap-height="700"
    bbox="-139 -284 1088 949"
    underline-thickness="50"
    underline-position="-50"
    unicode-range="U+0020-FB02"
  />
<missing-glyph horiz-adv-x="889" 
d="M98 700h694v-700h-694v700zM724 74v548l-240 -274zM228 57h435l-219 249zM665 643h-439l220 -253zM166 623v-550l241 275z" />
    <glyph glyph-name="fi" unicode="fi" horiz-adv-x="567" 
d="M126 420h-88l11 67h88l10 59q14 92 59.5 132t117.5 40q20 0 42 -3t38 -11l-25 -72q-13 5 -25.5 8.5t-30.5 3.5q-35 0 -60 -21.5t-35 -81.5l-8 -54h138l-11 -67h-138l-66 -420h-83zM498 571q-26 0 -39 12.5t-13 35.5q0 32 18.5 48.5t47.5 16.5q52 0 52 -49
q0 -32 -18.5 -48t-47.5 -16zM525 487l-76 -487h-85l76 487h85z" />
    <glyph glyph-name="fl" unicode="fl" horiz-adv-x="564" 
d="M126 420h-88l11 67h88l10 59q14 92 59.5 132t117.5 40q20 0 42 -3t38 -11l-25 -72q-13 5 -25.5 8.5t-30.5 3.5q-35 0 -60 -21.5t-35 -81.5l-8 -54h138l-11 -67h-138l-66 -420h-83zM446 0h-84l111 700h84z" />
    <glyph glyph-name="triagup" unicode="&#x2d;^" horiz-adv-x="801" 
d="M-20 0l380 659l380 -659h-760z" />
    <glyph glyph-name="triagdn" unicode="^&#x2d;" horiz-adv-x="801" 
d="M830 700l-380 -659l-380 659h760z" />
    <glyph glyph-name="triaglf" unicode="&#x3c;&#x2d;" horiz-adv-x="801" 
d="M692 -30l-658 380l658 380v-760z" />
    <glyph glyph-name="triagrt" unicode="&#x2d;&#x3e;" horiz-adv-x="801" 
d="M114 730l658 -380l-658 -380v760z" />
    <glyph glyph-name=".notdef" horiz-adv-x="889" 
d="M98 700h694v-700h-694v700zM724 74v548l-240 -274zM228 57h435l-219 249zM665 643h-439l220 -253zM166 623v-550l241 275z" />
    <glyph glyph-name="space" unicode=" " horiz-adv-x="205" 
 />
    <glyph glyph-name="A" unicode="A" horiz-adv-x="606" 
d="M447 143h-315l-70 -143h-90l350 700h110l129 -700h-90zM169 218h264l-70 401z" />
    <glyph glyph-name="B" unicode="B" horiz-adv-x="652" 
d="M165 700h286q96 0 136.5 -39.5t40.5 -103.5q0 -74 -34.5 -124.5t-91.5 -71.5q50 -11 72 -47t22 -81q0 -57 -18.5 -101t-53 -73t-83.5 -44t-110 -15h-277zM190 319l-39 -245h197q74 0 117.5 38t43.5 116q0 45 -27.5 68t-89.5 23h-202zM238 626l-36 -230h200q36 0 62 12
t43 32t25 45.5t8 53.5q0 45 -26 66t-74 21h-202z" />
    <glyph glyph-name="C" unicode="C" horiz-adv-x="657" 
d="M341 -12q-68 0 -119 14t-85.5 45t-51.5 80t-17 119q0 27 1.5 50.5t6.5 54.5q14 99 44 167.5t75 111.5t104 62.5t130 19.5q101 0 157.5 -37t83.5 -110l-76 -41q-22 65 -61.5 91t-109.5 26q-48 0 -89.5 -13t-74.5 -45.5t-57.5 -88.5t-38.5 -142q-9 -57 -9 -106
q0 -53 12.5 -89t37 -57.5t60 -30.5t81.5 -9q64 0 116.5 21.5t94.5 84.5l56 -51q-26 -38 -56 -62.5t-64.5 -39t-72.5 -20t-78 -5.5z" />
    <glyph glyph-name="D" unicode="D" horiz-adv-x="712" 
d="M321 76q46 0 87.5 13t75 44.5t58 84t37.5 132.5q3 21 5.5 47.5t2.5 46.5q0 99 -45 139.5t-126 40.5h-176l-88 -548h169zM54 0l111 700h257q128 0 190.5 -57.5t62.5 -184.5q0 -20 -2 -49t-6 -55q-14 -93 -44 -159.5t-75 -110t-103.5 -64t-130.5 -20.5h-260z" />
    <glyph glyph-name="E" unicode="E" horiz-adv-x="632" 
d="M165 700h496l-12 -76h-411l-37 -233h360l-12 -78h-360l-38 -237h421l-12 -76h-506z" />
    <glyph glyph-name="F" unicode="F" horiz-adv-x="578" 
d="M165 700h478l-12 -76h-391l-37 -236h351l-13 -78h-351l-49 -310h-87z" />
    <glyph glyph-name="G" unicode="G" horiz-adv-x="703" 
d="M318 -12q-124 0 -187 64t-63 200q0 23 2 47.5t6 51.5q13 97 42 165.5t73 112t104 63.5t137 20q99 0 154 -34t81 -103l-76 -41q-20 59 -59 83t-107 24q-51 0 -93.5 -13.5t-75.5 -46.5t-56.5 -89t-36.5 -141q-9 -59 -9 -103q0 -54 12 -90t35 -58t56.5 -31.5t76.5 -9.5
q33 0 68.5 9t67 31.5t55 61t34.5 97.5l4 25h-188l11 70h268l-56 -353h-73l10 99q-36 -54 -92.5 -82.5t-124.5 -28.5z" />
    <glyph glyph-name="H" unicode="H" horiz-adv-x="754" 
d="M580 313h-389l-50 -313h-87l111 700h87l-49 -309h389l49 309h87l-111 -700h-87z" />
    <glyph glyph-name="I" unicode="I" horiz-adv-x="278" 
d="M165 700h87l-111 -700h-87z" />
    <glyph glyph-name="J" unicode="J" horiz-adv-x="477" 
d="M18 104q23 -21 53.5 -32t63.5 -11t61 11t50.5 35t38.5 61.5t24 91.5l70 440h87l-70 -440q-13 -80 -38 -132t-60.5 -83.5t-80 -44t-96.5 -12.5q-42 0 -82 11.5t-71 36.5z" />
    <glyph glyph-name="K" unicode="K" horiz-adv-x="604" 
d="M165 700h87l-61 -384l372 384h105l-310 -317l211 -383h-103l-173 320l-120 -121l-32 -199h-87z" />
    <glyph glyph-name="L" unicode="L" 
d="M551 76l-12 -76h-486l111 700h87l-99 -624h399z" />
    <glyph glyph-name="M" unicode="M" horiz-adv-x="906" 
d="M223 547l-84 -547h-84l111 700h93l168 -599l360 599h94l-111 -700h-85l91 547l-329 -547h-69z" />
    <glyph glyph-name="N" unicode="N" horiz-adv-x="742" 
d="M225 574l-87 -574h-84l111 700h88l291 -574l88 574h84l-111 -700h-90z" />
    <glyph glyph-name="O" unicode="O" horiz-adv-x="741" 
d="M435 712q137 0 201.5 -59.5t64.5 -193.5q0 -24 -1.5 -51t-6.5 -57q-27 -192 -116.5 -277.5t-243.5 -85.5q-134 0 -199.5 61t-65.5 196q0 24 2 50.5t6 55.5q13 96 42 164.5t73.5 112t105.5 64t138 20.5zM429 640q-54 0 -97.5 -13.5t-76.5 -46.5t-56 -89t-36 -141
q-9 -60 -9 -105q0 -52 12 -87.5t35.5 -57t58 -31t78.5 -9.5q54 0 97.5 14t77 47.5t56.5 89.5t37 141q5 29 6.5 54t1.5 48q0 52 -12 88t-35.5 57.5t-58 31t-79.5 9.5z" />
    <glyph glyph-name="P" unicode="P" horiz-adv-x="634" 
d="M165 700h270q106 0 157 -44.5t51 -129.5q0 -68 -19.5 -120.5t-56 -88t-88.5 -54t-116 -18.5h-183l-39 -245h-87zM240 624l-48 -303h193q36 0 67 12t54.5 36t36.5 60t13 84q0 54 -29.5 82.5t-92.5 28.5h-194z" />
    <glyph glyph-name="Q" unicode="Q" horiz-adv-x="741" 
d="M435 712q137 0 201.5 -59.5t64.5 -193.5q0 -24 -1.5 -51t-6.5 -57q-18 -130 -64.5 -209.5t-121.5 -117.5l66 -116h-96l-50 89q-44 -9 -94 -9q-134 0 -199.5 61t-65.5 196q0 24 2 50.5t6 55.5q13 96 42 164.5t73.5 112t105.5 64t138 20.5zM429 640q-54 0 -97.5 -13.5
t-76.5 -46.5t-56 -89t-36 -141q-9 -60 -9 -105q0 -52 12 -87.5t35.5 -57t58 -31t78.5 -9.5q27 0 51 3l-72 129h96l57 -103q51 29 85 91t51 172q5 29 6.5 54t1.5 48q0 52 -12 88t-35.5 57.5t-58 31t-79.5 9.5z" />
    <glyph glyph-name="R" unicode="R" horiz-adv-x="638" 
d="M183 265l-42 -265h-87l111 700h270q104 0 154.5 -43t50.5 -124q0 -101 -47 -165t-126 -89l104 -279h-97l-97 265h-194zM240 624l-45 -282h192q33 0 63 10.5t52.5 32.5t36 55.5t13.5 78.5q0 51 -29 78t-91 27h-192z" />
    <glyph glyph-name="S" unicode="S" 
d="M503 546q-10 25 -23 43t-31.5 30t-44 18t-59.5 6q-45 0 -77 -10t-52.5 -27t-29.5 -40t-9 -49q0 -18 5 -34.5t17.5 -31t34 -26.5t54.5 -21l61 -16q54 -14 89.5 -32t57.5 -40.5t31 -50t9 -61.5q0 -51 -19.5 -91.5t-55 -68t-86 -42t-113.5 -14.5q-88 0 -153 31t-97 105
l73 44q15 -31 31.5 -52t37.5 -34t47.5 -19t60.5 -6q95 0 141.5 38t46.5 101q0 46 -29 71.5t-97 43.5l-56 15q-92 24 -133.5 72t-41.5 114q0 43 16.5 80t49 63.5t81.5 41.5t114 15q91 0 144 -30t80 -93z" />
    <glyph glyph-name="T" unicode="T" horiz-adv-x="534" 
d="M600 700l-12 -76h-225l-99 -624h-87l99 624h-225l12 76h537z" />
    <glyph glyph-name="U" unicode="U" horiz-adv-x="713" 
d="M616 700h87l-67 -425q-23 -143 -104.5 -215t-211.5 -72q-119 0 -182 56t-63 165q0 31 6 66l67 425h87l-68 -425q-3 -17 -3.5 -30.5t-0.5 -28.5q0 -75 39 -115t122 -40q89 0 147.5 49.5t77.5 163.5z" />
    <glyph glyph-name="V" unicode="V" horiz-adv-x="590" 
d="M156 700l106 -619l303 619h91l-351 -700h-110l-129 700h90z" />
    <glyph glyph-name="W" unicode="W" horiz-adv-x="873" 
d="M544 698l65 -562l244 564h89l-312 -700h-82l-66 567l-245 -567h-88l-86 700h90l62 -572l247 570h82z" />
    <glyph glyph-name="X" unicode="X" horiz-adv-x="600" 
d="M304 295l-245 -295h-101l306 362l-178 338h94l144 -278l228 278h98l-287 -343l191 -357h-95z" />
    <glyph glyph-name="Y" unicode="Y" horiz-adv-x="571" 
d="M59 700h91l142 -344l250 344h96l-314 -420l-44 -280h-87l44 280z" />
    <glyph glyph-name="Z" unicode="Z" horiz-adv-x="534" 
d="M-23 67l502 558l-389 -1l12 76h495l-11 -67l-505 -559l421 2l-13 -76h-523z" />
    <glyph glyph-name="Aacute" unicode="&#xc1;" horiz-adv-x="606" 
d="M447 143h-315l-70 -143h-90l350 700h110l129 -700h-90zM169 218h264l-70 401zM426 787h-76v4l95 113h109l-1 -6z" />
    <glyph glyph-name="acute" unicode="&#xb4;" horiz-adv-x="575" 
d="M308 574h-76v4l95 113h109l-1 -6z" />
    <glyph glyph-name="Abreve" unicode="&#x102;" horiz-adv-x="606" 
d="M447 143h-315l-70 -143h-90l350 700h110l129 -700h-90zM169 218h264l-70 401zM546 904q-5 -35 -18 -59t-33 -38t-46.5 -20t-59.5 -6t-58 6t-41.5 20t-22.5 38t-1 59h66q-7 -39 9 -53t53 -14q38 0 59 14t27 53h66z" />
    <glyph glyph-name="breve" unicode="&#x2d8;" horiz-adv-x="575" 
d="M439 691q-5 -35 -18 -59t-33 -38t-46.5 -20t-59.5 -6t-58 6t-41.5 20t-22.5 38t-1 59h66q-7 -39 9 -53t53 -14q38 0 59 14t27 53h66z" />
    <glyph glyph-name="Acircumflex" unicode="&#xc2;" horiz-adv-x="606" 
d="M447 143h-315l-70 -143h-90l350 700h110l129 -700h-90zM169 218h264l-70 401zM320 787h-94v3l137 114h82l101 -114v-3h-91l-55 69z" />
    <glyph glyph-name="circumflex" unicode="&#x2c6;" horiz-adv-x="575" 
d="M213 574h-94v3l137 114h82l101 -114v-3h-91l-55 69z" />
    <glyph glyph-name="Adieresis" unicode="&#xc4;" horiz-adv-x="606" 
d="M447 143h-315l-70 -143h-90l350 700h110l129 -700h-90zM169 218h264l-70 401zM544 848q0 -32 -18.5 -48t-47.5 -16q-26 0 -39 12.5t-13 35.5q0 32 18.5 48.5t47.5 16.5q52 0 52 -49zM371 848q0 -32 -18.5 -48t-47.5 -16q-26 0 -39 12.5t-13 35.5q0 32 18.5 48.5
t47.5 16.5q52 0 52 -49z" />
    <glyph glyph-name="dieresis" unicode="&#xa8;" horiz-adv-x="575" 
d="M440 635q0 -32 -18.5 -48t-47.5 -16q-26 0 -39 12.5t-13 35.5q0 32 18.5 48.5t47.5 16.5q52 0 52 -49zM267 635q0 -32 -18.5 -48t-47.5 -16q-26 0 -39 12.5t-13 35.5q0 32 18.5 48.5t47.5 16.5q52 0 52 -49z" />
    <glyph glyph-name="AE" unicode="&#xc6;" horiz-adv-x="899" 
d="M440 143h-309l-71 -143h-92l356 700h605l-12 -76h-463l36 -233h338l-12 -78h-313l37 -237h300l-12 -76h-366zM169 218h260l-60 404z" />
    <glyph glyph-name="Agrave" unicode="&#xc0;" horiz-adv-x="606" 
d="M447 143h-315l-70 -143h-90l350 700h110l129 -700h-90zM169 218h264l-70 401zM263 898l1 6h107l57 -113v-4h-67z" />
    <glyph glyph-name="grave" unicode="`" horiz-adv-x="575" 
d="M170 685l1 6h107l57 -113v-4h-67z" />
    <glyph glyph-name="Amacron" unicode="&#x100;" horiz-adv-x="606" 
d="M447 143h-315l-70 -143h-90l350 700h110l129 -700h-90zM169 218h264l-70 401zM519 814h-249l9 59h250z" />
    <glyph glyph-name="macron" unicode="&#xaf;" horiz-adv-x="575" 
d="M413 601h-249l9 59h250z" />
    <glyph glyph-name="Aogonek" unicode="&#x104;" horiz-adv-x="606" 
d="M169 218h264l-70 401zM575 -189q-20 -11 -40.5 -17t-45.5 -6q-20 0 -38.5 4t-32.5 14.5t-22.5 28.5t-8.5 45q0 48 24 81.5t58 52.5l-22 129h-315l-70 -143h-90l350 700h110l129 -700h-10q-23 -2 -41.5 -12.5t-31.5 -26t-19.5 -33.5t-6.5 -36q0 -24 12.5 -33.5t35.5 -9.5
q36 0 65 18z" />
    <glyph glyph-name="Aring" unicode="&#xc5;" horiz-adv-x="606" 
d="M447 143h-315l-70 -143h-90l350 700h110l129 -700h-90zM169 218h264l-70 401zM387 760q-37 0 -60 21t-23 59q0 47 30.5 77.5t76.5 30.5q37 0 60 -21.5t23 -57.5q0 -48 -31 -78.5t-76 -30.5zM408 907q-24 0 -40.5 -17.5t-16.5 -46.5q0 -19 11 -30.5t28 -11.5
q22 0 39.5 17.5t17.5 46.5q0 19 -11 30.5t-28 11.5z" />
    <glyph glyph-name="ring" unicode="&#x2da;" horiz-adv-x="575" 
d="M280 547q-37 0 -60 21t-23 59q0 47 30.5 77.5t76.5 30.5q37 0 60 -21.5t23 -57.5q0 -48 -31 -78.5t-76 -30.5zM301 694q-24 0 -40.5 -17.5t-16.5 -46.5q0 -19 11 -30.5t28 -11.5q22 0 39.5 17.5t17.5 46.5q0 19 -11 30.5t-28 11.5z" />
    <glyph glyph-name="Atilde" unicode="&#xc3;" horiz-adv-x="606" 
d="M447 143h-315l-70 -143h-90l350 700h110l129 -700h-90zM169 218h264l-70 401zM558 897q-2 -29 -12 -48.5t-25 -31t-32.5 -16.5t-33.5 -5q-20 0 -36.5 6.5t-30.5 14t-27 14t-26 6.5q-18 0 -25.5 -11.5t-9.5 -25.5h-65q3 29 13 48.5t24.5 31t31 16.5t33.5 5q21 0 37.5 -6.5
t31 -14t27 -14t25.5 -6.5q18 0 26 11t10 26h64z" />
    <glyph glyph-name="tilde" unicode="&#x2dc;" horiz-adv-x="575" 
d="M457 684q-2 -29 -12 -48.5t-25 -31t-32.5 -16.5t-33.5 -5q-20 0 -36.5 6.5t-30.5 14t-27 14t-26 6.5q-18 0 -25.5 -11.5t-9.5 -25.5h-65q3 29 13 48.5t24.5 31t31 16.5t33.5 5q21 0 37.5 -6.5t31 -14t27 -14t25.5 -6.5q18 0 26 11t10 26h64z" />
    <glyph glyph-name="Cacute" unicode="&#x106;" horiz-adv-x="657" 
d="M488 789h-76v4l95 113h109l-1 -6zM341 -12q-68 0 -119 14t-85.5 45t-51.5 80t-17 119q0 27 1.5 50.5t6.5 54.5q14 99 44 167.5t75 111.5t104 62.5t130 19.5q101 0 157.5 -37t83.5 -110l-76 -41q-22 65 -61.5 91t-109.5 26q-48 0 -89.5 -13t-74.5 -45.5t-57.5 -88.5
t-38.5 -142q-9 -57 -9 -106q0 -53 12.5 -89t37 -57.5t60 -30.5t81.5 -9q64 0 116.5 21.5t94.5 84.5l56 -51q-26 -38 -56 -62.5t-64.5 -39t-72.5 -20t-78 -5.5z" />
    <glyph glyph-name="Ccaron" unicode="&#x10c;" horiz-adv-x="657" 
d="M313 904v2h92l54 -67l80 67h94v-2l-137 -115h-81zM341 -12q-68 0 -119 14t-85.5 45t-51.5 80t-17 119q0 27 1.5 50.5t6.5 54.5q14 99 44 167.5t75 111.5t104 62.5t130 19.5q101 0 157.5 -37t83.5 -110l-76 -41q-22 65 -61.5 91t-109.5 26q-48 0 -89.5 -13t-74.5 -45.5
t-57.5 -88.5t-38.5 -142q-9 -57 -9 -106q0 -53 12.5 -89t37 -57.5t60 -30.5t81.5 -9q64 0 116.5 21.5t94.5 84.5l56 -51q-26 -38 -56 -62.5t-64.5 -39t-72.5 -20t-78 -5.5z" />
    <glyph glyph-name="caron" unicode="&#x2c7;" horiz-adv-x="575" 
d="M130 689v2h92l54 -67l80 67h94v-2l-137 -115h-81z" />
    <glyph glyph-name="Ccedilla" unicode="&#xc7;" horiz-adv-x="657" 
d="M293 -233q-38 0 -67 15t-42 47l47 38q10 -23 24.5 -35t43.5 -12q24 0 40 10.5t16 33.5q0 21 -18.5 29t-47.5 8l-14 12l31 76q-59 3 -103.5 19.5t-74.5 47.5t-45 78t-15 112q0 27 1.5 50.5t6.5 54.5q14 99 44 167.5t75 111.5t104 62.5t130 19.5q101 0 157.5 -37t83.5 -110
l-76 -41q-22 65 -61.5 91t-109.5 26q-48 0 -89.5 -13t-74.5 -45.5t-57.5 -88.5t-38.5 -142q-9 -57 -9 -106q0 -53 12.5 -89t37 -57.5t60 -30.5t81.5 -9q64 0 116.5 21.5t94.5 84.5l56 -51q-47 -70 -109.5 -96.5t-135.5 -29.5l-23 -48q31 -2 52.5 -21t21.5 -54
q0 -25 -10.5 -43.5t-27.5 -31t-39.5 -18.5t-47.5 -6z" />
    <glyph glyph-name="Ccircumflex" unicode="&#x108;" horiz-adv-x="657" 
d="M382 789h-94v3l137 114h82l101 -114v-3h-91l-55 69zM341 -12q-68 0 -119 14t-85.5 45t-51.5 80t-17 119q0 27 1.5 50.5t6.5 54.5q14 99 44 167.5t75 111.5t104 62.5t130 19.5q101 0 157.5 -37t83.5 -110l-76 -41q-22 65 -61.5 91t-109.5 26q-48 0 -89.5 -13t-74.5 -45.5
t-57.5 -88.5t-38.5 -142q-9 -57 -9 -106q0 -53 12.5 -89t37 -57.5t60 -30.5t81.5 -9q64 0 116.5 21.5t94.5 84.5l56 -51q-26 -38 -56 -62.5t-64.5 -39t-72.5 -20t-78 -5.5z" />
    <glyph glyph-name="Cdotaccent" unicode="&#x10a;" horiz-adv-x="657" 
d="M341 -12q-68 0 -119 14t-85.5 45t-51.5 80t-17 119q0 27 1.5 50.5t6.5 54.5q14 99 44 167.5t75 111.5t104 62.5t130 19.5q101 0 157.5 -37t83.5 -110l-76 -41q-22 65 -61.5 91t-109.5 26q-48 0 -89.5 -13t-74.5 -45.5t-57.5 -88.5t-38.5 -142q-9 -57 -9 -106
q0 -53 12.5 -89t37 -57.5t60 -30.5t81.5 -9q64 0 116.5 21.5t94.5 84.5l56 -51q-26 -38 -56 -62.5t-64.5 -39t-72.5 -20t-78 -5.5zM521 850q0 -32 -18.5 -48t-47.5 -16q-26 0 -39 12.5t-13 35.5q0 32 18.5 48.5t47.5 16.5q52 0 52 -49z" />
    <glyph glyph-name="dotaccent" unicode="&#x2d9;" horiz-adv-x="575" 
d="M350 635q0 -32 -18.5 -48t-47.5 -16q-26 0 -39 12.5t-13 35.5q0 32 18.5 48.5t47.5 16.5q52 0 52 -49z" />
    <glyph glyph-name="Dcaron" unicode="&#x10e;" horiz-adv-x="712" 
d="M303 903v2h92l54 -67l80 67h94v-2l-137 -115h-81zM321 76q46 0 87.5 13t75 44.5t58 84t37.5 132.5q3 21 5.5 47.5t2.5 46.5q0 99 -45 139.5t-126 40.5h-176l-88 -548h169zM54 0l111 700h257q128 0 190.5 -57.5t62.5 -184.5q0 -20 -2 -49t-6 -55q-14 -93 -44 -159.5
t-75 -110t-103.5 -64t-130.5 -20.5h-260z" />
    <glyph glyph-name="Dcroat" unicode="&#x110;" horiz-adv-x="722" 
d="M64 0l51 323h-79l12 71h78l49 306h257q128 0 190.5 -57.5t62.5 -184.5q0 -20 -2 -49t-6 -55q-14 -93 -44 -159.5t-75 -110t-103.5 -64t-130.5 -20.5h-260zM331 76q46 0 87.5 13t75 44.5t58 84t37.5 132.5q3 21 5.5 47.5t2.5 46.5q0 99 -45 139.5t-126 40.5h-176l-37 -230
h159l-12 -71h-159l-39 -247h169z" />
    <glyph glyph-name="Eacute" unicode="&#xc9;" horiz-adv-x="632" 
d="M459 788h-76v4l95 113h109l-1 -6zM165 700h496l-12 -76h-411l-37 -233h360l-12 -78h-360l-38 -237h421l-12 -76h-506z" />
    <glyph glyph-name="Ebreve" unicode="&#x114;" horiz-adv-x="632" 
d="M165 700h496l-12 -76h-411l-37 -233h360l-12 -78h-360l-38 -237h421l-12 -76h-506zM579 905q-5 -35 -18 -59t-33 -38t-46.5 -20t-59.5 -6t-58 6t-41.5 20t-22.5 38t-1 59h66q-7 -39 9 -53t53 -14q38 0 59 14t27 53h66z" />
    <glyph glyph-name="Ecaron" unicode="&#x11a;" horiz-adv-x="632" 
d="M284 903v2h92l54 -67l80 67h94v-2l-137 -115h-81zM165 700h496l-12 -76h-411l-37 -233h360l-12 -78h-360l-38 -237h421l-12 -76h-506z" />
    <glyph glyph-name="Ecircumflex" unicode="&#xca;" horiz-adv-x="632" 
d="M353 788h-94v3l137 114h82l101 -114v-3h-91l-55 69zM165 700h496l-12 -76h-411l-37 -233h360l-12 -78h-360l-38 -237h421l-12 -76h-506z" />
    <glyph glyph-name="Edieresis" unicode="&#xcb;" horiz-adv-x="632" 
d="M577 849q0 -32 -18.5 -48t-47.5 -16q-26 0 -39 12.5t-13 35.5q0 32 18.5 48.5t47.5 16.5q52 0 52 -49zM404 849q0 -32 -18.5 -48t-47.5 -16q-26 0 -39 12.5t-13 35.5q0 32 18.5 48.5t47.5 16.5q52 0 52 -49zM165 700h496l-12 -76h-411l-37 -233h360l-12 -78h-360
l-38 -237h421l-12 -76h-506z" />
    <glyph glyph-name="Edotaccent" unicode="&#x116;" horiz-adv-x="632" 
d="M165 700h496l-12 -76h-411l-37 -233h360l-12 -78h-360l-38 -237h421l-12 -76h-506zM492 849q0 -32 -18.5 -48t-47.5 -16q-26 0 -39 12.5t-13 35.5q0 32 18.5 48.5t47.5 16.5q52 0 52 -49z" />
    <glyph glyph-name="Egrave" unicode="&#xc8;" horiz-adv-x="632" 
d="M165 700h496l-12 -76h-411l-37 -233h360l-12 -78h-360l-38 -237h421l-12 -76h-506zM297 899l1 6h107l57 -113v-4h-67z" />
    <glyph glyph-name="Emacron" unicode="&#x112;" horiz-adv-x="632" 
d="M165 700h496l-12 -76h-411l-37 -233h360l-12 -78h-360l-38 -237h421l-12 -76h-506zM552 815h-249l9 59h250z" />
    <glyph glyph-name="Eng" unicode="&#x14a;" horiz-adv-x="742" 
d="M519 -4l-292 574l-87 -570h-86l111 700h88l291 -573l88 573h86l-116 -728q-14 -92 -61.5 -132.5t-115.5 -40.5q-20 0 -36 2.5t-38 10.5l26 72q12 -5 24 -8t30 -3q16 0 30 5t25 17t18.5 33t12.5 54z" />
    <glyph glyph-name="Eogonek" unicode="&#x118;" horiz-adv-x="632" 
d="M165 700h497l-12 -75h-409l-36 -234h357l-12 -78h-358l-37 -238h418l-12 -75q-23 -2 -41.5 -12.5t-31.5 -26t-19.5 -33.5t-6.5 -36q0 -24 12 -33.5t36 -9.5q36 0 65 18l9 -56q-20 -11 -40.5 -17t-44.5 -6q-20 0 -38.5 4t-32.5 14.5t-22.5 28.5t-8.5 45q0 40 17 70t43 50
h-403z" />
    <glyph glyph-name="Eth" unicode="&#xd0;" horiz-adv-x="722" 
d="M64 0l51 323h-79l12 71h78l49 306h257q128 0 190.5 -57.5t62.5 -184.5q0 -20 -2 -49t-6 -55q-14 -93 -44 -159.5t-75 -110t-103.5 -64t-130.5 -20.5h-260zM331 76q46 0 87.5 13t75 44.5t58 84t37.5 132.5q3 21 5.5 47.5t2.5 46.5q0 99 -45 139.5t-126 40.5h-176l-37 -230
h159l-12 -71h-159l-39 -247h169z" />
    <glyph glyph-name="Gbreve" unicode="&#x11e;" horiz-adv-x="703" 
d="M318 -12q-124 0 -187 64t-63 200q0 23 2 47.5t6 51.5q13 97 42 165.5t73 112t104 63.5t137 20q99 0 154 -34t81 -103l-76 -41q-20 59 -59 83t-107 24q-51 0 -93.5 -13.5t-75.5 -46.5t-56.5 -89t-36.5 -141q-9 -59 -9 -103q0 -54 12 -90t35 -58t56.5 -31.5t76.5 -9.5
q33 0 68.5 9t67 31.5t55 61t34.5 97.5l4 25h-188l11 70h268l-56 -353h-73l10 99q-36 -54 -92.5 -82.5t-124.5 -28.5zM599 905q-5 -35 -18 -59t-33 -38t-46.5 -20t-59.5 -6t-58 6t-41.5 20t-22.5 38t-1 59h66q-7 -39 9 -53t53 -14q38 0 59 14t27 53h66z" />
    <glyph glyph-name="Gcircumflex" unicode="&#x11c;" horiz-adv-x="703" 
d="M373 788h-94v3l137 114h82l101 -114v-3h-91l-55 69zM318 -12q-124 0 -187 64t-63 200q0 23 2 47.5t6 51.5q13 97 42 165.5t73 112t104 63.5t137 20q99 0 154 -34t81 -103l-76 -41q-20 59 -59 83t-107 24q-51 0 -93.5 -13.5t-75.5 -46.5t-56.5 -89t-36.5 -141
q-9 -59 -9 -103q0 -54 12 -90t35 -58t56.5 -31.5t76.5 -9.5q33 0 68.5 9t67 31.5t55 61t34.5 97.5l4 25h-188l11 70h268l-56 -353h-73l10 99q-36 -54 -92.5 -82.5t-124.5 -28.5z" />
    <glyph glyph-name="Gcommaaccent" unicode="&#x122;" horiz-adv-x="703" 
d="M246 -246q25 8 42 27.5t23 47.5h-5q-23 0 -36.5 12t-13.5 35q0 30 17 45t43 15q24 0 38 -13.5t14 -44.5q0 -26 -7.5 -52.5t-22 -49t-35 -38.5t-47.5 -22zM318 -12q-124 0 -187 64t-63 200q0 23 2 47.5t6 51.5q13 97 42 165.5t73 112t104 63.5t137 20q99 0 154 -34
t81 -103l-76 -41q-20 59 -59 83t-107 24q-51 0 -93.5 -13.5t-75.5 -46.5t-56.5 -89t-36.5 -141q-9 -59 -9 -103q0 -54 12 -90t35 -58t56.5 -31.5t76.5 -9.5q33 0 68.5 9t67 31.5t55 61t34.5 97.5l4 25h-188l11 70h268l-56 -353h-73l10 99q-36 -54 -92.5 -82.5t-124.5 -28.5z
" />
    <glyph glyph-name="commaaccent" unicode="&#xf6c3;" horiz-adv-x="575" 
d="M223 -246q25 8 42 27.5t23 47.5h-5q-23 0 -36.5 12t-13.5 35q0 30 17 45t43 15q24 0 38 -13.5t14 -44.5q0 -26 -7.5 -52.5t-22 -49t-35 -38.5t-47.5 -22z" />
    <glyph glyph-name="Gdotaccent" unicode="&#x120;" horiz-adv-x="703" 
d="M318 -12q-124 0 -187 64t-63 200q0 23 2 47.5t6 51.5q13 97 42 165.5t73 112t104 63.5t137 20q99 0 154 -34t81 -103l-76 -41q-20 59 -59 83t-107 24q-51 0 -93.5 -13.5t-75.5 -46.5t-56.5 -89t-36.5 -141q-9 -59 -9 -103q0 -54 12 -90t35 -58t56.5 -31.5t76.5 -9.5
q33 0 68.5 9t67 31.5t55 61t34.5 97.5l4 25h-188l11 70h268l-56 -353h-73l10 99q-36 -54 -92.5 -82.5t-124.5 -28.5zM513 849q0 -32 -18.5 -48t-47.5 -16q-26 0 -39 12.5t-13 35.5q0 32 18.5 48.5t47.5 16.5q52 0 52 -49z" />
    <glyph glyph-name="Hbar" unicode="&#x126;" horiz-adv-x="774" 
d="M152 551l24 149h87l-24 -149h389l24 149h87l-24 -149h72l-10 -61h-72l-77 -490h-87l50 313h-389l-50 -313h-87l77 490h-71l10 61h71zM603 391l15 99h-389l-15 -99h389z" />
    <glyph glyph-name="Hcircumflex" unicode="&#x124;" horiz-adv-x="754" 
d="M386 788h-94v3l137 114h82l101 -114v-3h-91l-55 69zM580 313h-389l-50 -313h-87l111 700h87l-49 -309h389l49 309h87l-111 -700h-87z" />
    <glyph glyph-name="Iacute" unicode="&#xcd;" horiz-adv-x="278" 
d="M165 700h87l-111 -700h-87zM259 788h-76v4l95 113h109l-1 -6z" />
    <glyph glyph-name="Ibreve" unicode="&#x12c;" horiz-adv-x="278" 
d="M165 700h87l-111 -700h-87zM379 905q-5 -35 -18 -59t-33 -38t-46.5 -20t-59.5 -6t-58 6t-41.5 20t-22.5 38t-1 59h66q-7 -39 9 -53t53 -14q38 0 59 14t27 53h66z" />
    <glyph glyph-name="Icircumflex" unicode="&#xce;" horiz-adv-x="278" 
d="M165 700h87l-111 -700h-87zM152 788h-94v3l137 114h82l101 -114v-3h-91l-55 69z" />
    <glyph glyph-name="Idieresis" unicode="&#xcf;" horiz-adv-x="278" 
d="M165 700h87l-111 -700h-87zM377 849q0 -32 -18.5 -48t-47.5 -16q-26 0 -39 12.5t-13 35.5q0 32 18.5 48.5t47.5 16.5q52 0 52 -49zM204 849q0 -32 -18.5 -48t-47.5 -16q-26 0 -39 12.5t-13 35.5q0 32 18.5 48.5t47.5 16.5q52 0 52 -49z" />
    <glyph glyph-name="Idotaccent" unicode="&#x130;" horiz-adv-x="278" 
d="M165 700h87l-111 -700h-87zM292 849q0 -32 -18.5 -48t-47.5 -16q-26 0 -39 12.5t-13 35.5q0 32 18.5 48.5t47.5 16.5q52 0 52 -49z" />
    <glyph glyph-name="Igrave" unicode="&#xcc;" horiz-adv-x="278" 
d="M165 700h87l-111 -700h-87zM97 899l1 6h107l57 -113v-4h-67z" />
    <glyph glyph-name="IJ" unicode="&#x132;" horiz-adv-x="780" 
d="M165 700h87l-111 -700h-87zM321 104q23 -21 53.5 -32t63.5 -11t61 11t50.5 35t38.5 61.5t24 91.5l70 440h87l-70 -440q-13 -80 -38 -132t-60.5 -83.5t-80 -44t-96.5 -12.5q-42 0 -82 11.5t-71 36.5z" />
    <glyph glyph-name="Imacron" unicode="&#x12a;" horiz-adv-x="278" 
d="M165 700h87l-111 -700h-87zM351 815h-249l9 59h250z" />
    <glyph glyph-name="Iogonek" unicode="&#x12e;" horiz-adv-x="278" 
d="M40 -212q-20 0 -38 4t-32.5 14.5t-23 28.5t-8.5 45q0 30 10.5 55t27.5 44.5t38.5 32.5t44.5 19l106 669h88l-111 -700h-40q-23 -2 -41.5 -12.5t-31 -26t-19.5 -33.5t-7 -36q0 -24 12.5 -33.5t36.5 -9.5q35 0 65 18l9 -56q-20 -11 -40.5 -17t-45.5 -6z" />
    <glyph glyph-name="Itilde" unicode="&#x128;" horiz-adv-x="278" 
d="M165 700h87l-111 -700h-87zM390 898q-2 -29 -12 -48.5t-25 -31t-32.5 -16.5t-33.5 -5q-20 0 -36.5 6.5t-30.5 14t-27 14t-26 6.5q-18 0 -25.5 -11.5t-9.5 -25.5h-65q3 29 13 48.5t24.5 31t31 16.5t33.5 5q21 0 37.5 -6.5t31 -14t27 -14t25.5 -6.5q18 0 26 11t10 26h64z
" />
    <glyph glyph-name="Jcircumflex" unicode="&#x134;" horiz-adv-x="477" 
d="M365 788h-94v3l137 114h82l101 -114v-3h-91l-55 69zM18 104q23 -21 53.5 -32t63.5 -11t61 11t50.5 35t38.5 61.5t24 91.5l70 440h87l-70 -440q-13 -80 -38 -132t-60.5 -83.5t-80 -44t-96.5 -12.5q-42 0 -82 11.5t-71 36.5z" />
    <glyph glyph-name="Kcommaaccent" unicode="&#x136;" horiz-adv-x="604" 
d="M217 -246q25 8 42 27.5t23 47.5h-5q-23 0 -36.5 12t-13.5 35q0 30 17 45t43 15q24 0 38 -13.5t14 -44.5q0 -26 -7.5 -52.5t-22 -49t-35 -38.5t-47.5 -22zM165 700h87l-61 -384l372 384h105l-310 -317l211 -383h-103l-173 320l-120 -121l-32 -199h-87z" />
    <glyph glyph-name="Lacute" unicode="&#x139;" 
d="M257 788h-76v4l95 113h109l-1 -6zM551 76l-12 -76h-486l111 700h87l-99 -624h399z" />
    <glyph glyph-name="Lcaron" unicode="&#x13d;" 
d="M411 481l41 220h86l-67 -220h-60zM551 76l-12 -76h-486l111 700h87l-99 -624h399z" />
    <glyph glyph-name="caronSlovak" horiz-adv-x="575" 
d="M230 480l41 220h86l-67 -220h-60z" />
    <glyph glyph-name="Lcommaaccent" unicode="&#x13b;" 
d="M217 -246q25 8 42 27.5t23 47.5h-5q-23 0 -36.5 12t-13.5 35q0 30 17 45t43 15q24 0 38 -13.5t14 -44.5q0 -26 -7.5 -52.5t-22 -49t-35 -38.5t-47.5 -22zM551 76l-12 -76h-486l111 700h87l-99 -624h399z" />
    <glyph glyph-name="Ldot" unicode="&#x13f;" 
d="M551 76l-12 -76h-486l111 700h87l-99 -624h399zM502 358q0 -32 -18.5 -48t-47.5 -16q-26 0 -39 12.5t-13 35.5q0 32 18.5 48.5t47.5 16.5q52 0 52 -49z" />
    <glyph glyph-name="Lslash" unicode="&#x141;" horiz-adv-x="611" 
d="M572 76l-12 -76h-486l40 251l-114 -66l13 81l113 66l59 368h88l-49 -311l190 110l-13 -82l-190 -110l-37 -231h398z" />
    <glyph glyph-name="Nacute" unicode="&#x143;" horiz-adv-x="742" 
d="M487 788h-76v4l95 113h109l-1 -6zM225 574l-87 -574h-84l111 700h88l291 -574l88 574h84l-111 -700h-90z" />
    <glyph glyph-name="Ncaron" unicode="&#x147;" horiz-adv-x="742" 
d="M313 903v2h92l54 -67l80 67h94v-2l-137 -115h-81zM225 574l-87 -574h-84l111 700h88l291 -574l88 574h84l-111 -700h-90z" />
    <glyph glyph-name="Ncommaaccent" unicode="&#x145;" horiz-adv-x="742" 
d="M254 -246q25 8 42 27.5t23 47.5h-5q-23 0 -36.5 12t-13.5 35q0 30 17 45t43 15q24 0 38 -13.5t14 -44.5q0 -26 -7.5 -52.5t-22 -49t-35 -38.5t-47.5 -22zM225 574l-87 -574h-84l111 700h88l291 -574l88 574h84l-111 -700h-90z" />
    <glyph glyph-name="Ntilde" unicode="&#xd1;" horiz-adv-x="742" 
d="M225 574l-87 -574h-84l111 700h88l291 -574l88 574h84l-111 -700h-90zM619 898q-2 -29 -12 -48.5t-25 -31t-32.5 -16.5t-33.5 -5q-20 0 -36.5 6.5t-30.5 14t-27 14t-26 6.5q-18 0 -25.5 -11.5t-9.5 -25.5h-65q3 29 13 48.5t24.5 31t31 16.5t33.5 5q21 0 37.5 -6.5t31 -14
t27 -14t25.5 -6.5q18 0 26 11t10 26h64z" />
    <glyph glyph-name="Oacute" unicode="&#xd3;" horiz-adv-x="741" 
d="M483 788h-76v4l95 113h109l-1 -6zM435 712q137 0 201.5 -59.5t64.5 -193.5q0 -24 -1.5 -51t-6.5 -57q-27 -192 -116.5 -277.5t-243.5 -85.5q-134 0 -199.5 61t-65.5 196q0 24 2 50.5t6 55.5q13 96 42 164.5t73.5 112t105.5 64t138 20.5zM429 640q-54 0 -97.5 -13.5
t-76.5 -46.5t-56 -89t-36 -141q-9 -60 -9 -105q0 -52 12 -87.5t35.5 -57t58 -31t78.5 -9.5q54 0 97.5 14t77 47.5t56.5 89.5t37 141q5 29 6.5 54t1.5 48q0 52 -12 88t-35.5 57.5t-58 31t-79.5 9.5z" />
    <glyph glyph-name="Obreve" unicode="&#x14e;" horiz-adv-x="741" 
d="M435 712q137 0 201.5 -59.5t64.5 -193.5q0 -24 -1.5 -51t-6.5 -57q-27 -192 -116.5 -277.5t-243.5 -85.5q-134 0 -199.5 61t-65.5 196q0 24 2 50.5t6 55.5q13 96 42 164.5t73.5 112t105.5 64t138 20.5zM429 640q-54 0 -97.5 -13.5t-76.5 -46.5t-56 -89t-36 -141
q-9 -60 -9 -105q0 -52 12 -87.5t35.5 -57t58 -31t78.5 -9.5q54 0 97.5 14t77 47.5t56.5 89.5t37 141q5 29 6.5 54t1.5 48q0 52 -12 88t-35.5 57.5t-58 31t-79.5 9.5zM603 905q-5 -35 -18 -59t-33 -38t-46.5 -20t-59.5 -6t-58 6t-41.5 20t-22.5 38t-1 59h66q-7 -39 9 -53
t53 -14q38 0 59 14t27 53h66z" />
    <glyph glyph-name="Ocircumflex" unicode="&#xd4;" horiz-adv-x="741" 
d="M377 788h-94v3l137 114h82l101 -114v-3h-91l-55 69zM435 712q137 0 201.5 -59.5t64.5 -193.5q0 -24 -1.5 -51t-6.5 -57q-27 -192 -116.5 -277.5t-243.5 -85.5q-134 0 -199.5 61t-65.5 196q0 24 2 50.5t6 55.5q13 96 42 164.5t73.5 112t105.5 64t138 20.5zM429 640
q-54 0 -97.5 -13.5t-76.5 -46.5t-56 -89t-36 -141q-9 -60 -9 -105q0 -52 12 -87.5t35.5 -57t58 -31t78.5 -9.5q54 0 97.5 14t77 47.5t56.5 89.5t37 141q5 29 6.5 54t1.5 48q0 52 -12 88t-35.5 57.5t-58 31t-79.5 9.5z" />
    <glyph glyph-name="Odieresis" unicode="&#xd6;" horiz-adv-x="741" 
d="M602 849q0 -32 -18.5 -48t-47.5 -16q-26 0 -39 12.5t-13 35.5q0 32 18.5 48.5t47.5 16.5q52 0 52 -49zM429 849q0 -32 -18.5 -48t-47.5 -16q-26 0 -39 12.5t-13 35.5q0 32 18.5 48.5t47.5 16.5q52 0 52 -49zM435 712q137 0 201.5 -59.5t64.5 -193.5q0 -24 -1.5 -51
t-6.5 -57q-27 -192 -116.5 -277.5t-243.5 -85.5q-134 0 -199.5 61t-65.5 196q0 24 2 50.5t6 55.5q13 96 42 164.5t73.5 112t105.5 64t138 20.5zM429 640q-54 0 -97.5 -13.5t-76.5 -46.5t-56 -89t-36 -141q-9 -60 -9 -105q0 -52 12 -87.5t35.5 -57t58 -31t78.5 -9.5
q54 0 97.5 14t77 47.5t56.5 89.5t37 141q5 29 6.5 54t1.5 48q0 52 -12 88t-35.5 57.5t-58 31t-79.5 9.5z" />
    <glyph glyph-name="OE" unicode="&#x152;" horiz-adv-x="1058" 
d="M1088 700l-12 -76h-402l-36 -233h351l-12 -78h-352l-37 -237h412l-13 -76h-666q-128 0 -190.5 59.5t-62.5 189.5q0 22 2 46.5t6 50.5q24 181 107.5 267.5t232.5 86.5h672zM155 256q0 -96 43.5 -138t124.5 -42h177l86 548h-172q-50 0 -91 -13.5t-72.5 -45.5t-53.5 -84
t-34 -130q-3 -21 -5.5 -47.5t-2.5 -47.5z" />
    <glyph glyph-name="Ograve" unicode="&#xd2;" horiz-adv-x="741" 
d="M435 712q137 0 201.5 -59.5t64.5 -193.5q0 -24 -1.5 -51t-6.5 -57q-27 -192 -116.5 -277.5t-243.5 -85.5q-134 0 -199.5 61t-65.5 196q0 24 2 50.5t6 55.5q13 96 42 164.5t73.5 112t105.5 64t138 20.5zM429 640q-54 0 -97.5 -13.5t-76.5 -46.5t-56 -89t-36 -141
q-9 -60 -9 -105q0 -52 12 -87.5t35.5 -57t58 -31t78.5 -9.5q54 0 97.5 14t77 47.5t56.5 89.5t37 141q5 29 6.5 54t1.5 48q0 52 -12 88t-35.5 57.5t-58 31t-79.5 9.5zM321 899l1 6h107l57 -113v-4h-67z" />
    <glyph glyph-name="Ohungarumlaut" unicode="&#x150;" horiz-adv-x="741" 
d="M421 905h100l-1 -6l-109 -111h-68v4zM564 905h109l-1 -6l-135 -111h-68v4zM435 712q137 0 201.5 -59.5t64.5 -193.5q0 -24 -1.5 -51t-6.5 -57q-27 -192 -116.5 -277.5t-243.5 -85.5q-134 0 -199.5 61t-65.5 196q0 24 2 50.5t6 55.5q13 96 42 164.5t73.5 112t105.5 64
t138 20.5zM429 640q-54 0 -97.5 -13.5t-76.5 -46.5t-56 -89t-36 -141q-9 -60 -9 -105q0 -52 12 -87.5t35.5 -57t58 -31t78.5 -9.5q54 0 97.5 14t77 47.5t56.5 89.5t37 141q5 29 6.5 54t1.5 48q0 52 -12 88t-35.5 57.5t-58 31t-79.5 9.5z" />
    <glyph glyph-name="hungarumlaut" unicode="&#x2dd;" horiz-adv-x="575" 
d="M250 691h100l-1 -6l-109 -111h-68v4zM393 691h109l-1 -6l-135 -111h-68v4z" />
    <glyph glyph-name="Omacron" unicode="&#x14c;" horiz-adv-x="741" 
d="M576 815h-249l9 59h250zM435 712q137 0 201.5 -59.5t64.5 -193.5q0 -24 -1.5 -51t-6.5 -57q-27 -192 -116.5 -277.5t-243.5 -85.5q-134 0 -199.5 61t-65.5 196q0 24 2 50.5t6 55.5q13 96 42 164.5t73.5 112t105.5 64t138 20.5zM429 640q-54 0 -97.5 -13.5t-76.5 -46.5
t-56 -89t-36 -141q-9 -60 -9 -105q0 -52 12 -87.5t35.5 -57t58 -31t78.5 -9.5q54 0 97.5 14t77 47.5t56.5 89.5t37 141q5 29 6.5 54t1.5 48q0 52 -12 88t-35.5 57.5t-58 31t-79.5 9.5z" />
    <glyph glyph-name="Oslash" unicode="&#xd8;" horiz-adv-x="741" 
d="M-14 0l108 106q-26 53 -26 142q0 23 2.5 51.5t5.5 51.5q26 186 113 273.5t246 87.5q71 0 122.5 -16.5t85.5 -51.5l57 56h92l-113 -110q25 -54 25 -136q0 -20 -2.5 -48.5t-6.5 -54.5q-27 -188 -115 -275.5t-245 -87.5q-69 0 -119.5 15.5t-84.5 48.5l-53 -52h-92zM431 640
q-55 0 -99 -14t-77 -47.5t-56 -89t-36 -138.5q-4 -23 -6.5 -53t-2.5 -53q0 -21 2 -39t6 -34l421 413q-23 31 -62 43t-90 12zM338 60q55 0 98.5 14t77 48t56.5 90t37 139q4 23 6.5 53t2.5 53q0 36 -6 65l-419 -411q23 -29 60 -40t87 -11z" />
    <glyph glyph-name="Otilde" unicode="&#xd5;" horiz-adv-x="741" 
d="M435 712q137 0 201.5 -59.5t64.5 -193.5q0 -24 -1.5 -51t-6.5 -57q-27 -192 -116.5 -277.5t-243.5 -85.5q-134 0 -199.5 61t-65.5 196q0 24 2 50.5t6 55.5q13 96 42 164.5t73.5 112t105.5 64t138 20.5zM429 640q-54 0 -97.5 -13.5t-76.5 -46.5t-56 -89t-36 -141
q-9 -60 -9 -105q0 -52 12 -87.5t35.5 -57t58 -31t78.5 -9.5q54 0 97.5 14t77 47.5t56.5 89.5t37 141q5 29 6.5 54t1.5 48q0 52 -12 88t-35.5 57.5t-58 31t-79.5 9.5zM615 898q-2 -29 -12 -48.5t-25 -31t-32.5 -16.5t-33.5 -5q-20 0 -36.5 6.5t-30.5 14t-27 14t-26 6.5
q-18 0 -25.5 -11.5t-9.5 -25.5h-65q3 29 13 48.5t24.5 31t31 16.5t33.5 5q21 0 37.5 -6.5t31 -14t27 -14t25.5 -6.5q18 0 26 11t10 26h64z" />
    <glyph glyph-name="Racute" unicode="&#x154;" horiz-adv-x="638" 
d="M451 788h-76v4l95 113h109l-1 -6zM183 265l-42 -265h-87l111 700h270q104 0 154.5 -43t50.5 -124q0 -101 -47 -165t-126 -89l104 -279h-97l-97 265h-194zM240 624l-45 -282h192q33 0 63 10.5t52.5 32.5t36 55.5t13.5 78.5q0 51 -29 78t-91 27h-192z" />
    <glyph glyph-name="Rcaron" unicode="&#x158;" horiz-adv-x="638" 
d="M276 903v2h92l54 -67l80 67h94v-2l-137 -115h-81zM183 265l-42 -265h-87l111 700h270q104 0 154.5 -43t50.5 -124q0 -101 -47 -165t-126 -89l104 -279h-97l-97 265h-194zM240 624l-45 -282h192q33 0 63 10.5t52.5 32.5t36 55.5t13.5 78.5q0 51 -29 78t-91 27h-192z" />
    <glyph glyph-name="Rcommaaccent" unicode="&#x156;" horiz-adv-x="638" 
d="M215 -246q25 8 42 27.5t23 47.5h-5q-23 0 -36.5 12t-13.5 35q0 30 17 45t43 15q24 0 38 -13.5t14 -44.5q0 -26 -7.5 -52.5t-22 -49t-35 -38.5t-47.5 -22zM183 265l-42 -265h-87l111 700h270q104 0 154.5 -43t50.5 -124q0 -101 -47 -165t-126 -89l104 -279h-97l-97 265
h-194zM240 624l-45 -282h192q33 0 63 10.5t52.5 32.5t36 55.5t13.5 78.5q0 51 -29 78t-91 27h-192z" />
    <glyph glyph-name="Sacute" unicode="&#x15a;" 
d="M404 788h-76v4l95 113h109l-1 -6zM503 546q-10 25 -23 43t-31.5 30t-44 18t-59.5 6q-45 0 -77 -10t-52.5 -27t-29.5 -40t-9 -49q0 -18 5 -34.5t17.5 -31t34 -26.5t54.5 -21l61 -16q54 -14 89.5 -32t57.5 -40.5t31 -50t9 -61.5q0 -51 -19.5 -91.5t-55 -68t-86 -42
t-113.5 -14.5q-88 0 -153 31t-97 105l73 44q15 -31 31.5 -52t37.5 -34t47.5 -19t60.5 -6q95 0 141.5 38t46.5 101q0 46 -29 71.5t-97 43.5l-56 15q-92 24 -133.5 72t-41.5 114q0 43 16.5 80t49 63.5t81.5 41.5t114 15q91 0 144 -30t80 -93z" />
    <glyph glyph-name="Scaron" unicode="&#x160;" 
d="M229 903v2h92l54 -67l80 67h94v-2l-137 -115h-81zM503 546q-10 25 -23 43t-31.5 30t-44 18t-59.5 6q-45 0 -77 -10t-52.5 -27t-29.5 -40t-9 -49q0 -18 5 -34.5t17.5 -31t34 -26.5t54.5 -21l61 -16q54 -14 89.5 -32t57.5 -40.5t31 -50t9 -61.5q0 -51 -19.5 -91.5t-55 -68
t-86 -42t-113.5 -14.5q-88 0 -153 31t-97 105l73 44q15 -31 31.5 -52t37.5 -34t47.5 -19t60.5 -6q95 0 141.5 38t46.5 101q0 46 -29 71.5t-97 43.5l-56 15q-92 24 -133.5 72t-41.5 114q0 43 16.5 80t49 63.5t81.5 41.5t114 15q91 0 144 -30t80 -93z" />
    <glyph glyph-name="Scedilla" unicode="&#x15e;" 
d="M213 -233q-38 0 -67 15t-42 47l47 38q10 -23 24.5 -35t43.5 -12q24 0 40 10.5t16 33.5q0 21 -18.5 29t-47.5 8l-14 12l31 76q-75 6 -130 37.5t-84 97.5l73 44q15 -31 31.5 -52t37.5 -34t47.5 -19t60.5 -6q95 0 141.5 38t46.5 101q0 46 -29 71.5t-97 43.5l-56 15
q-92 24 -133.5 72t-41.5 114q0 43 16.5 80t49 63.5t81.5 41.5t114 15q91 0 144 -30t80 -93l-75 -43q-10 25 -23 43t-31.5 30t-44 18t-59.5 6q-45 0 -77 -10t-52.5 -27t-29.5 -40t-9 -49q0 -18 5 -34.5t17.5 -31t34 -26.5t54.5 -21l61 -16q54 -14 89.5 -32t57.5 -40.5t31 -50
t9 -61.5q0 -98 -67 -154t-182 -61l-23 -48q31 -2 52.5 -21t21.5 -54q0 -25 -10.5 -43.5t-27.5 -31t-39.5 -18.5t-47.5 -6z" />
    <glyph glyph-name="Scircumflex" unicode="&#x15c;" 
d="M297 788h-94v3l137 114h82l101 -114v-3h-91l-55 69zM503 546q-10 25 -23 43t-31.5 30t-44 18t-59.5 6q-45 0 -77 -10t-52.5 -27t-29.5 -40t-9 -49q0 -18 5 -34.5t17.5 -31t34 -26.5t54.5 -21l61 -16q54 -14 89.5 -32t57.5 -40.5t31 -50t9 -61.5q0 -51 -19.5 -91.5
t-55 -68t-86 -42t-113.5 -14.5q-88 0 -153 31t-97 105l73 44q15 -31 31.5 -52t37.5 -34t47.5 -19t60.5 -6q95 0 141.5 38t46.5 101q0 46 -29 71.5t-97 43.5l-56 15q-92 24 -133.5 72t-41.5 114q0 43 16.5 80t49 63.5t81.5 41.5t114 15q91 0 144 -30t80 -93z" />
    <glyph glyph-name="Scommaaccent" unicode="&#x218;" 
d="M175 -246q25 8 42 27.5t23 47.5h-5q-23 0 -36.5 12t-13.5 35q0 30 17 45t43 15q24 0 38 -13.5t14 -44.5q0 -26 -7.5 -52.5t-22 -49t-35 -38.5t-47.5 -22zM503 546q-10 25 -23 43t-31.5 30t-44 18t-59.5 6q-45 0 -77 -10t-52.5 -27t-29.5 -40t-9 -49q0 -18 5 -34.5
t17.5 -31t34 -26.5t54.5 -21l61 -16q54 -14 89.5 -32t57.5 -40.5t31 -50t9 -61.5q0 -51 -19.5 -91.5t-55 -68t-86 -42t-113.5 -14.5q-88 0 -153 31t-97 105l73 44q15 -31 31.5 -52t37.5 -34t47.5 -19t60.5 -6q95 0 141.5 38t46.5 101q0 46 -29 71.5t-97 43.5l-56 15
q-92 24 -133.5 72t-41.5 114q0 43 16.5 80t49 63.5t81.5 41.5t114 15q91 0 144 -30t80 -93z" />
    <glyph glyph-name="Tbar" unicode="&#x166;" horiz-adv-x="535" 
d="M237 381l39 243h-224l12 76h536l-12 -76h-224l-39 -243h176l-9 -60h-176l-51 -321h-88l51 321h-177l9 60h177z" />
    <glyph glyph-name="Tcaron" unicode="&#x164;" horiz-adv-x="534" 
d="M204 903v2h92l54 -67l80 67h94v-2l-137 -115h-81zM600 700l-12 -76h-225l-99 -624h-87l99 624h-225l12 76h537z" />
    <glyph glyph-name="Tcommaaccent" unicode="&#x162;" horiz-adv-x="534" 
d="M146 -246q25 8 42 27.5t23 47.5h-5q-23 0 -36.5 12t-13.5 35q0 30 17 45t43 15q24 0 38 -13.5t14 -44.5q0 -26 -7.5 -52.5t-22 -49t-35 -38.5t-47.5 -22zM600 700l-12 -76h-225l-99 -624h-87l99 624h-225l12 76h537z" />
    <glyph glyph-name="Thorn" unicode="&#xde;" horiz-adv-x="619" 
d="M144 0h-89l111 700h89l-21 -131h175q103 0 152.5 -43t49.5 -124q0 -62 -19.5 -110t-54.5 -80t-84 -48.5t-108 -16.5h-179zM362 223q34 0 64 10t51.5 31t34 52.5t12.5 73.5q0 50 -29 76.5t-90 26.5h-183l-43 -270h183z" />
    <glyph glyph-name="Uacute" unicode="&#xda;" horiz-adv-x="713" 
d="M472 788h-76v4l95 113h109l-1 -6zM616 700h87l-67 -425q-23 -143 -104.5 -215t-211.5 -72q-119 0 -182 56t-63 165q0 31 6 66l67 425h87l-68 -425q-3 -17 -3.5 -30.5t-0.5 -28.5q0 -75 39 -115t122 -40q89 0 147.5 49.5t77.5 163.5z" />
    <glyph glyph-name="Ubreve" unicode="&#x16c;" horiz-adv-x="713" 
d="M616 700h87l-67 -425q-23 -143 -104.5 -215t-211.5 -72q-119 0 -182 56t-63 165q0 31 6 66l67 425h87l-68 -425q-3 -17 -3.5 -30.5t-0.5 -28.5q0 -75 39 -115t122 -40q89 0 147.5 49.5t77.5 163.5zM592 905q-5 -35 -18 -59t-33 -38t-46.5 -20t-59.5 -6t-58 6t-41.5 20
t-22.5 38t-1 59h66q-7 -39 9 -53t53 -14q38 0 59 14t27 53h66z" />
    <glyph glyph-name="Ucircumflex" unicode="&#xdb;" horiz-adv-x="713" 
d="M366 788h-94v3l137 114h82l101 -114v-3h-91l-55 69zM616 700h87l-67 -425q-23 -143 -104.5 -215t-211.5 -72q-119 0 -182 56t-63 165q0 31 6 66l67 425h87l-68 -425q-3 -17 -3.5 -30.5t-0.5 -28.5q0 -75 39 -115t122 -40q89 0 147.5 49.5t77.5 163.5z" />
    <glyph glyph-name="Udieresis" unicode="&#xdc;" horiz-adv-x="713" 
d="M591 849q0 -32 -18.5 -48t-47.5 -16q-26 0 -39 12.5t-13 35.5q0 32 18.5 48.5t47.5 16.5q52 0 52 -49zM418 849q0 -32 -18.5 -48t-47.5 -16q-26 0 -39 12.5t-13 35.5q0 32 18.5 48.5t47.5 16.5q52 0 52 -49zM616 700h87l-67 -425q-23 -143 -104.5 -215t-211.5 -72
q-119 0 -182 56t-63 165q0 31 6 66l67 425h87l-68 -425q-3 -17 -3.5 -30.5t-0.5 -28.5q0 -75 39 -115t122 -40q89 0 147.5 49.5t77.5 163.5z" />
    <glyph glyph-name="Ugrave" unicode="&#xd9;" horiz-adv-x="713" 
d="M616 700h87l-67 -425q-23 -143 -104.5 -215t-211.5 -72q-119 0 -182 56t-63 165q0 31 6 66l67 425h87l-68 -425q-3 -17 -3.5 -30.5t-0.5 -28.5q0 -75 39 -115t122 -40q89 0 147.5 49.5t77.5 163.5zM310 899l1 6h107l57 -113v-4h-67z" />
    <glyph glyph-name="Uhungarumlaut" unicode="&#x170;" horiz-adv-x="713" 
d="M616 700h87l-67 -425q-23 -143 -104.5 -215t-211.5 -72q-119 0 -182 56t-63 165q0 31 6 66l67 425h87l-68 -425q-3 -17 -3.5 -30.5t-0.5 -28.5q0 -75 39 -115t122 -40q89 0 147.5 49.5t77.5 163.5zM410 905h100l-1 -6l-109 -111h-68v4zM553 905h109l-1 -6l-135 -111h-68
v4z" />
    <glyph glyph-name="Umacron" unicode="&#x16a;" horiz-adv-x="713" 
d="M616 700h87l-67 -425q-23 -143 -104.5 -215t-211.5 -72q-119 0 -182 56t-63 165q0 31 6 66l67 425h87l-68 -425q-3 -17 -3.5 -30.5t-0.5 -28.5q0 -75 39 -115t122 -40q89 0 147.5 49.5t77.5 163.5zM565 815h-249l9 59h250z" />
    <glyph glyph-name="Uogonek" unicode="&#x172;" horiz-adv-x="712" 
d="M615 700h88l-67 -424q-18 -112 -76.5 -184t-155.5 -95q-37 -12 -54 -41t-17 -57t12.5 -39t36.5 -11q35 0 65 18l7 -56q-38 -23 -84 -23q-20 0 -38.5 4.5t-33 15t-23 29t-8.5 47.5q0 32 11 58.5t31 45.5q-114 2 -174 59t-60 162q0 31 6 67l67 424h89l-68 -424
q-3 -17 -4.5 -30.5t-1.5 -28.5q0 -75 39 -115.5t122 -40.5q89 0 147.5 50t76.5 164z" />
    <glyph glyph-name="Uring" unicode="&#x16e;" horiz-adv-x="713" 
d="M433 761q-37 0 -60 21t-23 59q0 47 30.5 77.5t76.5 30.5q37 0 60 -21.5t23 -57.5q0 -48 -31 -78.5t-76 -30.5zM454 908q-24 0 -40.5 -17.5t-16.5 -46.5q0 -19 11 -30.5t28 -11.5q22 0 39.5 17.5t17.5 46.5q0 19 -11 30.5t-28 11.5zM616 700h87l-67 -425
q-23 -143 -104.5 -215t-211.5 -72q-119 0 -182 56t-63 165q0 31 6 66l67 425h87l-68 -425q-3 -17 -3.5 -30.5t-0.5 -28.5q0 -75 39 -115t122 -40q89 0 147.5 49.5t77.5 163.5z" />
    <glyph glyph-name="Utilde" unicode="&#x168;" horiz-adv-x="713" 
d="M616 700h87l-67 -425q-23 -143 -104.5 -215t-211.5 -72q-119 0 -182 56t-63 165q0 31 6 66l67 425h87l-68 -425q-3 -17 -3.5 -30.5t-0.5 -28.5q0 -75 39 -115t122 -40q89 0 147.5 49.5t77.5 163.5zM604 898q-2 -29 -12 -48.5t-25 -31t-32.5 -16.5t-33.5 -5
q-20 0 -36.5 6.5t-30.5 14t-27 14t-26 6.5q-18 0 -25.5 -11.5t-9.5 -25.5h-65q3 29 13 48.5t24.5 31t31 16.5t33.5 5q21 0 37.5 -6.5t31 -14t27 -14t25.5 -6.5q18 0 26 11t10 26h64z" />
    <glyph glyph-name="Wacute" unicode="&#x1e82;" horiz-adv-x="873" 
d="M544 698l65 -562l244 564h89l-312 -700h-82l-66 567l-245 -567h-88l-86 700h90l62 -572l247 570h82zM551 787h-76v4l95 113h109l-1 -6z" />
    <glyph glyph-name="Wdieresis" unicode="&#x1e84;" horiz-adv-x="873" 
d="M544 698l65 -562l244 564h89l-312 -700h-82l-66 567l-245 -567h-88l-86 700h90l62 -572l247 570h82zM669 848q0 -32 -18.5 -48t-47.5 -16q-26 0 -39 12.5t-13 35.5q0 32 18.5 48.5t47.5 16.5q52 0 52 -49zM496 848q0 -32 -18.5 -48t-47.5 -16q-26 0 -39 12.5t-13 35.5
q0 32 18.5 48.5t47.5 16.5q52 0 52 -49z" />
    <glyph glyph-name="Wgrave" unicode="&#x1e80;" horiz-adv-x="873" 
d="M544 698l65 -562l244 564h89l-312 -700h-82l-66 567l-245 -567h-88l-86 700h90l62 -572l247 570h82zM388 898l1 6h107l57 -113v-4h-67z" />
    <glyph glyph-name="Wcircumflex" unicode="&#x174;" horiz-adv-x="873" 
d="M544 698l65 -562l244 564h89l-312 -700h-82l-66 567l-245 -567h-88l-86 700h90l62 -572l247 570h82zM445 787h-94v3l137 114h82l101 -114v-3h-91l-55 69z" />
    <glyph glyph-name="Yacute" unicode="&#xdd;" horiz-adv-x="571" 
d="M59 700h91l142 -344l250 344h96l-314 -420l-44 -280h-87l44 280zM393 788h-76v4l95 113h109l-1 -6z" />
    <glyph glyph-name="Ycircumflex" unicode="&#x176;" horiz-adv-x="571" 
d="M59 700h91l142 -344l250 344h96l-314 -420l-44 -280h-87l44 280zM287 788h-94v3l137 114h82l101 -114v-3h-91l-55 69z" />
    <glyph glyph-name="Ydieresis" unicode="&#x178;" horiz-adv-x="571" 
d="M59 700h91l142 -344l250 344h96l-314 -420l-44 -280h-87l44 280zM511 849q0 -32 -18.5 -48t-47.5 -16q-26 0 -39 12.5t-13 35.5q0 32 18.5 48.5t47.5 16.5q52 0 52 -49zM338 849q0 -32 -18.5 -48t-47.5 -16q-26 0 -39 12.5t-13 35.5q0 32 18.5 48.5t47.5 16.5
q52 0 52 -49z" />
    <glyph glyph-name="Zacute" unicode="&#x179;" horiz-adv-x="534" 
d="M389 788h-76v4l95 113h109l-1 -6zM-23 67l502 558l-389 -1l12 76h495l-11 -67l-505 -559l421 2l-13 -76h-523z" />
    <glyph glyph-name="Zcaron" unicode="&#x17d;" horiz-adv-x="534" 
d="M214 903v2h92l54 -67l80 67h94v-2l-137 -115h-81zM-23 67l502 558l-389 -1l12 76h495l-11 -67l-505 -559l421 2l-13 -76h-523z" />
    <glyph glyph-name="Zdotaccent" unicode="&#x17b;" horiz-adv-x="534" 
d="M-23 67l502 558l-389 -1l12 76h495l-11 -67l-505 -559l421 2l-13 -76h-523zM422 849q0 -32 -18.5 -48t-47.5 -16q-26 0 -39 12.5t-13 35.5q0 32 18.5 48.5t47.5 16.5q52 0 52 -49z" />
    <glyph glyph-name="a" unicode="a" horiz-adv-x="578" 
d="M210 -12q-83 0 -126.5 48t-43.5 141q0 15 2 32.5t4 34.5q17 126 81 190.5t167 64.5q54 0 93.5 -22.5t56.5 -67.5l20 78h72l-76 -487h-77l7 81q-60 -93 -180 -93zM414 245q2 15 3 28.5t1 25.5q0 69 -32.5 100t-84.5 31q-69 0 -113 -44t-59 -143q-2 -14 -3.5 -30.5
t-1.5 -28.5q0 -127 116 -127q31 0 59.5 10.5t51.5 33.5t39 58.5t24 85.5z" />
    <glyph glyph-name="b" unicode="b" horiz-adv-x="577" 
d="M189 405q62 94 182 94q83 0 126 -47.5t43 -141.5q0 -15 -1.5 -31.5t-3.5 -34.5q-18 -122 -82 -189t-167 -67q-54 0 -93.5 22.5t-57.5 70.5l-18 -81h-76l111 700h84zM164 242q-2 -15 -3.5 -28.5t-1.5 -26.5q0 -68 33.5 -99t86.5 -31q71 0 114 45t58 141q3 17 4 32t1 29
q0 65 -29 95.5t-86 30.5q-64 0 -112.5 -44.5t-64.5 -143.5z" />
    <glyph glyph-name="c" unicode="c" horiz-adv-x="498" 
d="M453 95q-36 -60 -90.5 -83.5t-121.5 -23.5q-200 0 -200 191q0 14 1.5 30t3.5 33q20 130 85.5 193.5t172.5 63.5q85 0 128 -34t60 -90l-67 -32q-13 40 -40.5 63.5t-85.5 23.5q-71 0 -112.5 -45.5t-56.5 -142.5q-6 -35 -6 -62q0 -68 30 -95.5t96 -27.5q45 0 80 16t64 61z
" />
    <glyph glyph-name="d" unicode="d" horiz-adv-x="581" 
d="M385 0l8 82q-31 -47 -77 -70.5t-105 -23.5q-84 0 -127 48t-43 141q0 16 1.5 32.5t3.5 34.5q17 125 81 190t167 65q52 0 90.5 -20t58.5 -62l45 283h84l-111 -700h-76zM417 245q2 15 3 28.5t1 25.5q0 69 -33 100t-87 31q-72 0 -113 -45t-58 -142q-4 -22 -5 -33.5t-1 -25.5
q0 -65 29.5 -96t86.5 -31q64 0 112.5 44t64.5 144z" />
    <glyph glyph-name="e" unicode="e" horiz-adv-x="516" 
d="M236 -12q-94 0 -144.5 46t-50.5 146q0 14 1.5 30t3.5 33q18 126 85 191t179 65q46 0 79 -13.5t54.5 -37.5t31.5 -57.5t10 -73.5q0 -24 -3.5 -48.5t-9.5 -50.5h-346q0 -1 -0.5 -5.5t-1 -10.5t-0.5 -12v-10q0 -67 30.5 -95t90.5 -28q50 0 85.5 15.5t64.5 60.5l58 -38
q-38 -56 -89 -81.5t-128 -25.5zM300 431q-62 0 -103 -33.5t-60 -113.5h265q1 8 1.5 17t0.5 19q0 60 -27 85.5t-77 25.5z" />
    <glyph glyph-name="f" unicode="f" horiz-adv-x="321" 
d="M126 420h-88l11 67h88l10 59q14 92 59.5 132t117.5 40q20 0 42 -3t38 -11l-25 -72q-13 5 -25.5 8.5t-30.5 3.5q-35 0 -60 -21.5t-35 -81.5l-8 -54h138l-11 -67h-138l-66 -420h-83z" />
    <glyph glyph-name="g" unicode="g" horiz-adv-x="576" 
d="M462 26q-9 -60 -32.5 -102.5t-58.5 -70.5t-80.5 -41t-97.5 -13q-71 0 -120 25t-71 90l66 44q17 -50 48.5 -69.5t81.5 -19.5q35 0 65 8.5t53.5 26.5t39 46.5t21.5 69.5l10 69q-30 -44 -74 -65.5t-100 -21.5q-84 0 -128.5 47t-44.5 141q0 14 1 29t3 32q17 121 78 184.5
t161 63.5q60 0 101.5 -22.5t59.5 -69.5l20 80h70zM414 253q2 13 3 26t1 24q0 68 -34 98t-87 30q-72 0 -113.5 -42.5t-55.5 -136.5q-2 -17 -3.5 -30.5t-1.5 -27.5q0 -64 29.5 -93.5t86.5 -29.5q31 0 59.5 10t51.5 32t39.5 56.5t24.5 83.5z" />
    <glyph glyph-name="h" unicode="h" 
d="M186 391q35 58 87 83t108 25q78 0 115.5 -38.5t37.5 -108.5q0 -13 -1.5 -25.5t-3.5 -26.5l-47 -300h-84l46 288q3 22 3 43q0 95 -99 95q-34 0 -64.5 -13t-54.5 -37t-41.5 -59t-24.5 -79l-38 -238h-84l111 700h84z" />
    <glyph glyph-name="i" unicode="i" horiz-adv-x="246" 
d="M177 571q-26 0 -39 12.5t-13 35.5q0 32 18.5 48.5t47.5 16.5q52 0 52 -49q0 -32 -18.5 -48t-47.5 -16zM204 487l-76 -487h-85l76 487h85z" />
    <glyph glyph-name="j" unicode="j" horiz-adv-x="246" 
d="M120 487h84l-81 -515q-14 -90 -61 -131.5t-116 -41.5q-20 0 -36.5 2.5t-38.5 10.5l26 72q13 -5 24.5 -8t28.5 -3q16 0 30.5 5t25.5 17.5t19.5 33.5t13.5 53zM177 571q-26 0 -39 12.5t-13 35.5q0 32 18.5 48.5t47.5 16.5q52 0 52 -49q0 -32 -18.5 -48t-47.5 -16z" />
    <glyph glyph-name="k" unicode="k" horiz-adv-x="487" 
d="M160 225l269 262h104l-230 -218l155 -269h-98l-120 211l-96 -90l-18 -121h-85l111 700h85z" />
    <glyph glyph-name="l" unicode="l" horiz-adv-x="243" 
d="M125 0h-84l111 700h84z" />
    <glyph glyph-name="m" unicode="m" horiz-adv-x="886" 
d="M118 487h72l-5 -90q35 55 82 78.5t98 23.5q59 0 90.5 -31t39.5 -88q37 65 88.5 92t107.5 27q70 0 103.5 -37t33.5 -106q0 -14 -1.5 -28t-3.5 -28l-47 -300h-84l46 288q2 10 2.5 22.5t0.5 23.5q0 91 -87 91q-60 0 -105.5 -48t-60.5 -133l-38 -244h-84l46 288q2 12 3 23.5
t1 22.5q0 91 -87 91q-60 0 -105 -48t-61 -134l-38 -243h-84z" />
    <glyph glyph-name="n" unicode="n" 
d="M118 487h73l-5 -91q36 56 87.5 79.5t107.5 23.5q78 0 115.5 -38.5t37.5 -108.5q0 -13 -1.5 -25.5t-3.5 -26.5l-47 -300h-84l46 288q2 11 2.5 22t0.5 20q0 96 -99 96q-34 0 -64 -12.5t-54.5 -36t-41.5 -57t-24 -75.5l-39 -245h-84z" />
    <glyph glyph-name="o" unicode="o" horiz-adv-x="553" 
d="M424 244q6 36 6 64q0 67 -31 94.5t-94 27.5q-38 0 -67.5 -9.5t-50.5 -31.5t-35 -57.5t-22 -87.5q-6 -38 -6 -66q0 -66 30 -93.5t92 -27.5q37 0 66.5 10t51.5 32t37 58t23 87zM46 245q19 132 87.5 193t179.5 61q100 0 150 -44.5t50 -141.5q0 -16 -1.5 -32.5t-3.5 -35.5
q-18 -132 -85.5 -194.5t-181.5 -62.5q-98 0 -149 45.5t-51 145.5q0 15 1.5 31.5t3.5 34.5z" />
    <glyph glyph-name="p" unicode="p" horiz-adv-x="582" 
d="M119 487h73l-5 -88q64 100 186 100q83 0 125.5 -47.5t42.5 -140.5q0 -16 -1.5 -32.5t-3.5 -34.5q-17 -122 -81 -189t-168 -67q-52 0 -90.5 20.5t-58.5 62.5l-42 -257h-84zM165 242q-2 -15 -3 -28.5t-1 -26.5q0 -69 33 -100t87 -31q71 0 113.5 45.5t57.5 141.5q6 34 6 62
q0 65 -29 95t-85 30q-65 0 -114 -44.5t-65 -143.5z" />
    <glyph glyph-name="q" unicode="q" horiz-adv-x="580" 
d="M348 -186l40 263q-29 -42 -72.5 -65.5t-105.5 -23.5q-83 0 -126 48t-43 141q0 16 1.5 32.5t3.5 34.5q17 122 80.5 188.5t167.5 66.5q54 0 93.5 -23t57.5 -71l21 82h72l-107 -673h-83zM416 245q2 15 3 28.5t1 25.5q0 69 -32.5 100t-86.5 31q-72 0 -114 -45t-58 -142
q-2 -16 -3.5 -30t-1.5 -28q0 -128 116 -128q64 0 112 44t64 144z" />
    <glyph glyph-name="r" unicode="r" horiz-adv-x="350" 
d="M118 487h73l-5 -101q34 60 86 87.5t112 22.5l-14 -83q-85 9 -137.5 -38t-70.5 -141l-37 -234h-84z" />
    <glyph glyph-name="s" unicode="s" horiz-adv-x="476" 
d="M215 55q62 0 88.5 22.5t26.5 57.5q0 26 -16.5 41.5t-63.5 27.5l-40 10q-72 18 -104.5 53t-32.5 83q0 66 50.5 107.5t142.5 41.5q35 0 61.5 -5.5t47 -16.5t35.5 -26.5t28 -34.5l-61 -48q-21 30 -46 46.5t-72 16.5q-54 0 -80 -21.5t-26 -51.5q0 -23 15 -41.5t59 -29.5
l48 -12q75 -18 106 -50t31 -82q0 -29 -10.5 -57t-34.5 -49.5t-63 -35t-96 -13.5q-74 0 -121.5 26t-71.5 82l66 38q19 -43 51.5 -61t82.5 -18z" />
    <glyph glyph-name="t" unicode="t" horiz-adv-x="329" 
d="M335 420h-138l-39 -247q-10 -60 5.5 -85.5t60.5 -25.5q16 0 29 2.5t27 7.5l3 -70q-27 -8 -43 -10.5t-31 -2.5q-67 0 -103 29.5t-36 94.5q0 16 2 31.5t4 29.5l39 246h-85l11 67h85l22 143h82l-22 -143h138z" />
    <glyph glyph-name="u" unicode="u" horiz-adv-x="589" 
d="M219 -12q-82 0 -121 40.5t-39 114.5q0 12 0.5 23.5t2.5 24.5l47 296h85l-46 -284q-2 -12 -2 -23v-21q0 -101 99 -101q70 0 116.5 45.5t62.5 133.5l39 250h85l-78 -487h-73l7 86q-35 -53 -84 -75.5t-101 -22.5z" />
    <glyph glyph-name="v" unicode="v" horiz-adv-x="476" 
d="M120 487l87 -404l215 404h89l-269 -487h-93l-118 487h89z" />
    <glyph glyph-name="w" unicode="w" horiz-adv-x="710" 
d="M432 484l52 -387l173 390h83l-228 -487h-89l-51 386l-169 -386h-89l-78 487h84l53 -390l171 387h88z" />
    <glyph glyph-name="x" unicode="x" horiz-adv-x="475" 
d="M136 487l108 -184l162 184h97l-222 -242l151 -245h-95l-112 188l-169 -188h-97l229 247l-146 240h94z" />
    <glyph glyph-name="y" unicode="y" horiz-adv-x="486" 
d="M156 -9l-119 496h88l89 -406l214 406h88l-312 -565q-40 -72 -87.5 -97.5t-103.5 -25.5q-20 0 -36.5 2.5t-37.5 10.5l25 72q15 -5 28.5 -8t33.5 -3q11 0 24.5 2t27.5 10t28.5 23t28.5 42z" />
    <glyph glyph-name="z" unicode="z" horiz-adv-x="452" 
d="M-1 64l349 354h-288l11 69h385l-10 -65l-348 -353h301l-11 -69h-399z" />
    <glyph glyph-name="aacute" unicode="&#xe1;" horiz-adv-x="578" 
d="M210 -12q-83 0 -126.5 48t-43.5 141q0 15 2 32.5t4 34.5q17 126 81 190.5t167 64.5q54 0 93.5 -22.5t56.5 -67.5l20 78h72l-76 -487h-77l7 81q-60 -93 -180 -93zM414 245q2 15 3 28.5t1 25.5q0 69 -32.5 100t-84.5 31q-69 0 -113 -44t-59 -143q-2 -14 -3.5 -30.5
t-1.5 -28.5q0 -127 116 -127q31 0 59.5 10.5t51.5 33.5t39 58.5t24 85.5zM357 574h-76v4l95 113h109l-1 -6z" />
    <glyph glyph-name="abreve" unicode="&#x103;" horiz-adv-x="578" 
d="M210 -12q-83 0 -126.5 48t-43.5 141q0 15 2 32.5t4 34.5q17 126 81 190.5t167 64.5q54 0 93.5 -22.5t56.5 -67.5l20 78h72l-76 -487h-77l7 81q-60 -93 -180 -93zM414 245q2 15 3 28.5t1 25.5q0 69 -32.5 100t-84.5 31q-69 0 -113 -44t-59 -143q-2 -14 -3.5 -30.5
t-1.5 -28.5q0 -127 116 -127q31 0 59.5 10.5t51.5 33.5t39 58.5t24 85.5zM477 691q-5 -35 -18 -59t-33 -38t-46.5 -20t-59.5 -6t-58 6t-41.5 20t-22.5 38t-1 59h66q-7 -39 9 -53t53 -14q38 0 59 14t27 53h66z" />
    <glyph glyph-name="acircumflex" unicode="&#xe2;" horiz-adv-x="578" 
d="M210 -12q-83 0 -126.5 48t-43.5 141q0 15 2 32.5t4 34.5q17 126 81 190.5t167 64.5q54 0 93.5 -22.5t56.5 -67.5l20 78h72l-76 -487h-77l7 81q-60 -93 -180 -93zM414 245q2 15 3 28.5t1 25.5q0 69 -32.5 100t-84.5 31q-69 0 -113 -44t-59 -143q-2 -14 -3.5 -30.5
t-1.5 -28.5q0 -127 116 -127q31 0 59.5 10.5t51.5 33.5t39 58.5t24 85.5zM251 574h-94v3l137 114h82l101 -114v-3h-91l-55 69z" />
    <glyph glyph-name="adieresis" unicode="&#xe4;" horiz-adv-x="578" 
d="M210 -12q-83 0 -126.5 48t-43.5 141q0 15 2 32.5t4 34.5q17 126 81 190.5t167 64.5q54 0 93.5 -22.5t56.5 -67.5l20 78h72l-76 -487h-77l7 81q-60 -93 -180 -93zM414 245q2 15 3 28.5t1 25.5q0 69 -32.5 100t-84.5 31q-69 0 -113 -44t-59 -143q-2 -14 -3.5 -30.5
t-1.5 -28.5q0 -127 116 -127q31 0 59.5 10.5t51.5 33.5t39 58.5t24 85.5zM475 635q0 -32 -18.5 -48t-47.5 -16q-26 0 -39 12.5t-13 35.5q0 32 18.5 48.5t47.5 16.5q52 0 52 -49zM302 635q0 -32 -18.5 -48t-47.5 -16q-26 0 -39 12.5t-13 35.5q0 32 18.5 48.5t47.5 16.5
q52 0 52 -49z" />
    <glyph glyph-name="ae" unicode="&#xe6;" horiz-adv-x="848" 
d="M171 -12q-63 0 -101.5 32t-38.5 97q0 34 12.5 65.5t39.5 55.5t70.5 38.5t106.5 14.5h122q2 13 3.5 23t1.5 21q0 55 -28.5 75t-82.5 20q-53 0 -89.5 -18t-61.5 -47l-38 52q34 41 83 61.5t121 20.5q61 0 102.5 -20t58.5 -68q64 88 188 88q92 0 134 -50t42 -132
q0 -21 -3 -44t-11 -47h-346q-3 -26 -3 -46q0 -68 31.5 -96t91.5 -28q49 0 84.5 16t64.5 61l58 -38q-38 -56 -89 -81.5t-128 -25.5q-145 0 -182 109q-32 -51 -85.5 -80t-127.5 -29zM196 57q69 0 114 40.5t59 122.5l1 6h-118q-68 0 -103 -25t-35 -73q0 -71 82 -71zM630 431
q-58 0 -99 -32.5t-62 -107.5h265q1 8 1.5 15t0.5 14q0 57 -27.5 84t-78.5 27z" />
    <glyph glyph-name="agrave" unicode="&#xe0;" horiz-adv-x="578" 
d="M210 -12q-83 0 -126.5 48t-43.5 141q0 15 2 32.5t4 34.5q17 126 81 190.5t167 64.5q54 0 93.5 -22.5t56.5 -67.5l20 78h72l-76 -487h-77l7 81q-60 -93 -180 -93zM414 245q2 15 3 28.5t1 25.5q0 69 -32.5 100t-84.5 31q-69 0 -113 -44t-59 -143q-2 -14 -3.5 -30.5
t-1.5 -28.5q0 -127 116 -127q31 0 59.5 10.5t51.5 33.5t39 58.5t24 85.5zM194 685l1 6h107l57 -113v-4h-67z" />
    <glyph glyph-name="amacron" unicode="&#x101;" horiz-adv-x="578" 
d="M210 -12q-83 0 -126.5 48t-43.5 141q0 15 2 32.5t4 34.5q17 126 81 190.5t167 64.5q54 0 93.5 -22.5t56.5 -67.5l20 78h72l-76 -487h-77l7 81q-60 -93 -180 -93zM414 245q2 15 3 28.5t1 25.5q0 69 -32.5 100t-84.5 31q-69 0 -113 -44t-59 -143q-2 -14 -3.5 -30.5
t-1.5 -28.5q0 -127 116 -127q31 0 59.5 10.5t51.5 33.5t39 58.5t24 85.5zM450 601h-249l9 59h250z" />
    <glyph glyph-name="aogonek" unicode="&#x105;" horiz-adv-x="578" 
d="M399 -212q-20 0 -38.5 4t-32.5 14.5t-22.5 28.5t-8.5 45q0 50 26 85t61 52l6 64q-60 -93 -180 -93q-83 0 -126.5 48t-43.5 141q0 15 2 32.5t4 34.5q17 126 81 190.5t167 64.5q54 0 93.5 -22.5t56.5 -67.5l20 78h72l-76 -487h-3q-22 -2 -39.5 -13t-30 -26t-19 -33.5
t-6.5 -35.5q0 -24 12.5 -33.5t35.5 -9.5q36 0 65 18l10 -56q-20 -11 -40.5 -17t-45.5 -6zM414 245q2 15 3 28.5t1 25.5q0 69 -32.5 100t-84.5 31q-69 0 -113 -44t-59 -143q-2 -14 -3.5 -30.5t-1.5 -28.5q0 -127 116 -127q31 0 59.5 10.5t51.5 33.5t39 58.5t24 85.5z" />
    <glyph glyph-name="aring" unicode="&#xe5;" horiz-adv-x="578" 
d="M210 -12q-83 0 -126.5 48t-43.5 141q0 15 2 32.5t4 34.5q17 126 81 190.5t167 64.5q54 0 93.5 -22.5t56.5 -67.5l20 78h72l-76 -487h-77l7 81q-60 -93 -180 -93zM414 245q2 15 3 28.5t1 25.5q0 69 -32.5 100t-84.5 31q-69 0 -113 -44t-59 -143q-2 -14 -3.5 -30.5
t-1.5 -28.5q0 -127 116 -127q31 0 59.5 10.5t51.5 33.5t39 58.5t24 85.5zM318 547q-37 0 -60 21t-23 59q0 47 30.5 77.5t76.5 30.5q37 0 60 -21.5t23 -57.5q0 -48 -31 -78.5t-76 -30.5zM339 694q-24 0 -40.5 -17.5t-16.5 -46.5q0 -19 11 -30.5t28 -11.5q22 0 39.5 17.5
t17.5 46.5q0 19 -11 30.5t-28 11.5z" />
    <glyph glyph-name="atilde" unicode="&#xe3;" horiz-adv-x="578" 
d="M210 -12q-83 0 -126.5 48t-43.5 141q0 15 2 32.5t4 34.5q17 126 81 190.5t167 64.5q54 0 93.5 -22.5t56.5 -67.5l20 78h72l-76 -487h-77l7 81q-60 -93 -180 -93zM414 245q2 15 3 28.5t1 25.5q0 69 -32.5 100t-84.5 31q-69 0 -113 -44t-59 -143q-2 -14 -3.5 -30.5
t-1.5 -28.5q0 -127 116 -127q31 0 59.5 10.5t51.5 33.5t39 58.5t24 85.5zM489 684q-2 -29 -12 -48.5t-25 -31t-32.5 -16.5t-33.5 -5q-20 0 -36.5 6.5t-30.5 14t-27 14t-26 6.5q-18 0 -25.5 -11.5t-9.5 -25.5h-65q3 29 13 48.5t24.5 31t31 16.5t33.5 5q21 0 37.5 -6.5t31 -14
t27 -14t25.5 -6.5q18 0 26 11t10 26h64z" />
    <glyph glyph-name="cacute" unicode="&#x107;" horiz-adv-x="498" 
d="M361 574h-76v4l95 113h109l-1 -6zM453 95q-36 -60 -90.5 -83.5t-121.5 -23.5q-200 0 -200 191q0 14 1.5 30t3.5 33q20 130 85.5 193.5t172.5 63.5q85 0 128 -34t60 -90l-67 -32q-13 40 -40.5 63.5t-85.5 23.5q-71 0 -112.5 -45.5t-56.5 -142.5q-6 -35 -6 -62
q0 -68 30 -95.5t96 -27.5q45 0 80 16t64 61z" />
    <glyph glyph-name="ccaron" unicode="&#x10d;" horiz-adv-x="498" 
d="M185 689v2h92l54 -67l80 67h94v-2l-137 -115h-81zM453 95q-36 -60 -90.5 -83.5t-121.5 -23.5q-200 0 -200 191q0 14 1.5 30t3.5 33q20 130 85.5 193.5t172.5 63.5q85 0 128 -34t60 -90l-67 -32q-13 40 -40.5 63.5t-85.5 23.5q-71 0 -112.5 -45.5t-56.5 -142.5
q-6 -35 -6 -62q0 -68 30 -95.5t96 -27.5q45 0 80 16t64 61z" />
    <glyph glyph-name="ccedilla" unicode="&#xe7;" horiz-adv-x="498" 
d="M198 -233q-38 0 -67 15t-42 47l47 38q10 -23 24.5 -35t43.5 -12q24 0 40 10.5t16 33.5q0 21 -18.5 29t-47.5 8l-14 12l31 76q-170 14 -170 190q0 14 1.5 30t3.5 33q20 130 85.5 193.5t172.5 63.5q85 0 128 -34t60 -90l-67 -32q-13 40 -40.5 63.5t-85.5 23.5
q-71 0 -112.5 -45.5t-56.5 -142.5q-6 -35 -6 -62q0 -68 30 -95.5t96 -27.5q45 0 80 16t64 61l59 -39q-32 -52 -77.5 -76.5t-102.5 -29.5l-24 -48q31 -2 52.5 -21t21.5 -54q0 -25 -10.5 -43.5t-27.5 -31t-39.5 -18.5t-47.5 -6z" />
    <glyph glyph-name="ccircumflex" unicode="&#x109;" horiz-adv-x="498" 
d="M254 574h-94v3l137 114h82l101 -114v-3h-91l-55 69zM453 95q-36 -60 -90.5 -83.5t-121.5 -23.5q-200 0 -200 191q0 14 1.5 30t3.5 33q20 130 85.5 193.5t172.5 63.5q85 0 128 -34t60 -90l-67 -32q-13 40 -40.5 63.5t-85.5 23.5q-71 0 -112.5 -45.5t-56.5 -142.5
q-6 -35 -6 -62q0 -68 30 -95.5t96 -27.5q45 0 80 16t64 61z" />
    <glyph glyph-name="cdotaccent" unicode="&#x10b;" horiz-adv-x="498" 
d="M453 95q-36 -60 -90.5 -83.5t-121.5 -23.5q-200 0 -200 191q0 14 1.5 30t3.5 33q20 130 85.5 193.5t172.5 63.5q85 0 128 -34t60 -90l-67 -32q-13 40 -40.5 63.5t-85.5 23.5q-71 0 -112.5 -45.5t-56.5 -142.5q-6 -35 -6 -62q0 -68 30 -95.5t96 -27.5q45 0 80 16t64 61z
M394 635q0 -32 -18.5 -48t-47.5 -16q-26 0 -39 12.5t-13 35.5q0 32 18.5 48.5t47.5 16.5q52 0 52 -49z" />
    <glyph glyph-name="dcaron" unicode="&#x10f;" horiz-adv-x="634" 
d="M609 480l41 220h86l-67 -220h-60zM385 0l8 82q-31 -47 -77 -70.5t-105 -23.5q-84 0 -127 48t-43 141q0 16 1.5 32.5t3.5 34.5q17 125 81 190t167 65q52 0 90.5 -20t58.5 -62l45 283h84l-111 -700h-76zM417 245q2 15 3 28.5t1 25.5q0 69 -33 100t-87 31q-72 0 -113 -45
t-58 -142q-4 -22 -5 -33.5t-1 -25.5q0 -65 29.5 -96t86.5 -31q64 0 112.5 44t64.5 144z" />
    <glyph glyph-name="dcroat" unicode="&#x111;" horiz-adv-x="596" 
d="M551 557l-88 -557h-78l8 82q-31 -47 -77 -70.5t-105 -23.5q-84 0 -127 48t-43 141q0 16 1.5 32.5t3.5 34.5q17 125 81 190t167 65q53 0 91.5 -21t57.5 -63l23 142h-153l9 58h153l14 85h85l-14 -85h77l-9 -58h-77zM417 245q2 15 3 28.5t1 25.5q0 69 -33 100t-87 31
q-72 0 -114 -45t-58 -142q-2 -16 -3.5 -30.5t-1.5 -28.5q0 -65 29.5 -96t86.5 -31q64 0 112.5 44t64.5 144z" />
    <glyph glyph-name="dotlessi" unicode="&#x131;" horiz-adv-x="246" 
d="M204 487l-76 -487h-85l76 487h85z" />
    <glyph glyph-name="dotlessj" unicode="&#x237;" horiz-adv-x="246" 
d="M120 487h84l-81 -515q-14 -90 -61 -131.5t-116 -41.5q-20 0 -36.5 2.5t-38.5 10.5l26 72q13 -5 24.5 -8t28.5 -3q16 0 30.5 5t25.5 17.5t19.5 33.5t13.5 53z" />
    <glyph glyph-name="eacute" unicode="&#xe9;" horiz-adv-x="516" 
d="M354 574h-76v4l95 113h109l-1 -6zM236 -12q-94 0 -144.5 46t-50.5 146q0 14 1.5 30t3.5 33q18 126 85 191t179 65q46 0 79 -13.5t54.5 -37.5t31.5 -57.5t10 -73.5q0 -24 -3.5 -48.5t-9.5 -50.5h-346q0 -1 -0.5 -5.5t-1 -10.5t-0.5 -12v-10q0 -67 30.5 -95t90.5 -28
q50 0 85.5 15.5t64.5 60.5l58 -38q-38 -56 -89 -81.5t-128 -25.5zM300 431q-62 0 -103 -33.5t-60 -113.5h265q1 8 1.5 17t0.5 19q0 60 -27 85.5t-77 25.5z" />
    <glyph glyph-name="ebreve" unicode="&#x115;" horiz-adv-x="516" 
d="M236 -12q-94 0 -144.5 46t-50.5 146q0 14 1.5 30t3.5 33q18 126 85 191t179 65q46 0 79 -13.5t54.5 -37.5t31.5 -57.5t10 -73.5q0 -24 -3.5 -48.5t-9.5 -50.5h-346q0 -1 -0.5 -5.5t-1 -10.5t-0.5 -12v-10q0 -67 30.5 -95t90.5 -28q50 0 85.5 15.5t64.5 60.5l58 -38
q-38 -56 -89 -81.5t-128 -25.5zM300 431q-62 0 -103 -33.5t-60 -113.5h265q1 8 1.5 17t0.5 19q0 60 -27 85.5t-77 25.5zM474 691q-5 -35 -18 -59t-33 -38t-46.5 -20t-59.5 -6t-58 6t-41.5 20t-22.5 38t-1 59h66q-7 -39 9 -53t53 -14q38 0 59 14t27 53h66z" />
    <glyph glyph-name="ecaron" unicode="&#x11b;" horiz-adv-x="515" 
d="M180 689v2h92l54 -67l80 67h94v-2l-137 -115h-81zM236 -12q-94 0 -144.5 46t-50.5 146q0 14 1.5 30t3.5 33q18 126 85 191t179 65q46 0 79 -13.5t54.5 -37.5t31.5 -57.5t10 -73.5q0 -24 -3.5 -48.5t-9.5 -50.5h-346q0 -1 -0.5 -5.5t-1 -10.5t-0.5 -12v-10q0 -67 30.5 -95
t90.5 -28q50 0 85.5 15.5t64.5 60.5l58 -38q-38 -56 -89 -81.5t-128 -25.5zM300 431q-62 0 -103 -33.5t-60 -113.5h265q1 8 1.5 17t0.5 19q0 60 -27 85.5t-77 25.5z" />
    <glyph glyph-name="ecircumflex" unicode="&#xea;" horiz-adv-x="516" 
d="M248 574h-94v3l137 114h82l101 -114v-3h-91l-55 69zM236 -12q-94 0 -144.5 46t-50.5 146q0 14 1.5 30t3.5 33q18 126 85 191t179 65q46 0 79 -13.5t54.5 -37.5t31.5 -57.5t10 -73.5q0 -24 -3.5 -48.5t-9.5 -50.5h-346q0 -1 -0.5 -5.5t-1 -10.5t-0.5 -12v-10
q0 -67 30.5 -95t90.5 -28q50 0 85.5 15.5t64.5 60.5l58 -38q-38 -56 -89 -81.5t-128 -25.5zM300 431q-62 0 -103 -33.5t-60 -113.5h265q1 8 1.5 17t0.5 19q0 60 -27 85.5t-77 25.5z" />
    <glyph glyph-name="edieresis" unicode="&#xeb;" horiz-adv-x="516" 
d="M472 635q0 -32 -18.5 -48t-47.5 -16q-26 0 -39 12.5t-13 35.5q0 32 18.5 48.5t47.5 16.5q52 0 52 -49zM299 635q0 -32 -18.5 -48t-47.5 -16q-26 0 -39 12.5t-13 35.5q0 32 18.5 48.5t47.5 16.5q52 0 52 -49zM236 -12q-94 0 -144.5 46t-50.5 146q0 14 1.5 30t3.5 33
q18 126 85 191t179 65q46 0 79 -13.5t54.5 -37.5t31.5 -57.5t10 -73.5q0 -24 -3.5 -48.5t-9.5 -50.5h-346q0 -1 -0.5 -5.5t-1 -10.5t-0.5 -12v-10q0 -67 30.5 -95t90.5 -28q50 0 85.5 15.5t64.5 60.5l58 -38q-38 -56 -89 -81.5t-128 -25.5zM300 431q-62 0 -103 -33.5
t-60 -113.5h265q1 8 1.5 17t0.5 19q0 60 -27 85.5t-77 25.5z" />
    <glyph glyph-name="edotaccent" unicode="&#x117;" horiz-adv-x="516" 
d="M236 -12q-94 0 -144.5 46t-50.5 146q0 14 1.5 30t3.5 33q18 126 85 191t179 65q46 0 79 -13.5t54.5 -37.5t31.5 -57.5t10 -73.5q0 -24 -3.5 -48.5t-9.5 -50.5h-346q0 -1 -0.5 -5.5t-1 -10.5t-0.5 -12v-10q0 -67 30.5 -95t90.5 -28q50 0 85.5 15.5t64.5 60.5l58 -38
q-38 -56 -89 -81.5t-128 -25.5zM300 431q-62 0 -103 -33.5t-60 -113.5h265q1 8 1.5 17t0.5 19q0 60 -27 85.5t-77 25.5zM388 635q0 -32 -18.5 -48t-47.5 -16q-26 0 -39 12.5t-13 35.5q0 32 18.5 48.5t47.5 16.5q52 0 52 -49z" />
    <glyph glyph-name="egrave" unicode="&#xe8;" horiz-adv-x="516" 
d="M236 -12q-94 0 -144.5 46t-50.5 146q0 14 1.5 30t3.5 33q18 126 85 191t179 65q46 0 79 -13.5t54.5 -37.5t31.5 -57.5t10 -73.5q0 -24 -3.5 -48.5t-9.5 -50.5h-346q0 -1 -0.5 -5.5t-1 -10.5t-0.5 -12v-10q0 -67 30.5 -95t90.5 -28q50 0 85.5 15.5t64.5 60.5l58 -38
q-38 -56 -89 -81.5t-128 -25.5zM300 431q-62 0 -103 -33.5t-60 -113.5h265q1 8 1.5 17t0.5 19q0 60 -27 85.5t-77 25.5zM192 685l1 6h107l57 -113v-4h-67z" />
    <glyph glyph-name="emacron" unicode="&#x113;" horiz-adv-x="516" 
d="M236 -12q-94 0 -144.5 46t-50.5 146q0 14 1.5 30t3.5 33q18 126 85 191t179 65q46 0 79 -13.5t54.5 -37.5t31.5 -57.5t10 -73.5q0 -24 -3.5 -48.5t-9.5 -50.5h-346q0 -1 -0.5 -5.5t-1 -10.5t-0.5 -12v-10q0 -67 30.5 -95t90.5 -28q50 0 85.5 15.5t64.5 60.5l58 -38
q-38 -56 -89 -81.5t-128 -25.5zM300 431q-62 0 -103 -33.5t-60 -113.5h265q1 8 1.5 17t0.5 19q0 60 -27 85.5t-77 25.5zM447 601h-249l9 59h250z" />
    <glyph glyph-name="eng" unicode="&#x14b;" 
d="M443 288q2 11 3 22t1 20q0 96 -99 96q-34 0 -64 -12.5t-54.5 -36t-41.5 -57t-24 -75.5l-38 -245h-85l77 487h73l-5 -91q36 56 87.5 79.5t107.5 23.5q78 0 115.5 -38.5t37.5 -108.5q0 -13 -1 -25.5t-3 -26.5l-52 -328q-14 -92 -61.5 -132.5t-115.5 -40.5q-20 0 -36.5 2.5
t-37.5 10.5l25 72q13 -5 25 -8t29 -3q33 0 56 23.5t33 87.5z" />
    <glyph glyph-name="eogonek" unicode="&#x119;" horiz-adv-x="516" 
d="M271 -212q-20 0 -38.5 4t-32.5 14.5t-22.5 28.5t-8.5 45q0 35 13 62t33 47q-85 5 -129.5 51t-44.5 140q0 14 1.5 30t3.5 33q18 126 85 191t179 65q46 0 79 -13.5t54.5 -37.5t31.5 -57.5t10 -73.5q0 -24 -3.5 -48.5t-9.5 -50.5h-347q-1 -11 -1 -20.5v-17.5q0 -67 30.5 -95
t90.5 -28q50 0 85.5 15.5t64.5 60.5l58 -38q-29 -43 -65 -67.5t-85 -33.5q-33 -13 -51 -43t-18 -59q0 -24 12.5 -33.5t35.5 -9.5q36 0 65 18l10 -56q-20 -11 -40.5 -17t-45.5 -6zM300 431q-62 0 -103 -33.5t-60 -113.5h265q1 8 1.5 17t0.5 19q0 60 -27 85.5t-77 25.5z" />
    <glyph glyph-name="eth" unicode="&#xf0;" horiz-adv-x="557" 
d="M557 671l-87 -52q22 -35 34 -74t16 -82t2 -89t-8 -95l-2 -17q-17 -142 -86.5 -208t-181.5 -66q-99 0 -151 46t-52 148q0 14 1.5 28.5t3.5 31.5q17 131 84.5 192.5t180.5 61.5q91 0 136 -56q-3 41 -14 75.5t-31 63.5l-90 -53l-24 47l78 47q-47 41 -118 61l36 59
q95 -23 152 -79l97 56zM426 241q2 17 3.5 33t1.5 29q0 68 -30.5 96.5t-92.5 28.5q-78 0 -122 -43t-58 -144q-2 -17 -3.5 -32t-1.5 -28q0 -66 31.5 -95t93.5 -29q73 0 118 42.5t60 141.5z" />
    <glyph glyph-name="gbreve" unicode="&#x11f;" horiz-adv-x="576" 
d="M462 26q-9 -60 -32.5 -102.5t-58.5 -70.5t-80.5 -41t-97.5 -13q-71 0 -120 25t-71 90l66 44q17 -50 48.5 -69.5t81.5 -19.5q35 0 65 8.5t53.5 26.5t39 46.5t21.5 69.5l10 69q-30 -44 -74 -65.5t-100 -21.5q-84 0 -128.5 47t-44.5 141q0 14 1 29t3 32q17 121 78 184.5
t161 63.5q60 0 101.5 -22.5t59.5 -69.5l20 80h70zM414 253q2 13 3 26t1 24q0 68 -34 98t-87 30q-72 0 -113.5 -42.5t-55.5 -136.5q-2 -17 -3.5 -30.5t-1.5 -27.5q0 -64 29.5 -93.5t86.5 -29.5q31 0 59.5 10t51.5 32t39.5 56.5t24.5 83.5zM470 691q-5 -35 -18 -59t-33 -38
t-46.5 -20t-59.5 -6t-58 6t-41.5 20t-22.5 38t-1 59h66q-7 -39 9 -53t53 -14q38 0 59 14t27 53h66z" />
    <glyph glyph-name="gcircumflex" unicode="&#x11d;" horiz-adv-x="576" 
d="M244 574h-94v3l137 114h82l101 -114v-3h-91l-55 69zM462 26q-9 -60 -32.5 -102.5t-58.5 -70.5t-80.5 -41t-97.5 -13q-71 0 -120 25t-71 90l66 44q17 -50 48.5 -69.5t81.5 -19.5q35 0 65 8.5t53.5 26.5t39 46.5t21.5 69.5l10 69q-30 -44 -74 -65.5t-100 -21.5
q-84 0 -128.5 47t-44.5 141q0 14 1 29t3 32q17 121 78 184.5t161 63.5q60 0 101.5 -22.5t59.5 -69.5l20 80h70zM414 253q2 13 3 26t1 24q0 68 -34 98t-87 30q-72 0 -113.5 -42.5t-55.5 -136.5q-2 -17 -3.5 -30.5t-1.5 -27.5q0 -64 29.5 -93.5t86.5 -29.5q31 0 59.5 10
t51.5 32t39.5 56.5t24.5 83.5z" />
    <glyph glyph-name="gcommaaccent" unicode="&#x123;" horiz-adv-x="576" 
d="M462 26q-9 -60 -32.5 -102.5t-58.5 -70.5t-80.5 -41t-97.5 -13q-71 0 -120 25t-71 90l66 44q17 -50 48.5 -69.5t81.5 -19.5q35 0 65 8.5t53.5 26.5t39 46.5t21.5 69.5l10 69q-30 -44 -74 -65.5t-100 -21.5q-84 0 -128.5 47t-44.5 141q0 14 1 29t3 32q17 121 78 184.5
t161 63.5q60 0 101.5 -22.5t59.5 -69.5l20 80h70zM414 253q2 13 3 26t1 24q0 68 -34 98t-87 30q-72 0 -113.5 -42.5t-55.5 -136.5q-2 -17 -3.5 -30.5t-1.5 -27.5q0 -64 29.5 -93.5t86.5 -29.5q31 0 59.5 10t51.5 32t39.5 56.5t24.5 83.5zM411 747q-25 -8 -42 -27.5
t-23 -47.5h5q23 0 36.5 -12t13.5 -35q0 -30 -17 -45t-43 -15q-24 0 -38 13.5t-14 44.5q0 26 7.5 52.5t22 49t35 38.5t47.5 22z" />
    <glyph glyph-name="gdotaccent" unicode="&#x121;" horiz-adv-x="576" 
d="M462 26q-9 -60 -32.5 -102.5t-58.5 -70.5t-80.5 -41t-97.5 -13q-71 0 -120 25t-71 90l66 44q17 -50 48.5 -69.5t81.5 -19.5q35 0 65 8.5t53.5 26.5t39 46.5t21.5 69.5l10 69q-30 -44 -74 -65.5t-100 -21.5q-84 0 -128.5 47t-44.5 141q0 14 1 29t3 32q17 121 78 184.5
t161 63.5q60 0 101.5 -22.5t59.5 -69.5l20 80h70zM414 253q2 13 3 26t1 24q0 68 -34 98t-87 30q-72 0 -113.5 -42.5t-55.5 -136.5q-2 -17 -3.5 -30.5t-1.5 -27.5q0 -64 29.5 -93.5t86.5 -29.5q31 0 59.5 10t51.5 32t39.5 56.5t24.5 83.5zM383 635q0 -32 -18.5 -48t-47.5 -16
q-26 0 -39 12.5t-13 35.5q0 32 18.5 48.5t47.5 16.5q52 0 52 -49z" />
    <glyph glyph-name="germandbls" unicode="&#xdf;" horiz-adv-x="567" 
d="M285 341l11 69h50q54 0 87 31t33 97q0 52 -31.5 77.5t-86.5 25.5q-64 0 -103.5 -36.5t-51.5 -111.5l-78 -493h-84l80 507q16 100 80 152.5t164 52.5q90 0 142 -44t52 -125q0 -61 -27 -103.5t-67 -64.5q89 -40 89 -146q0 -53 -16.5 -96.5t-46.5 -75t-71 -48.5t-89 -17
q-35 0 -61.5 6.5t-54.5 20.5l27 67q17 -9 39.5 -15t45.5 -6q66 0 105.5 41.5t39.5 117.5q0 24 -6 45t-21 37t-39 25.5t-60 9.5h-51z" />
    <glyph glyph-name="hbar" unicode="&#x127;" horiz-adv-x="606" 
d="M75 615h78l14 85h85l-14 -85h152l-8 -58h-153l-26 -164q35 57 86 81.5t107 24.5q78 0 115.5 -38.5t37.5 -108.5q0 -13 -1 -25.5t-3 -26.5l-47 -300h-85l45 288q2 11 3 22t1 21q0 95 -99 95q-69 0 -119 -50t-65 -138l-38 -238h-85l88 557h-78z" />
    <glyph glyph-name="hcircumflex" unicode="&#x125;" horiz-adv-x="590" 
d="M136 749h-94v3l137 114h82l101 -114v-3h-91l-55 69zM186 391q35 58 87 83t108 25q78 0 115.5 -38.5t37.5 -108.5q0 -13 -1.5 -25.5t-3.5 -26.5l-47 -300h-84l46 288q3 22 3 43q0 95 -99 95q-34 0 -64.5 -13t-54.5 -37t-41.5 -59t-24.5 -79l-38 -238h-84l111 700h84z" />
    <glyph glyph-name="iacute" unicode="&#xed;" horiz-adv-x="246" 
d="M204 487l-76 -487h-85l76 487h85zM209 574h-76v4l95 113h109l-1 -6z" />
    <glyph glyph-name="ibreve" unicode="&#x12d;" horiz-adv-x="246" 
d="M204 487l-76 -487h-85l76 487h85zM329 691q-5 -35 -18 -59t-33 -38t-46.5 -20t-59.5 -6t-58 6t-41.5 20t-22.5 38t-1 59h66q-7 -39 9 -53t53 -14q38 0 59 14t27 53h66z" />
    <glyph glyph-name="icircumflex" unicode="&#xee;" horiz-adv-x="246" 
d="M204 487l-76 -487h-85l76 487h85zM103 574h-94v3l137 114h82l101 -114v-3h-91l-55 69z" />
    <glyph glyph-name="idieresis" unicode="&#xef;" horiz-adv-x="246" 
d="M204 487l-76 -487h-85l76 487h85zM327 635q0 -32 -18.5 -48t-47.5 -16q-26 0 -39 12.5t-13 35.5q0 32 18.5 48.5t47.5 16.5q52 0 52 -49zM154 635q0 -32 -18.5 -48t-47.5 -16q-26 0 -39 12.5t-13 35.5q0 32 18.5 48.5t47.5 16.5q52 0 52 -49z" />
    <glyph glyph-name="idotaccent" horiz-adv-x="246" 
d="M177 571q-26 0 -39 12.5t-13 35.5q0 32 18.5 48.5t47.5 16.5q52 0 52 -49q0 -32 -18.5 -48t-47.5 -16zM204 487l-76 -487h-85l76 487h85z" />
    <glyph glyph-name="igrave" unicode="&#xec;" horiz-adv-x="246" 
d="M204 487l-76 -487h-85l76 487h85zM46 685l1 6h107l57 -113v-4h-67z" />
    <glyph glyph-name="ij" unicode="&#x133;" horiz-adv-x="517" 
d="M177 571q-26 0 -39 12.5t-13 35.5q0 32 18.5 48.5t47.5 16.5q52 0 52 -49q0 -32 -18.5 -48t-47.5 -16zM204 487l-76 -487h-85l76 487h85zM390 487h84l-81 -515q-14 -90 -61 -131.5t-116 -41.5q-20 0 -36.5 2.5t-38.5 10.5l26 72q13 -5 24.5 -8t28.5 -3q16 0 30.5 5
t25.5 17.5t19.5 33.5t13.5 53zM447 571q-26 0 -39 12.5t-13 35.5q0 32 18.5 48.5t47.5 16.5q52 0 52 -49q0 -32 -18.5 -48t-47.5 -16z" />
    <glyph glyph-name="imacron" unicode="&#x12b;" horiz-adv-x="246" 
d="M204 487l-76 -487h-85l76 487h85zM302 601h-249l9 59h250z" />
    <glyph glyph-name="iogonek" unicode="&#x12f;" horiz-adv-x="246" 
d="M177 571q-26 0 -39 12.5t-13 35.5q0 32 18.5 48.5t47.5 16.5q52 0 52 -49q0 -32 -18.5 -48t-47.5 -16zM24 -212q-20 0 -38 4t-32.5 14.5t-23 28.5t-8.5 45q0 31 11 57t29 45t40.5 31.5t45.5 18.5l71 455h85l-76 -487h-42q-23 -2 -41.5 -12.5t-31 -26t-19.5 -33.5t-7 -36
q0 -24 12.5 -33.5t36.5 -9.5q35 0 65 18l9 -56q-20 -11 -40.5 -17t-45.5 -6z" />
    <glyph glyph-name="itilde" unicode="&#x129;" horiz-adv-x="246" 
d="M204 487l-76 -487h-85l76 487h85zM341 684q-2 -29 -12 -48.5t-25 -31t-32.5 -16.5t-33.5 -5q-20 0 -36.5 6.5t-30.5 14t-27 14t-26 6.5q-18 0 -25.5 -11.5t-9.5 -25.5h-65q3 29 13 48.5t24.5 31t31 16.5t33.5 5q21 0 37.5 -6.5t31 -14t27 -14t25.5 -6.5q18 0 26 11t10 26
h64z" />
    <glyph glyph-name="jcircumflex" unicode="&#x135;" horiz-adv-x="244" 
d="M120 487h84l-81 -515q-14 -90 -61 -131.5t-116 -41.5q-20 0 -36.5 2.5t-38.5 10.5l26 72q13 -5 24.5 -8t28.5 -3q16 0 30.5 5t25.5 17.5t19.5 33.5t13.5 53zM102 574h-94v3l137 114h82l101 -114v-3h-91l-55 69z" />
    <glyph glyph-name="kcommaaccent" unicode="&#x137;" horiz-adv-x="487" 
d="M158 -246q25 8 42 27.5t23 47.5h-5q-23 0 -36.5 12t-13.5 35q0 30 17 45t43 15q24 0 38 -13.5t14 -44.5q0 -26 -7.5 -52.5t-22 -49t-35 -38.5t-47.5 -22zM160 225l269 262h104l-230 -218l155 -269h-98l-120 211l-96 -90l-18 -121h-85l111 700h85z" />
    <glyph glyph-name="kgreenlandic" unicode="&#x138;" horiz-adv-x="495" 
d="M162 226l267 261h104l-230 -218l155 -269h-98l-120 211l-94 -88l-20 -123h-85l77 487h85z" />
    <glyph glyph-name="lacute" unicode="&#x13a;" horiz-adv-x="244" 
d="M238 788h-76v4l95 113h109l-1 -6zM125 0h-84l111 700h84z" />
    <glyph glyph-name="lcaron" unicode="&#x13e;" horiz-adv-x="293" 
d="M274 480l41 220h86l-67 -220h-60zM125 0h-84l111 700h84z" />
    <glyph glyph-name="lcommaaccent" unicode="&#x13c;" horiz-adv-x="247" 
d="M9 -246q25 8 42 27.5t23 47.5h-5q-23 0 -36.5 12t-13.5 35q0 30 17 45t43 15q24 0 38 -13.5t14 -44.5q0 -26 -7.5 -52.5t-22 -49t-35 -38.5t-47.5 -22zM129 0h-84l111 700h84z" />
    <glyph glyph-name="ldot" unicode="&#x140;" horiz-adv-x="338" 
d="M125 0h-84l111 700h84zM361 305q0 -32 -18.5 -48t-47.5 -16q-26 0 -39 12.5t-13 35.5q0 32 18.5 48.5t47.5 16.5q52 0 52 -49z" />
    <glyph glyph-name="lslash" unicode="&#x142;" horiz-adv-x="273" 
d="M207 411l119 85l-13 -82l-119 -84l-52 -330h-85l42 263l-106 -75l13 81l105 76l57 355h85z" />
    <glyph glyph-name="nacute" unicode="&#x144;" 
d="M373 574h-76v4l95 113h109l-1 -6zM118 487h73l-5 -91q36 56 87.5 79.5t107.5 23.5q78 0 115.5 -38.5t37.5 -108.5q0 -13 -1.5 -25.5t-3.5 -26.5l-47 -300h-84l46 288q2 11 2.5 22t0.5 20q0 96 -99 96q-34 0 -64 -12.5t-54.5 -36t-41.5 -57t-24 -75.5l-39 -245h-84z" />
    <glyph glyph-name="ncaron" unicode="&#x148;" 
d="M199 689v2h92l54 -67l80 67h94v-2l-137 -115h-81zM118 487h73l-5 -91q36 56 87.5 79.5t107.5 23.5q78 0 115.5 -38.5t37.5 -108.5q0 -13 -1.5 -25.5t-3.5 -26.5l-47 -300h-84l46 288q2 11 2.5 22t0.5 20q0 96 -99 96q-34 0 -64 -12.5t-54.5 -36t-41.5 -57t-24 -75.5
l-39 -245h-84z" />
    <glyph glyph-name="ncommaaccent" unicode="&#x146;" 
d="M185 -246q25 8 42 27.5t23 47.5h-5q-23 0 -36.5 12t-13.5 35q0 30 17 45t43 15q24 0 38 -13.5t14 -44.5q0 -26 -7.5 -52.5t-22 -49t-35 -38.5t-47.5 -22zM118 487h73l-5 -91q36 56 87.5 79.5t107.5 23.5q78 0 115.5 -38.5t37.5 -108.5q0 -13 -1.5 -25.5t-3.5 -26.5
l-47 -300h-84l46 288q2 11 2.5 22t0.5 20q0 96 -99 96q-34 0 -64 -12.5t-54.5 -36t-41.5 -57t-24 -75.5l-39 -245h-84z" />
    <glyph glyph-name="ntilde" unicode="&#xf1;" 
d="M118 487h73l-5 -91q36 56 87.5 79.5t107.5 23.5q78 0 115.5 -38.5t37.5 -108.5q0 -13 -1.5 -25.5t-3.5 -26.5l-47 -300h-84l46 288q2 11 2.5 22t0.5 20q0 96 -99 96q-34 0 -64 -12.5t-54.5 -36t-41.5 -57t-24 -75.5l-39 -245h-84zM505 684q-2 -29 -12 -48.5t-25 -31
t-32.5 -16.5t-33.5 -5q-20 0 -36.5 6.5t-30.5 14t-27 14t-26 6.5q-18 0 -25.5 -11.5t-9.5 -25.5h-65q3 29 13 48.5t24.5 31t31 16.5t33.5 5q21 0 37.5 -6.5t31 -14t27 -14t25.5 -6.5q18 0 26 11t10 26h64z" />
    <glyph glyph-name="oacute" unicode="&#xf3;" horiz-adv-x="553" 
d="M361 574h-76v4l95 113h109l-1 -6zM424 244q6 36 6 64q0 67 -31 94.5t-94 27.5q-38 0 -67.5 -9.5t-50.5 -31.5t-35 -57.5t-22 -87.5q-6 -38 -6 -66q0 -66 30 -93.5t92 -27.5q37 0 66.5 10t51.5 32t37 58t23 87zM46 245q19 132 87.5 193t179.5 61q100 0 150 -44.5
t50 -141.5q0 -16 -1.5 -32.5t-3.5 -35.5q-18 -132 -85.5 -194.5t-181.5 -62.5q-98 0 -149 45.5t-51 145.5q0 15 1.5 31.5t3.5 34.5z" />
    <glyph glyph-name="obreve" unicode="&#x14f;" horiz-adv-x="553" 
d="M424 244q6 36 6 64q0 67 -31 94.5t-94 27.5q-38 0 -67.5 -9.5t-50.5 -31.5t-35 -57.5t-22 -87.5q-6 -38 -6 -66q0 -66 30 -93.5t92 -27.5q37 0 66.5 10t51.5 32t37 58t23 87zM46 245q19 132 87.5 193t179.5 61q100 0 150 -44.5t50 -141.5q0 -16 -1.5 -32.5t-3.5 -35.5
q-18 -132 -85.5 -194.5t-181.5 -62.5q-98 0 -149 45.5t-51 145.5q0 15 1.5 31.5t3.5 34.5zM481 691q-5 -35 -18 -59t-33 -38t-46.5 -20t-59.5 -6t-58 6t-41.5 20t-22.5 38t-1 59h66q-7 -39 9 -53t53 -14q38 0 59 14t27 53h66z" />
    <glyph glyph-name="ocircumflex" unicode="&#xf4;" horiz-adv-x="553" 
d="M256 574h-94v3l137 114h82l101 -114v-3h-91l-55 69zM424 244q6 36 6 64q0 67 -31 94.5t-94 27.5q-38 0 -67.5 -9.5t-50.5 -31.5t-35 -57.5t-22 -87.5q-6 -38 -6 -66q0 -66 30 -93.5t92 -27.5q37 0 66.5 10t51.5 32t37 58t23 87zM46 245q19 132 87.5 193t179.5 61
q100 0 150 -44.5t50 -141.5q0 -16 -1.5 -32.5t-3.5 -35.5q-18 -132 -85.5 -194.5t-181.5 -62.5q-98 0 -149 45.5t-51 145.5q0 15 1.5 31.5t3.5 34.5z" />
    <glyph glyph-name="odieresis" unicode="&#xf6;" horiz-adv-x="553" 
d="M480 635q0 -32 -18.5 -48t-47.5 -16q-26 0 -39 12.5t-13 35.5q0 32 18.5 48.5t47.5 16.5q52 0 52 -49zM307 635q0 -32 -18.5 -48t-47.5 -16q-26 0 -39 12.5t-13 35.5q0 32 18.5 48.5t47.5 16.5q52 0 52 -49zM424 244q6 36 6 64q0 67 -31 94.5t-94 27.5q-38 0 -67.5 -9.5
t-50.5 -31.5t-35 -57.5t-22 -87.5q-6 -38 -6 -66q0 -66 30 -93.5t92 -27.5q37 0 66.5 10t51.5 32t37 58t23 87zM46 245q19 132 87.5 193t179.5 61q100 0 150 -44.5t50 -141.5q0 -16 -1.5 -32.5t-3.5 -35.5q-18 -132 -85.5 -194.5t-181.5 -62.5q-98 0 -149 45.5t-51 145.5
q0 15 1.5 31.5t3.5 34.5z" />
    <glyph glyph-name="oe" unicode="&#x153;" horiz-adv-x="897" 
d="M617 -12q-66 0 -110.5 22t-65.5 69q-68 -91 -200 -91q-200 0 -200 192q0 15 1 31t3 33q18 127 85 191t182 64q133 0 175 -94q70 94 204 94q46 0 79 -13.5t54.5 -37.5t31.5 -57.5t10 -73.5q0 -24 -3.5 -48.5t-9.5 -50.5h-347q-1 -11 -1 -20.5v-17.5q0 -67 30.5 -95
t90.5 -28q50 0 85.5 15.5t64.5 60.5l58 -38q-38 -56 -89 -81.5t-128 -25.5zM425 243q2 17 3.5 32t1.5 29q0 66 -30.5 96.5t-93.5 30.5q-76 0 -119.5 -45t-58.5 -143q-3 -17 -4 -32t-1 -29q0 -65 30 -95t93 -30q76 0 119.5 44.5t59.5 141.5zM681 431q-62 0 -103 -33.5
t-60 -113.5h265q1 8 1.5 17t0.5 19q0 60 -27 85.5t-77 25.5z" />
    <glyph glyph-name="ograve" unicode="&#xf2;" horiz-adv-x="553" 
d="M424 244q6 36 6 64q0 67 -31 94.5t-94 27.5q-38 0 -67.5 -9.5t-50.5 -31.5t-35 -57.5t-22 -87.5q-6 -38 -6 -66q0 -66 30 -93.5t92 -27.5q37 0 66.5 10t51.5 32t37 58t23 87zM46 245q19 132 87.5 193t179.5 61q100 0 150 -44.5t50 -141.5q0 -16 -1.5 -32.5t-3.5 -35.5
q-18 -132 -85.5 -194.5t-181.5 -62.5q-98 0 -149 45.5t-51 145.5q0 15 1.5 31.5t3.5 34.5zM199 685l1 6h107l57 -113v-4h-67z" />
    <glyph glyph-name="ohungarumlaut" unicode="&#x151;" horiz-adv-x="551" 
d="M299 691h100l-1 -6l-109 -111h-68v4zM442 691h109l-1 -6l-135 -111h-68v4zM424 244q6 36 6 64q0 67 -31 94.5t-94 27.5q-38 0 -67.5 -9.5t-50.5 -31.5t-35 -57.5t-22 -87.5q-6 -38 -6 -66q0 -66 30 -93.5t92 -27.5q37 0 66.5 10t51.5 32t37 58t23 87zM46 245
q19 132 87.5 193t179.5 61q100 0 150 -44.5t50 -141.5q0 -16 -1.5 -32.5t-3.5 -35.5q-18 -132 -85.5 -194.5t-181.5 -62.5q-98 0 -149 45.5t-51 145.5q0 15 1.5 31.5t3.5 34.5z" />
    <glyph glyph-name="omacron" unicode="&#x14d;" horiz-adv-x="553" 
d="M455 601h-249l9 59h250zM424 244q6 36 6 64q0 67 -31 94.5t-94 27.5q-38 0 -67.5 -9.5t-50.5 -31.5t-35 -57.5t-22 -87.5q-6 -38 -6 -66q0 -66 30 -93.5t92 -27.5q37 0 66.5 10t51.5 32t37 58t23 87zM46 245q19 132 87.5 193t179.5 61q100 0 150 -44.5t50 -141.5
q0 -16 -1.5 -32.5t-3.5 -35.5q-18 -132 -85.5 -194.5t-181.5 -62.5q-98 0 -149 45.5t-51 145.5q0 15 1.5 31.5t3.5 34.5z" />
    <glyph glyph-name="oslash" unicode="&#xf8;" horiz-adv-x="553" 
d="M593 487l-97 -87q17 -40 17 -94q0 -14 -1.5 -29.5t-3.5 -32.5q-17 -127 -85 -191.5t-182 -64.5q-101 0 -149 47l-39 -35h-85l91 82q-18 40 -18 98q0 15 1 31t3 33q18 127 85 191t181 64q102 0 153 -51l43 39h86zM404 394q-30 37 -97 37q-76 0 -119.5 -45t-59.5 -143
q-2 -17 -3.5 -32t-1.5 -29q0 -21 3 -39zM247 57q76 0 119.5 44.5t58.5 141.5q3 17 4 32t1 29q0 17 -3 34l-275 -249q29 -32 95 -32z" />
    <glyph glyph-name="otilde" unicode="&#xf5;" horiz-adv-x="553" 
d="M424 244q6 36 6 64q0 67 -31 94.5t-94 27.5q-38 0 -67.5 -9.5t-50.5 -31.5t-35 -57.5t-22 -87.5q-6 -38 -6 -66q0 -66 30 -93.5t92 -27.5q37 0 66.5 10t51.5 32t37 58t23 87zM46 245q19 132 87.5 193t179.5 61q100 0 150 -44.5t50 -141.5q0 -16 -1.5 -32.5t-3.5 -35.5
q-18 -132 -85.5 -194.5t-181.5 -62.5q-98 0 -149 45.5t-51 145.5q0 15 1.5 31.5t3.5 34.5zM493 684q-2 -29 -12 -48.5t-25 -31t-32.5 -16.5t-33.5 -5q-20 0 -36.5 6.5t-30.5 14t-27 14t-26 6.5q-18 0 -25.5 -11.5t-9.5 -25.5h-65q3 29 13 48.5t24.5 31t31 16.5t33.5 5
q21 0 37.5 -6.5t31 -14t27 -14t25.5 -6.5q18 0 26 11t10 26h64z" />
    <glyph glyph-name="racute" unicode="&#x155;" horiz-adv-x="352" 
d="M289 574h-76v4l95 113h109l-1 -6zM118 487h73l-5 -101q34 60 86 87.5t112 22.5l-14 -83q-85 9 -137.5 -38t-70.5 -141l-37 -234h-84z" />
    <glyph glyph-name="rcaron" unicode="&#x159;" horiz-adv-x="350" 
d="M121 689v2h92l54 -67l80 67h94v-2l-137 -115h-81zM118 487h73l-5 -101q34 60 86 87.5t112 22.5l-14 -83q-85 9 -137.5 -38t-70.5 -141l-37 -234h-84z" />
    <glyph glyph-name="rcommaaccent" unicode="&#x157;" horiz-adv-x="354" 
d="M10 -246q25 8 42 27.5t23 47.5h-5q-23 0 -36.5 12t-13.5 35q0 30 17 45t43 15q24 0 38 -13.5t14 -44.5q0 -26 -7.5 -52.5t-22 -49t-35 -38.5t-47.5 -22zM122 487h73l-5 -101q34 60 86 87.5t112 22.5l-14 -83q-85 9 -137.5 -38t-70.5 -141l-37 -234h-84z" />
    <glyph glyph-name="sacute" unicode="&#x15b;" horiz-adv-x="481" 
d="M328 574h-76v4l95 113h109l-1 -6zM220 55q62 0 88.5 22.5t26.5 57.5q0 26 -16.5 41.5t-63.5 27.5l-40 10q-72 18 -104.5 53t-32.5 83q0 66 50.5 107.5t142.5 41.5q35 0 61.5 -5.5t47 -16.5t35.5 -26.5t28 -34.5l-61 -48q-21 30 -46 46.5t-72 16.5q-54 0 -80 -21.5
t-26 -51.5q0 -23 15 -41.5t59 -29.5l48 -12q75 -18 106 -50t31 -82q0 -29 -10.5 -57t-34.5 -49.5t-63 -35t-96 -13.5q-74 0 -121.5 26t-71.5 82l66 38q19 -43 51.5 -61t82.5 -18z" />
    <glyph glyph-name="scaron" unicode="&#x161;" horiz-adv-x="481" 
d="M153 689v2h92l54 -67l80 67h94v-2l-137 -115h-81zM220 55q62 0 88.5 22.5t26.5 57.5q0 26 -16.5 41.5t-63.5 27.5l-40 10q-72 18 -104.5 53t-32.5 83q0 66 50.5 107.5t142.5 41.5q35 0 61.5 -5.5t47 -16.5t35.5 -26.5t28 -34.5l-61 -48q-21 30 -46 46.5t-72 16.5
q-54 0 -80 -21.5t-26 -51.5q0 -23 15 -41.5t59 -29.5l48 -12q75 -18 106 -50t31 -82q0 -29 -10.5 -57t-34.5 -49.5t-63 -35t-96 -13.5q-74 0 -121.5 26t-71.5 82l66 38q19 -43 51.5 -61t82.5 -18z" />
    <glyph glyph-name="scedilla" unicode="&#x15f;" horiz-adv-x="481" 
d="M171 -233q-38 0 -67 15t-42 47l47 38q10 -23 24.5 -35t43.5 -12q24 0 40 10.5t16 33.5q0 21 -18.5 29t-47.5 8l-14 12l31 76q-121 9 -164 107l66 38q19 -43 51.5 -61t82.5 -18q62 0 88.5 22.5t26.5 57.5q0 26 -16.5 41.5t-63.5 27.5l-40 10q-72 18 -104.5 53t-32.5 83
q0 66 50.5 107.5t142.5 41.5q35 0 61.5 -5.5t47 -16.5t35.5 -26.5t28 -34.5l-61 -48q-21 30 -46 46.5t-72 16.5q-54 0 -80 -21.5t-26 -51.5q0 -23 15 -41.5t59 -29.5l48 -12q75 -18 106 -50t31 -82q0 -27 -9 -52.5t-29 -47t-52.5 -36t-80.5 -18.5l-24 -48q31 -2 52.5 -21
t21.5 -54q0 -25 -10.5 -43.5t-27.5 -31t-39.5 -18.5t-47.5 -6z" />
    <glyph glyph-name="scircumflex" unicode="&#x15d;" horiz-adv-x="481" 
d="M222 574h-94v3l137 114h82l101 -114v-3h-91l-55 69zM220 55q62 0 88.5 22.5t26.5 57.5q0 26 -16.5 41.5t-63.5 27.5l-40 10q-72 18 -104.5 53t-32.5 83q0 66 50.5 107.5t142.5 41.5q35 0 61.5 -5.5t47 -16.5t35.5 -26.5t28 -34.5l-61 -48q-21 30 -46 46.5t-72 16.5
q-54 0 -80 -21.5t-26 -51.5q0 -23 15 -41.5t59 -29.5l48 -12q75 -18 106 -50t31 -82q0 -29 -10.5 -57t-34.5 -49.5t-63 -35t-96 -13.5q-74 0 -121.5 26t-71.5 82l66 38q19 -43 51.5 -61t82.5 -18z" />
    <glyph glyph-name="scommaaccent" unicode="&#x219;" horiz-adv-x="481" 
d="M136 -246q25 8 42 27.5t23 47.5h-5q-23 0 -36.5 12t-13.5 35q0 30 17 45t43 15q24 0 38 -13.5t14 -44.5q0 -26 -7.5 -52.5t-22 -49t-35 -38.5t-47.5 -22zM220 55q62 0 88.5 22.5t26.5 57.5q0 26 -16.5 41.5t-63.5 27.5l-40 10q-72 18 -104.5 53t-32.5 83q0 66 50.5 107.5
t142.5 41.5q35 0 61.5 -5.5t47 -16.5t35.5 -26.5t28 -34.5l-61 -48q-21 30 -46 46.5t-72 16.5q-54 0 -80 -21.5t-26 -51.5q0 -23 15 -41.5t59 -29.5l48 -12q75 -18 106 -50t31 -82q0 -29 -10.5 -57t-34.5 -49.5t-63 -35t-96 -13.5q-74 0 -121.5 26t-71.5 82l66 38
q19 -43 51.5 -61t82.5 -18z" />
    <glyph glyph-name="tbar" unicode="&#x167;" horiz-adv-x="334" 
d="M202 -12q-62 0 -97.5 30.5t-35.5 100.5q0 10 1 21.5t3 22.5l17 107h-85l10 58h84l15 92h-84l10 67h85l23 143h85l-23 -143h137l-11 -67h-137l-15 -92h136l-9 -58h-136l-14 -92q-2 -14 -3.5 -26t-1.5 -23q0 -35 15 -51.5t50 -16.5q19 0 32 3t27 8l3 -71q-27 -8 -43 -10.5
t-38 -2.5z" />
    <glyph glyph-name="tcaron" unicode="&#x165;" horiz-adv-x="329" 
d="M287 555l38 195h83l-63 -195h-58zM335 420h-138l-39 -247q-10 -60 5.5 -85.5t60.5 -25.5q16 0 29 2.5t27 7.5l3 -70q-27 -8 -43 -10.5t-31 -2.5q-67 0 -103 29.5t-36 94.5q0 16 2 31.5t4 29.5l39 246h-85l11 67h85l22 143h82l-22 -143h138z" />
    <glyph glyph-name="tcommaaccent" unicode="&#x163;" horiz-adv-x="329" 
d="M125 -246q25 8 42 27.5t23 47.5h-5q-23 0 -36.5 12t-13.5 35q0 30 17 45t43 15q24 0 38 -13.5t14 -44.5q0 -26 -7.5 -52.5t-22 -49t-35 -38.5t-47.5 -22zM335 420h-138l-39 -247q-10 -60 5.5 -85.5t60.5 -25.5q16 0 29 2.5t27 7.5l3 -70q-27 -8 -43 -10.5t-31 -2.5
q-67 0 -103 29.5t-36 94.5q0 16 2 31.5t4 29.5l39 246h-85l11 67h85l22 143h82l-22 -143h138z" />
    <glyph glyph-name="thorn" unicode="&#xfe;" horiz-adv-x="582" 
d="M191 406q64 93 182 93q83 0 125.5 -47.5t42.5 -141.5q0 -18 -1.5 -32t-3.5 -34q-17 -121 -80 -188.5t-169 -67.5q-52 0 -90.5 20.5t-58.5 63.5l-40 -258h-86l142 886h84zM165 242q-2 -15 -3 -28.5t-1 -26.5q0 -69 33 -100t87 -31q72 0 114 46.5t57 140.5q3 19 4.5 32
t1.5 30q0 64 -29 94.5t-85 30.5q-65 0 -114 -44.5t-65 -143.5z" />
    <glyph glyph-name="uacute" unicode="&#xfa;" horiz-adv-x="589" 
d="M379 574h-76v4l95 113h109l-1 -6zM219 -12q-82 0 -121 40.5t-39 114.5q0 12 0.5 23.5t2.5 24.5l47 296h85l-46 -284q-2 -12 -2 -23v-21q0 -101 99 -101q70 0 116.5 45.5t62.5 133.5l39 250h85l-78 -487h-73l7 86q-35 -53 -84 -75.5t-101 -22.5z" />
    <glyph glyph-name="ubreve" unicode="&#x16d;" horiz-adv-x="589" 
d="M219 -12q-82 0 -121 40.5t-39 114.5q0 12 0.5 23.5t2.5 24.5l47 296h85l-46 -284q-2 -12 -2 -23v-21q0 -101 99 -101q70 0 116.5 45.5t62.5 133.5l39 250h85l-78 -487h-73l7 86q-35 -53 -84 -75.5t-101 -22.5zM499 691q-5 -35 -18 -59t-33 -38t-46.5 -20t-59.5 -6t-58 6
t-41.5 20t-22.5 38t-1 59h66q-7 -39 9 -53t53 -14q38 0 59 14t27 53h66z" />
    <glyph glyph-name="ucircumflex" unicode="&#xfb;" horiz-adv-x="589" 
d="M273 574h-94v3l137 114h82l101 -114v-3h-91l-55 69zM219 -12q-82 0 -121 40.5t-39 114.5q0 12 0.5 23.5t2.5 24.5l47 296h85l-46 -284q-2 -12 -2 -23v-21q0 -101 99 -101q70 0 116.5 45.5t62.5 133.5l39 250h85l-78 -487h-73l7 86q-35 -53 -84 -75.5t-101 -22.5z" />
    <glyph glyph-name="udieresis" unicode="&#xfc;" horiz-adv-x="589" 
d="M497 635q0 -32 -18.5 -48t-47.5 -16q-26 0 -39 12.5t-13 35.5q0 32 18.5 48.5t47.5 16.5q52 0 52 -49zM324 635q0 -32 -18.5 -48t-47.5 -16q-26 0 -39 12.5t-13 35.5q0 32 18.5 48.5t47.5 16.5q52 0 52 -49zM219 -12q-82 0 -121 40.5t-39 114.5q0 12 0.5 23.5t2.5 24.5
l47 296h85l-46 -284q-2 -12 -2 -23v-21q0 -101 99 -101q70 0 116.5 45.5t62.5 133.5l39 250h85l-78 -487h-73l7 86q-35 -53 -84 -75.5t-101 -22.5z" />
    <glyph glyph-name="ugrave" unicode="&#xf9;" horiz-adv-x="589" 
d="M219 -12q-82 0 -121 40.5t-39 114.5q0 12 0.5 23.5t2.5 24.5l47 296h85l-46 -284q-2 -12 -2 -23v-21q0 -101 99 -101q70 0 116.5 45.5t62.5 133.5l39 250h85l-78 -487h-73l7 86q-35 -53 -84 -75.5t-101 -22.5zM217 685l1 6h107l57 -113v-4h-67z" />
    <glyph glyph-name="uhungarumlaut" unicode="&#x171;" horiz-adv-x="589" 
d="M219 -12q-82 0 -121 40.5t-39 114.5q0 12 0.5 23.5t2.5 24.5l47 296h85l-46 -284q-2 -12 -2 -23v-21q0 -101 99 -101q70 0 116.5 45.5t62.5 133.5l39 250h85l-78 -487h-73l7 86q-35 -53 -84 -75.5t-101 -22.5zM317 691h100l-1 -6l-109 -111h-68v4zM460 691h109l-1 -6
l-135 -111h-68v4z" />
    <glyph glyph-name="umacron" unicode="&#x16b;" horiz-adv-x="589" 
d="M219 -12q-82 0 -121 40.5t-39 114.5q0 12 0.5 23.5t2.5 24.5l47 296h85l-46 -284q-2 -12 -2 -23v-21q0 -101 99 -101q70 0 116.5 45.5t62.5 133.5l39 250h85l-78 -487h-73l7 86q-35 -53 -84 -75.5t-101 -22.5zM472 601h-249l9 59h250z" />
    <glyph glyph-name="uogonek" unicode="&#x173;" horiz-adv-x="589" 
d="M408 -212q-20 0 -38 4t-32.5 14.5t-23 28.5t-8.5 45q0 51 27.5 86.5t64.5 53.5l6 66q-35 -54 -84 -76t-101 -22q-82 0 -121 40.5t-39 114.5q0 26 3 49l47 295h86l-46 -283q-3 -24 -3 -44q0 -101 99 -101q70 0 116 45t62 133l39 250h86l-78 -487h-2q-23 -2 -40.5 -13
t-30.5 -26t-19.5 -33.5t-6.5 -35.5q0 -24 12.5 -33.5t36.5 -9.5q35 0 65 18l9 -56q-20 -11 -40.5 -17t-45.5 -6z" />
    <glyph glyph-name="uring" unicode="&#x16f;" horiz-adv-x="589" 
d="M340 547q-37 0 -60 21t-23 59q0 47 30.5 77.5t76.5 30.5q37 0 60 -21.5t23 -57.5q0 -48 -31 -78.5t-76 -30.5zM361 694q-24 0 -40.5 -17.5t-16.5 -46.5q0 -19 11 -30.5t28 -11.5q22 0 39.5 17.5t17.5 46.5q0 19 -11 30.5t-28 11.5zM219 -12q-82 0 -121 40.5t-39 114.5
q0 12 0.5 23.5t2.5 24.5l47 296h85l-46 -284q-2 -12 -2 -23v-21q0 -101 99 -101q70 0 116.5 45.5t62.5 133.5l39 250h85l-78 -487h-73l7 86q-35 -53 -84 -75.5t-101 -22.5z" />
    <glyph glyph-name="utilde" unicode="&#x169;" horiz-adv-x="589" 
d="M219 -12q-82 0 -121 40.5t-39 114.5q0 12 0.5 23.5t2.5 24.5l47 296h85l-46 -284q-2 -12 -2 -23v-21q0 -101 99 -101q70 0 116.5 45.5t62.5 133.5l39 250h85l-78 -487h-73l7 86q-35 -53 -84 -75.5t-101 -22.5zM511 684q-2 -29 -12 -48.5t-25 -31t-32.5 -16.5t-33.5 -5
q-20 0 -36.5 6.5t-30.5 14t-27 14t-26 6.5q-18 0 -25.5 -11.5t-9.5 -25.5h-65q3 29 13 48.5t24.5 31t31 16.5t33.5 5q21 0 37.5 -6.5t31 -14t27 -14t25.5 -6.5q18 0 26 11t10 26h64z" />
    <glyph glyph-name="wacute" unicode="&#x1e83;" horiz-adv-x="710" 
d="M432 484l52 -387l173 390h83l-228 -487h-89l-51 386l-169 -386h-89l-78 487h84l53 -390l171 387h88zM436 574h-76v4l95 113h109l-1 -6z" />
    <glyph glyph-name="wdieresis" unicode="&#x1e85;" horiz-adv-x="710" 
d="M432 484l52 -387l173 390h83l-228 -487h-89l-51 386l-169 -386h-89l-78 487h84l53 -390l171 387h88zM554 635q0 -32 -18.5 -48t-47.5 -16q-26 0 -39 12.5t-13 35.5q0 32 18.5 48.5t47.5 16.5q52 0 52 -49zM381 635q0 -32 -18.5 -48t-47.5 -16q-26 0 -39 12.5t-13 35.5
q0 32 18.5 48.5t47.5 16.5q52 0 52 -49z" />
    <glyph glyph-name="wgrave" unicode="&#x1e81;" horiz-adv-x="710" 
d="M432 484l52 -387l173 390h83l-228 -487h-89l-51 386l-169 -386h-89l-78 487h84l53 -390l171 387h88zM273 685l1 6h107l57 -113v-4h-67z" />
    <glyph glyph-name="wcircumflex" unicode="&#x175;" horiz-adv-x="710" 
d="M432 484l52 -387l173 390h83l-228 -487h-89l-51 386l-169 -386h-89l-78 487h84l53 -390l171 387h88zM330 574h-94v3l137 114h82l101 -114v-3h-91l-55 69z" />
    <glyph glyph-name="yacute" unicode="&#xfd;" horiz-adv-x="486" 
d="M156 -9l-119 496h88l89 -406l214 406h88l-312 -565q-40 -72 -87.5 -97.5t-103.5 -25.5q-20 0 -36.5 2.5t-37.5 10.5l25 72q15 -5 28.5 -8t33.5 -3q11 0 24.5 2t27.5 10t28.5 23t28.5 42zM327 574h-76v4l95 113h109l-1 -6z" />
    <glyph glyph-name="ycircumflex" unicode="&#x177;" horiz-adv-x="486" 
d="M156 -9l-119 496h88l89 -406l214 406h88l-312 -565q-40 -72 -87.5 -97.5t-103.5 -25.5q-20 0 -36.5 2.5t-37.5 10.5l25 72q15 -5 28.5 -8t33.5 -3q11 0 24.5 2t27.5 10t28.5 23t28.5 42zM221 574h-94v3l137 114h82l101 -114v-3h-91l-55 69z" />
    <glyph glyph-name="ydieresis" unicode="&#xff;" horiz-adv-x="486" 
d="M156 -9l-119 496h88l89 -406l214 406h88l-312 -565q-40 -72 -87.5 -97.5t-103.5 -25.5q-20 0 -36.5 2.5t-37.5 10.5l25 72q15 -5 28.5 -8t33.5 -3q11 0 24.5 2t27.5 10t28.5 23t28.5 42zM445 635q0 -32 -18.5 -48t-47.5 -16q-26 0 -39 12.5t-13 35.5q0 32 18.5 48.5
t47.5 16.5q52 0 52 -49zM272 635q0 -32 -18.5 -48t-47.5 -16q-26 0 -39 12.5t-13 35.5q0 32 18.5 48.5t47.5 16.5q52 0 52 -49z" />
    <glyph glyph-name="zacute" unicode="&#x17a;" horiz-adv-x="452" 
d="M311 574h-76v4l95 113h109l-1 -6zM-1 64l349 354h-288l11 69h385l-10 -65l-348 -353h301l-11 -69h-399z" />
    <glyph glyph-name="zcaron" unicode="&#x17e;" horiz-adv-x="452" 
d="M137 689v2h92l54 -67l80 67h94v-2l-137 -115h-81zM-1 64l349 354h-288l11 69h385l-10 -65l-348 -353h301l-11 -69h-399z" />
    <glyph glyph-name="zdotaccent" unicode="&#x17c;" horiz-adv-x="452" 
d="M-1 64l349 354h-288l11 69h385l-10 -65l-348 -353h301l-11 -69h-399zM345 635q0 -32 -18.5 -48t-47.5 -16q-26 0 -39 12.5t-13 35.5q0 32 18.5 48.5t47.5 16.5q52 0 52 -49z" />
    <glyph glyph-name="ordfeminine" unicode="&#xaa;" horiz-adv-x="409" 
d="M233 712q38 0 65 -16.5t39 -49.5l14 54h57l-54 -342h-60l4 55q-41 -66 -124 -66q-59 0 -90 34t-31 101q0 11 1 22.5t3 24.5q12 91 57.5 137t118.5 46zM314 530q3 19 3 37q0 47 -21.5 68.5t-56.5 21.5q-47 0 -76 -30.5t-40 -97.5q-2 -11 -3 -21t-1 -20q0 -44 20 -65
t58 -21q44 0 75.5 30t41.5 98z" />
    <glyph glyph-name="ordmasculine" unicode="&#xba;" horiz-adv-x="391" 
d="M324 529q3 22 3 41q0 46 -20 67t-63 21q-50 0 -80 -30t-41 -99q-3 -23 -3 -42q0 -86 83 -86q51 0 80.5 30.5t40.5 97.5zM57 529q12 91 61 137t131 46q71 0 107.5 -34.5t36.5 -104.5q0 -15 -0.5 -23t-2.5 -21q-13 -93 -62.5 -137.5t-129.5 -44.5q-71 0 -107.5 34.5
t-36.5 103.5q0 21 3 44z" />
    <glyph glyph-name="cordinal" horiz-adv-x="360" 
d="M349 424q-26 -43 -64.5 -60t-86.5 -17q-144 0 -144 137q0 21 4 44q14 96 62 140t123 44q60 0 90.5 -24t43.5 -65l-53 -27q-9 27 -27.5 44t-58.5 17q-50 0 -77 -32.5t-37 -96.5q-2 -14 -3 -23t-1 -20q0 -45 20 -64t65 -19q32 0 55.5 10.5t43.5 42.5z" />
    <glyph glyph-name="ampersand" unicode="&#x26;" horiz-adv-x="669" 
d="M655 476q-36 -216 -131 -337q27 -22 56.5 -44.5t62.5 -45.5l-50 -60q-70 47 -124 91q-104 -92 -251 -92q-45 0 -83.5 9t-66.5 28.5t-44 50.5t-16 76q0 42 14 75t38 60t55.5 49t65.5 43q-26 47 -35.5 86t-9.5 71q0 79 52.5 127.5t152.5 48.5q75 0 111.5 -29.5t36.5 -84.5
q0 -38 -15.5 -71t-42.5 -61.5t-63.5 -53.5t-78.5 -49q29 -38 73 -82.5t107 -97.5q38 51 65 124t41 169h80zM231 57q49 0 94.5 16.5t87.5 51.5q-67 57 -114.5 105.5t-79.5 92.5q-26 -15 -49 -31.5t-40 -36t-27.5 -42t-10.5 -50.5q0 -29 11 -49t29.5 -32.5t44 -18.5t54.5 -6z
M216 536q0 -24 8 -53.5t28 -64.5q75 43 115 80t40 82q0 31 -20 48t-58 17q-54 0 -83.5 -29t-29.5 -80z" />
    <glyph glyph-name="cedilla" unicode="&#xb8;" horiz-adv-x="575" 
d="M373 0l-31 -63q31 -2 52.5 -21t21.5 -54q0 -25 -10.5 -43.5t-27.5 -31t-39.5 -18.5t-47.5 -6q-38 0 -67 15t-42 47l47 38q10 -23 24.5 -35t43.5 -12q24 0 40 10.5t16 33.5q0 21 -18.5 29t-47.5 8l-14 12l37 91h63z" />
    <glyph glyph-name="ogonek" unicode="&#x2db;" horiz-adv-x="575" 
d="M284 -212q-20 0 -38.5 4t-32.5 14.5t-22.5 28.5t-8.5 45q0 37 15.5 66.5t39.5 49.5t53 30.5t55 10.5l1 -37q-23 -2 -41.5 -12.5t-31.5 -26t-19.5 -33.5t-6.5 -36q0 -24 12.5 -33.5t35.5 -9.5q36 0 65 18l10 -56q-20 -11 -40.5 -17t-45.5 -6z" />
    <glyph glyph-name="period" unicode="." horiz-adv-x="200" 
d="M68 -5q-26 0 -39.5 13t-13.5 36q0 32 19 48.5t47 16.5q53 0 53 -49q0 -32 -18.5 -48.5t-47.5 -16.5z" />
    <glyph glyph-name="comma" unicode="," horiz-adv-x="200" 
d="M-3 -94q29 10 49 33t28 55h-5q-25 0 -38.5 13t-13.5 35q0 33 18.5 49t44.5 16q24 0 38.5 -13.5t14.5 -45.5q0 -24 -6.5 -51.5t-21.5 -53t-39 -46t-58 -30.5z" />
    <glyph glyph-name="colon" unicode=":" horiz-adv-x="200" 
d="M63 -5q-26 0 -39.5 13t-13.5 36q0 32 19 48.5t47 16.5q53 0 53 -49q0 -32 -18.5 -48.5t-47.5 -16.5zM129 385q-26 0 -39.5 13t-13.5 36q0 32 19 48.5t47 16.5q53 0 53 -49q0 -32 -18.5 -48.5t-47.5 -16.5z" />
    <glyph glyph-name="semicolon" unicode=";" horiz-adv-x="200" 
d="M-3 -94q29 10 49 33t28 55h-5q-25 0 -38.5 13t-13.5 35q0 33 18.5 49t44.5 16q24 0 38.5 -13.5t14.5 -45.5q0 -24 -6.5 -51.5t-21.5 -53t-39 -46t-58 -30.5zM135 385q-26 0 -39.5 13t-13.5 36q0 32 19 48.5t47 16.5q53 0 53 -49q0 -32 -18.5 -48.5t-47.5 -16.5z" />
    <glyph glyph-name="ellipsis" unicode="&#x2026;" horiz-adv-x="651" 
d="M68 -5q-26 0 -39.5 13t-13.5 36q0 32 19 48.5t47 16.5q53 0 53 -49q0 -32 -18.5 -48.5t-47.5 -16.5zM293 -5q-25 0 -38.5 13t-13.5 36q0 32 18.5 48.5t47.5 16.5q52 0 52 -49q0 -32 -18.5 -48.5t-47.5 -16.5zM519 -5q-26 0 -39.5 13t-13.5 36q0 32 18.5 48.5t47.5 16.5
q53 0 53 -49q0 -32 -19 -48.5t-47 -16.5z" />
    <glyph glyph-name="exclam" unicode="!" horiz-adv-x="198" 
d="M125 196h-70l67 504h94zM60 -5q-25 0 -38 13t-13 36q0 32 18.5 48.5t47.5 16.5q24 0 37.5 -13t13.5 -36q0 -32 -18.5 -48.5t-47.5 -16.5z" />
    <glyph glyph-name="exclamdown" unicode="&#xa1;" horiz-adv-x="198" 
d="M124 302h70l-67 -504h-94zM189 503q25 0 38 -13t13 -36q0 -32 -18.5 -48.5t-47.5 -16.5q-24 0 -37.5 13t-13.5 36q0 32 18.5 48.5t47.5 16.5z" />
    <glyph glyph-name="exclamdown.cap" horiz-adv-x="198" 
d="M117 504h70l-67 -504h-94zM182 705q25 0 38 -13t13 -36q0 -32 -18.5 -48.5t-47.5 -16.5q-24 0 -37.5 13t-13.5 36q0 32 18.5 48.5t47.5 16.5z" />
    <glyph glyph-name="question" unicode="?" horiz-adv-x="456" 
d="M492 541q0 -57 -16.5 -100.5t-47.5 -74t-75 -48.5t-99 -23l-16 -99h-84l24 154h44q81 0 132 44.5t51 136.5q0 54 -35.5 80.5t-101.5 26.5q-57 0 -101.5 -23.5t-86.5 -87.5l-54 44q45 76 108.5 108.5t149.5 32.5q99 0 153.5 -44.5t54.5 -126.5zM166 -5q-52 0 -52 49
q0 32 18.5 48t47.5 16q52 0 52 -49q0 -32 -18.5 -48t-47.5 -16z" />
    <glyph glyph-name="questiondown" unicode="&#xbf;" horiz-adv-x="464" 
d="M9 -48q0 113 64 174t174 72l16 99h84l-24 -154h-44q-81 0 -132 -44.5t-51 -136.5q0 -54 35.5 -80.5t101.5 -26.5q57 0 101.5 23.5t86.5 87.5l54 -44q-45 -76 -108.5 -108.5t-149.5 -32.5q-99 0 -153.5 44.5t-54.5 126.5zM335 498q52 0 52 -49q0 -32 -18.5 -48t-47.5 -16
q-52 0 -52 49q0 32 18.5 48t47.5 16z" />
    <glyph glyph-name="questiondown.cap" horiz-adv-x="464" 
d="M1 166q0 113 64 174t174 72l16 99h84l-24 -154h-44q-81 0 -132 -44.5t-51 -136.5q0 -54 35.5 -80.5t101.5 -26.5q57 0 101.5 23.5t86.5 87.5l54 -44q-45 -76 -108.5 -108.5t-149.5 -32.5q-99 0 -153.5 44.5t-54.5 126.5zM327 712q52 0 52 -49q0 -32 -18.5 -48t-47.5 -16
q-52 0 -52 49q0 32 18.5 48t47.5 16z" />
    <glyph glyph-name="quoteleft" unicode="&#x2018;" horiz-adv-x="201" 
d="M238 699q-29 -10 -49 -33t-28 -55h5q25 0 38.5 -13t13.5 -35q0 -33 -18.5 -49t-44.5 -16q-24 0 -38.5 13.5t-14.5 45.5q0 24 6.5 51.5t21.5 53t38.5 46t58.5 30.5z" />
    <glyph glyph-name="quoteright" unicode="&#x2019;" horiz-adv-x="201" 
d="M82 520q29 10 49 33t28 55h-5q-25 0 -38.5 13t-13.5 35q0 33 18.5 49t44.5 16q24 0 38.5 -13.5t14.5 -45.5q0 -24 -6.5 -51.5t-21.5 -53t-39 -46t-58 -30.5z" />
    <glyph glyph-name="quotedblleft" unicode="&#x201c;" horiz-adv-x="357" 
d="M238 699q-29 -10 -49 -33t-28 -55h5q25 0 38.5 -13t13.5 -35q0 -33 -18.5 -49t-44.5 -16q-24 0 -38.5 13.5t-14.5 45.5q0 24 6.5 51.5t21.5 53t38.5 46t58.5 30.5zM396 699q-29 -10 -49 -33t-28 -55h5q25 0 38.5 -13t13.5 -35q0 -33 -18.5 -49t-44.5 -16
q-24 0 -38.5 13.5t-14.5 45.5q0 24 6.5 51.5t21.5 53t38.5 46t58.5 30.5z" />
    <glyph glyph-name="quotedblright" unicode="&#x201d;" horiz-adv-x="358" 
d="M82 517q29 10 49 33t28 55h-5q-25 0 -38.5 13t-13.5 35q0 33 18.5 49t44.5 16q24 0 38.5 -13.5t14.5 -45.5q0 -24 -6.5 -51.5t-21.5 -53t-39 -46t-58 -30.5zM240 517q29 10 49 33t28 55h-5q-25 0 -38.5 13t-13.5 35q0 33 18.5 49t44.5 16q24 0 38.5 -13.5t14.5 -45.5
q0 -24 -6.5 -51.5t-21.5 -53t-39 -46t-58 -30.5z" />
    <glyph glyph-name="quotesinglbase" unicode="&#x201a;" horiz-adv-x="201" 
d="M-4 -91q28 10 48 32.5t28 53.5h-5q-25 0 -38 13t-13 34q0 33 18 48.5t43 15.5q24 0 38 -13.5t14 -44.5q0 -23 -6 -50t-21 -52t-38.5 -45.5t-56.5 -29.5z" />
    <glyph glyph-name="quotedblbase" unicode="&#x201e;" horiz-adv-x="357" 
d="M-4 -92q28 10 48 32.5t28 53.5h-5q-25 0 -38 13t-13 34q0 33 18 48.5t43 15.5q24 0 38 -13.5t14 -44.5q0 -23 -6 -50t-21 -52t-38.5 -45.5t-56.5 -29.5zM152 -92q28 10 48 32.5t28 53.5h-5q-25 0 -38 13t-13 34q0 33 18 48.5t43 15.5q24 0 38 -13.5t14 -44.5
q0 -23 -6 -50t-21 -52t-38.5 -45.5t-56.5 -29.5z" />
    <glyph glyph-name="reversequoteleft" horiz-adv-x="186" 
d="M169 479q-46 17 -67 57t-21 89q0 53 17.5 75t43.5 22t42 -14t16 -40q0 -34 -19.5 -48t-48.5 -10q0 -31 15 -56t43 -36z" />
    <glyph glyph-name="reversequotedblleft" horiz-adv-x="341" 
d="M326 479q-46 17 -67.5 57t-21.5 89q0 53 17.5 75t44.5 22q26 0 42 -14t16 -40q0 -25 -16.5 -44.5t-51.5 -11.5q0 -32 14.5 -57.5t42.5 -36.5zM169 479q-46 17 -67 57t-21 89q0 53 17.5 75t43.5 22t42 -14t16 -40q0 -12 -4.5 -24t-13 -20.5t-21 -12.5t-29.5 1
q0 -32 15 -57.5t43 -36.5z" />
    <glyph glyph-name="guilsinglleft" unicode="&#x2039;" horiz-adv-x="389" 
d="M45 241l1 3l225 243h99l-230 -248l152 -239h-98z" />
    <glyph glyph-name="guilsinglright" unicode="&#x203a;" horiz-adv-x="389" 
d="M368 246l-1 -3l-225 -243h-99l230 248l-152 239h98z" />
    <glyph glyph-name="guillemotleft" unicode="&#xab;" horiz-adv-x="609" 
d="M47 241l1 3l227 243h100l-233 -249l150 -238h-94zM257 243v3l227 241h102l-235 -247l154 -240h-93z" />
    <glyph glyph-name="guillemotright" unicode="&#xbb;" horiz-adv-x="609" 
d="M586 246l-1 -3l-227 -243h-100l233 249l-150 238h94zM376 244v-3l-227 -241h-102l235 247l-154 240h93z" />
    <glyph glyph-name="slash" unicode="/" horiz-adv-x="471" 
d="M44 0h-93l507 700h92z" />
    <glyph glyph-name="backslash" unicode="\" horiz-adv-x="486" 
d="M48 700h89l302 -700h-90z" />
    <glyph glyph-name="bar" unicode="|" horiz-adv-x="266" 
d="M175 766h79l-131 -831h-79z" />
    <glyph glyph-name="doublebar" horiz-adv-x="418" 
d="M175 766h78l-131 -831h-78zM321 766h78l-131 -831h-78z" />
    <glyph glyph-name="brokenbar" unicode="&#xa6;" horiz-adv-x="266" 
d="M176 766h78l-60 -378h-77zM105 314h77l-59 -379h-78z" />
    <glyph glyph-name="bullet" unicode="&#x2022;" horiz-adv-x="397" 
d="M195 174q-66 0 -102 35.5t-36 95.5q0 39 12.5 71.5t35 55.5t53.5 35.5t68 12.5q66 0 102.5 -35.5t36.5 -95.5q0 -39 -12.5 -71.5t-35 -55.5t-54 -35.5t-68.5 -12.5z" />
    <glyph glyph-name="periodcentered" unicode="&#xb7;" horiz-adv-x="204" 
d="M98 280q-26 0 -39.5 13t-13.5 36q0 32 19 48.5t47 16.5q53 0 53 -49q0 -32 -18.5 -48.5t-47.5 -16.5z" />
    <glyph glyph-name="hyphen" unicode="-" horiz-adv-x="398" 
d="M370 299h-327l11 72h328z" />
    <glyph glyph-name="endash" unicode="&#x2013;" horiz-adv-x="552" 
d="M524 299h-481l12 72h481z" />
    <glyph glyph-name="emdash" unicode="&#x2014;" horiz-adv-x="748" 
d="M720 299h-677l12 72h677z" />
    <glyph glyph-name="parenleft" unicode="(" horiz-adv-x="312" 
d="M229 -81q-101 10 -149 76.5t-48 194.5q0 30 2.5 63t7.5 69q29 192 106 291t208 112l-4 -66q-45 -7 -81 -27.5t-64.5 -60.5t-49.5 -101t-35 -148q-12 -80 -12 -137q0 -99 35 -146t100 -57l-16 -63v0z" />
    <glyph glyph-name="parenright" unicode=")" horiz-adv-x="312" 
d="M117 725q101 -10 149 -76.5t48 -194.5q0 -30 -2.5 -63t-7.5 -69q-29 -192 -106 -291t-208 -112l4 66q45 7 81 27.5t64.5 60.5t49.5 101t35 148q12 79 12 137q0 49 -9 85t-26 60.5t-42 38.5t-58 19l16 63v0z" />
    <glyph glyph-name="bracketleft" unicode="[" horiz-adv-x="308" 
d="M131 716h221l-11 -66h-142l-110 -690h146l-11 -65h-223z" />
    <glyph glyph-name="bracketright" unicode="]" horiz-adv-x="308" 
d="M222 -105h-221l11 66h142l110 690h-146l11 65h223z" />
    <glyph glyph-name="braceleft" unicode="{" horiz-adv-x="316" 
d="M5 289l10 65h34q53 0 83 25t38 82q5 29 4 58.5t4 62.5q9 68 52.5 102t118.5 41l-1 -65q-39 -5 -62.5 -24t-30.5 -61q-5 -31 -5 -61t-5 -61q-9 -52 -35 -83.5t-72 -48.5q65 -26 65 -98q0 -24 -5 -46.5t-10.5 -44t-10.5 -42.5t-5 -42q0 -31 18.5 -45.5t50.5 -19.5l-13 -65
q-66 6 -99.5 33.5t-33.5 81.5q0 24 5 46t10.5 44t10.5 43.5t5 45.5q0 41 -21 59t-66 18h-34z" />
    <glyph glyph-name="braceright" unicode="}" horiz-adv-x="316" 
d="M341 354l-10 -65h-34q-53 0 -83 -25t-38 -82q-5 -29 -4 -58.5t-4 -62.5q-9 -68 -52.5 -102t-118.5 -41l1 65q39 5 62.5 24t30.5 61q5 31 5 61t5 61q9 52 35 83.5t72 48.5q-65 26 -65 98q0 24 5 46.5t10.5 44t10.5 42.5t5 42q0 31 -18.5 45.5t-50.5 19.5l13 65
q66 -6 99.5 -33.5t33.5 -81.5q0 -24 -5 -46t-10.5 -44t-10.5 -43.5t-5 -45.5q0 -41 21 -59t66 -18h34z" />
    <glyph glyph-name="asterisk" unicode="*" horiz-adv-x="402" 
d="M64 394l105 109l-119 33l29 69l117 -44l16 151h78l-33 -151l132 44l9 -68l-130 -34l70 -109l-64 -45l-62 116l-99 -116z" />
    <glyph glyph-name="dagger" unicode="&#x2020;" horiz-adv-x="283" 
d="M176 527l-37 -231h-69l37 231h-67l10 63h66l16 120h78l-23 -120h66l-10 -63h-67z" />
    <glyph glyph-name="daggerdbl" unicode="&#x2021;" horiz-adv-x="283" 
d="M99 476l9 60h-67l11 63h65l15 111h78l-22 -111h66l-10 -63h-67l-9 -60h67l-10 -63h-66l-16 -117h-77l22 117h-66l10 63h67z" />
    <glyph glyph-name="section" unicode="&#xa7;" horiz-adv-x="494" 
d="M193 -23q-62 0 -107.5 20t-68.5 73l64 41q18 -39 45.5 -54.5t74.5 -15.5q64 0 89.5 22.5t25.5 57.5q0 26 -18.5 43t-66.5 29l-38 10q-69 19 -97.5 54.5t-28.5 78.5q0 18 5 38t17 37.5t32 31.5t50 20q-54 38 -54 104q0 25 9 51t30.5 47t57 34t88.5 13q57 0 91 -17t58 -52
l-58 -50q-19 29 -40.5 42.5t-60.5 13.5q-52 0 -76 -21t-24 -53q0 -24 15.5 -45.5t54.5 -32.5l48 -13q72 -20 103 -50.5t31 -78.5q0 -19 -5 -38.5t-17 -36.5t-32 -31t-50 -22q55 -36 55 -98q0 -26 -9 -52.5t-31.5 -48.5t-61.5 -36.5t-100 -14.5zM228 269q28 -7 52.5 -5
t43 11.5t29 27t10.5 40.5q0 26 -18 44.5t-56 27.5l-21 5q-56 13 -91 -8.5t-35 -64.5q0 -23 14.5 -43t52.5 -30z" />
    <glyph glyph-name="paragraph" unicode="&#xb6;" horiz-adv-x="635" 
d="M319 245h-12q-105 0 -158 48.5t-53 139.5q0 128 71 197.5t203 69.5h263l-111 -700h-85l38 245h-71l-38 -245h-85zM182 440q0 -60 33 -89t94 -29h22l47 303h-22q-83 0 -128.5 -49t-45.5 -136zM464 625l-48 -303h73l47 303h-72z" />
    <glyph glyph-name="asciicircum" unicode="^" horiz-adv-x="400" 
d="M216 700h83l100 -315v-2h-83l-70 236l-147 -236h-83v2z" />
    <glyph glyph-name="asciitilde" unicode="~" horiz-adv-x="501" 
d="M498 403q-13 -66 -52 -98.5t-96 -32.5q-33 0 -61 12t-53 26q-21 11 -40.5 20t-40.5 9q-29 0 -46 -18t-22 -48l-73 12q13 68 52.5 100t96.5 32q33 0 60.5 -12t52.5 -26q22 -11 41.5 -20t39.5 -9q29 0 45.5 18t22.5 47z" />
    <glyph glyph-name="underscore" unicode="_" horiz-adv-x="451" 
d="M412 -72h-480l11 72h481z" />
    <glyph glyph-name="quotesingle" unicode="'" horiz-adv-x="135" 
d="M52 501l27 211h79l-40 -211h-66z" />
    <glyph glyph-name="quotedbl" unicode="&#x22;" horiz-adv-x="253" 
d="M53 501l24 211h78l-36 -211h-66zM166 501l31 211h79l-44 -211h-66z" />
    <glyph glyph-name="at" unicode="@" horiz-adv-x="774" 
d="M347 -103q-72 0 -127.5 19.5t-93.5 56.5t-57.5 89t-19.5 118q0 88 29 162.5t81.5 128.5t125.5 84t161 30q136 0 208 -69.5t72 -189.5q0 -54 -13 -99.5t-37.5 -78.5t-59 -51t-77.5 -18q-35 0 -57.5 14t-27.5 44q-20 -32 -53.5 -48t-69.5 -16q-57 0 -86.5 33t-29.5 96
q0 10 1 21.5t3 23.5q11 86 54.5 129.5t113.5 43.5q35 0 61 -14t40 -42l11 48h52l-35 -223q-1 -3 -2 -11.5t-1 -13.5q0 -41 43 -41q24 0 46.5 13.5t40 39.5t27.5 64t10 86q0 55 -16.5 96t-47.5 68t-74 40t-96 13q-72 0 -136 -24t-112 -70t-76 -114t-28 -156q0 -61 18 -106
t51 -74.5t80 -44t105 -14.5q73 0 135.5 22t110.5 66l22 -31q-51 -48 -117 -74t-152 -26zM351 124q41 0 72.5 29t41.5 95q3 19 3 36q0 45 -21 65t-55 20q-46 0 -74.5 -29t-39.5 -94q-2 -10 -2.5 -20.5t-0.5 -18.5q0 -83 76 -83z" />
    <glyph glyph-name="at.cap" horiz-adv-x="768" 
d="M353 4q-72 0 -127.5 19.5t-93.5 56.5t-57.5 89t-19.5 118q0 88 29 162.5t81.5 128.5t125.5 84t161 30q136 0 208 -69.5t72 -189.5q0 -54 -13 -99.5t-37.5 -78.5t-59 -51t-77.5 -18q-35 0 -57.5 14t-27.5 44q-20 -32 -53.5 -48t-69.5 -16q-57 0 -86.5 33t-29.5 96
q0 10 1 21.5t3 23.5q11 86 54.5 129.5t113.5 43.5q35 0 61 -14t40 -42l11 48h52l-35 -223q-1 -3 -2 -11.5t-1 -13.5q0 -41 43 -41q24 0 46.5 13.5t40 39.5t27.5 64t10 86q0 55 -16.5 96t-47.5 68t-74 40t-96 13q-72 0 -136 -24t-112 -70t-76 -114t-28 -156q0 -61 18 -106
t51 -74.5t80 -44t105 -14.5q73 0 135.5 22t110.5 66l22 -31q-51 -48 -117 -74t-152 -26zM357 231q41 0 72.5 29t41.5 95q3 19 3 36q0 45 -21 65t-55 20q-46 0 -74.5 -29t-39.5 -94q-2 -10 -2.5 -20.5t-0.5 -18.5q0 -83 76 -83z" />
    <glyph glyph-name="copyright" unicode="&#xa9;" horiz-adv-x="783" 
d="M66 351q11 77 43 140t81.5 108t116 69.5t146.5 24.5q71 0 126 -19.5t92 -55.5t56 -87t19 -114q0 -19 -1 -33t-4 -33q-11 -78 -43 -141t-82 -107.5t-116 -68.5t-146 -24q-71 0 -125.5 19.5t-92 55.5t-56.5 86.5t-19 113.5q0 16 1.5 32.5t3.5 33.5zM108 351q-6 -36 -6 -67
q0 -59 18 -103t51 -73t80 -44t105 -15q66 0 123 19t102 57t75.5 94.5t42.5 131.5q6 36 6 69q0 58 -18 102t-51 73t-80 44t-104 15q-66 0 -123.5 -19t-102.5 -57t-75.5 -95t-42.5 -132zM382 178q-69 0 -106.5 32.5t-37.5 101.5q0 14 1 24t3 18q13 94 61.5 136.5t129.5 42.5
q54 0 87 -20t47 -56l-52 -31q-20 55 -86 55q-51 0 -81.5 -28t-41.5 -99q-2 -12 -3 -20.5t-1 -19.5q0 -45 21.5 -64t66.5 -19q35 0 60 13t45 45l46 -26q-28 -45 -67.5 -65t-91.5 -20z" />
    <glyph glyph-name="registered" unicode="&#xae;" horiz-adv-x="439" 
d="M75 525q6 42 23.5 76.5t44.5 59t63.5 38t81.5 13.5q78 0 119.5 -40.5t41.5 -110.5q0 -8 -1 -20.5t-3 -21.5q-17 -86 -70.5 -133.5t-141.5 -47.5q-78 0 -119.5 41t-41.5 110q0 18 3 36zM104 525q-3 -18 -3 -35q0 -62 37 -94.5t97 -32.5q69 0 118.5 41t62.5 121q3 19 3 36
q0 61 -36 93t-96 32q-70 0 -119.5 -41t-63.5 -120zM204 621h76q31 0 45.5 -13.5t14.5 -36.5q0 -29 -12.5 -44.5t-32.5 -23.5l25 -66h-37l-21 61h-43l-10 -61h-33zM234 592l-10 -65h37q20 0 32 8.5t12 31.5q0 25 -29 25h-42z" />
    <glyph glyph-name="trademark" unicode="&#x2122;" horiz-adv-x="648" 
d="M578 406l32 198l-114 -198h-46l-56 194l-29 -194h-54l47 294h58l65 -236l136 236h61l-47 -294h-53zM320 700l-8 -47h-93l-39 -247h-54l39 247h-96l8 47h243z" />
    <glyph glyph-name="Euro" unicode="&#x20ac;" horiz-adv-x="639" 
d="M417 241h-259q0 -52 12.5 -86.5t35.5 -55.5t57 -30t77 -9q30 0 57.5 4.5t51.5 16t46 31.5t42 51l57 -49q-25 -38 -53.5 -62t-61 -38.5t-69 -20t-75.5 -5.5q-65 0 -114 13.5t-82 44t-49.5 78.5t-17.5 117h-90l11 68h81q1 14 3 28t5 28h-80l11 68h82q36 148 121 213.5
t210 65.5q96 0 149 -37.5t78 -110.5l-77 -41q-19 65 -56.5 91.5t-100.5 26.5q-41 0 -77 -10t-66 -34t-53 -64t-39 -100h310l-27 -68h-297q-4 -13 -5.5 -27.5t-2.5 -28.5h281z" />
    <glyph glyph-name="dollar" unicode="$" horiz-adv-x="583" 
d="M217 20q-63 6 -114 34.5t-77 89.5l69 44q24 -46 54.5 -69t78.5 -28l37 234q-82 22 -120 64t-38 102q0 80 54.5 131.5t159.5 58.5l14 85h70l-14 -86q64 -7 103.5 -33.5t59.5 -75.5l-71 -44q-16 36 -40 56t-63 25l-36 -224q43 -13 74.5 -27t52.5 -32.5t31.5 -43t10.5 -57.5
q0 -48 -16.5 -84.5t-46 -62t-71 -40t-92.5 -17.5l-13 -82h-70zM298 91q131 14 131 120q0 36 -21.5 58t-75.5 38zM187 499q0 -35 21 -58.5t69 -37.5l33 206q-123 -11 -123 -110z" />
    <glyph glyph-name="cent" unicode="&#xa2;" horiz-adv-x="513" 
d="M203 17q-150 18 -150 179q0 14 1.5 29t3.5 32q16 115 73 173.5t148 66.5l13 81h69l-13 -83q62 -8 95 -40t48 -80l-64 -32q-11 33 -31 55.5t-59 30.5l-54 -346q35 3 62.5 19t51.5 52l57 -38q-32 -51 -78.5 -74t-102.5 -26l-12 -78h-70zM133 197q0 -53 19.5 -79t61.5 -33
l54 343q-54 -10 -85.5 -51.5t-44.5 -119.5q-2 -17 -3.5 -32.5t-1.5 -27.5z" />
    <glyph glyph-name="sterling" unicode="&#xa3;" horiz-adv-x="544" 
d="M196 370h184l-11 -68h-182l-14 -112q-5 -39 -14.5 -69t-23.5 -47h183q41 0 71.5 10.5t58.5 43.5l45 -54q-38 -45 -82 -59.5t-103 -14.5h-337l12 74h36q35 0 47.5 29.5t19.5 82.5l14 116h-82l11 68h80l17 134q14 106 71 157t151 51q80 0 125.5 -34.5t65.5 -99.5l-71 -33
q-13 46 -41.5 71.5t-79.5 25.5q-60 0 -92.5 -36t-42.5 -111z" />
    <glyph glyph-name="florin" unicode="&#x192;" horiz-adv-x="355" 
d="M113 306h-86l14 65h87l19 77q21 92 68.5 132t119.5 40q20 0 41.5 -3.5t36.5 -10.5l-31 -72q-11 5 -23.5 8t-30.5 3q-36 0 -60.5 -21.5t-38.5 -80.5l-17 -72h137l-14 -65h-138l-76 -335q-21 -91 -68.5 -131.5t-116.5 -40.5q-20 0 -39.5 3t-35.5 10l30 72q12 -5 24 -8
t29 -3q32 0 56 22t38 82z" />
    <glyph glyph-name="yen" unicode="&#xa5;" horiz-adv-x="585" 
d="M516 219h-191l-35 -219h-89l36 219h-193l11 68h188l-24 56h-155l11 68h116l-123 289h90l143 -348l254 348h93l-216 -289h115l-11 -68h-155l-42 -56h188z" />
    <glyph glyph-name="numbersign" unicode="#" horiz-adv-x="704" 
d="M140 504h110l93 196h88l-93 -196h193l93 196h89l-93 -196h106l-30 -67h-107l-80 -170h116l-30 -67h-117l-93 -200h-88l93 200h-193l-93 -200h-89l93 200h-100l30 67h101l80 170h-109zM228 267h193l79 170h-193z" />
    <glyph glyph-name="zero" unicode="0" horiz-adv-x="671" 
d="M400 712q118 0 175 -58t57 -188q0 -52 -9 -116q-27 -189 -105.5 -275.5t-219.5 -86.5q-117 0 -173 57t-56 185q0 27 2.5 57t7.5 63q13 96 38.5 165t65 112.5t93.5 64t124 20.5zM396 641q-45 0 -82 -14.5t-65.5 -48t-50 -89.5t-34.5 -140q-5 -34 -8 -63t-3 -54
q0 -49 10 -82.5t29 -53.5t47 -29t64 -9q46 0 83 14t66 47.5t50 90t35 141.5q5 32 7.5 60.5t2.5 52.5q0 97 -39 137t-112 40z" />
    <glyph glyph-name="one" unicode="1" horiz-adv-x="306" 
d="M72 0l93 589l-104 -64l-26 69l177 106h56l-111 -700h-85z" />
    <glyph glyph-name="two" unicode="2" horiz-adv-x="567" 
d="M14 83l261 214q49 41 84.5 73.5t58 62t32.5 57.5t10 59q0 47 -31 70t-89 23q-68 0 -114 -27t-85 -85l-55 46q48 71 109.5 103.5t150.5 32.5q102 0 152 -40t50 -112q0 -39 -12 -74.5t-38.5 -72.5t-69.5 -79t-106 -94l-199 -166h383l-12 -74h-492z" />
    <glyph glyph-name="three" unicode="3" horiz-adv-x="576" 
d="M230 -12q-89 0 -143 33.5t-80 95.5l69 44q38 -103 161 -103q43 0 78 10.5t60.5 32.5t39.5 54t14 76q0 46 -28.5 71.5t-88.5 25.5h-98l12 76h95q29 0 54.5 10t44.5 28.5t30 45.5t11 61q0 48 -33.5 70.5t-95.5 22.5q-58 0 -101 -22t-83 -73l-53 52q46 59 106.5 86t147.5 27
q93 0 146 -36.5t53 -114.5q0 -59 -31 -111t-91 -81q88 -34 88 -128q0 -53 -18.5 -99.5t-54.5 -80.5t-89 -53.5t-122 -19.5z" />
    <glyph glyph-name="four" unicode="4" horiz-adv-x="610" 
d="M15 243l301 457h89l-295 -441h287l51 319h85l-51 -319h104l-12 -76h-104l-29 -183h-85l29 183h-380z" />
    <glyph glyph-name="five" unicode="5" horiz-adv-x="560" 
d="M164 405q35 20 76.5 30t83.5 10q41 0 78 -10t64.5 -31t44 -54t16.5 -80q0 -61 -21 -113t-60 -89.5t-95 -58.5t-126 -21q-81 0 -137.5 37.5t-82.5 100.5l69 42q43 -111 163 -111q44 0 81.5 14.5t64.5 41t42.5 64t15.5 82.5q0 60 -37 88.5t-106 28.5q-54 0 -98.5 -16.5
t-83.5 -44.5l-44 26l91 359h399l-12 -76h-331z" />
    <glyph glyph-name="six" unicode="6" horiz-adv-x="628" 
d="M304 -12q-52 0 -94.5 14.5t-73 45.5t-47.5 80.5t-17 118.5q0 23 1.5 47t5.5 50q26 188 113 278t216 90q86 0 138 -31.5t73 -89.5l-71 -42q-18 48 -55.5 70.5t-90.5 22.5q-58 0 -98.5 -24.5t-68.5 -65.5t-45 -96t-27 -115l-4 -23q15 27 37 49.5t49.5 38t60 24.5t67.5 9
q97 0 149.5 -47t52.5 -132q0 -54 -17 -103.5t-50.5 -87t-84.5 -59.5t-119 -22zM354 368q-39 0 -74 -13t-61 -36.5t-41 -57t-15 -75.5q0 -58 37 -93.5t104 -35.5q41 0 75 13.5t58 38.5t37.5 60.5t13.5 79.5q0 56 -32.5 87.5t-101.5 31.5z" />
    <glyph glyph-name="seven" unicode="7" horiz-adv-x="472" 
d="M107 0q13 83 42 170t70.5 169.5t95 155.5t115.5 129h-350l12 76h461l-13 -82q-63 -31 -119 -96.5t-102 -150t-78.5 -181.5t-47.5 -190h-86v0z" />
    <glyph glyph-name="eight" unicode="8" horiz-adv-x="614" 
d="M268 -12q-108 0 -165 45.5t-57 126.5q0 43 13 78t35.5 61t53 42.5t64.5 24.5q-42 15 -65 47t-23 80q0 54 18 95t51 68.5t79.5 41.5t103.5 14q99 0 150.5 -38t51.5 -113q0 -76 -38 -127t-101 -72q48 -13 78.5 -46.5t30.5 -90.5q0 -54 -20 -98t-56.5 -75t-88.5 -47.5
t-115 -16.5zM276 58q36 0 70 10t60.5 30.5t42.5 50.5t16 71q0 53 -38.5 80.5t-106.5 27.5q-41 0 -75.5 -10.5t-59.5 -31t-39 -50.5t-14 -69q0 -54 37 -81.5t107 -27.5zM331 401q33 0 62.5 10t52 28.5t36 46.5t13.5 64q0 48 -32.5 71.5t-93.5 23.5q-74 0 -118.5 -37
t-44.5 -109q0 -45 31 -71.5t94 -26.5z" />
    <glyph glyph-name="nine" unicode="9" horiz-adv-x="628" 
d="M361 712q52 0 94.5 -14.5t73 -45.5t47.5 -80.5t17 -118.5q0 -23 -1.5 -47t-5.5 -50q-26 -188 -113 -278t-216 -90q-86 0 -138 31.5t-73 89.5l71 42q18 -48 55.5 -70.5t90.5 -22.5q58 0 98.5 24.5t68.5 65.5t45 96t27 115l4 23q-29 -57 -86 -91.5t-128 -34.5
q-97 0 -149.5 48t-52.5 136q0 54 17 103t50.5 86.5t84.5 60t119 22.5zM311 327q39 0 74 13t61 37.5t41 59t15 77.5q0 58 -37 93.5t-104 35.5q-41 0 -75 -13.5t-58 -38.5t-37.5 -60.5t-13.5 -79.5q0 -58 32.5 -91t101.5 -33z" />
    <glyph glyph-name="uni2070" unicode="&#x2070;" horiz-adv-x="407" 
d="M261 651q-23 0 -42 -7.5t-34 -25.5t-26 -47.5t-18 -73.5q-2 -17 -4 -33.5t-2 -28.5q0 -51 20 -70.5t57 -19.5q47 0 77.5 33t44.5 120q2 17 4 33t2 29q0 51 -20.5 71t-58.5 20zM267 712q73 0 108 -35.5t35 -113.5q0 -17 -1 -31t-4 -34q-16 -108 -62.5 -161t-135.5 -53
q-73 0 -108 35t-35 113q0 14 1.5 31.5t3.5 34.5q16 113 64.5 163.5t133.5 50.5z" />
    <glyph glyph-name="onesuperior" unicode="&#xb9;" horiz-adv-x="197" 
d="M77 294l50 320l-55 -33l-18 59l113 64h44l-64 -410h-70z" />
    <glyph glyph-name="twosuperior" unicode="&#xb2;" horiz-adv-x="345" 
d="M35 355l147 120q47 38 72.5 65t25.5 60q0 51 -68 51q-32 0 -55 -14.5t-43 -44.5l-42 39q29 43 65.5 62t84.5 19q63 0 97.5 -24t34.5 -75q0 -24 -7.5 -45t-23.5 -42t-40 -43.5t-57 -48.5l-93 -74l199 1l-9 -67h-298z" />
    <glyph glyph-name="threesuperior" unicode="&#xb3;" horiz-adv-x="347" 
d="M167 284q-56 0 -89.5 21.5t-50.5 60.5l56 34q11 -27 32 -41.5t56 -14.5q42 0 68.5 20.5t26.5 58.5q0 26 -15 38.5t-49 12.5h-52l10 60h50q32 0 52.5 19t20.5 50q0 26 -16 37t-51 11q-29 0 -51 -10t-43 -39l-44 38q26 38 62.5 55t87.5 17q62 0 95 -22.5t33 -71.5
q0 -37 -18.5 -67t-53.5 -47q24 -8 38 -26.5t14 -50.5q0 -30 -11 -56t-33 -45.5t-53.5 -30.5t-71.5 -11z" />
    <glyph glyph-name="uni2074" unicode="&#x2074;" horiz-adv-x="370" 
d="M40 442l169 260h70l-162 -247h141l28 167h67l-26 -167h60l-11 -64h-60l-15 -97h-68l16 97h-216z" />
    <glyph glyph-name="fraction" unicode="&#x2044;" horiz-adv-x="471" 
d="M49 0h-81l442 700h80z" />
    <glyph glyph-name="onehalf" unicode="&#xbd;" horiz-adv-x="795" 
d="M433 61l147 120q47 38 72.5 65t25.5 60q0 51 -68 51q-32 0 -55 -14.5t-43 -44.5l-42 39q29 43 65.5 62t84.5 19q63 0 97.5 -24t34.5 -75q0 -24 -7.5 -45t-23.5 -42t-40 -43.5t-57 -48.5l-93 -74l199 1l-9 -67h-298zM77 294l50 320l-55 -33l-18 59l113 64h44l-64 -410h-70
zM156 0h-81l442 700h80z" />
    <glyph glyph-name="onequarter" unicode="&#xbc;" horiz-adv-x="822" 
d="M77 294l50 320l-55 -33l-18 59l113 64h44l-64 -410h-70zM441 148l169 260h70l-162 -247h141l28 167h67l-26 -167h60l-11 -64h-60l-15 -97h-68l16 97h-216zM156 0h-81l442 700h80z" />
    <glyph glyph-name="threequarters" unicode="&#xbe;" horiz-adv-x="922" 
d="M541 148l169 260h70l-162 -247h141l28 167h67l-26 -167h60l-11 -64h-60l-15 -97h-68l16 97h-216zM167 284q-56 0 -89.5 21.5t-50.5 60.5l56 34q11 -27 32 -41.5t56 -14.5q42 0 68.5 20.5t26.5 58.5q0 26 -15 38.5t-49 12.5h-52l10 60h50q32 0 52.5 19t20.5 50
q0 26 -16 37t-51 11q-29 0 -51 -10t-43 -39l-44 38q26 38 62.5 55t87.5 17q62 0 95 -22.5t33 -71.5q0 -37 -18.5 -67t-53.5 -47q24 -8 38 -26.5t14 -50.5q0 -30 -11 -56t-33 -45.5t-53.5 -30.5t-71.5 -11zM281 0h-81l442 700h80z" />
    <glyph glyph-name="percent" unicode="%" horiz-adv-x="1008" 
d="M324 0h-81l442 700h80zM812 357q-23 0 -42 -7.5t-34 -25.5t-26 -47.5t-18 -73.5q-2 -17 -4 -33.5t-2 -28.5q0 -51 20 -70.5t57 -19.5q47 0 77.5 33t44.5 120q2 17 4 33t2 29q0 51 -20.5 71t-58.5 20zM818 418q73 0 108 -35.5t35 -113.5q0 -17 -1 -31t-4 -34
q-16 -108 -62.5 -161t-135.5 -53q-73 0 -108 35t-35 113q0 14 1.5 31.5t3.5 34.5q16 113 64.5 163.5t133.5 50.5zM261 651q-23 0 -42 -7.5t-34 -25.5t-26 -47.5t-18 -73.5q-2 -17 -4 -33.5t-2 -28.5q0 -51 20 -70.5t57 -19.5q47 0 77.5 33t44.5 120q2 17 4 33t2 29
q0 51 -20.5 71t-58.5 20zM267 712q73 0 108 -35.5t35 -113.5q0 -17 -1 -31t-4 -34q-16 -108 -62.5 -161t-135.5 -53q-73 0 -108 35t-35 113q0 14 1.5 31.5t3.5 34.5q16 113 64.5 163.5t133.5 50.5z" />
    <glyph glyph-name="plus" unicode="+" horiz-adv-x="478" 
d="M171 110l25 164h-162l12 71h162l26 165h74l-27 -165h163l-12 -71h-162l-25 -164h-74z" />
    <glyph glyph-name="minus" unicode="&#x2212;" horiz-adv-x="478" 
d="M432 274h-398l12 71h398z" />
    <glyph glyph-name="multiply" unicode="&#xd7;" horiz-adv-x="470" 
d="M43 189l146 128l-104 127l56 48l103 -127l144 126l41 -50l-144 -126l103 -124l-55 -49l-103 125l-146 -128z" />
    <glyph glyph-name="divide" unicode="&#xf7;" horiz-adv-x="478" 
d="M432 274h-398l11 71h398zM256 418q-26 0 -38 12.5t-12 33.5q0 36 18.5 51.5t46.5 15.5q24 0 37.5 -11.5t13.5 -34.5q0 -33 -18 -50t-48 -17zM205 90q-26 0 -38.5 12.5t-12.5 34.5q0 34 18.5 50.5t46.5 16.5q52 0 52 -48q0 -33 -19 -49.5t-47 -16.5z" />
    <glyph glyph-name="equal" unicode="=" horiz-adv-x="475" 
d="M420 202h-398l11 71h398zM443 346h-398l10 71h398z" />
    <glyph glyph-name="less" unicode="&#x3c;" horiz-adv-x="464" 
d="M170 307l188 -155l-48 -58l-241 196l7 38l302 196l34 -58z" />
    <glyph glyph-name="greater" unicode="&#x3e;" horiz-adv-x="464" 
d="M53 152l242 159l-187 156l48 57l240 -196l-6 -37l-303 -197z" />
    <glyph glyph-name="degree" unicode="&#xb0;" horiz-adv-x="433" 
d="M238 408q27 0 51.5 9.5t43 29t29.5 47.5t11 66q0 46 -26 70t-70 24q-27 0 -51.5 -9.5t-43 -29t-29.5 -48t-11 -65.5q0 -46 26 -70t70 -24zM233 350q-77 0 -116.5 40t-39.5 107q0 48 15 87.5t42 68t65 44t84 15.5q76 0 116 -40t40 -106q0 -48 -15 -88t-42 -68.5t-65 -44
t-84 -15.5z" />
    </font>
</defs>
</svg>
