<?xml version="1.0" standalone="no"?>
<!DOCTYPE svg PUBLIC "-//W3C//DTD SVG 1.1//EN" "http://www.w3.org/Graphics/SVG/1.1/DTD/svg11.dtd" >
<svg>
<metadata>
Created by FontForge 20120731 at Fri Nov 22 15:21:49 2013

Copyright (c) 2012 Jeremy Mickel, MCKL, Inc. All rights reserved.
</metadata>
<defs>
<font id="WWText-Medium" horiz-adv-x="607" >
  <font-face 
    font-family="WWText Medium"
    font-weight="500"
    font-stretch="normal"
    units-per-em="1000"
    panose-1="2 0 0 0 0 0 0 0 0 0"
    ascent="750"
    descent="-250"
    x-height="491"
    cap-height="700"
    bbox="-116 -307 1048 953"
    underline-thickness="50"
    underline-position="-50"
    unicode-range="U+0020-FB02"
  />
<missing-glyph horiz-adv-x="889" 
d="M98 700h694v-700h-694v700zM173 607v-520l228 260zM717 88v518l-227 -259zM446 396l208 240h-416zM241 64h408l-205 235z" />
    <glyph glyph-name="fi" unicode="fi" horiz-adv-x="602" 
d="M97 491v51q0 96 45.5 138t122.5 42q23 0 49 -4.5t44 -13.5l-19 -84q-13 6 -26.5 9.5t-31.5 3.5q-35 0 -54.5 -20.5t-19.5 -74.5v-47h137v-85h-137v-406h-110v406h-87v85h87zM530 491v-491h-113v491h113zM402 630q0 33 18.5 49.5t52.5 16.5t52.5 -16.5t18.5 -49.5
t-18.5 -49.5t-52.5 -16.5t-52.5 16.5t-18.5 49.5z" />
    <glyph glyph-name="fl" unicode="fl" horiz-adv-x="602" 
d="M97 491v51q0 96 45.5 138t122.5 42q23 0 49 -4.5t44 -13.5l-19 -84q-13 6 -26.5 9.5t-31.5 3.5q-35 0 -54.5 -20.5t-19.5 -74.5v-47h137v-85h-137v-406h-110v406h-87v85h87zM530 0h-113v700h113v-700z" />
    <glyph glyph-name="triagup" unicode="&#x2d;^" horiz-adv-x="801" 
d="M20 0l380 659l380 -659h-760z" />
    <glyph glyph-name="triagdn" unicode="^&#x2d;" horiz-adv-x="801" 
d="M780 700l-380 -659l-380 659h760z" />
    <glyph glyph-name="triaglf" unicode="&#x3c;&#x2d;" horiz-adv-x="801" 
d="M702 -30l-658 380l658 380v-760z" />
    <glyph glyph-name="triagrt" unicode="&#x2d;&#x3e;" horiz-adv-x="801" 
d="M99 730l658 -380l-658 -380v760z" />
    <glyph glyph-name=".notdef" horiz-adv-x="889" 
d="M98 700h694v-700h-694v700zM173 607v-520l228 260zM717 88v518l-227 -259zM446 396l208 240h-416zM241 64h408l-205 235z" />
    <glyph glyph-name="space" unicode=" " horiz-adv-x="210" 
 />
    <glyph glyph-name="A" unicode="A" horiz-adv-x="628" 
d="M463 131h-302l-43 -131h-118l242 700h144l242 -700h-121zM191 224h242l-122 366z" />
    <glyph glyph-name="B" unicode="B" horiz-adv-x="673" 
d="M92 700h313q55 0 94.5 -13.5t64.5 -37.5t36.5 -57.5t11.5 -74.5q0 -56 -26.5 -95.5t-72.5 -57.5q30 -7 52.5 -23t36.5 -38.5t21 -49t7 -53.5q0 -99 -58.5 -149.5t-176.5 -50.5h-303v700zM205 309v-218h185q125 0 125 113q0 50 -28.5 77.5t-92.5 27.5h-189zM205 608v-206
h184q58 0 83.5 30.5t25.5 73.5q0 53 -28 77.5t-77 24.5h-188z" />
    <glyph glyph-name="C" unicode="C" horiz-adv-x="678" 
d="M380 -13q-81 0 -141 20.5t-100.5 65t-60.5 113.5t-20 165q0 97 20.5 166t61 112.5t101 63.5t141.5 20q99 0 163.5 -32.5t100.5 -109.5l-93 -55q-27 58 -67.5 79.5t-103.5 21.5q-50 0 -88.5 -12t-64.5 -42.5t-40 -82t-14 -129.5t14 -130t40 -83t64.5 -44t88.5 -13
q63 0 108.5 25t75.5 86l91 -53q-42 -80 -109.5 -116t-167.5 -36z" />
    <glyph glyph-name="D" unicode="D" horiz-adv-x="733" 
d="M358 97q46 0 84 12.5t64 42.5t40.5 78.5t14.5 120.5q0 69 -13 117t-37.5 78t-60.5 43.5t-82 13.5h-159v-506h149zM92 0v700h277q157 0 233 -82.5t76 -263.5q0 -180 -77.5 -267t-235.5 -87h-273z" />
    <glyph glyph-name="E" unicode="E" horiz-adv-x="648" 
d="M92 700h517v-96h-403v-203h352v-97h-352v-208h413v-96h-527v700z" />
    <glyph glyph-name="F" unicode="F" horiz-adv-x="594" 
d="M92 700h501v-97h-384v-208h341v-100h-341v-295h-117v700z" />
    <glyph glyph-name="G" unicode="G" horiz-adv-x="721" 
d="M362 -13q-146 0 -225 88.5t-79 275.5q0 97 20.5 165.5t61 112t101 64t141.5 20.5q98 0 162 -32t99 -104l-93 -56q-27 52 -66.5 74t-101.5 22q-50 0 -88.5 -12t-65 -42t-40 -81.5t-13.5 -130.5q0 -78 13.5 -129.5t40 -83t64.5 -44.5t87 -13q31 0 62 8.5t56.5 28.5t41.5 53
t18 83v19h-174v89h281v-362h-90l-7 94q-29 -51 -83 -79t-123 -28z" />
    <glyph glyph-name="H" unicode="H" horiz-adv-x="777" 
d="M570 301h-361v-301h-117v700h117v-298h361v298h117v-700h-117v301z" />
    <glyph glyph-name="I" unicode="I" horiz-adv-x="299" 
d="M92 700h117v-700h-117v700z" />
    <glyph glyph-name="J" unicode="J" horiz-adv-x="497" 
d="M167 -13q-45 0 -88.5 12.5t-80.5 41.5l50 85q26 -22 58 -32.5t65 -10.5q31 0 56 9.5t43 30t27.5 53t9.5 79.5v445h117v-441q0 -77 -19 -129t-53.5 -84t-81.5 -45.5t-103 -13.5z" />
    <glyph glyph-name="K" unicode="K" horiz-adv-x="645" 
d="M92 700h117l-1 -366l298 366h138l-261 -312l271 -388h-140l-210 303l-95 -113v-190h-117v700z" />
    <glyph glyph-name="L" unicode="L" horiz-adv-x="613" 
d="M599 98v-98h-507v700h117v-602h390z" />
    <glyph glyph-name="M" unicode="M" horiz-adv-x="937" 
d="M196 507l5 -507h-109v700h125l253 -567l250 567h127v-700h-112l5 511l-228 -511h-88z" />
    <glyph glyph-name="N" unicode="N" horiz-adv-x="767" 
d="M200 522l3 -522h-111v700h104l372 -531l-3 531h112v-700h-111z" />
    <glyph glyph-name="O" unicode="O" horiz-adv-x="761" 
d="M58 351q0 190 80 276t243 86q85 0 146.5 -21t101 -65.5t58 -113t18.5 -162.5q0 -190 -80.5 -277t-243.5 -87q-167 0 -245 87t-78 277zM175 350q0 -76 13 -127.5t39 -82.5t64.5 -44.5t89.5 -13.5t89.5 13t64.5 44.5t39 83t13 129.5q0 75 -13 126t-39 82t-64.5 44.5
t-89.5 13.5t-89.5 -13t-64.5 -43.5t-39 -82t-13 -129.5z" />
    <glyph glyph-name="P" unicode="P" horiz-adv-x="658" 
d="M92 700h297q122 0 182.5 -60.5t60.5 -169.5q0 -118 -66 -179t-190 -61h-167v-230h-117v700zM209 601v-273h171q63 0 99 35t36 106q0 61 -33 96.5t-102 35.5h-171z" />
    <glyph glyph-name="Q" unicode="Q" horiz-adv-x="758" 
d="M655 -91h-118l-61 87q-44 -9 -95 -9q-167 0 -245 87t-78 277t80 276t243 86q85 0 146.5 -21t101 -65.5t58 -113t18.5 -162.5q0 -123 -33.5 -201.5t-100.5 -119.5zM175 349q0 -76 13 -127.5t39 -82.5t64.5 -44.5t89.5 -13.5h18t17 1l-86 124h119l62 -90q38 29 57.5 85
t19.5 150q0 76 -13.5 127.5t-39.5 82.5t-64.5 44.5t-89.5 13.5t-89.5 -13t-64.5 -44t-39 -83t-13 -130z" />
    <glyph glyph-name="R" unicode="R" horiz-adv-x="665" 
d="M92 700h301q119 0 177.5 -57t58.5 -160q0 -81 -34 -133.5t-97 -76.5l141 -273h-128l-129 252h-174v-252h-116v700zM208 602v-253h173q62 0 96.5 32t34.5 98q0 57 -31 90t-98 33h-175z" />
    <glyph glyph-name="S" unicode="S" 
d="M463 530q-27 48 -64.5 70.5t-100.5 22.5q-39 0 -66.5 -7.5t-44 -21t-24 -31t-7.5 -38.5q0 -38 26 -67t98 -46l63 -15q117 -28 169.5 -76.5t52.5 -128.5q0 -100 -69 -152.5t-197 -52.5q-91 0 -162.5 30.5t-116.5 105.5l85 58q36 -58 79.5 -82t111.5 -24q81 0 118.5 28
t37.5 79q0 22 -6.5 39t-21.5 30t-40.5 23t-62.5 19l-64 16q-113 29 -161 82t-48 128q0 43 15.5 79t46.5 61.5t77.5 39.5t109.5 14q94 0 154.5 -30.5t97.5 -96.5z" />
    <glyph glyph-name="T" unicode="T" horiz-adv-x="564" 
d="M565 700v-99h-224v-601h-117v601h-223v99h564z" />
    <glyph glyph-name="U" unicode="U" horiz-adv-x="734" 
d="M544 700h117v-421q0 -148 -78 -220t-215 -72q-141 0 -217.5 72t-76.5 220v421h117v-427q0 -50 12.5 -86t35.5 -59t55.5 -34t73.5 -11q81 0 128.5 44.5t47.5 145.5v427z" />
    <glyph glyph-name="V" unicode="V" horiz-adv-x="628" 
d="M123 700l192 -584l194 584h119l-243 -700h-142l-243 700h123z" />
    <glyph glyph-name="W" unicode="W" horiz-adv-x="919" 
d="M515 698l145 -533l145 535h114l-203 -700h-113l-145 534l-144 -534h-112l-202 700h119l142 -537l145 535h109z" />
    <glyph glyph-name="X" unicode="X" horiz-adv-x="634" 
d="M312 272l-184 -272h-128l247 357l-232 343h136l171 -261l169 261h128l-234 -341l249 -359h-138z" />
    <glyph glyph-name="Y" unicode="Y" horiz-adv-x="619" 
d="M0 700h128l185 -328l183 328h123l-251 -429v-271h-117v273z" />
    <glyph glyph-name="Z" unicode="Z" horiz-adv-x="561" 
d="M8 80l401 525l-379 -2v97h520v-80l-402 -525l406 2v-97h-546v80z" />
    <glyph glyph-name="Aacute" unicode="&#xc1;" horiz-adv-x="628" 
d="M463 131h-302l-43 -131h-118l242 700h144l242 -700h-121zM191 224h242l-122 366zM354 782h-91v4l78 119h133v-6z" />
    <glyph glyph-name="acute" unicode="&#xb4;" horiz-adv-x="575" 
d="M316 573h-91v4l78 119h133v-6z" />
    <glyph glyph-name="Abreve" unicode="&#x102;" horiz-adv-x="628" 
d="M463 131h-302l-43 -131h-118l242 700h144l242 -700h-121zM191 224h242l-122 366zM468 905q0 -37 -10.5 -62t-30.5 -40t-48 -21t-64 -6q-72 0 -112.5 27.5t-40.5 101.5h77q0 -38 18.5 -52t56.5 -14t57 14t19 52h78z" />
    <glyph glyph-name="breve" unicode="&#x2d8;" horiz-adv-x="575" 
d="M441 696q0 -37 -10.5 -62t-30.5 -40t-48 -21t-64 -6q-72 0 -112.5 27.5t-40.5 101.5h77q0 -38 18.5 -52t56.5 -14t57 14t19 52h78z" />
    <glyph glyph-name="Acircumflex" unicode="&#xc2;" horiz-adv-x="628" 
d="M463 131h-302l-43 -131h-118l242 700h144l242 -700h-121zM191 224h242l-122 366zM249 782h-105v3l122 120h101l124 -120v-3h-111l-65 65z" />
    <glyph glyph-name="circumflex" unicode="&#x2c6;" horiz-adv-x="575" 
d="M220 573h-105v3l122 120h101l124 -120v-3h-111l-65 65z" />
    <glyph glyph-name="Adieresis" unicode="&#xc4;" horiz-adv-x="628" 
d="M463 131h-302l-43 -131h-118l242 700h144l242 -700h-121zM191 224h242l-122 366zM154 839q0 32 18 47.5t50 15.5t50 -15.5t18 -47.5t-18 -48t-50 -16t-50 16t-18 48zM341 839q0 32 18 47.5t50 15.5t50 -15.5t18 -47.5t-18 -48t-50 -16t-50 16t-18 48z" />
    <glyph glyph-name="dieresis" unicode="&#xa8;" horiz-adv-x="575" 
d="M132 630q0 32 18 47.5t50 15.5t50 -15.5t18 -47.5t-18 -48t-50 -16t-50 16t-18 48zM319 630q0 32 18 47.5t50 15.5t50 -15.5t18 -47.5t-18 -48t-50 -16t-50 16t-18 48z" />
    <glyph glyph-name="AE" unicode="&#xc6;" horiz-adv-x="934" 
d="M461 131h-300l-44 -131h-117l249 700h646v-96h-466l66 -203h348v-97h-316l68 -208h310v-96h-402zM193 224h240l-116 367z" />
    <glyph glyph-name="Agrave" unicode="&#xc0;" horiz-adv-x="628" 
d="M463 131h-302l-43 -131h-118l242 700h144l242 -700h-121zM191 224h242l-122 366zM158 901v6h134l78 -119v-4h-92z" />
    <glyph glyph-name="grave" unicode="`" horiz-adv-x="575" 
d="M135 690v6h134l78 -119v-4h-92z" />
    <glyph glyph-name="Amacron" unicode="&#x100;" horiz-adv-x="628" 
d="M463 131h-302l-43 -131h-118l242 700h144l242 -700h-121zM191 224h242l-122 366zM449 806h-267v69h267v-69z" />
    <glyph glyph-name="macron" unicode="&#xaf;" horiz-adv-x="575" 
d="M422 597h-267v69h267v-69z" />
    <glyph glyph-name="Aogonek" unicode="&#x104;" horiz-adv-x="628" 
d="M191 224h242l-122 366zM582 -194q-41 -24 -92 -24q-24 0 -46.5 5t-40.5 18t-28.5 33.5t-10.5 52.5q0 31 11 56.5t29 44t41.5 30.5t48.5 17l-31 92h-302l-43 -131h-118l242 700h144l242 -700h-95q-48 -4 -71 -33.5t-23 -63.5q0 -28 16 -39t44 -11q38 0 66 17z" />
    <glyph glyph-name="Aring" unicode="&#xc5;" horiz-adv-x="628" 
d="M463 131h-302l-43 -131h-118l242 700h144l242 -700h-121zM191 224h242l-122 366zM212 854q0 46 29.5 72t74.5 26t73.5 -26t28.5 -72t-29 -71.5t-74 -25.5t-74 25.5t-29 71.5zM268 854q0 -22 13 -36t34 -14q20 0 34 14t14 36q0 23 -13.5 36.5t-33.5 13.5q-22 0 -35 -13.5
t-13 -36.5z" />
    <glyph glyph-name="ring" unicode="&#x2da;" horiz-adv-x="575" 
d="M187 645q0 46 29.5 72t74.5 26t73.5 -26t28.5 -72t-29 -71.5t-74 -25.5t-74 25.5t-29 71.5zM243 645q0 -22 13 -36t34 -14q20 0 34 14t14 36q0 23 -13.5 36.5t-33.5 13.5q-22 0 -35 -13.5t-13 -36.5z" />
    <glyph glyph-name="Atilde" unicode="&#xc3;" horiz-adv-x="628" 
d="M463 131h-302l-43 -131h-118l242 700h144l242 -700h-121zM191 224h242l-122 366zM480 899q3 -31 -5 -52t-21.5 -33.5t-31.5 -18t-35 -5.5q-22 0 -40.5 6t-34.5 13.5t-30.5 13.5t-28.5 6q-18 0 -23.5 -11t-5.5 -25h-76q-2 31 5.5 52t21 33.5t31 18t34.5 5.5q22 0 41 -6
t35.5 -13.5t31 -13.5t28.5 -6q18 0 23 11t5 25h76z" />
    <glyph glyph-name="tilde" unicode="&#x2dc;" horiz-adv-x="575" 
d="M460 690q3 -31 -5 -52t-21.5 -33.5t-31.5 -18t-35 -5.5q-22 0 -40.5 6t-34.5 13.5t-30.5 13.5t-28.5 6q-18 0 -23.5 -11t-5.5 -25h-76q-2 31 5.5 52t21 33.5t31 18t34.5 5.5q22 0 41 -6t35.5 -13.5t31 -13.5t28.5 -6q18 0 23 11t5 25h76z" />
    <glyph glyph-name="Cacute" unicode="&#x106;" horiz-adv-x="678" 
d="M380 -13q-81 0 -141 20.5t-100.5 65t-60.5 113.5t-20 165q0 97 20.5 166t61 112.5t101 63.5t141.5 20q99 0 163.5 -32.5t100.5 -109.5l-93 -55q-27 58 -67.5 79.5t-103.5 21.5q-50 0 -88.5 -12t-64.5 -42.5t-40 -82t-14 -129.5t14 -130t40 -83t64.5 -44t88.5 -13
q63 0 108.5 25t75.5 86l91 -53q-42 -80 -109.5 -116t-167.5 -36zM421 783h-91v4l78 119h133v-6z" />
    <glyph glyph-name="Ccaron" unicode="&#x10c;" horiz-adv-x="678" 
d="M380 -13q-81 0 -141 20.5t-100.5 65t-60.5 113.5t-20 165q0 97 20.5 166t61 112.5t101 63.5t141.5 20q99 0 163.5 -32.5t100.5 -109.5l-93 -55q-27 58 -67.5 79.5t-103.5 21.5q-50 0 -88.5 -12t-64.5 -42.5t-40 -82t-14 -129.5t14 -130t40 -83t64.5 -44t88.5 -13
q63 0 108.5 25t75.5 86l91 -53q-42 -80 -109.5 -116t-167.5 -36zM452 906h105v-2l-124 -121h-101l-122 121v2h109l65 -63z" />
    <glyph glyph-name="caron" unicode="&#x2c7;" horiz-adv-x="575" 
d="M356 696h105v-2l-124 -121h-101l-122 121v2h109l65 -63z" />
    <glyph glyph-name="Ccedilla" unicode="&#xc7;" horiz-adv-x="678" 
d="M372 -242q-41 0 -74 15t-53 48l47 45q14 -23 31 -35t45 -12q23 0 37.5 9t14.5 29q0 19 -14 29.5t-39 10.5q-6 0 -11.5 -0.5t-11.5 -1.5l-19 15l22 78q-145 8 -217 94.5t-72 268.5q0 97 20.5 166t61 112.5t101 63.5t141.5 20q99 0 163.5 -32.5t100.5 -109.5l-93 -55
q-27 58 -67.5 79.5t-103.5 21.5q-50 0 -88.5 -12t-64.5 -42.5t-40 -82t-14 -129.5t14 -130t40 -83t64.5 -44t88.5 -13q63 0 108.5 25t75.5 86l91 -53q-38 -73 -97.5 -109t-145.5 -42l-13 -45h2q37 -1 65 -23t28 -64q0 -25 -10 -43.5t-27 -30.5t-39.5 -18t-47.5 -6z" />
    <glyph glyph-name="Ccircumflex" unicode="&#x108;" horiz-adv-x="678" 
d="M380 -13q-81 0 -141 20.5t-100.5 65t-60.5 113.5t-20 165q0 97 20.5 166t61 112.5t101 63.5t141.5 20q99 0 163.5 -32.5t100.5 -109.5l-93 -55q-27 58 -67.5 79.5t-103.5 21.5q-50 0 -88.5 -12t-64.5 -42.5t-40 -82t-14 -129.5t14 -130t40 -83t64.5 -44t88.5 -13
q63 0 108.5 25t75.5 86l91 -53q-42 -80 -109.5 -116t-167.5 -36zM316 783h-105v3l122 120h101l124 -120v-3h-111l-65 65z" />
    <glyph glyph-name="Cdotaccent" unicode="&#x10a;" horiz-adv-x="678" 
d="M380 -13q-81 0 -141 20.5t-100.5 65t-60.5 113.5t-20 165q0 97 20.5 166t61 112.5t101 63.5t141.5 20q99 0 163.5 -32.5t100.5 -109.5l-93 -55q-27 58 -67.5 79.5t-103.5 21.5q-50 0 -88.5 -12t-64.5 -42.5t-40 -82t-14 -129.5t14 -130t40 -83t64.5 -44t88.5 -13
q63 0 108.5 25t75.5 86l91 -53q-42 -80 -109.5 -116t-167.5 -36zM313 840q0 32 19 47.5t52 15.5q32 0 50.5 -15.5t18.5 -47.5t-18.5 -48t-50.5 -16q-33 0 -52 16t-19 48z" />
    <glyph glyph-name="dotaccent" unicode="&#x2d9;" horiz-adv-x="575" 
d="M219 630q0 32 19 47.5t52 15.5q32 0 50.5 -15.5t18.5 -47.5t-18.5 -48t-50.5 -16q-33 0 -52 16t-19 48z" />
    <glyph glyph-name="Dcaron" unicode="&#x10e;" horiz-adv-x="733" 
d="M358 97q46 0 84 12.5t64 42.5t40.5 78.5t14.5 120.5q0 69 -13 117t-37.5 78t-60.5 43.5t-82 13.5h-159v-506h149zM92 0v700h277q157 0 233 -82.5t76 -263.5q0 -180 -77.5 -267t-235.5 -87h-273zM447 905h105v-2l-124 -121h-101l-122 121v2h109l65 -63z" />
    <glyph glyph-name="Dcroat" unicode="&#x110;" horiz-adv-x="752" 
d="M110 0v310h-78v90h78v300h278q157 0 232.5 -82.5t75.5 -263.5q0 -180 -77.5 -267t-235.5 -87h-273zM377 97q46 0 83.5 12.5t63.5 42.5t40.5 78.5t14.5 120.5q0 69 -12.5 117t-37.5 78t-61 43.5t-82 13.5h-159v-203h145v-90h-145v-213h150z" />
    <glyph glyph-name="Eacute" unicode="&#xc9;" horiz-adv-x="648" 
d="M92 700h517v-96h-403v-203h352v-97h-352v-208h413v-96h-527v700zM400 782h-91v4l78 119h133v-6z" />
    <glyph glyph-name="Ebreve" unicode="&#x114;" horiz-adv-x="648" 
d="M92 700h517v-96h-403v-203h352v-97h-352v-208h413v-96h-527v700zM514 905q0 -37 -10.5 -62t-30.5 -40t-48 -21t-64 -6q-72 0 -112.5 27.5t-40.5 101.5h77q0 -38 18.5 -52t56.5 -14t57 14t19 52h78z" />
    <glyph glyph-name="Ecaron" unicode="&#x11a;" horiz-adv-x="648" 
d="M92 700h517v-96h-403v-203h352v-97h-352v-208h413v-96h-527v700zM431 905h105v-2l-124 -121h-101l-122 121v2h109l65 -63z" />
    <glyph glyph-name="Ecircumflex" unicode="&#xca;" horiz-adv-x="648" 
d="M92 700h517v-96h-403v-203h352v-97h-352v-208h413v-96h-527v700zM295 782h-105v3l122 120h101l124 -120v-3h-111l-65 65z" />
    <glyph glyph-name="Edieresis" unicode="&#xcb;" horiz-adv-x="648" 
d="M92 700h517v-96h-403v-203h352v-97h-352v-208h413v-96h-527v700zM200 839q0 32 18 47.5t50 15.5t50 -15.5t18 -47.5t-18 -48t-50 -16t-50 16t-18 48zM387 839q0 32 18 47.5t50 15.5t50 -15.5t18 -47.5t-18 -48t-50 -16t-50 16t-18 48z" />
    <glyph glyph-name="Edotaccent" unicode="&#x116;" horiz-adv-x="648" 
d="M92 700h517v-96h-403v-203h352v-97h-352v-208h413v-96h-527v700zM292 839q0 32 19 47.5t52 15.5q32 0 50.5 -15.5t18.5 -47.5t-18.5 -48t-50.5 -16q-33 0 -52 16t-19 48z" />
    <glyph glyph-name="Egrave" unicode="&#xc8;" horiz-adv-x="648" 
d="M92 700h517v-96h-403v-203h352v-97h-352v-208h413v-96h-527v700zM204 901v6h134l78 -119v-4h-92z" />
    <glyph glyph-name="Emacron" unicode="&#x112;" horiz-adv-x="648" 
d="M92 700h517v-96h-403v-203h352v-97h-352v-208h413v-96h-527v700zM495 806h-267v69h267v-69z" />
    <glyph glyph-name="Eng" unicode="&#x14a;" horiz-adv-x="767" 
d="M563 1l-363 521l3 -522h-111v700h104l372 -531l-3 531h112v-727q0 -93 -45.5 -136t-122.5 -43q-22 0 -43.5 3.5t-44.5 12.5l18 85q14 -5 26.5 -8t29.5 -3q16 0 29 4.5t21.5 16t13 31t4.5 48.5v17z" />
    <glyph glyph-name="Eogonek" unicode="&#x118;" horiz-adv-x="648" 
d="M92 700h517v-95h-403v-204h352v-97h-352v-209h413v-95q-54 -4 -79.5 -33.5t-25.5 -63.5q0 -28 17 -39t43 -11q18 0 35 4t32 13l16 -64q-39 -24 -91 -24q-24 0 -46.5 5t-40.5 18t-28.5 33.5t-10.5 52.5q0 35 13.5 63t36.5 46h-398v700z" />
    <glyph glyph-name="Eth" unicode="&#xd0;" horiz-adv-x="752" 
d="M110 0v310h-78v90h78v300h278q157 0 232.5 -82.5t75.5 -263.5q0 -180 -77.5 -267t-235.5 -87h-273zM377 97q46 0 83.5 12.5t63.5 42.5t40.5 78.5t14.5 120.5q0 69 -12.5 117t-37.5 78t-61 43.5t-82 13.5h-159v-203h145v-90h-145v-213h150z" />
    <glyph glyph-name="Gbreve" unicode="&#x11e;" horiz-adv-x="721" 
d="M362 -13q-146 0 -225 88.5t-79 275.5q0 97 20.5 165.5t61 112t101 64t141.5 20.5q98 0 162 -32t99 -104l-93 -56q-27 52 -66.5 74t-101.5 22q-50 0 -88.5 -12t-65 -42t-40 -81.5t-13.5 -130.5q0 -78 13.5 -129.5t40 -83t64.5 -44.5t87 -13q31 0 62 8.5t56.5 28.5t41.5 53
t18 83v19h-174v89h281v-362h-90l-7 94q-29 -51 -83 -79t-123 -28zM532 906q0 -37 -10.5 -62t-30.5 -40t-48 -21t-64 -6q-72 0 -112.5 27.5t-40.5 101.5h77q0 -38 18.5 -52t56.5 -14t57 14t19 52h78z" />
    <glyph glyph-name="Gcircumflex" unicode="&#x11c;" horiz-adv-x="721" 
d="M362 -13q-146 0 -225 88.5t-79 275.5q0 97 20.5 165.5t61 112t101 64t141.5 20.5q98 0 162 -32t99 -104l-93 -56q-27 52 -66.5 74t-101.5 22q-50 0 -88.5 -12t-65 -42t-40 -81.5t-13.5 -130.5q0 -78 13.5 -129.5t40 -83t64.5 -44.5t87 -13q31 0 62 8.5t56.5 28.5t41.5 53
t18 83v19h-174v89h281v-362h-90l-7 94q-29 -51 -83 -79t-123 -28zM313 783h-105v3l122 120h101l124 -120v-3h-111l-65 65z" />
    <glyph glyph-name="Gcommaaccent" unicode="&#x122;" horiz-adv-x="721" 
d="M362 -13q-146 0 -225 88.5t-79 275.5q0 97 20.5 165.5t61 112t101 64t141.5 20.5q98 0 162 -32t99 -104l-93 -56q-27 52 -66.5 74t-101.5 22q-50 0 -88.5 -12t-65 -42t-40 -81.5t-13.5 -130.5q0 -78 13.5 -129.5t40 -83t64.5 -44.5t87 -13q31 0 62 8.5t56.5 28.5t41.5 53
t18 83v19h-174v89h281v-362h-90l-7 94q-29 -51 -83 -79t-123 -28zM306 -261q30 8 47.5 28.5t22.5 49.5q-35 -1 -53.5 15t-18.5 46q0 31 17.5 46t48.5 15q33 0 52 -20.5t19 -66.5q0 -58 -29 -102t-85 -57z" />
    <glyph glyph-name="commaaccent" unicode="&#xf6c3;" horiz-adv-x="575" 
d="M221 -261q30 8 47.5 28.5t22.5 49.5q-35 -1 -53.5 15t-18.5 46q0 31 17.5 46t48.5 15q33 0 52 -20.5t19 -66.5q0 -58 -29 -102t-85 -57z" />
    <glyph glyph-name="Gdotaccent" unicode="&#x120;" horiz-adv-x="721" 
d="M362 -13q-146 0 -225 88.5t-79 275.5q0 97 20.5 165.5t61 112t101 64t141.5 20.5q98 0 162 -32t99 -104l-93 -56q-27 52 -66.5 74t-101.5 22q-50 0 -88.5 -12t-65 -42t-40 -81.5t-13.5 -130.5q0 -78 13.5 -129.5t40 -83t64.5 -44.5t87 -13q31 0 62 8.5t56.5 28.5t41.5 53
t18 83v19h-174v89h281v-362h-90l-7 94q-29 -51 -83 -79t-123 -28zM310 840q0 32 19 47.5t52 15.5q32 0 50.5 -15.5t18.5 -47.5t-18.5 -48t-50.5 -16q-33 0 -52 16t-19 48z" />
    <glyph glyph-name="Hbar" unicode="&#x126;" horiz-adv-x="797" 
d="M580 301h-361v-301h-117v494h-70v70h70v136h117v-136h361v136h117v-136h69v-70h-69v-494h-117v301zM580 402v92h-361v-92h361z" />
    <glyph glyph-name="Hcircumflex" unicode="&#x124;" horiz-adv-x="777" 
d="M570 301h-361v-301h-117v700h117v-298h361v298h117v-700h-117v301zM323 783h-105v3l122 120h101l124 -120v-3h-111l-65 65z" />
    <glyph glyph-name="Iacute" unicode="&#xcd;" horiz-adv-x="299" 
d="M92 700h117v-700h-117v700zM192 782h-91v4l78 119h133v-6z" />
    <glyph glyph-name="Ibreve" unicode="&#x12c;" horiz-adv-x="299" 
d="M92 700h117v-700h-117v700zM306 905q0 -37 -10.5 -62t-30.5 -40t-48 -21t-64 -6q-72 0 -112.5 27.5t-40.5 101.5h77q0 -38 18.5 -52t56.5 -14t57 14t19 52h78z" />
    <glyph glyph-name="Icircumflex" unicode="&#xce;" horiz-adv-x="299" 
d="M92 700h117v-700h-117v700zM87 782h-105v3l122 120h101l124 -120v-3h-111l-65 65z" />
    <glyph glyph-name="Idieresis" unicode="&#xcf;" horiz-adv-x="299" 
d="M92 700h117v-700h-117v700zM-8 839q0 32 18 47.5t50 15.5t50 -15.5t18 -47.5t-18 -48t-50 -16t-50 16t-18 48zM179 839q0 32 18 47.5t50 15.5t50 -15.5t18 -47.5t-18 -48t-50 -16t-50 16t-18 48z" />
    <glyph glyph-name="Idotaccent" unicode="&#x130;" horiz-adv-x="299" 
d="M92 700h117v-700h-117v700zM84 839q0 32 19 47.5t52 15.5q32 0 50.5 -15.5t18.5 -47.5t-18.5 -48t-50.5 -16q-33 0 -52 16t-19 48z" />
    <glyph glyph-name="Igrave" unicode="&#xcc;" horiz-adv-x="299" 
d="M92 700h117v-700h-117v700zM-4 901v6h134l78 -119v-4h-92z" />
    <glyph glyph-name="IJ" unicode="&#x132;" horiz-adv-x="825" 
d="M92 700h117v-700h-117v700zM495 -13q-45 0 -88.5 12.5t-80.5 41.5l50 85q26 -22 58 -32.5t65 -10.5q31 0 56 9.5t43 30t27.5 53t9.5 79.5v445h117v-441q0 -77 -19 -129t-53.5 -84t-81.5 -45.5t-103 -13.5z" />
    <glyph glyph-name="Imacron" unicode="&#x12a;" horiz-adv-x="299" 
d="M92 700h117v-700h-117v700zM287 806h-267v69h267v-69z" />
    <glyph glyph-name="Iogonek" unicode="&#x12e;" horiz-adv-x="299" 
d="M110 -218q-24 0 -46.5 5t-40.5 18t-28.5 33.5t-10.5 52.5q0 28 9 51t24 41t34.5 30t40.5 19v668h117v-700h-56q-47 -4 -70.5 -33.5t-23.5 -63.5q0 -28 16.5 -39t43.5 -11q38 0 66 17l17 -64q-20 -12 -42.5 -18t-49.5 -6z" />
    <glyph glyph-name="Itilde" unicode="&#x128;" horiz-adv-x="299" 
d="M92 700h117v-700h-117v700zM318 899q3 -31 -5 -52t-21.5 -33.5t-31.5 -18t-35 -5.5q-22 0 -40.5 6t-34.5 13.5t-30.5 13.5t-28.5 6q-18 0 -23.5 -11t-5.5 -25h-76q-2 31 5.5 52t21 33.5t31 18t34.5 5.5q22 0 41 -6t35.5 -13.5t31 -13.5t28.5 -6q18 0 23 11t5 25h76z" />
    <glyph glyph-name="Jcircumflex" unicode="&#x134;" horiz-adv-x="497" 
d="M167 -13q-45 0 -88.5 12.5t-80.5 41.5l50 85q26 -22 58 -32.5t65 -10.5q31 0 56 9.5t43 30t27.5 53t9.5 79.5v445h117v-441q0 -77 -19 -129t-53.5 -84t-81.5 -45.5t-103 -13.5zM300 782h-105v3l122 120h101l124 -120v-3h-111l-65 65z" />
    <glyph glyph-name="Kcommaaccent" unicode="&#x136;" horiz-adv-x="645" 
d="M92 700h117l-1 -366l298 366h138l-261 -312l271 -388h-140l-210 303l-95 -113v-190h-117v700zM282 -261q30 8 47.5 28.5t22.5 49.5q-35 -1 -53.5 15t-18.5 46q0 31 17.5 46t48.5 15q33 0 52 -20.5t19 -66.5q0 -58 -29 -102t-85 -57z" />
    <glyph glyph-name="Lacute" unicode="&#x139;" horiz-adv-x="613" 
d="M599 98v-98h-507v700h117v-602h390zM190 782h-91v4l78 119h133v-6z" />
    <glyph glyph-name="Lcaron" unicode="&#x13d;" horiz-adv-x="613" 
d="M385 466l7 235h100l-32 -235h-75zM599 98v-98h-507v700h117v-602h390z" />
    <glyph glyph-name="caronSlovak" horiz-adv-x="575" 
d="M247 466l7 235h100l-32 -235h-75z" />
    <glyph glyph-name="Lcommaaccent" unicode="&#x13b;" horiz-adv-x="613" 
d="M599 98v-98h-507v700h117v-602h390zM282 -261q30 8 47.5 28.5t22.5 49.5q-35 -1 -53.5 15t-18.5 46q0 31 17.5 46t48.5 15q33 0 52 -20.5t19 -66.5q0 -58 -29 -102t-85 -57z" />
    <glyph glyph-name="Ldot" unicode="&#x13f;" horiz-adv-x="613" 
d="M599 98v-98h-507v700h117v-602h390zM384 351q0 32 19 47.5t52 15.5q32 0 50.5 -15.5t18.5 -47.5t-18.5 -48t-50.5 -16q-33 0 -52 16t-19 48z" />
    <glyph glyph-name="Lslash" unicode="&#x141;" horiz-adv-x="632" 
d="M618 98v-98h-507v239l-99 -60v98l99 60v363h117v-297l173 103v-99l-173 -103v-206h390z" />
    <glyph glyph-name="Nacute" unicode="&#x143;" horiz-adv-x="767" 
d="M200 522l3 -522h-111v700h104l372 -531l-3 531h112v-700h-111zM422 783h-91v4l78 119h133v-6z" />
    <glyph glyph-name="Ncaron" unicode="&#x147;" horiz-adv-x="767" 
d="M200 522l3 -522h-111v700h104l372 -531l-3 531h112v-700h-111zM453 906h105v-2l-124 -121h-101l-122 121v2h109l65 -63z" />
    <glyph glyph-name="Ncommaaccent" unicode="&#x145;" horiz-adv-x="767" 
d="M200 522l3 -522h-111v700h104l372 -531l-3 531h112v-700h-111zM320 -261q30 8 47.5 28.5t22.5 49.5q-35 -1 -53.5 15t-18.5 46q0 31 17.5 46t48.5 15q33 0 52 -20.5t19 -66.5q0 -58 -29 -102t-85 -57z" />
    <glyph glyph-name="Ntilde" unicode="&#xd1;" horiz-adv-x="767" 
d="M200 522l3 -522h-111v700h104l372 -531l-3 531h112v-700h-111zM548 900q3 -31 -5 -52t-21.5 -33.5t-31.5 -18t-35 -5.5q-22 0 -40.5 6t-34.5 13.5t-30.5 13.5t-28.5 6q-18 0 -23.5 -11t-5.5 -25h-76q-2 31 5.5 52t21 33.5t31 18t34.5 5.5q22 0 41 -6t35.5 -13.5t31 -13.5
t28.5 -6q18 0 23 11t5 25h76z" />
    <glyph glyph-name="Oacute" unicode="&#xd3;" horiz-adv-x="761" 
d="M58 351q0 190 80 276t243 86q85 0 146.5 -21t101 -65.5t58 -113t18.5 -162.5q0 -190 -80.5 -277t-243.5 -87q-167 0 -245 87t-78 277zM175 350q0 -76 13 -127.5t39 -82.5t64.5 -44.5t89.5 -13.5t89.5 13t64.5 44.5t39 83t13 129.5q0 75 -13 126t-39 82t-64.5 44.5
t-89.5 13.5t-89.5 -13t-64.5 -43.5t-39 -82t-13 -129.5zM419 783h-91v4l78 119h133v-6z" />
    <glyph glyph-name="Obreve" unicode="&#x14e;" horiz-adv-x="761" 
d="M58 351q0 190 80 276t243 86q85 0 146.5 -21t101 -65.5t58 -113t18.5 -162.5q0 -190 -80.5 -277t-243.5 -87q-167 0 -245 87t-78 277zM175 350q0 -76 13 -127.5t39 -82.5t64.5 -44.5t89.5 -13.5t89.5 13t64.5 44.5t39 83t13 129.5q0 75 -13 126t-39 82t-64.5 44.5
t-89.5 13.5t-89.5 -13t-64.5 -43.5t-39 -82t-13 -129.5zM533 906q0 -37 -10.5 -62t-30.5 -40t-48 -21t-64 -6q-72 0 -112.5 27.5t-40.5 101.5h77q0 -38 18.5 -52t56.5 -14t57 14t19 52h78z" />
    <glyph glyph-name="Ocircumflex" unicode="&#xd4;" horiz-adv-x="761" 
d="M58 351q0 190 80 276t243 86q85 0 146.5 -21t101 -65.5t58 -113t18.5 -162.5q0 -190 -80.5 -277t-243.5 -87q-167 0 -245 87t-78 277zM175 350q0 -76 13 -127.5t39 -82.5t64.5 -44.5t89.5 -13.5t89.5 13t64.5 44.5t39 83t13 129.5q0 75 -13 126t-39 82t-64.5 44.5
t-89.5 13.5t-89.5 -13t-64.5 -43.5t-39 -82t-13 -129.5zM314 783h-105v3l122 120h101l124 -120v-3h-111l-65 65z" />
    <glyph glyph-name="Odieresis" unicode="&#xd6;" horiz-adv-x="761" 
d="M58 351q0 190 80 276t243 86q85 0 146.5 -21t101 -65.5t58 -113t18.5 -162.5q0 -190 -80.5 -277t-243.5 -87q-167 0 -245 87t-78 277zM175 350q0 -76 13 -127.5t39 -82.5t64.5 -44.5t89.5 -13.5t89.5 13t64.5 44.5t39 83t13 129.5q0 75 -13 126t-39 82t-64.5 44.5
t-89.5 13.5t-89.5 -13t-64.5 -43.5t-39 -82t-13 -129.5zM219 840q0 32 18 47.5t50 15.5t50 -15.5t18 -47.5t-18 -48t-50 -16t-50 16t-18 48zM406 840q0 32 18 47.5t50 15.5t50 -15.5t18 -47.5t-18 -48t-50 -16t-50 16t-18 48z" />
    <glyph glyph-name="OE" unicode="&#x152;" horiz-adv-x="1077" 
d="M372 0q-159 0 -237 86t-78 267q0 180 77.5 263.5t239.5 83.5h664v-96h-396v-203h345v-97h-345v-208h406v-96h-676zM526 97v506h-153q-48 0 -85 -13t-62.5 -43t-38.5 -78t-13 -118q0 -71 13.5 -119.5t39 -78.5t63 -43t84.5 -13h152z" />
    <glyph glyph-name="Ograve" unicode="&#xd2;" horiz-adv-x="761" 
d="M58 351q0 190 80 276t243 86q85 0 146.5 -21t101 -65.5t58 -113t18.5 -162.5q0 -190 -80.5 -277t-243.5 -87q-167 0 -245 87t-78 277zM175 350q0 -76 13 -127.5t39 -82.5t64.5 -44.5t89.5 -13.5t89.5 13t64.5 44.5t39 83t13 129.5q0 75 -13 126t-39 82t-64.5 44.5
t-89.5 13.5t-89.5 -13t-64.5 -43.5t-39 -82t-13 -129.5zM223 902v6h134l78 -119v-4h-92z" />
    <glyph glyph-name="Ohungarumlaut" unicode="&#x150;" horiz-adv-x="761" 
d="M58 351q0 190 80 276t243 86q85 0 146.5 -21t101 -65.5t58 -113t18.5 -162.5q0 -190 -80.5 -277t-243.5 -87q-167 0 -245 87t-78 277zM175 350q0 -76 13 -127.5t39 -82.5t64.5 -44.5t89.5 -13.5t89.5 13t64.5 44.5t39 83t13 129.5q0 75 -13 126t-39 82t-64.5 44.5
t-89.5 13.5t-89.5 -13t-64.5 -43.5t-39 -82t-13 -129.5zM330 783h-84v4l64 119h119v-6zM480 783h-87v4l78 119h133v-6z" />
    <glyph glyph-name="hungarumlaut" unicode="&#x2dd;" horiz-adv-x="575" 
d="M244 573h-84v4l64 119h119v-6zM394 573h-87v4l78 119h133v-6z" />
    <glyph glyph-name="Omacron" unicode="&#x14c;" horiz-adv-x="761" 
d="M58 351q0 190 80 276t243 86q85 0 146.5 -21t101 -65.5t58 -113t18.5 -162.5q0 -190 -80.5 -277t-243.5 -87q-167 0 -245 87t-78 277zM175 350q0 -76 13 -127.5t39 -82.5t64.5 -44.5t89.5 -13.5t89.5 13t64.5 44.5t39 83t13 129.5q0 75 -13 126t-39 82t-64.5 44.5
t-89.5 13.5t-89.5 -13t-64.5 -43.5t-39 -82t-13 -129.5zM514 807h-267v69h267v-69z" />
    <glyph glyph-name="Oslash" unicode="&#xd8;" horiz-adv-x="771" 
d="M31 0l89 102q-29 45 -43 106.5t-14 142.5q0 189 80 275.5t243 86.5q140 0 217 -61l42 48h102l-92 -105q55 -88 55 -244q0 -95 -20 -164t-60 -113.5t-101 -65.5t-142 -21q-137 0 -214 59l-40 -46h-102zM386 82q51 0 89.5 13t64.5 44t39 83t13 130q0 47 -5 83.5t-16 64.5
l-327 -373q26 -25 61 -35t81 -10zM386 618q-51 0 -89.5 -13t-64.5 -43.5t-39 -82t-13 -129.5q0 -99 23 -154l328 373q-26 26 -62 37.5t-83 11.5z" />
    <glyph glyph-name="Otilde" unicode="&#xd5;" horiz-adv-x="761" 
d="M58 351q0 190 80 276t243 86q85 0 146.5 -21t101 -65.5t58 -113t18.5 -162.5q0 -190 -80.5 -277t-243.5 -87q-167 0 -245 87t-78 277zM175 350q0 -76 13 -127.5t39 -82.5t64.5 -44.5t89.5 -13.5t89.5 13t64.5 44.5t39 83t13 129.5q0 75 -13 126t-39 82t-64.5 44.5
t-89.5 13.5t-89.5 -13t-64.5 -43.5t-39 -82t-13 -129.5zM545 900q3 -31 -5 -52t-21.5 -33.5t-31.5 -18t-35 -5.5q-22 0 -40.5 6t-34.5 13.5t-30.5 13.5t-28.5 6q-18 0 -23.5 -11t-5.5 -25h-76q-2 31 5.5 52t21 33.5t31 18t34.5 5.5q22 0 41 -6t35.5 -13.5t31 -13.5t28.5 -6
q18 0 23 11t5 25h76z" />
    <glyph glyph-name="Racute" unicode="&#x154;" horiz-adv-x="665" 
d="M92 700h301q119 0 177.5 -57t58.5 -160q0 -81 -34 -133.5t-97 -76.5l141 -273h-128l-129 252h-174v-252h-116v700zM208 602v-253h173q62 0 96.5 32t34.5 98q0 57 -31 90t-98 33h-175zM406 782h-91v4l78 119h133v-6z" />
    <glyph glyph-name="Rcaron" unicode="&#x158;" horiz-adv-x="665" 
d="M92 700h301q119 0 177.5 -57t58.5 -160q0 -81 -34 -133.5t-97 -76.5l141 -273h-128l-129 252h-174v-252h-116v700zM208 602v-253h173q62 0 96.5 32t34.5 98q0 57 -31 90t-98 33h-175zM437 905h105v-2l-124 -121h-101l-122 121v2h109l65 -63z" />
    <glyph glyph-name="Rcommaaccent" unicode="&#x156;" horiz-adv-x="665" 
d="M92 700h301q119 0 177.5 -57t58.5 -160q0 -81 -34 -133.5t-97 -76.5l141 -273h-128l-129 252h-174v-252h-116v700zM208 602v-253h173q62 0 96.5 32t34.5 98q0 57 -31 90t-98 33h-175zM278 -261q30 8 47.5 28.5t22.5 49.5q-35 -1 -53.5 15t-18.5 46q0 31 17.5 46t48.5 15
q33 0 52 -20.5t19 -66.5q0 -58 -29 -102t-85 -57z" />
    <glyph glyph-name="Sacute" unicode="&#x15a;" 
d="M463 530q-27 48 -64.5 70.5t-100.5 22.5q-39 0 -66.5 -7.5t-44 -21t-24 -31t-7.5 -38.5q0 -38 26 -67t98 -46l63 -15q117 -28 169.5 -76.5t52.5 -128.5q0 -100 -69 -152.5t-197 -52.5q-91 0 -162.5 30.5t-116.5 105.5l85 58q36 -58 79.5 -82t111.5 -24q81 0 118.5 28
t37.5 79q0 22 -6.5 39t-21.5 30t-40.5 23t-62.5 19l-64 16q-113 29 -161 82t-48 128q0 43 15.5 79t46.5 61.5t77.5 39.5t109.5 14q94 0 154.5 -30.5t97.5 -96.5zM339 783h-91v4l78 119h133v-6z" />
    <glyph glyph-name="Scaron" unicode="&#x160;" 
d="M463 530q-27 48 -64.5 70.5t-100.5 22.5q-39 0 -66.5 -7.5t-44 -21t-24 -31t-7.5 -38.5q0 -38 26 -67t98 -46l63 -15q117 -28 169.5 -76.5t52.5 -128.5q0 -100 -69 -152.5t-197 -52.5q-91 0 -162.5 30.5t-116.5 105.5l85 58q36 -58 79.5 -82t111.5 -24q81 0 118.5 28
t37.5 79q0 22 -6.5 39t-21.5 30t-40.5 23t-62.5 19l-64 16q-113 29 -161 82t-48 128q0 43 15.5 79t46.5 61.5t77.5 39.5t109.5 14q94 0 154.5 -30.5t97.5 -96.5zM370 906h105v-2l-124 -121h-101l-122 121v2h109l65 -63z" />
    <glyph glyph-name="Scedilla" unicode="&#x15e;" 
d="M291 -242q-41 0 -74 15t-53 48l47 45q14 -23 31 -35t45 -12q23 0 37.5 9t14.5 29q0 19 -14 29.5t-39 10.5q-6 0 -11.5 -0.5t-11.5 -1.5l-19 15l22 78q-80 5 -143 35.5t-103 99.5l85 58q36 -58 79.5 -82t111.5 -24q81 0 118.5 28t37.5 79q0 22 -6.5 39t-21.5 30t-40.5 23
t-62.5 19l-64 16q-113 29 -161 82t-48 128q0 43 15.5 79t46.5 61.5t77.5 39.5t109.5 14q94 0 154.5 -30.5t97.5 -96.5l-86 -56q-27 48 -64.5 70.5t-100.5 22.5q-39 0 -66.5 -7.5t-44 -21t-24 -31t-7.5 -38.5q0 -38 26 -67t98 -46l63 -15q117 -28 169.5 -76.5t52.5 -128.5
q0 -94 -60 -145.5t-172 -58.5l-13 -45h2q37 -1 65 -23t28 -64q0 -25 -10 -43.5t-27 -30.5t-39.5 -18t-47.5 -6z" />
    <glyph glyph-name="Scircumflex" unicode="&#x15c;" 
d="M463 530q-27 48 -64.5 70.5t-100.5 22.5q-39 0 -66.5 -7.5t-44 -21t-24 -31t-7.5 -38.5q0 -38 26 -67t98 -46l63 -15q117 -28 169.5 -76.5t52.5 -128.5q0 -100 -69 -152.5t-197 -52.5q-91 0 -162.5 30.5t-116.5 105.5l85 58q36 -58 79.5 -82t111.5 -24q81 0 118.5 28
t37.5 79q0 22 -6.5 39t-21.5 30t-40.5 23t-62.5 19l-64 16q-113 29 -161 82t-48 128q0 43 15.5 79t46.5 61.5t77.5 39.5t109.5 14q94 0 154.5 -30.5t97.5 -96.5zM234 783h-105v3l122 120h101l124 -120v-3h-111l-65 65z" />
    <glyph glyph-name="Scommaaccent" unicode="&#x218;" 
d="M463 530q-27 48 -64.5 70.5t-100.5 22.5q-39 0 -66.5 -7.5t-44 -21t-24 -31t-7.5 -38.5q0 -38 26 -67t98 -46l63 -15q117 -28 169.5 -76.5t52.5 -128.5q0 -100 -69 -152.5t-197 -52.5q-91 0 -162.5 30.5t-116.5 105.5l85 58q36 -58 79.5 -82t111.5 -24q81 0 118.5 28
t37.5 79q0 22 -6.5 39t-21.5 30t-40.5 23t-62.5 19l-64 16q-113 29 -161 82t-48 128q0 43 15.5 79t46.5 61.5t77.5 39.5t109.5 14q94 0 154.5 -30.5t97.5 -96.5zM235 -261q30 8 47.5 28.5t22.5 49.5q-35 -1 -53.5 15t-18.5 46q0 31 17.5 46t48.5 15q33 0 52 -20.5t19 -66.5
q0 -58 -29 -102t-85 -57z" />
    <glyph glyph-name="Tbar" unicode="&#x166;" horiz-adv-x="565" 
d="M565 700v-99h-223v-215h174v-80h-174v-306h-118v306h-174v80h174v215h-223v99h564z" />
    <glyph glyph-name="Tcaron" unicode="&#x164;" horiz-adv-x="564" 
d="M565 700v-99h-224v-601h-117v601h-223v99h564zM353 905h105v-2l-124 -121h-101l-122 121v2h109l65 -63z" />
    <glyph glyph-name="Tcommaaccent" unicode="&#x162;" horiz-adv-x="564" 
d="M565 700v-99h-224v-601h-117v601h-223v99h564zM220 -261q30 8 47.5 28.5t22.5 49.5q-35 -1 -53.5 15t-18.5 46q0 31 17.5 46t48.5 15q33 0 52 -20.5t19 -66.5q0 -58 -29 -102t-85 -57z" />
    <glyph glyph-name="Thorn" unicode="&#xde;" horiz-adv-x="642" 
d="M92 700h117v-122h177q117 0 173.5 -57.5t56.5 -159.5q0 -112 -64.5 -169t-179.5 -57h-163v-135h-117v700zM209 478v-245h167q59 0 91.5 30.5t32.5 93.5q0 56 -29.5 88.5t-94.5 32.5h-167z" />
    <glyph glyph-name="Uacute" unicode="&#xda;" horiz-adv-x="734" 
d="M544 700h117v-421q0 -148 -78 -220t-215 -72q-141 0 -217.5 72t-76.5 220v421h117v-427q0 -50 12.5 -86t35.5 -59t55.5 -34t73.5 -11q81 0 128.5 44.5t47.5 145.5v427zM407 783h-91v4l78 119h133v-6z" />
    <glyph glyph-name="Ubreve" unicode="&#x16c;" horiz-adv-x="734" 
d="M544 700h117v-421q0 -148 -78 -220t-215 -72q-141 0 -217.5 72t-76.5 220v421h117v-427q0 -50 12.5 -86t35.5 -59t55.5 -34t73.5 -11q81 0 128.5 44.5t47.5 145.5v427zM521 906q0 -37 -10.5 -62t-30.5 -40t-48 -21t-64 -6q-72 0 -112.5 27.5t-40.5 101.5h77
q0 -38 18.5 -52t56.5 -14t57 14t19 52h78z" />
    <glyph glyph-name="Ucircumflex" unicode="&#xdb;" horiz-adv-x="734" 
d="M544 700h117v-421q0 -148 -78 -220t-215 -72q-141 0 -217.5 72t-76.5 220v421h117v-427q0 -50 12.5 -86t35.5 -59t55.5 -34t73.5 -11q81 0 128.5 44.5t47.5 145.5v427zM302 783h-105v3l122 120h101l124 -120v-3h-111l-65 65z" />
    <glyph glyph-name="Udieresis" unicode="&#xdc;" horiz-adv-x="734" 
d="M544 700h117v-421q0 -148 -78 -220t-215 -72q-141 0 -217.5 72t-76.5 220v421h117v-427q0 -50 12.5 -86t35.5 -59t55.5 -34t73.5 -11q81 0 128.5 44.5t47.5 145.5v427zM207 840q0 32 18 47.5t50 15.5t50 -15.5t18 -47.5t-18 -48t-50 -16t-50 16t-18 48zM394 840
q0 32 18 47.5t50 15.5t50 -15.5t18 -47.5t-18 -48t-50 -16t-50 16t-18 48z" />
    <glyph glyph-name="Ugrave" unicode="&#xd9;" horiz-adv-x="734" 
d="M544 700h117v-421q0 -148 -78 -220t-215 -72q-141 0 -217.5 72t-76.5 220v421h117v-427q0 -50 12.5 -86t35.5 -59t55.5 -34t73.5 -11q81 0 128.5 44.5t47.5 145.5v427zM211 902v6h134l78 -119v-4h-92z" />
    <glyph glyph-name="Uhungarumlaut" unicode="&#x170;" horiz-adv-x="734" 
d="M544 700h117v-421q0 -148 -78 -220t-215 -72q-141 0 -217.5 72t-76.5 220v421h117v-427q0 -50 12.5 -86t35.5 -59t55.5 -34t73.5 -11q81 0 128.5 44.5t47.5 145.5v427zM318 783h-84v4l64 119h119v-6zM468 783h-87v4l78 119h133v-6z" />
    <glyph glyph-name="Umacron" unicode="&#x16a;" horiz-adv-x="734" 
d="M544 700h117v-421q0 -148 -78 -220t-215 -72q-141 0 -217.5 72t-76.5 220v421h117v-427q0 -50 12.5 -86t35.5 -59t55.5 -34t73.5 -11q81 0 128.5 44.5t47.5 145.5v427zM502 807h-267v69h267v-69z" />
    <glyph glyph-name="Uogonek" unicode="&#x172;" horiz-adv-x="735" 
d="M334 -99q0 26 8.5 48t22.5 39h-5q-136 3 -210.5 74.5t-74.5 216.5v421h117v-427q0 -50 12.5 -86t35.5 -59t55.5 -33.5t72.5 -10.5q41 0 73.5 10.5t55.5 33.5t35.5 59t12.5 86v427h117v-421q0 -117 -50 -184.5t-139 -94.5q-32 -11 -48 -35t-16 -50q0 -35 17 -48.5
t43 -13.5q35 0 67 18l16 -65q-20 -12 -42.5 -18t-49.5 -6q-24 0 -46.5 6t-40 19.5t-28.5 36.5t-11 57z" />
    <glyph glyph-name="Uring" unicode="&#x16e;" horiz-adv-x="734" 
d="M544 700h117v-421q0 -148 -78 -220t-215 -72q-141 0 -217.5 72t-76.5 220v421h117v-427q0 -50 12.5 -86t35.5 -59t55.5 -34t73.5 -11q81 0 128.5 44.5t47.5 145.5v427zM265 855q0 46 29.5 72t74.5 26t73.5 -26t28.5 -72t-29 -71.5t-74 -25.5t-74 25.5t-29 71.5zM321 855
q0 -22 13 -36t34 -14q20 0 34 14t14 36q0 23 -13.5 36.5t-33.5 13.5q-22 0 -35 -13.5t-13 -36.5z" />
    <glyph glyph-name="Utilde" unicode="&#x168;" horiz-adv-x="734" 
d="M544 700h117v-421q0 -148 -78 -220t-215 -72q-141 0 -217.5 72t-76.5 220v421h117v-427q0 -50 12.5 -86t35.5 -59t55.5 -34t73.5 -11q81 0 128.5 44.5t47.5 145.5v427zM533 900q3 -31 -5 -52t-21.5 -33.5t-31.5 -18t-35 -5.5q-22 0 -40.5 6t-34.5 13.5t-30.5 13.5
t-28.5 6q-18 0 -23.5 -11t-5.5 -25h-76q-2 31 5.5 52t21 33.5t31 18t34.5 5.5q22 0 41 -6t35.5 -13.5t31 -13.5t28.5 -6q18 0 23 11t5 25h76z" />
    <glyph glyph-name="Wacute" unicode="&#x1e82;" horiz-adv-x="919" 
d="M515 698l145 -533l145 535h114l-203 -700h-113l-145 534l-144 -534h-112l-202 700h119l142 -537l145 535h109zM498 782h-91v4l78 119h133v-6z" />
    <glyph glyph-name="Wdieresis" unicode="&#x1e84;" horiz-adv-x="919" 
d="M515 698l145 -533l145 535h114l-203 -700h-113l-145 534l-144 -534h-112l-202 700h119l142 -537l145 535h109zM298 839q0 32 18 47.5t50 15.5t50 -15.5t18 -47.5t-18 -48t-50 -16t-50 16t-18 48zM485 839q0 32 18 47.5t50 15.5t50 -15.5t18 -47.5t-18 -48t-50 -16t-50 16
t-18 48z" />
    <glyph glyph-name="Wgrave" unicode="&#x1e80;" horiz-adv-x="919" 
d="M515 698l145 -533l145 535h114l-203 -700h-113l-145 534l-144 -534h-112l-202 700h119l142 -537l145 535h109zM302 901v6h134l78 -119v-4h-92z" />
    <glyph glyph-name="Wcircumflex" unicode="&#x174;" horiz-adv-x="919" 
d="M515 698l145 -533l145 535h114l-203 -700h-113l-145 534l-144 -534h-112l-202 700h119l142 -537l145 535h109zM393 782h-105v3l122 120h101l124 -120v-3h-111l-65 65z" />
    <glyph glyph-name="Yacute" unicode="&#xdd;" horiz-adv-x="619" 
d="M0 700h128l185 -328l183 328h123l-251 -429v-271h-117v273zM349 783h-91v4l78 119h133v-6z" />
    <glyph glyph-name="Ycircumflex" unicode="&#x176;" horiz-adv-x="619" 
d="M0 700h128l185 -328l183 328h123l-251 -429v-271h-117v273zM244 783h-105v3l122 120h101l124 -120v-3h-111l-65 65z" />
    <glyph glyph-name="Ydieresis" unicode="&#x178;" horiz-adv-x="619" 
d="M0 700h128l185 -328l183 328h123l-251 -429v-271h-117v273zM149 840q0 32 18 47.5t50 15.5t50 -15.5t18 -47.5t-18 -48t-50 -16t-50 16t-18 48zM336 840q0 32 18 47.5t50 15.5t50 -15.5t18 -47.5t-18 -48t-50 -16t-50 16t-18 48z" />
    <glyph glyph-name="Zacute" unicode="&#x179;" horiz-adv-x="561" 
d="M8 80l401 525l-379 -2v97h520v-80l-402 -525l406 2v-97h-546v80zM320 782h-91v4l78 119h133v-6z" />
    <glyph glyph-name="Zcaron" unicode="&#x17d;" horiz-adv-x="561" 
d="M8 80l401 525l-379 -2v97h520v-80l-402 -525l406 2v-97h-546v80zM352 905h105v-2l-124 -121h-101l-122 121v2h109l65 -63z" />
    <glyph glyph-name="Zdotaccent" unicode="&#x17b;" horiz-adv-x="561" 
d="M8 80l401 525l-379 -2v97h520v-80l-402 -525l406 2v-97h-546v80zM213 839q0 32 19 47.5t52 15.5q32 0 50.5 -15.5t18.5 -47.5t-18.5 -48t-50.5 -16q-33 0 -52 16t-19 48z" />
    <glyph glyph-name="a" unicode="a" horiz-adv-x="593" 
d="M416 84q-24 -48 -67.5 -72.5t-102.5 -24.5q-99 0 -153 65.5t-54 191.5q0 129 57.5 194t160.5 65q56 0 97 -22.5t65 -68.5l10 79h93v-491h-99zM411 246q0 45 -10 77t-28 53t-42.5 30.5t-52.5 9.5q-65 0 -96.5 -41t-31.5 -131q0 -88 32 -128.5t96 -40.5q28 0 52.5 10
t42.5 30.5t28 53t10 77.5z" />
    <glyph glyph-name="b" unicode="b" horiz-adv-x="596" 
d="M185 413q26 46 69.5 68t100.5 22q97 0 150 -63.5t53 -191.5q0 -125 -56.5 -193t-163.5 -68q-55 0 -97.5 21.5t-67.5 66.5l-7 -75h-94v700h113v-287zM184 243q0 -89 37 -129t96 -40q66 0 98 41t32 129q0 91 -32.5 131.5t-95.5 40.5q-30 0 -54.5 -10t-42.5 -31t-28 -53.5
t-10 -78.5z" />
    <glyph glyph-name="c" unicode="c" horiz-adv-x="510" 
d="M279 -13q-113 0 -176.5 61t-63.5 197q0 134 63.5 196t179.5 62q77 0 126.5 -27.5t78.5 -81.5l-79 -54q-36 74 -125 74q-68 0 -100.5 -37t-32.5 -133q0 -91 32 -130t100 -39q48 0 79 17.5t51 61.5l81 -45q-29 -63 -82.5 -92.5t-131.5 -29.5z" />
    <glyph glyph-name="d" unicode="d" horiz-adv-x="596" 
d="M419 84q-49 -97 -173 -97q-99 0 -153 65.5t-54 191.5q0 128 57 193.5t160 65.5q104 0 156 -76v273h113v-700h-100zM413 246q0 45 -10.5 77t-28.5 53t-42.5 30.5t-53.5 9.5q-65 0 -96.5 -41t-31.5 -131q0 -88 32 -128.5t96 -40.5q29 0 54 10t43 30.5t28 53t10 77.5z" />
    <glyph glyph-name="e" unicode="e" horiz-adv-x="530" 
d="M279 -13q-113 0 -176.5 62.5t-63.5 194.5q0 126 61.5 192.5t178.5 66.5q57 0 98 -18.5t68 -50.5t39.5 -76.5t12.5 -95.5q0 -22 -3 -49h-346q5 -78 39.5 -110t97.5 -32q48 0 80 16t53 61l75 -43q-29 -62 -84 -90t-130 -28zM276 419q-56 0 -89 -30t-38 -101h241
q-3 69 -32 100t-82 31z" />
    <glyph glyph-name="f" unicode="f" horiz-adv-x="343" 
d="M97 491v51q0 96 45.5 138t122.5 42q23 0 49 -4.5t44 -13.5l-19 -84q-13 6 -26.5 9.5t-31.5 3.5q-35 0 -54.5 -20.5t-19.5 -74.5v-47h137v-85h-137v-406h-110v406h-87v85h87z" />
    <glyph glyph-name="g" unicode="g" horiz-adv-x="594" 
d="M523 32q0 -62 -19 -107t-53 -74t-81.5 -43t-103.5 -14q-73 0 -129.5 25t-87.5 88l72 56q24 -46 59 -64.5t83 -18.5q66 0 107 33t41 109v70q-48 -89 -165 -89q-96 0 -151.5 63t-55.5 187t55 187t156 63q59 0 102 -22t67 -67l10 77h94v-459zM411 255q0 85 -38.5 123.5
t-96.5 38.5q-64 0 -95.5 -39t-31.5 -124t32 -124.5t95 -39.5q59 0 97 39t38 126z" />
    <glyph glyph-name="h" unicode="h" horiz-adv-x="611" 
d="M185 398q27 55 75.5 80t105.5 25q93 0 136.5 -51t43.5 -145v-307h-113v273q0 73 -28 103t-80 30q-63 0 -100.5 -41.5t-39.5 -121.5v-243h-113v700h113v-302z" />
    <glyph glyph-name="i" unicode="i" horiz-adv-x="259" 
d="M187 491v-491h-113v491h113zM59 630q0 33 18.5 49.5t52.5 16.5t52.5 -16.5t18.5 -49.5t-18.5 -49.5t-52.5 -16.5t-52.5 16.5t-18.5 49.5z" />
    <glyph glyph-name="j" unicode="j" horiz-adv-x="259" 
d="M74 491h113v-518q0 -93 -45.5 -136t-122.5 -43q-22 0 -43.5 3.5t-44.5 12.5l18 85q13 -5 25.5 -8t30.5 -3q16 0 29 4.5t22 16t13.5 31t4.5 48.5v507zM59 630q0 33 18.5 49.5t52.5 16.5t52.5 -16.5t18.5 -49.5t-18.5 -49.5t-52.5 -16.5t-52.5 16.5t-18.5 49.5z" />
    <glyph glyph-name="k" unicode="k" horiz-adv-x="521" 
d="M72 700h112l-2 -458l215 249h129l-196 -219l198 -272h-129l-142 197l-73 -78v-119h-112v700z" />
    <glyph glyph-name="l" unicode="l" horiz-adv-x="259" 
d="M187 0h-113v700h113v-700z" />
    <glyph glyph-name="m" unicode="m" horiz-adv-x="913" 
d="M72 491h95l11 -90q27 54 73 78t96 24q65 0 101.5 -33.5t49.5 -83.5q25 61 74.5 89t109.5 28q86 0 126 -50t40 -143v-310h-113v278q0 69 -23.5 98t-68.5 29q-57 0 -91 -38t-36 -115v-252h-113v275q0 71 -24 100.5t-72 29.5q-54 0 -87 -38t-35 -116v-251h-113v491z" />
    <glyph glyph-name="n" unicode="n" horiz-adv-x="611" 
d="M168 491l11 -91q28 54 76.5 78.5t108.5 24.5q94 0 138 -51t44 -145v-307h-113v275q0 72 -27.5 101.5t-80.5 29.5q-63 0 -100.5 -41.5t-39.5 -121.5v-243h-113v491h96z" />
    <glyph glyph-name="o" unicode="o" horiz-adv-x="568" 
d="M420 245q0 94 -32.5 132.5t-102.5 38.5q-72 0 -104 -38.5t-32 -132.5q0 -93 33 -132t103 -39q69 0 102 39t33 132zM39 246q0 133 64.5 195t181.5 62q124 0 184.5 -61t60.5 -196q0 -132 -62 -195.5t-183 -63.5t-183.5 62t-62.5 197z" />
    <glyph glyph-name="p" unicode="p" horiz-adv-x="596" 
d="M167 491l11 -88q26 50 71 75t105 25q100 0 152 -64.5t52 -189.5t-56 -193.5t-165 -68.5q-103 0 -152 72v-246h-113v678h95zM184 244q0 -89 37 -129.5t95 -40.5q66 0 98.5 41.5t32.5 129.5q0 90 -32.5 130.5t-95.5 40.5q-59 0 -97 -40.5t-38 -131.5z" />
    <glyph glyph-name="q" unicode="q" horiz-adv-x="596" 
d="M412 -186v258q-52 -85 -166 -85q-98 0 -152.5 64t-54.5 192t57.5 194t160.5 66q55 0 97 -22t66 -67l10 77h95v-677h-113zM413 246q0 45 -10 77.5t-28 53t-43 30t-54 9.5q-64 0 -96 -40t-32 -131q0 -88 32.5 -129t95.5 -41q59 0 97 40.5t38 130.5z" />
    <glyph glyph-name="r" unicode="r" horiz-adv-x="367" 
d="M72 491h95l11 -102q26 59 73.5 87t109.5 25v-108q-88 8 -131 -38t-45 -135v-220h-113v491z" />
    <glyph glyph-name="s" unicode="s" horiz-adv-x="486" 
d="M239 70q53 0 76 16t23 45q0 28 -19 40t-65 22l-43 9q-85 19 -124 60t-39 96q0 31 11.5 57.5t35 46t60 30.5t87.5 11q68 0 112.5 -20t77.5 -61l-67 -66q-25 31 -53 46.5t-73 15.5q-88 0 -88 -56q0 -22 17.5 -38t62.5 -26l55 -12q86 -19 121.5 -57t35.5 -89
q0 -29 -9.5 -56.5t-33.5 -49t-63.5 -34.5t-99.5 -13q-73 0 -127 22.5t-87 76.5l70 59q26 -40 61 -57.5t85 -17.5z" />
    <glyph glyph-name="t" unicode="t" horiz-adv-x="355" 
d="M89 491v142h110v-142h138v-85h-138v-235q0 -57 21.5 -75.5t56.5 -18.5q18 0 31.5 3t27.5 8l17 -81q-27 -11 -49.5 -15.5t-48.5 -4.5q-37 0 -67.5 9.5t-52.5 31t-34 55t-12 81.5v242h-82v85h82z" />
    <glyph glyph-name="u" unicode="u" 
d="M432 85q-28 -51 -75.5 -74.5t-101.5 -23.5q-98 0 -143.5 53.5t-45.5 146.5v304h113v-280q0 -132 109 -132q61 0 97 41t38 120v251h113v-491h-95z" />
    <glyph glyph-name="v" unicode="v" horiz-adv-x="511" 
d="M118 491l140 -379l138 379h115l-195 -491h-120l-196 491h118z" />
    <glyph glyph-name="w" unicode="w" horiz-adv-x="739" 
d="M423 488l107 -359l104 362h105l-155 -491h-110l-105 362l-103 -362h-109l-157 491h108l106 -361l106 358h103z" />
    <glyph glyph-name="x" unicode="x" horiz-adv-x="513" 
d="M141 491l120 -170l118 170h123l-181 -242l192 -249h-129l-131 177l-130 -177h-123l193 251l-181 240h129z" />
    <glyph glyph-name="y" unicode="y" horiz-adv-x="511" 
d="M196 -6l-199 497h118l140 -378l139 378h117l-230 -573q-29 -72 -76.5 -98t-109.5 -26q-25 0 -45 3.5t-44 11.5l15 87q17 -6 32 -9.5t35 -3.5q12 0 25.5 2.5t26 10t23.5 22t20 37.5z" />
    <glyph glyph-name="z" unicode="z" horiz-adv-x="471" 
d="M25 74l280 330h-275v87h408v-77l-281 -328h289v-86h-421v74z" />
    <glyph glyph-name="aacute" unicode="&#xe1;" horiz-adv-x="593" 
d="M416 84q-24 -48 -67.5 -72.5t-102.5 -24.5q-99 0 -153 65.5t-54 191.5q0 129 57.5 194t160.5 65q56 0 97 -22.5t65 -68.5l10 79h93v-491h-99zM411 246q0 45 -10 77t-28 53t-42.5 30.5t-52.5 9.5q-65 0 -96.5 -41t-31.5 -131q0 -88 32 -128.5t96 -40.5q28 0 52.5 10
t42.5 30.5t28 53t10 77.5zM316 573h-91v4l78 119h133v-6z" />
    <glyph glyph-name="abreve" unicode="&#x103;" horiz-adv-x="593" 
d="M416 84q-24 -48 -67.5 -72.5t-102.5 -24.5q-99 0 -153 65.5t-54 191.5q0 129 57.5 194t160.5 65q56 0 97 -22.5t65 -68.5l10 79h93v-491h-99zM411 246q0 45 -10 77t-28 53t-42.5 30.5t-52.5 9.5q-65 0 -96.5 -41t-31.5 -131q0 -88 32 -128.5t96 -40.5q28 0 52.5 10
t42.5 30.5t28 53t10 77.5zM430 696q0 -37 -10.5 -62t-30.5 -40t-48 -21t-64 -6q-72 0 -112.5 27.5t-40.5 101.5h77q0 -38 18.5 -52t56.5 -14t57 14t19 52h78z" />
    <glyph glyph-name="acircumflex" unicode="&#xe2;" horiz-adv-x="593" 
d="M416 84q-24 -48 -67.5 -72.5t-102.5 -24.5q-99 0 -153 65.5t-54 191.5q0 129 57.5 194t160.5 65q56 0 97 -22.5t65 -68.5l10 79h93v-491h-99zM411 246q0 45 -10 77t-28 53t-42.5 30.5t-52.5 9.5q-65 0 -96.5 -41t-31.5 -131q0 -88 32 -128.5t96 -40.5q28 0 52.5 10
t42.5 30.5t28 53t10 77.5zM211 573h-105v3l122 120h101l124 -120v-3h-111l-65 65z" />
    <glyph glyph-name="adieresis" unicode="&#xe4;" horiz-adv-x="593" 
d="M416 84q-24 -48 -67.5 -72.5t-102.5 -24.5q-99 0 -153 65.5t-54 191.5q0 129 57.5 194t160.5 65q56 0 97 -22.5t65 -68.5l10 79h93v-491h-99zM411 246q0 45 -10 77t-28 53t-42.5 30.5t-52.5 9.5q-65 0 -96.5 -41t-31.5 -131q0 -88 32 -128.5t96 -40.5q28 0 52.5 10
t42.5 30.5t28 53t10 77.5zM132 630q0 32 18 47.5t50 15.5t50 -15.5t18 -47.5t-18 -48t-50 -16t-50 16t-18 48zM319 630q0 32 18 47.5t50 15.5t50 -15.5t18 -47.5t-18 -48t-50 -16t-50 16t-18 48z" />
    <glyph glyph-name="ae" unicode="&#xe6;" horiz-adv-x="868" 
d="M213 -12q-76 0 -124 37.5t-48 108.5q0 35 12.5 64.5t39 51t67.5 33.5t98 12h117q-1 35 -9 58.5t-23.5 37.5t-38 19.5t-51.5 5.5q-51 0 -85 -16.5t-57 -45.5l-52 66q62 83 207 83q57 0 101.5 -17t70.5 -59q59 76 179 76q56 0 97 -18t67.5 -50t39 -75t12.5 -92
q0 -12 -0.5 -23.5t-2.5 -24.5h-346q3 -81 38 -115t100 -34q48 0 80 16t52 61l76 -43q-30 -61 -84.5 -89.5t-129.5 -28.5q-70 0 -120 25.5t-78 79.5q-26 -48 -77.5 -76t-127.5 -28zM239 68q60 0 98 40t38 112h-110q-63 0 -90.5 -20t-27.5 -64q0 -32 22 -50t70 -18zM613 419
q-54 0 -87 -28.5t-40 -95.5h240q-4 68 -32.5 96t-80.5 28z" />
    <glyph glyph-name="agrave" unicode="&#xe0;" horiz-adv-x="593" 
d="M416 84q-24 -48 -67.5 -72.5t-102.5 -24.5q-99 0 -153 65.5t-54 191.5q0 129 57.5 194t160.5 65q56 0 97 -22.5t65 -68.5l10 79h93v-491h-99zM411 246q0 45 -10 77t-28 53t-42.5 30.5t-52.5 9.5q-65 0 -96.5 -41t-31.5 -131q0 -88 32 -128.5t96 -40.5q28 0 52.5 10
t42.5 30.5t28 53t10 77.5zM120 692v6h134l78 -119v-4h-92z" />
    <glyph glyph-name="amacron" unicode="&#x101;" horiz-adv-x="593" 
d="M416 84q-24 -48 -67.5 -72.5t-102.5 -24.5q-99 0 -153 65.5t-54 191.5q0 129 57.5 194t160.5 65q56 0 97 -22.5t65 -68.5l10 79h93v-491h-99zM411 246q0 45 -10 77t-28 53t-42.5 30.5t-52.5 9.5q-65 0 -96.5 -41t-31.5 -131q0 -88 32 -128.5t96 -40.5q28 0 52.5 10
t42.5 30.5t28 53t10 77.5zM411 597h-267v69h267v-69z" />
    <glyph glyph-name="aogonek" unicode="&#x105;" horiz-adv-x="593" 
d="M411 246q0 45 -10 77t-28 53t-42.5 30.5t-52.5 9.5q-65 0 -96.5 -41t-31.5 -131q0 -88 32 -128.5t96 -40.5q28 0 52.5 10t42.5 30.5t28 53t10 77.5zM529 -194q-41 -24 -92 -24q-24 0 -46.5 5t-40.5 18t-28.5 33.5t-10.5 52.5q0 28 9 51t24 41t34.5 31t41.5 20l-4 50
q-24 -48 -67.5 -72.5t-102.5 -24.5q-99 0 -153 65.5t-54 191.5q0 129 57.5 194t160.5 65q56 0 97 -22.5t65 -68.5l10 79h93v-491h-42q-48 -4 -71 -33.5t-23 -63.5q0 -28 16 -39t44 -11q38 0 66 17z" />
    <glyph glyph-name="aring" unicode="&#xe5;" horiz-adv-x="593" 
d="M416 84q-24 -48 -67.5 -72.5t-102.5 -24.5q-99 0 -153 65.5t-54 191.5q0 129 57.5 194t160.5 65q56 0 97 -22.5t65 -68.5l10 79h93v-491h-99zM411 246q0 45 -10 77t-28 53t-42.5 30.5t-52.5 9.5q-65 0 -96.5 -41t-31.5 -131q0 -88 32 -128.5t96 -40.5q28 0 52.5 10
t42.5 30.5t28 53t10 77.5zM174 645q0 46 29.5 72t74.5 26t73.5 -26t28.5 -72t-29 -71.5t-74 -25.5t-74 25.5t-29 71.5zM230 645q0 -22 13 -36t34 -14q20 0 34 14t14 36q0 23 -13.5 36.5t-33.5 13.5q-22 0 -35 -13.5t-13 -36.5z" />
    <glyph glyph-name="atilde" unicode="&#xe3;" horiz-adv-x="593" 
d="M416 84q-24 -48 -67.5 -72.5t-102.5 -24.5q-99 0 -153 65.5t-54 191.5q0 129 57.5 194t160.5 65q56 0 97 -22.5t65 -68.5l10 79h93v-491h-99zM411 246q0 45 -10 77t-28 53t-42.5 30.5t-52.5 9.5q-65 0 -96.5 -41t-31.5 -131q0 -88 32 -128.5t96 -40.5q28 0 52.5 10
t42.5 30.5t28 53t10 77.5zM442 690q3 -31 -5 -52t-21.5 -33.5t-31.5 -18t-35 -5.5q-22 0 -40.5 6t-34.5 13.5t-30.5 13.5t-28.5 6q-18 0 -23.5 -11t-5.5 -25h-76q-2 31 5.5 52t21 33.5t31 18t34.5 5.5q22 0 41 -6t35.5 -13.5t31 -13.5t28.5 -6q18 0 23 11t5 25h76z" />
    <glyph glyph-name="cacute" unicode="&#x107;" horiz-adv-x="510" 
d="M320 573h-91v4l78 119h133v-6zM279 -13q-113 0 -176.5 61t-63.5 197q0 134 63.5 196t179.5 62q77 0 126.5 -27.5t78.5 -81.5l-79 -54q-36 74 -125 74q-68 0 -100.5 -37t-32.5 -133q0 -91 32 -130t100 -39q48 0 79 17.5t51 61.5l81 -45q-29 -63 -82.5 -92.5t-131.5 -29.5z
" />
    <glyph glyph-name="ccaron" unicode="&#x10d;" horiz-adv-x="510" 
d="M352 696h105v-2l-124 -121h-101l-122 121v2h109l65 -63zM279 -13q-113 0 -176.5 61t-63.5 197q0 134 63.5 196t179.5 62q77 0 126.5 -27.5t78.5 -81.5l-79 -54q-36 74 -125 74q-68 0 -100.5 -37t-32.5 -133q0 -91 32 -130t100 -39q48 0 79 17.5t51 61.5l81 -45
q-29 -63 -82.5 -92.5t-131.5 -29.5z" />
    <glyph glyph-name="ccedilla" unicode="&#xe7;" horiz-adv-x="510" 
d="M273 -242q-41 0 -74 15t-53 48l47 45q14 -23 31 -35t45 -12q23 0 37.5 9t14.5 29q0 19 -14 29.5t-39 10.5q-6 0 -11.5 -0.5t-11.5 -1.5l-19 15l22 78q-99 7 -154 69t-55 188q0 134 63.5 196t179.5 62q77 0 126.5 -27.5t78.5 -81.5l-79 -54q-36 74 -125 74
q-68 0 -100.5 -37t-32.5 -133q0 -91 32 -130t100 -39q48 0 79 17.5t51 61.5l81 -45q-26 -56 -70 -85t-107 -35l-14 -46h2q37 -1 65 -23t28 -64q0 -25 -10 -43.5t-27 -30.5t-39.5 -18t-47.5 -6z" />
    <glyph glyph-name="ccircumflex" unicode="&#x109;" horiz-adv-x="510" 
d="M216 573h-105v3l122 120h101l124 -120v-3h-111l-65 65zM279 -13q-113 0 -176.5 61t-63.5 197q0 134 63.5 196t179.5 62q77 0 126.5 -27.5t78.5 -81.5l-79 -54q-36 74 -125 74q-68 0 -100.5 -37t-32.5 -133q0 -91 32 -130t100 -39q48 0 79 17.5t51 61.5l81 -45
q-29 -63 -82.5 -92.5t-131.5 -29.5z" />
    <glyph glyph-name="cdotaccent" unicode="&#x10b;" horiz-adv-x="510" 
d="M279 -13q-113 0 -176.5 61t-63.5 197q0 134 63.5 196t179.5 62q77 0 126.5 -27.5t78.5 -81.5l-79 -54q-36 74 -125 74q-68 0 -100.5 -37t-32.5 -133q0 -91 32 -130t100 -39q48 0 79 17.5t51 61.5l81 -45q-29 -63 -82.5 -92.5t-131.5 -29.5zM214 630q0 32 19 47.5t52 15.5
q32 0 50.5 -15.5t18.5 -47.5t-18.5 -48t-50.5 -16q-33 0 -52 16t-19 48z" />
    <glyph glyph-name="dcaron" unicode="&#x10f;" horiz-adv-x="670" 
d="M604 466l7 235h100l-32 -235h-75zM419 84q-49 -97 -173 -97q-99 0 -153 65.5t-54 191.5q0 128 57 193.5t160 65.5q104 0 156 -76v273h113v-700h-100zM413 246q0 45 -10.5 77t-28.5 53t-42.5 30.5t-53.5 9.5q-65 0 -96.5 -41t-31.5 -131q0 -88 32 -128.5t96 -40.5
q29 0 54 10t43 30.5t28 53t10 77.5z" />
    <glyph glyph-name="dcroat" unicode="&#x111;" horiz-adv-x="611" 
d="M598 553h-73v-553h-100l-6 85q-24 -48 -68 -73t-105 -25q-99 0 -153 65.5t-54 190.5q0 128 57 193t160 65q106 0 156 -75v127h-148v67h148v80h113v-80h73v-67zM413 246q0 89 -38 129.5t-96 40.5q-65 0 -97 -42t-32 -130q0 -87 32 -128t96 -41q29 0 54 10t43 31t28 53
t10 77z" />
    <glyph glyph-name="dotlessi" unicode="&#x131;" horiz-adv-x="259" 
d="M187 491v-491h-113v491h113z" />
    <glyph glyph-name="dotlessj" unicode="&#x237;" horiz-adv-x="259" 
d="M74 491h113v-518q0 -93 -45.5 -136t-122.5 -43q-22 0 -43.5 3.5t-44.5 12.5l18 85q13 -5 25.5 -8t30.5 -3q16 0 29 4.5t22 16t13.5 31t4.5 48.5v507z" />
    <glyph glyph-name="eacute" unicode="&#xe9;" horiz-adv-x="530" 
d="M313 573h-91v4l78 119h133v-6zM279 -13q-113 0 -176.5 62.5t-63.5 194.5q0 126 61.5 192.5t178.5 66.5q57 0 98 -18.5t68 -50.5t39.5 -76.5t12.5 -95.5q0 -22 -3 -49h-346q5 -78 39.5 -110t97.5 -32q48 0 80 16t53 61l75 -43q-29 -62 -84 -90t-130 -28zM276 419
q-56 0 -89 -30t-38 -101h241q-3 69 -32 100t-82 31z" />
    <glyph glyph-name="ebreve" unicode="&#x115;" horiz-adv-x="530" 
d="M279 -13q-113 0 -176.5 62.5t-63.5 194.5q0 126 61.5 192.5t178.5 66.5q57 0 98 -18.5t68 -50.5t39.5 -76.5t12.5 -95.5q0 -22 -3 -49h-346q5 -78 39.5 -110t97.5 -32q48 0 80 16t53 61l75 -43q-29 -62 -84 -90t-130 -28zM276 419q-56 0 -89 -30t-38 -101h241
q-3 69 -32 100t-82 31zM427 696q0 -37 -10.5 -62t-30.5 -40t-48 -21t-64 -6q-72 0 -112.5 27.5t-40.5 101.5h77q0 -38 18.5 -52t56.5 -14t57 14t19 52h78z" />
    <glyph glyph-name="ecaron" unicode="&#x11b;" horiz-adv-x="530" 
d="M344 696h105v-2l-124 -121h-101l-122 121v2h109l65 -63zM279 -13q-113 0 -176.5 62.5t-63.5 194.5q0 126 61.5 192.5t178.5 66.5q57 0 98 -18.5t68 -50.5t39.5 -76.5t12.5 -95.5q0 -22 -3 -49h-346q5 -78 39.5 -110t97.5 -32q48 0 80 16t53 61l75 -43q-29 -62 -84 -90
t-130 -28zM276 419q-56 0 -89 -30t-38 -101h241q-3 69 -32 100t-82 31z" />
    <glyph glyph-name="ecircumflex" unicode="&#xea;" horiz-adv-x="530" 
d="M208 573h-105v3l122 120h101l124 -120v-3h-111l-65 65zM279 -13q-113 0 -176.5 62.5t-63.5 194.5q0 126 61.5 192.5t178.5 66.5q57 0 98 -18.5t68 -50.5t39.5 -76.5t12.5 -95.5q0 -22 -3 -49h-346q5 -78 39.5 -110t97.5 -32q48 0 80 16t53 61l75 -43q-29 -62 -84 -90
t-130 -28zM276 419q-56 0 -89 -30t-38 -101h241q-3 69 -32 100t-82 31z" />
    <glyph glyph-name="edieresis" unicode="&#xeb;" horiz-adv-x="530" 
d="M111 630q0 32 18 47.5t50 15.5t50 -15.5t18 -47.5t-18 -48t-50 -16t-50 16t-18 48zM298 630q0 32 18 47.5t50 15.5t50 -15.5t18 -47.5t-18 -48t-50 -16t-50 16t-18 48zM279 -13q-113 0 -176.5 62.5t-63.5 194.5q0 126 61.5 192.5t178.5 66.5q57 0 98 -18.5t68 -50.5
t39.5 -76.5t12.5 -95.5q0 -22 -3 -49h-346q5 -78 39.5 -110t97.5 -32q48 0 80 16t53 61l75 -43q-29 -62 -84 -90t-130 -28zM276 419q-56 0 -89 -30t-38 -101h241q-3 69 -32 100t-82 31z" />
    <glyph glyph-name="edotaccent" unicode="&#x117;" horiz-adv-x="530" 
d="M279 -13q-113 0 -176.5 62.5t-63.5 194.5q0 126 61.5 192.5t178.5 66.5q57 0 98 -18.5t68 -50.5t39.5 -76.5t12.5 -95.5q0 -22 -3 -49h-346q5 -78 39.5 -110t97.5 -32q48 0 80 16t53 61l75 -43q-29 -62 -84 -90t-130 -28zM276 419q-56 0 -89 -30t-38 -101h241
q-3 69 -32 100t-82 31zM205 630q0 32 19 47.5t52 15.5q32 0 50.5 -15.5t18.5 -47.5t-18.5 -48t-50.5 -16q-33 0 -52 16t-19 48z" />
    <glyph glyph-name="egrave" unicode="&#xe8;" horiz-adv-x="530" 
d="M279 -13q-113 0 -176.5 62.5t-63.5 194.5q0 126 61.5 192.5t178.5 66.5q57 0 98 -18.5t68 -50.5t39.5 -76.5t12.5 -95.5q0 -22 -3 -49h-346q5 -78 39.5 -110t97.5 -32q48 0 80 16t53 61l75 -43q-29 -62 -84 -90t-130 -28zM276 419q-56 0 -89 -30t-38 -101h241
q-3 69 -32 100t-82 31zM117 690v6h134l78 -119v-4h-92z" />
    <glyph glyph-name="emacron" unicode="&#x113;" horiz-adv-x="530" 
d="M279 -13q-113 0 -176.5 62.5t-63.5 194.5q0 126 61.5 192.5t178.5 66.5q57 0 98 -18.5t68 -50.5t39.5 -76.5t12.5 -95.5q0 -22 -3 -49h-346q5 -78 39.5 -110t97.5 -32q48 0 80 16t53 61l75 -43q-29 -62 -84 -90t-130 -28zM276 419q-56 0 -89 -30t-38 -101h241
q-3 69 -32 100t-82 31zM408 597h-267v69h267v-69z" />
    <glyph glyph-name="eng" unicode="&#x14b;" horiz-adv-x="611" 
d="M433 275q0 72 -27.5 101.5t-80.5 29.5q-63 0 -100.5 -41.5t-39.5 -121.5v-243h-113v491h96l11 -91q28 55 76.5 79t108.5 24q94 0 138 -51t44 -145v-346q0 -93 -45 -136t-122 -43q-22 0 -43 3.5t-45 12.5l18 85q13 -5 25.5 -8t30.5 -3q16 0 29 4.5t21.5 16t13 31t4.5 48.5
v303z" />
    <glyph glyph-name="eogonek" unicode="&#x119;" horiz-adv-x="530" 
d="M214 -109q0 30 10 55t27 43q-101 7 -156.5 69t-55.5 186q0 126 61.5 192.5t178.5 66.5q57 0 98 -18.5t68 -50.5t39.5 -76.5t12.5 -95.5q0 -22 -3 -49h-347q5 -78 40 -110t98 -32q48 0 80 16t53 61l75 -43q-21 -44 -55 -70.5t-79 -37.5q-33 -11 -51 -37t-18 -56
q0 -29 16 -40t44 -11q17 0 34 4t32 13l16 -64q-39 -24 -91 -24q-24 0 -47 5t-40.5 18t-28.5 33.5t-11 52.5zM276 419q-57 0 -89.5 -30t-38.5 -101h242q-3 69 -32.5 100t-81.5 31z" />
    <glyph glyph-name="eth" unicode="&#xf0;" horiz-adv-x="572" 
d="M502 675l-76 -48q56 -64 80.5 -155t24.5 -207v-17q0 -136 -62 -198.5t-183 -62.5q-120 0 -183.5 61t-63.5 194q0 132 64 193t177 61q80 0 127 -43q-18 71 -63 122l-81 -52l-33 49l68 44q-52 37 -123 54l31 74q106 -21 176 -76l86 56zM421 241q0 92 -32.5 131t-102.5 39
q-71 0 -104 -39t-33 -131q0 -91 34 -129.5t103 -38.5t102 38.5t33 129.5z" />
    <glyph glyph-name="gbreve" unicode="&#x11f;" horiz-adv-x="594" 
d="M523 32q0 -62 -19 -107t-53 -74t-81.5 -43t-103.5 -14q-73 0 -129.5 25t-87.5 88l72 56q24 -46 59 -64.5t83 -18.5q66 0 107 33t41 109v70q-48 -89 -165 -89q-96 0 -151.5 63t-55.5 187t55 187t156 63q59 0 102 -22t67 -67l10 77h94v-459zM411 255q0 85 -38.5 123.5
t-96.5 38.5q-64 0 -95.5 -39t-31.5 -124t32 -124.5t95 -39.5q59 0 97 39t38 126zM424 696q0 -37 -10.5 -62t-30.5 -40t-48 -21t-64 -6q-72 0 -112.5 27.5t-40.5 101.5h77q0 -38 18.5 -52t56.5 -14t57 14t19 52h78z" />
    <glyph glyph-name="gcircumflex" unicode="&#x11d;" horiz-adv-x="594" 
d="M206 573h-105v3l122 120h101l124 -120v-3h-111l-65 65zM523 32q0 -62 -19 -107t-53 -74t-81.5 -43t-103.5 -14q-73 0 -129.5 25t-87.5 88l72 56q24 -46 59 -64.5t83 -18.5q66 0 107 33t41 109v70q-48 -89 -165 -89q-96 0 -151.5 63t-55.5 187t55 187t156 63q59 0 102 -22
t67 -67l10 77h94v-459zM411 255q0 85 -38.5 123.5t-96.5 38.5q-64 0 -95.5 -39t-31.5 -124t32 -124.5t95 -39.5q59 0 97 39t38 126z" />
    <glyph glyph-name="gcommaaccent" unicode="&#x123;" horiz-adv-x="594" 
d="M361 763q-30 -8 -47.5 -28.5t-22.5 -49.5q35 1 53.5 -15t18.5 -46q0 -31 -17.5 -46t-48.5 -15q-33 0 -52 20.5t-19 66.5q0 58 29 102t85 57zM523 32q0 -62 -19 -107t-53 -74t-81.5 -43t-103.5 -14q-73 0 -129.5 25t-87.5 88l72 56q24 -46 59 -64.5t83 -18.5q66 0 107 33
t41 109v70q-48 -89 -165 -89q-96 0 -151.5 63t-55.5 187t55 187t156 63q59 0 102 -22t67 -67l10 77h94v-459zM411 255q0 85 -38.5 123.5t-96.5 38.5q-64 0 -95.5 -39t-31.5 -124t32 -124.5t95 -39.5q59 0 97 39t38 126z" />
    <glyph glyph-name="gdotaccent" unicode="&#x121;" horiz-adv-x="594" 
d="M523 32q0 -62 -19 -107t-53 -74t-81.5 -43t-103.5 -14q-73 0 -129.5 25t-87.5 88l72 56q24 -46 59 -64.5t83 -18.5q66 0 107 33t41 109v70q-48 -89 -165 -89q-96 0 -151.5 63t-55.5 187t55 187t156 63q59 0 102 -22t67 -67l10 77h94v-459zM411 255q0 85 -38.5 123.5
t-96.5 38.5q-64 0 -95.5 -39t-31.5 -124t32 -124.5t95 -39.5q59 0 97 39t38 126zM202 630q0 32 19 47.5t52 15.5q32 0 50.5 -15.5t18.5 -47.5t-18.5 -48t-50.5 -16q-33 0 -52 16t-19 48z" />
    <glyph glyph-name="germandbls" unicode="&#xdf;" horiz-adv-x="611" 
d="M285 330v87h48q53 0 76 30.5t23 74.5q0 56 -32 80.5t-89 24.5q-65 0 -98 -37.5t-33 -109.5v-480h-112v486q0 111 63.5 171t178.5 60t173 -51t58 -137q0 -51 -20 -87t-53 -58q59 -19 87.5 -65t28.5 -110q0 -49 -15.5 -89t-45 -68t-70.5 -43t-92 -15q-29 0 -53 3.5
t-49 13.5l16 85q17 -7 32 -10.5t35 -3.5q63 0 97.5 31.5t34.5 95.5q0 54 -31 87.5t-107 33.5h-51z" />
    <glyph glyph-name="hbar" unicode="&#x127;" horiz-adv-x="625" 
d="M14 620h72v80h113v-80h148v-67h-148v-158q27 56 76 81.5t105 25.5q180 0 180 -197v-305h-113v270q0 73 -28 103t-79 30q-64 0 -101.5 -41.5t-39.5 -121.5v-240h-113v553h-72v67z" />
    <glyph glyph-name="hcircumflex" unicode="&#x125;" horiz-adv-x="611" 
d="M67 755h-105v3l122 120h101l124 -120v-3h-111l-65 65zM185 398q27 55 75.5 80t105.5 25q93 0 136.5 -51t43.5 -145v-307h-113v273q0 73 -28 103t-80 30q-63 0 -100.5 -41.5t-39.5 -121.5v-243h-113v700h113v-302z" />
    <glyph glyph-name="iacute" unicode="&#xed;" horiz-adv-x="259" 
d="M170 573h-91v4l78 119h133v-6zM187 491v-491h-113v491h113z" />
    <glyph glyph-name="ibreve" unicode="&#x12d;" horiz-adv-x="259" 
d="M187 491v-491h-113v491h113zM284 696q0 -37 -10.5 -62t-30.5 -40t-48 -21t-64 -6q-72 0 -112.5 27.5t-40.5 101.5h77q0 -38 18.5 -52t56.5 -14t57 14t19 52h78z" />
    <glyph glyph-name="icircumflex" unicode="&#xee;" horiz-adv-x="259" 
d="M64 573h-105v3l122 120h101l124 -120v-3h-111l-65 65zM187 491v-491h-113v491h113z" />
    <glyph glyph-name="idieresis" unicode="&#xef;" horiz-adv-x="259" 
d="M-31 630q0 32 18 47.5t50 15.5t50 -15.5t18 -47.5t-18 -48t-50 -16t-50 16t-18 48zM156 630q0 32 18 47.5t50 15.5t50 -15.5t18 -47.5t-18 -48t-50 -16t-50 16t-18 48zM187 491v-491h-113v491h113z" />
    <glyph glyph-name="idotaccent" horiz-adv-x="259" 
d="M187 491v-491h-113v491h113zM59 630q0 33 18.5 49.5t52.5 16.5t52.5 -16.5t18.5 -49.5t-18.5 -49.5t-52.5 -16.5t-52.5 16.5t-18.5 49.5z" />
    <glyph glyph-name="igrave" unicode="&#xec;" horiz-adv-x="259" 
d="M187 491v-491h-113v491h113zM-26 690v6h134l78 -119v-4h-92z" />
    <glyph glyph-name="ij" unicode="&#x133;" horiz-adv-x="543" 
d="M187 491v-491h-113v491h113zM59 630q0 33 18.5 49.5t52.5 16.5t52.5 -16.5t18.5 -49.5t-18.5 -49.5t-52.5 -16.5t-52.5 16.5t-18.5 49.5zM358 491h113v-518q0 -93 -45.5 -136t-122.5 -43q-22 0 -43.5 3.5t-44.5 12.5l18 85q13 -5 25.5 -8t30.5 -3q16 0 29 4.5t22 16
t13.5 31t4.5 48.5v507zM343 630q0 33 18.5 49.5t52.5 16.5t52.5 -16.5t18.5 -49.5t-18.5 -49.5t-52.5 -16.5t-52.5 16.5t-18.5 49.5z" />
    <glyph glyph-name="imacron" unicode="&#x12b;" horiz-adv-x="259" 
d="M187 491v-491h-113v491h113zM265 597h-267v69h267v-69z" />
    <glyph glyph-name="iogonek" unicode="&#x12f;" horiz-adv-x="259" 
d="M93 -218q-24 0 -46.5 5t-40 18t-28.5 33.5t-11 52.5q0 56 32 91.5t75 49.5v459h113v-491h-51q-47 -4 -70.5 -33.5t-23.5 -63.5q0 -28 16.5 -39t43.5 -11q17 0 34 4t32 13l17 -64q-39 -24 -92 -24zM59 631q0 33 18.5 49t52.5 16t52.5 -16t18.5 -49t-18.5 -49.5
t-52.5 -16.5t-52.5 16.5t-18.5 49.5z" />
    <glyph glyph-name="itilde" unicode="&#x129;" horiz-adv-x="259" 
d="M187 491v-491h-113v491h113zM296 690q3 -31 -5 -52t-21.5 -33.5t-31.5 -18t-35 -5.5q-22 0 -40.5 6t-34.5 13.5t-30.5 13.5t-28.5 6q-18 0 -23.5 -11t-5.5 -25h-76q-2 31 5.5 52t21 33.5t31 18t34.5 5.5q22 0 41 -6t35.5 -13.5t31 -13.5t28.5 -6q18 0 23 11t5 25h76z" />
    <glyph glyph-name="jcircumflex" unicode="&#x135;" horiz-adv-x="259" 
d="M74 491h113v-518q0 -93 -45.5 -136t-122.5 -43q-22 0 -43.5 3.5t-44.5 12.5l18 85q13 -5 25.5 -8t30.5 -3q16 0 29 4.5t22 16t13.5 31t4.5 48.5v507zM64 573h-105v3l122 120h101l124 -120v-3h-111l-65 65z" />
    <glyph glyph-name="kcommaaccent" unicode="&#x137;" horiz-adv-x="521" 
d="M217 -261q30 8 47.5 28.5t22.5 49.5q-35 -1 -53.5 15t-18.5 46q0 31 17.5 46t48.5 15q33 0 52 -20.5t19 -66.5q0 -58 -29 -102t-85 -57zM72 700h112l-2 -458l215 249h129l-196 -219l198 -272h-129l-142 197l-73 -78v-119h-112v700z" />
    <glyph glyph-name="kgreenlandic" unicode="&#x138;" horiz-adv-x="521" 
d="M72 491h112l-1 -249l214 249h129l-196 -219l198 -272h-129l-141 197l-74 -78v-119h-112v491z" />
    <glyph glyph-name="lacute" unicode="&#x13a;" horiz-adv-x="258" 
d="M164 784h-91v4l78 119h133v-6zM189 0h-113v700h113v-700z" />
    <glyph glyph-name="lcaron" unicode="&#x13e;" horiz-adv-x="332" 
d="M267 466l7 235h100l-32 -235h-75zM189 0h-113v700h113v-700z" />
    <glyph glyph-name="lcommaaccent" unicode="&#x13c;" horiz-adv-x="266" 
d="M70 -261q30 8 47.5 28.5t22.5 49.5q-35 -1 -53.5 15t-18.5 46q0 31 17.5 46t48.5 15q33 0 52 -20.5t19 -66.5q0 -58 -29 -102t-85 -57zM189 0h-113v700h113v-700z" />
    <glyph glyph-name="ldot" unicode="&#x140;" horiz-adv-x="365" 
d="M189 0h-113v700h113v-700zM250 296q0 32 19 47.5t52 15.5q32 0 50.5 -15.5t18.5 -47.5t-18.5 -48t-50.5 -16q-33 0 -52 16t-19 48z" />
    <glyph glyph-name="lslash" unicode="&#x142;" horiz-adv-x="289" 
d="M201 426l100 76v-99l-100 -75v-328h-112v248l-91 -68v98l91 69v353h112v-274z" />
    <glyph glyph-name="nacute" unicode="&#x144;" horiz-adv-x="611" 
d="M363 573h-91v4l78 119h133v-6zM168 491l11 -91q28 54 76.5 78.5t108.5 24.5q94 0 138 -51t44 -145v-307h-113v275q0 72 -27.5 101.5t-80.5 29.5q-63 0 -100.5 -41.5t-39.5 -121.5v-243h-113v491h96z" />
    <glyph glyph-name="ncaron" unicode="&#x148;" horiz-adv-x="611" 
d="M393 696h105v-2l-124 -121h-101l-122 121v2h109l65 -63zM168 491l11 -91q28 54 76.5 78.5t108.5 24.5q94 0 138 -51t44 -145v-307h-113v275q0 72 -27.5 101.5t-80.5 29.5q-63 0 -100.5 -41.5t-39.5 -121.5v-243h-113v491h96z" />
    <glyph glyph-name="ncommaaccent" unicode="&#x146;" horiz-adv-x="611" 
d="M250 -261q30 8 47.5 28.5t22.5 49.5q-35 -1 -53.5 15t-18.5 46q0 31 17.5 46t48.5 15q33 0 52 -20.5t19 -66.5q0 -58 -29 -102t-85 -57zM168 491l11 -91q28 54 76.5 78.5t108.5 24.5q94 0 138 -51t44 -145v-307h-113v275q0 72 -27.5 101.5t-80.5 29.5q-63 0 -100.5 -41.5
t-39.5 -121.5v-243h-113v491h96z" />
    <glyph glyph-name="ntilde" unicode="&#xf1;" horiz-adv-x="611" 
d="M168 491l11 -91q28 54 76.5 78.5t108.5 24.5q94 0 138 -51t44 -145v-307h-113v275q0 72 -27.5 101.5t-80.5 29.5q-63 0 -100.5 -41.5t-39.5 -121.5v-243h-113v491h96zM489 690q3 -31 -5 -52t-21.5 -33.5t-31.5 -18t-35 -5.5q-22 0 -40.5 6t-34.5 13.5t-30.5 13.5t-28.5 6
q-18 0 -23.5 -11t-5.5 -25h-76q-2 31 5.5 52t21 33.5t31 18t34.5 5.5q22 0 41 -6t35.5 -13.5t31 -13.5t28.5 -6q18 0 23 11t5 25h76z" />
    <glyph glyph-name="oacute" unicode="&#xf3;" horiz-adv-x="568" 
d="M324 573h-91v4l78 119h133v-6zM420 245q0 94 -32.5 132.5t-102.5 38.5q-72 0 -104 -38.5t-32 -132.5q0 -93 33 -132t103 -39q69 0 102 39t33 132zM39 246q0 133 64.5 195t181.5 62q124 0 184.5 -61t60.5 -196q0 -132 -62 -195.5t-183 -63.5t-183.5 62t-62.5 197z" />
    <glyph glyph-name="obreve" unicode="&#x14f;" horiz-adv-x="568" 
d="M420 245q0 94 -32.5 132.5t-102.5 38.5q-72 0 -104 -38.5t-32 -132.5q0 -93 33 -132t103 -39q69 0 102 39t33 132zM39 246q0 133 64.5 195t181.5 62q124 0 184.5 -61t60.5 -196q0 -132 -62 -195.5t-183 -63.5t-183.5 62t-62.5 197zM438 696q0 -37 -10.5 -62t-30.5 -40
t-48 -21t-64 -6q-72 0 -112.5 27.5t-40.5 101.5h77q0 -38 18.5 -52t56.5 -14t57 14t19 52h78z" />
    <glyph glyph-name="ocircumflex" unicode="&#xf4;" horiz-adv-x="568" 
d="M218 573h-105v3l122 120h101l124 -120v-3h-111l-65 65zM420 245q0 94 -32.5 132.5t-102.5 38.5q-72 0 -104 -38.5t-32 -132.5q0 -93 33 -132t103 -39q69 0 102 39t33 132zM39 246q0 133 64.5 195t181.5 62q124 0 184.5 -61t60.5 -196q0 -132 -62 -195.5t-183 -63.5
t-183.5 62t-62.5 197z" />
    <glyph glyph-name="odieresis" unicode="&#xf6;" horiz-adv-x="568" 
d="M123 630q0 32 18 47.5t50 15.5t50 -15.5t18 -47.5t-18 -48t-50 -16t-50 16t-18 48zM310 630q0 32 18 47.5t50 15.5t50 -15.5t18 -47.5t-18 -48t-50 -16t-50 16t-18 48zM420 245q0 94 -32.5 132.5t-102.5 38.5q-72 0 -104 -38.5t-32 -132.5q0 -93 33 -132t103 -39
q69 0 102 39t33 132zM39 246q0 133 64.5 195t181.5 62q124 0 184.5 -61t60.5 -196q0 -132 -62 -195.5t-183 -63.5t-183.5 62t-62.5 197z" />
    <glyph glyph-name="oe" unicode="&#x153;" horiz-adv-x="915" 
d="M39 246q0 133 64.5 195t181.5 62q136 0 192 -79q61 79 186 79q57 0 98 -18.5t68 -50.5t39.5 -76.5t12.5 -95.5q0 -22 -3 -49h-347q5 -78 40 -110t98 -32q49 0 80.5 16t52.5 61l75 -43q-29 -62 -84 -90t-129 -28q-63 0 -111 19.5t-78 60.5q-59 -80 -190 -80
q-121 0 -183.5 62t-62.5 197zM420 245q0 94 -32.5 132.5t-103.5 38.5t-103 -38.5t-32 -132.5q0 -93 33 -132t102 -39q70 0 103 39t33 132zM660 419q-56 0 -89.5 -30t-38.5 -101h242q-3 69 -32 100t-82 31z" />
    <glyph glyph-name="ograve" unicode="&#xf2;" horiz-adv-x="568" 
d="M420 245q0 94 -32.5 132.5t-102.5 38.5q-72 0 -104 -38.5t-32 -132.5q0 -93 33 -132t103 -39q69 0 102 39t33 132zM39 246q0 133 64.5 195t181.5 62q124 0 184.5 -61t60.5 -196q0 -132 -62 -195.5t-183 -63.5t-183.5 62t-62.5 197zM129 690v6h134l78 -119v-4h-92z" />
    <glyph glyph-name="ohungarumlaut" unicode="&#x151;" horiz-adv-x="568" 
d="M241 573h-84v4l64 119h119v-6zM391 573h-87v4l78 119h133v-6zM420 245q0 94 -32.5 132.5t-102.5 38.5q-72 0 -104 -38.5t-32 -132.5q0 -93 33 -132t103 -39q69 0 102 39t33 132zM39 246q0 133 64.5 195t181.5 62q124 0 184.5 -61t60.5 -196q0 -132 -62 -195.5t-183 -63.5
t-183.5 62t-62.5 197z" />
    <glyph glyph-name="omacron" unicode="&#x14d;" horiz-adv-x="568" 
d="M419 597h-267v69h267v-69zM420 245q0 94 -32.5 132.5t-102.5 38.5q-72 0 -104 -38.5t-32 -132.5q0 -93 33 -132t103 -39q69 0 102 39t33 132zM39 246q0 133 64.5 195t181.5 62q124 0 184.5 -61t60.5 -196q0 -132 -62 -195.5t-183 -63.5t-183.5 62t-62.5 197z" />
    <glyph glyph-name="oslash" unicode="&#xf8;" horiz-adv-x="578" 
d="M497 409q38 -61 38 -163q0 -132 -62 -195.5t-183 -63.5q-100 0 -160 45l-31 -32h-92l77 80q-40 59 -40 166q0 133 64.5 195t181.5 62q103 0 163 -45l32 33h91zM426 245q0 49 -9 82l-220 -227q17 -15 39.5 -21.5t53.5 -6.5q70 0 103 39.5t33 133.5zM384 388
q-17 16 -40.5 23t-53.5 7q-72 0 -104.5 -39.5t-32.5 -133.5q0 -26 2.5 -47t7.5 -38z" />
    <glyph glyph-name="otilde" unicode="&#xf5;" horiz-adv-x="568" 
d="M420 245q0 94 -32.5 132.5t-102.5 38.5q-72 0 -104 -38.5t-32 -132.5q0 -93 33 -132t103 -39q69 0 102 39t33 132zM39 246q0 133 64.5 195t181.5 62q124 0 184.5 -61t60.5 -196q0 -132 -62 -195.5t-183 -63.5t-183.5 62t-62.5 197zM450 690q3 -31 -5 -52t-21.5 -33.5
t-31.5 -18t-35 -5.5q-22 0 -40.5 6t-34.5 13.5t-30.5 13.5t-28.5 6q-18 0 -23.5 -11t-5.5 -25h-76q-2 31 5.5 52t21 33.5t31 18t34.5 5.5q22 0 41 -6t35.5 -13.5t31 -13.5t28.5 -6q18 0 23 11t5 25h76z" />
    <glyph glyph-name="racute" unicode="&#x155;" horiz-adv-x="367" 
d="M247 573h-91v4l78 119h133v-6zM72 491h95l11 -102q26 59 73.5 87t109.5 25v-108q-88 8 -131 -38t-45 -135v-220h-113v491z" />
    <glyph glyph-name="rcaron" unicode="&#x159;" horiz-adv-x="367" 
d="M288 696h105v-2l-124 -121h-101l-122 121v2h109l65 -63zM72 491h95l11 -102q26 59 73.5 87t109.5 25v-108q-88 8 -131 -38t-45 -135v-220h-113v491z" />
    <glyph glyph-name="rcommaaccent" unicode="&#x157;" horiz-adv-x="367" 
d="M65 -261q30 8 47.5 28.5t22.5 49.5q-35 -1 -53.5 15t-18.5 46q0 31 17.5 46t48.5 15q33 0 52 -20.5t19 -66.5q0 -58 -29 -102t-85 -57zM72 491h95l11 -102q26 59 73.5 87t109.5 25v-108q-88 8 -131 -38t-45 -135v-220h-113v491z" />
    <glyph glyph-name="sacute" unicode="&#x15b;" horiz-adv-x="486" 
d="M273 573h-91v4l78 119h133v-6zM239 70q53 0 76 16t23 45q0 28 -19 40t-65 22l-43 9q-85 19 -124 60t-39 96q0 31 11.5 57.5t35 46t60 30.5t87.5 11q68 0 112.5 -20t77.5 -61l-67 -66q-25 31 -53 46.5t-73 15.5q-88 0 -88 -56q0 -22 17.5 -38t62.5 -26l55 -12
q86 -19 121.5 -57t35.5 -89q0 -29 -9.5 -56.5t-33.5 -49t-63.5 -34.5t-99.5 -13q-73 0 -127 22.5t-87 76.5l70 59q26 -40 61 -57.5t85 -17.5z" />
    <glyph glyph-name="scaron" unicode="&#x161;" horiz-adv-x="486" 
d="M303 696h105v-2l-124 -121h-101l-122 121v2h109l65 -63zM239 70q53 0 76 16t23 45q0 28 -19 40t-65 22l-43 9q-85 19 -124 60t-39 96q0 31 11.5 57.5t35 46t60 30.5t87.5 11q68 0 112.5 -20t77.5 -61l-67 -66q-25 31 -53 46.5t-73 15.5q-88 0 -88 -56q0 -22 17.5 -38
t62.5 -26l55 -12q86 -19 121.5 -57t35.5 -89q0 -29 -9.5 -56.5t-33.5 -49t-63.5 -34.5t-99.5 -13q-73 0 -127 22.5t-87 76.5l70 59q26 -40 61 -57.5t85 -17.5z" />
    <glyph glyph-name="scedilla" unicode="&#x15f;" horiz-adv-x="486" 
d="M225 -242q-41 0 -74 15t-53 48l47 45q14 -23 31 -35t45 -12q23 0 37.5 9t14.5 29q0 19 -14 29.5t-39 10.5q-6 0 -11.5 -0.5t-11.5 -1.5l-19 15l22 79q-60 5 -104 27.5t-73 69.5l70 59q26 -40 61 -57.5t85 -17.5q53 0 76 16t23 45q0 28 -19 40t-65 22l-43 9
q-85 19 -124 60t-39 96q0 31 11.5 57.5t35 46t60 30.5t87.5 11q68 0 112.5 -20t77.5 -61l-67 -66q-25 31 -53 46.5t-73 15.5q-88 0 -88 -56q0 -22 17.5 -38t62.5 -26l55 -12q86 -19 121.5 -57t35.5 -89q0 -27 -8.5 -53t-28.5 -47t-54 -35t-85 -17l-13 -45h2q37 -1 65 -23
t28 -64q0 -25 -10 -43.5t-27 -30.5t-39.5 -18t-47.5 -6z" />
    <glyph glyph-name="scircumflex" unicode="&#x15d;" horiz-adv-x="486" 
d="M167 573h-105v3l122 120h101l124 -120v-3h-111l-65 65zM239 70q53 0 76 16t23 45q0 28 -19 40t-65 22l-43 9q-85 19 -124 60t-39 96q0 31 11.5 57.5t35 46t60 30.5t87.5 11q68 0 112.5 -20t77.5 -61l-67 -66q-25 31 -53 46.5t-73 15.5q-88 0 -88 -56q0 -22 17.5 -38
t62.5 -26l55 -12q86 -19 121.5 -57t35.5 -89q0 -29 -9.5 -56.5t-33.5 -49t-63.5 -34.5t-99.5 -13q-73 0 -127 22.5t-87 76.5l70 59q26 -40 61 -57.5t85 -17.5z" />
    <glyph glyph-name="scommaaccent" unicode="&#x219;" horiz-adv-x="486" 
d="M170 -261q30 8 47.5 28.5t22.5 49.5q-35 -1 -53.5 15t-18.5 46q0 31 17.5 46t48.5 15q33 0 52 -20.5t19 -66.5q0 -58 -29 -102t-85 -57zM239 70q53 0 76 16t23 45q0 28 -19 40t-65 22l-43 9q-85 19 -124 60t-39 96q0 31 11.5 57.5t35 46t60 30.5t87.5 11q68 0 112.5 -20
t77.5 -61l-67 -66q-25 31 -53 46.5t-73 15.5q-88 0 -88 -56q0 -22 17.5 -38t62.5 -26l55 -12q86 -19 121.5 -57t35.5 -89q0 -29 -9.5 -56.5t-33.5 -49t-63.5 -34.5t-99.5 -13q-73 0 -127 22.5t-87 76.5l70 59q26 -40 61 -57.5t85 -17.5z" />
    <glyph glyph-name="tbar" unicode="&#x167;" horiz-adv-x="349" 
d="M337 406h-138v-82h138v-68h-138v-87q0 -28 5.5 -45.5t16 -28t25 -14.5t31.5 -4q18 0 31.5 3t27.5 8l17 -81q-27 -11 -49.5 -15.5t-48.5 -4.5q-37 0 -67.5 9.5t-52.5 31t-34 55t-12 81.5v92h-82v68h82v82h-82v85h82v142h110v-142h138v-85z" />
    <glyph glyph-name="tcaron" unicode="&#x165;" horiz-adv-x="365" 
d="M260 555l7 196h100l-32 -196h-75zM89 491v142h110v-142h138v-85h-138v-235q0 -57 21.5 -75.5t56.5 -18.5q18 0 31.5 3t27.5 8l17 -81q-27 -11 -49.5 -15.5t-48.5 -4.5q-37 0 -67.5 9.5t-52.5 31t-34 55t-12 81.5v242h-82v85h82z" />
    <glyph glyph-name="tcommaaccent" unicode="&#x163;" horiz-adv-x="349" 
d="M185 -261q30 8 47.5 28.5t22.5 49.5q-35 -1 -53.5 15t-18.5 46q0 31 17.5 46t48.5 15q33 0 52 -20.5t19 -66.5q0 -58 -29 -102t-85 -57zM89 491v142h110v-142h138v-85h-138v-235q0 -57 21.5 -75.5t56.5 -18.5q18 0 31.5 3t27.5 8l17 -81q-27 -11 -49.5 -15.5t-48.5 -4.5
q-37 0 -67.5 9.5t-52.5 31t-34 55t-12 81.5v242h-82v85h82z" />
    <glyph glyph-name="thorn" unicode="&#xfe;" horiz-adv-x="597" 
d="M185 414q25 45 68.5 67t100.5 22q100 0 152 -64.5t52 -189.5t-56 -193.5t-165 -68.5q-51 0 -89.5 18.5t-62.5 55.5v-248h-113v887h113v-286zM184 244q0 -89 37 -129.5t95 -40.5q66 0 98.5 41.5t32.5 129.5q0 90 -32.5 130.5t-95.5 40.5q-59 0 -97 -40.5t-38 -131.5z" />
    <glyph glyph-name="uacute" unicode="&#xfa;" 
d="M339 573h-91v4l78 119h133v-6zM432 85q-28 -51 -75.5 -74.5t-101.5 -23.5q-98 0 -143.5 53.5t-45.5 146.5v304h113v-280q0 -132 109 -132q61 0 97 41t38 120v251h113v-491h-95z" />
    <glyph glyph-name="ubreve" unicode="&#x16d;" 
d="M432 85q-28 -51 -75.5 -74.5t-101.5 -23.5q-98 0 -143.5 53.5t-45.5 146.5v304h113v-280q0 -132 109 -132q61 0 97 41t38 120v251h113v-491h-95zM453 696q0 -37 -10.5 -62t-30.5 -40t-48 -21t-64 -6q-72 0 -112.5 27.5t-40.5 101.5h77q0 -38 18.5 -52t56.5 -14t57 14
t19 52h78z" />
    <glyph glyph-name="ucircumflex" unicode="&#xfb;" 
d="M233 573h-105v3l122 120h101l124 -120v-3h-111l-65 65zM432 85q-28 -51 -75.5 -74.5t-101.5 -23.5q-98 0 -143.5 53.5t-45.5 146.5v304h113v-280q0 -132 109 -132q61 0 97 41t38 120v251h113v-491h-95z" />
    <glyph glyph-name="udieresis" unicode="&#xfc;" 
d="M138 630q0 32 18 47.5t50 15.5t50 -15.5t18 -47.5t-18 -48t-50 -16t-50 16t-18 48zM325 630q0 32 18 47.5t50 15.5t50 -15.5t18 -47.5t-18 -48t-50 -16t-50 16t-18 48zM432 85q-28 -51 -75.5 -74.5t-101.5 -23.5q-98 0 -143.5 53.5t-45.5 146.5v304h113v-280
q0 -132 109 -132q61 0 97 41t38 120v251h113v-491h-95z" />
    <glyph glyph-name="ugrave" unicode="&#xf9;" 
d="M432 85q-28 -51 -75.5 -74.5t-101.5 -23.5q-98 0 -143.5 53.5t-45.5 146.5v304h113v-280q0 -132 109 -132q61 0 97 41t38 120v251h113v-491h-95zM143 690v6h134l78 -119v-4h-92z" />
    <glyph glyph-name="uhungarumlaut" unicode="&#x171;" 
d="M432 85q-28 -51 -75.5 -74.5t-101.5 -23.5q-98 0 -143.5 53.5t-45.5 146.5v304h113v-280q0 -132 109 -132q61 0 97 41t38 120v251h113v-491h-95zM250 573h-84v4l64 119h119v-6zM400 573h-87v4l78 119h133v-6z" />
    <glyph glyph-name="umacron" unicode="&#x16b;" 
d="M432 85q-28 -51 -75.5 -74.5t-101.5 -23.5q-98 0 -143.5 53.5t-45.5 146.5v304h113v-280q0 -132 109 -132q61 0 97 41t38 120v251h113v-491h-95zM433 597h-267v69h267v-69z" />
    <glyph glyph-name="uogonek" unicode="&#x173;" 
d="M486 -218q-24 0 -46.5 5t-40 18t-28.5 33.5t-11 52.5q0 47 23 79t56 49l-8 66q-27 -52 -74.5 -75t-101.5 -23q-98 0 -143.5 53.5t-45.5 146.5v304h113v-280q0 -132 109 -132q61 0 97 41t38 120v251h113v-491q-26 -2 -45 -11t-31.5 -22.5t-18.5 -30t-6 -33.5
q0 -28 16.5 -39t43.5 -11q17 0 34 4t32 13l17 -64q-39 -24 -92 -24z" />
    <glyph glyph-name="uring" unicode="&#x16f;" 
d="M197 645q0 46 29.5 72t74.5 26t73.5 -26t28.5 -72t-29 -71.5t-74 -25.5t-74 25.5t-29 71.5zM253 645q0 -22 13 -36t34 -14q20 0 34 14t14 36q0 23 -13.5 36.5t-33.5 13.5q-22 0 -35 -13.5t-13 -36.5zM432 85q-28 -51 -75.5 -74.5t-101.5 -23.5q-98 0 -143.5 53.5
t-45.5 146.5v304h113v-280q0 -132 109 -132q61 0 97 41t38 120v251h113v-491h-95z" />
    <glyph glyph-name="utilde" unicode="&#x169;" 
d="M432 85q-28 -51 -75.5 -74.5t-101.5 -23.5q-98 0 -143.5 53.5t-45.5 146.5v304h113v-280q0 -132 109 -132q61 0 97 41t38 120v251h113v-491h-95zM465 690q3 -31 -5 -52t-21.5 -33.5t-31.5 -18t-35 -5.5q-22 0 -40.5 6t-34.5 13.5t-30.5 13.5t-28.5 6q-18 0 -23.5 -11
t-5.5 -25h-76q-2 31 5.5 52t21 33.5t31 18t34.5 5.5q22 0 41 -6t35.5 -13.5t31 -13.5t28.5 -6q18 0 23 11t5 25h76z" />
    <glyph glyph-name="wacute" unicode="&#x1e83;" horiz-adv-x="739" 
d="M423 488l107 -359l104 362h105l-155 -491h-110l-105 362l-103 -362h-109l-157 491h108l106 -361l106 358h103zM407 573h-91v4l78 119h133v-6z" />
    <glyph glyph-name="wdieresis" unicode="&#x1e85;" horiz-adv-x="739" 
d="M423 488l107 -359l104 362h105l-155 -491h-110l-105 362l-103 -362h-109l-157 491h108l106 -361l106 358h103zM207 630q0 32 18 47.5t50 15.5t50 -15.5t18 -47.5t-18 -48t-50 -16t-50 16t-18 48zM394 630q0 32 18 47.5t50 15.5t50 -15.5t18 -47.5t-18 -48t-50 -16t-50 16
t-18 48z" />
    <glyph glyph-name="wgrave" unicode="&#x1e81;" horiz-adv-x="739" 
d="M423 488l107 -359l104 362h105l-155 -491h-110l-105 362l-103 -362h-109l-157 491h108l106 -361l106 358h103zM211 692v6h134l78 -119v-4h-92z" />
    <glyph glyph-name="wcircumflex" unicode="&#x175;" horiz-adv-x="739" 
d="M423 488l107 -359l104 362h105l-155 -491h-110l-105 362l-103 -362h-109l-157 491h108l106 -361l106 358h103zM302 573h-105v3l122 120h101l124 -120v-3h-111l-65 65z" />
    <glyph glyph-name="yacute" unicode="&#xfd;" horiz-adv-x="511" 
d="M196 -6l-199 497h118l140 -378l139 378h117l-230 -573q-29 -72 -76.5 -98t-109.5 -26q-25 0 -45 3.5t-44 11.5l15 87q17 -6 32 -9.5t35 -3.5q12 0 25.5 2.5t26 10t23.5 22t20 37.5zM294 573h-91v4l78 119h133v-6z" />
    <glyph glyph-name="ycircumflex" unicode="&#x177;" horiz-adv-x="511" 
d="M196 -6l-199 497h118l140 -378l139 378h117l-230 -573q-29 -72 -76.5 -98t-109.5 -26q-25 0 -45 3.5t-44 11.5l15 87q17 -6 32 -9.5t35 -3.5q12 0 25.5 2.5t26 10t23.5 22t20 37.5zM189 573h-105v3l122 120h101l124 -120v-3h-111l-65 65z" />
    <glyph glyph-name="ydieresis" unicode="&#xff;" horiz-adv-x="511" 
d="M196 -6l-199 497h118l140 -378l139 378h117l-230 -573q-29 -72 -76.5 -98t-109.5 -26q-25 0 -45 3.5t-44 11.5l15 87q17 -6 32 -9.5t35 -3.5q12 0 25.5 2.5t26 10t23.5 22t20 37.5zM94 630q0 32 18 47.5t50 15.5t50 -15.5t18 -47.5t-18 -48t-50 -16t-50 16t-18 48z
M281 630q0 32 18 47.5t50 15.5t50 -15.5t18 -47.5t-18 -48t-50 -16t-50 16t-18 48z" />
    <glyph glyph-name="zacute" unicode="&#x17a;" horiz-adv-x="471" 
d="M275 573h-91v4l78 119h133v-6zM25 74l280 330h-275v87h408v-77l-281 -328h289v-86h-421v74z" />
    <glyph glyph-name="zcaron" unicode="&#x17e;" horiz-adv-x="471" 
d="M306 696h105v-2l-124 -121h-101l-122 121v2h109l65 -63zM25 74l280 330h-275v87h408v-77l-281 -328h289v-86h-421v74z" />
    <glyph glyph-name="zdotaccent" unicode="&#x17c;" horiz-adv-x="471" 
d="M25 74l280 330h-275v87h408v-77l-281 -328h289v-86h-421v74zM167 630q0 32 19 47.5t52 15.5q32 0 50.5 -15.5t18.5 -47.5t-18.5 -48t-50.5 -16q-33 0 -52 16t-19 48z" />
    <glyph glyph-name="ordfeminine" unicode="&#xaa;" horiz-adv-x="420" 
d="M292 412q-35 -67 -119 -67q-69 0 -108 46t-39 137q0 93 41 139t113 46q81 0 114 -65l8 54h70v-346h-75zM288 530q0 62 -25.5 89.5t-64.5 27.5q-45 0 -66.5 -28t-21.5 -90q0 -61 22 -89t66 -28q40 0 65 28t25 90z" />
    <glyph glyph-name="ordmasculine" unicode="&#xba;" horiz-adv-x="401" 
d="M296 530q0 63 -23 90t-71 27t-70 -27t-22 -90q0 -65 22.5 -92t69.5 -27q48 0 71 27t23 92zM26 530q0 95 46.5 139t130.5 44q88 0 132 -43t44 -140q0 -94 -45 -139.5t-131 -45.5t-131.5 44t-45.5 141z" />
    <glyph glyph-name="cordinal" horiz-adv-x="369" 
d="M198 345q-80 0 -125.5 43.5t-45.5 141.5q0 95 45.5 139t128.5 44q55 0 90.5 -20t55.5 -58l-60 -42q-26 53 -85 53q-47 0 -69.5 -25.5t-22.5 -91.5q0 -63 22 -90t69 -27q34 0 54.5 12.5t34.5 41.5l62 -33q-41 -88 -154 -88z" />
    <glyph glyph-name="ampersand" unicode="&#x26;" horiz-adv-x="691" 
d="M652 479q0 -105 -20.5 -189t-59.5 -146q29 -20 59 -40t65 -41l-52 -78q-33 21 -71 44.5t-65 42.5q-46 -42 -106 -63.5t-135 -21.5q-52 0 -97 11t-78 34t-51.5 58.5t-18.5 84.5q0 39 11 68t30 52.5t44 42t53 36.5q-42 57 -57 101t-15 76q0 78 49.5 120t146.5 42
q91 0 132.5 -36t41.5 -102q0 -35 -11 -64t-31 -54.5t-50 -49t-67 -47.5q66 -70 193 -162q30 51 46 121t14 160h100zM274 71q91 0 154 57q-71 52 -122.5 96.5t-88.5 84.5q-20 -13 -36.5 -26t-28.5 -28t-18.5 -33t-6.5 -40q0 -51 37.5 -81t109.5 -30zM187 548q0 -23 11 -53.5
t43 -71.5q31 20 54 37t37.5 33t21.5 32t7 36q0 70 -82 70q-47 0 -69.5 -22t-22.5 -61z" />
    <glyph glyph-name="cedilla" unicode="&#xb8;" horiz-adv-x="575" 
d="M354 0l-17 -57h2q37 -1 65 -23t28 -64q0 -25 -10 -43.5t-27 -30.5t-39.5 -18t-47.5 -6q-41 0 -74 15t-53 48l47 45q14 -23 31 -35t45 -12q23 0 37.5 9t14.5 29q0 19 -14 29.5t-39 10.5q-6 0 -11.5 -0.5t-11.5 -1.5l-19 15l25 90h68z" />
    <glyph glyph-name="ogonek" unicode="&#x2db;" horiz-adv-x="575" 
d="M301 -218q-24 0 -46.5 5t-40.5 18t-28.5 33.5t-10.5 52.5q0 37 15 65.5t39 48t53.5 29t58.5 8.5l3 -42q-48 -4 -71 -33.5t-23 -63.5q0 -28 16 -39t44 -11q38 0 66 17l17 -64q-41 -24 -92 -24z" />
    <glyph glyph-name="period" unicode="." horiz-adv-x="215" 
d="M38 60q0 34 19 50.5t52 16.5q32 0 50.5 -16.5t18.5 -50.5q0 -32 -18.5 -49t-50.5 -17q-33 0 -52 17t-19 49z" />
    <glyph glyph-name="comma" unicode="," horiz-adv-x="215" 
d="M109 -3q-35 -3 -53 16t-18 48q0 33 18.5 49.5t49.5 16.5q34 0 53 -21t19 -70q0 -63 -29 -110.5t-89 -62.5l-22 48q30 10 48 32t23 54z" />
    <glyph glyph-name="colon" unicode=":" horiz-adv-x="215" 
d="M38 60q0 34 19 50.5t52 16.5q32 0 50.5 -16.5t18.5 -50.5q0 -32 -18.5 -49t-50.5 -17q-33 0 -52 17t-19 49zM38 423q0 34 19 50.5t52 16.5q32 0 50.5 -16.5t18.5 -50.5q0 -32 -18.5 -49t-50.5 -17q-33 0 -52 17t-19 49z" />
    <glyph glyph-name="semicolon" unicode=";" horiz-adv-x="215" 
d="M109 -3q-35 -3 -53 16t-18 48q0 33 18.5 49.5t49.5 16.5q34 0 53 -21t19 -70q0 -63 -29 -110.5t-89 -62.5l-22 48q30 10 48 32t23 54zM39 423q0 34 19 50.5t52 16.5q32 0 50.5 -16.5t18.5 -50.5q0 -32 -18.5 -49t-50.5 -17q-33 0 -52 17t-19 49z" />
    <glyph glyph-name="ellipsis" unicode="&#x2026;" horiz-adv-x="696" 
d="M38 60q0 34 19 50.5t52 16.5q32 0 50.5 -16.5t18.5 -50.5q0 -32 -18.5 -49t-50.5 -17q-33 0 -52 17t-19 49zM278 60q0 34 19 50.5t52 16.5t51 -16.5t18 -50.5q0 -32 -18 -49t-51 -17t-52 17t-19 49zM519 60q0 34 19 50.5t51 16.5q33 0 51 -16.5t18 -50.5q0 -32 -18 -49
t-51 -17q-32 0 -51 17t-19 49z" />
    <glyph glyph-name="exclam" unicode="!" horiz-adv-x="213" 
d="M150 203h-87l-16 497h120zM38 60q0 34 18 50.5t51 16.5q32 0 51 -16.5t19 -50.5q0 -32 -19 -49t-51 -17q-33 0 -51 17t-18 49z" />
    <glyph glyph-name="exclamdown" unicode="&#xa1;" horiz-adv-x="213" 
d="M176 441q0 -34 -18 -50.5t-51 -16.5q-32 0 -51 16.5t-19 50.5q0 32 19 49t51 17q33 0 51 -17t18 -49zM64 298h87l16 -497h-120z" />
    <glyph glyph-name="exclamdown.cap" horiz-adv-x="216" 
d="M176 640q0 -34 -18 -50.5t-51 -16.5q-32 0 -51 16.5t-19 50.5q0 32 19 49t51 17q33 0 51 -17t18 -49zM64 497h87l16 -497h-120z" />
    <glyph glyph-name="question" unicode="?" horiz-adv-x="486" 
d="M177 365h49q147 0 147 135q0 60 -37.5 92t-108.5 32q-55 0 -93.5 -23t-67.5 -84l-75 52q36 76 97 111t152 35q112 0 176.5 -54.5t64.5 -153.5q0 -96 -52 -149t-148 -61l-2 -94h-100zM158 60q0 34 18.5 50.5t51.5 16.5q32 0 50.5 -16.5t18.5 -50.5q0 -32 -18.5 -49
t-50.5 -17q-33 0 -51.5 17t-18.5 49z" />
    <glyph glyph-name="questiondown" unicode="&#xbf;" horiz-adv-x="486" 
d="M322 441q0 -34 -18.5 -50.5t-51.5 -16.5q-32 0 -50.5 16.5t-18.5 50.5q0 32 18.5 49t50.5 17q33 0 51.5 -17t18.5 -49zM303 136h-49q-147 0 -147 -135q0 -60 37.5 -92t108.5 -32q55 0 93.5 23t67.5 84l75 -52q-36 -76 -97 -111t-152 -35q-112 0 -176.5 54.5t-64.5 153.5
q0 96 52 149t148 61l2 94h100z" />
    <glyph glyph-name="questiondown.cap" horiz-adv-x="483" 
d="M322 643q0 -34 -18.5 -50.5t-51.5 -16.5q-32 0 -50.5 16.5t-18.5 50.5q0 32 18.5 49t50.5 17q33 0 51.5 -17t18.5 -49zM303 338h-49q-147 0 -147 -135q0 -60 37.5 -92t108.5 -32q55 0 93.5 23t67.5 84l75 -52q-36 -76 -97 -111t-152 -35q-112 0 -176.5 54.5t-64.5 153.5
q0 96 52 149t148 61l2 94h100z" />
    <glyph glyph-name="quoteleft" unicode="&#x2018;" horiz-adv-x="210" 
d="M129 608q34 3 52 -16t18 -47q0 -32 -18.5 -48.5t-48.5 -16.5q-34 0 -52.5 20.5t-18.5 69.5q0 62 28.5 108.5t87.5 61.5l22 -47q-30 -10 -47.5 -32t-22.5 -53z" />
    <glyph glyph-name="quoteright" unicode="&#x2019;" horiz-adv-x="210" 
d="M108 603q-34 -3 -52 16t-18 47q0 33 18.5 49t48.5 16q34 0 52.5 -20.5t18.5 -69.5q0 -62 -28.5 -108.5t-87.5 -61.5l-22 47q30 10 47.5 32t22.5 53z" />
    <glyph glyph-name="quotedblleft" unicode="&#x201c;" horiz-adv-x="383" 
d="M302 608q34 3 52 -16t18 -47q0 -32 -18.5 -48.5t-48.5 -16.5q-34 0 -52.5 20.5t-18.5 69.5q0 62 28.5 108.5t87.5 61.5l22 -47q-30 -10 -47.5 -32t-22.5 -53zM129 608q34 3 52 -16t18 -47q0 -32 -18.5 -48.5t-48.5 -16.5q-34 0 -52.5 20.5t-18.5 69.5q0 62 28.5 108.5
t87.5 61.5l22 -47q-30 -10 -47.5 -32t-22.5 -53z" />
    <glyph glyph-name="quotedblright" unicode="&#x201d;" horiz-adv-x="383" 
d="M106 602q-34 -3 -52 16t-18 47q0 33 18.5 49t48.5 16q34 0 52.5 -20.5t18.5 -69.5q0 -62 -28.5 -108.5t-87.5 -61.5l-22 47q30 10 47.5 32t22.5 53zM280 602q-34 -3 -52 16t-18 47q0 33 18.5 49t48.5 16q34 0 52.5 -20.5t18.5 -69.5q0 -62 -28.5 -108.5t-87.5 -61.5
l-22 47q30 10 47.5 32t22.5 53z" />
    <glyph glyph-name="quotesinglbase" unicode="&#x201a;" horiz-adv-x="208" 
d="M107 -2q-34 -3 -51.5 15.5t-17.5 46.5q0 32 18 48t48 16q33 0 51 -20.5t18 -67.5q0 -61 -28 -107t-86 -61l-21 47q29 9 46.5 30.5t22.5 52.5z" />
    <glyph glyph-name="quotedblbase" unicode="&#x201e;" horiz-adv-x="381" 
d="M107 -3q-34 -3 -51.5 15.5t-17.5 46.5q0 32 18 48t48 16q33 0 51 -20.5t18 -67.5q0 -61 -28 -107t-86 -61l-21 47q29 9 46.5 30.5t22.5 52.5zM280 -3q-34 -3 -51.5 15.5t-17.5 46.5q0 32 18 48t48 16q33 0 51 -20.5t18 -67.5q0 -61 -28 -107t-86 -61l-21 47
q29 9 46.5 30.5t22.5 52.5z" />
    <glyph glyph-name="reversequoteleft" horiz-adv-x="210" 
d="M199 666q0 -28 -18 -47t-52 -16q5 -31 22.5 -53t47.5 -32l-22 -47q-59 15 -87.5 61.5t-28.5 108.5q0 49 18.5 69.5t52.5 20.5q30 0 48.5 -16.5t18.5 -48.5z" />
    <glyph glyph-name="reversequotedblleft" horiz-adv-x="383" 
d="M374 666q0 -28 -18 -47t-52 -16q5 -31 22.5 -53t47.5 -32l-22 -47q-59 15 -87.5 61.5t-28.5 108.5q0 49 18.5 69.5t52.5 20.5q30 0 48.5 -16.5t18.5 -48.5zM199 666q0 -28 -18 -47t-52 -16q5 -31 22.5 -53t47.5 -32l-22 -47q-59 15 -87.5 61.5t-28.5 108.5
q0 49 18.5 69.5t52.5 20.5q30 0 48.5 -16.5t18.5 -48.5z" />
    <glyph glyph-name="guilsinglleft" unicode="&#x2039;" horiz-adv-x="394" 
d="M38 244v3l192 244h120l-194 -243l197 -248h-123z" />
    <glyph glyph-name="guilsinglright" unicode="&#x203a;" horiz-adv-x="394" 
d="M381 247v-3l-192 -244h-120l194 243l-197 248h123z" />
    <glyph glyph-name="guillemotleft" unicode="&#xab;" horiz-adv-x="625" 
d="M38 244v3l192 244h120l-194 -243l198 -248h-123zM261 246v3l194 242h121l-196 -241l204 -250h-123z" />
    <glyph glyph-name="guillemotright" unicode="&#xbb;" horiz-adv-x="625" 
d="M389 245v-3l-194 -242h-121l196 241l-204 250h123zM612 247v-3l-192 -244h-120l194 243l-198 248h123z" />
    <glyph glyph-name="slash" unicode="/" horiz-adv-x="500" 
d="M114 0h-122l394 700h123z" />
    <glyph glyph-name="backslash" unicode="\" horiz-adv-x="505" 
d="M-8 700h120l394 -700h-120z" />
    <glyph glyph-name="bar" unicode="|" horiz-adv-x="279" 
d="M89 766h102v-831h-102v831z" />
    <glyph glyph-name="doublebar" horiz-adv-x="451" 
d="M89 766h102v-831h-102v831zM261 766h102v-831h-102v831z" />
    <glyph glyph-name="brokenbar" unicode="&#xa6;" horiz-adv-x="279" 
d="M89 766h102v-380h-102v380zM89 315h102v-380h-102v380z" />
    <glyph glyph-name="bullet" unicode="&#x2022;" horiz-adv-x="406" 
d="M44 327q0 71 42.5 114t117.5 43t117 -43t42 -114q0 -72 -42 -114.5t-117 -42.5t-117.5 42.5t-42.5 114.5z" />
    <glyph glyph-name="nonbreakingspace" unicode="&#xa0;" horiz-adv-x="205" 
 />
    <glyph glyph-name="periodcentered" unicode="&#xb7;" horiz-adv-x="215" 
d="M38 337q0 34 19 50.5t52 16.5q32 0 50.5 -16.5t18.5 -50.5q0 -32 -18.5 -49t-50.5 -17q-33 0 -52 17t-19 49z" />
    <glyph glyph-name="hyphen" unicode="-" horiz-adv-x="423" 
d="M388 290h-351v91h351v-91z" />
    <glyph glyph-name="endash" unicode="&#x2013;" horiz-adv-x="563" 
d="M528 290h-491v91h491v-91z" />
    <glyph glyph-name="emdash" unicode="&#x2014;" horiz-adv-x="763" 
d="M728 290h-691v91h691v-91z" />
    <glyph glyph-name="parenleft" unicode="(" horiz-adv-x="327" 
d="M297 -102q-138 12 -203 114.5t-65 299.5q0 196 65 298.5t202 114.5l9 -87q-43 -6 -76 -26t-55 -58.5t-33.5 -97.5t-11.5 -144t11.5 -144.5t33.5 -98t55 -58.5t76 -26z" />
    <glyph glyph-name="parenright" unicode=")" horiz-adv-x="327" 
d="M47 -15q43 6 76 26t55 58.5t33.5 98t11.5 144.5t-11.5 144t-33.5 97.5t-55 58.5t-76 26l9 87q137 -12 202 -114.5t65 -298.5q0 -197 -65 -299.5t-203 -114.5z" />
    <glyph glyph-name="bracketleft" unicode="[" horiz-adv-x="321" 
d="M57 716h239v-83h-137v-672h140v-83h-242v838z" />
    <glyph glyph-name="bracketright" unicode="]" horiz-adv-x="321" 
d="M289 -122h-242v83h140v672h-137v83h239v-838z" />
    <glyph glyph-name="braceleft" unicode="{" horiz-adv-x="334" 
d="M296 -103q-81 6 -126.5 42t-45.5 108q0 33 4.5 62.5t4.5 58.5q0 54 -26 78t-80 24h-31v83h31q54 0 80 24t26 78q0 29 -4.5 58.5t-4.5 62.5q0 72 45.5 108t126.5 42l10 -87q-41 -4 -62.5 -23t-21.5 -61q0 -30 4.5 -58.5t4.5 -58.5q0 -48 -21.5 -78.5t-64.5 -47.5
q86 -36 86 -127q0 -30 -4.5 -58.5t-4.5 -57.5q0 -42 21.5 -61.5t62.5 -23.5l-10 -87v0z" />
    <glyph glyph-name="braceright" unicode="}" horiz-adv-x="334" 
d="M233 47q0 -72 -45.5 -108t-126.5 -42l-10 87q41 4 62.5 23.5t21.5 61.5q0 29 -4.5 57.5t-4.5 58.5q0 91 86 127q-43 17 -64.5 47.5t-21.5 78.5q0 30 4.5 58.5t4.5 58.5q0 42 -21.5 61t-62.5 23l10 87q81 -6 126.5 -42t45.5 -108q0 -33 -4.5 -62.5t-4.5 -58.5
q0 -54 26 -78t80 -24h31v-83h-31q-54 0 -80 -24t-26 -78q0 -29 4.5 -58.5t4.5 -62.5z" />
    <glyph glyph-name="asterisk" unicode="*" horiz-adv-x="400" 
d="M48 396l84 101l-119 31l23 84l119 -40l-7 141h97l-8 -141l121 40l23 -84l-119 -31l84 -101l-71 -56l-79 109l-78 -109z" />
    <glyph glyph-name="dagger" unicode="&#x2020;" horiz-adv-x="286" 
d="M190 513l-2 -228h-91v228h-68v81h67l-3 119h101l-3 -119h66v-81h-67z" />
    <glyph glyph-name="daggerdbl" unicode="&#x2021;" horiz-adv-x="286" 
d="M98 474v54h-69v81h67l-3 104h101l-4 -104h67v-81h-68v-54h68v-81h-67l4 -108h-101l3 108h-67v81h69z" />
    <glyph glyph-name="section" unicode="&#xa7;" horiz-adv-x="494" 
d="M245 -26q-67 0 -117.5 19.5t-82.5 70.5l68 53q23 -35 53.5 -50.5t77.5 -15.5q54 0 76 17.5t22 47.5q0 26 -19.5 42.5t-70.5 27.5l-41 9q-43 10 -72.5 25.5t-48 35t-26.5 42.5t-8 49q0 16 4 33t13 31.5t23.5 26.5t36.5 19q-34 21 -48.5 49.5t-14.5 61.5q0 28 9.5 54.5
t30.5 46.5t55 32t84 12q63 0 102 -18t69 -53l-62 -60q-23 26 -47.5 39.5t-62.5 13.5q-45 0 -64.5 -17t-19.5 -47q0 -21 17 -41t61 -30l53 -12q86 -20 122.5 -55.5t36.5 -92.5q0 -34 -17 -64t-62 -46q67 -36 67 -111q0 -27 -9.5 -53t-32 -46.5t-60.5 -33t-95 -12.5zM357 332
q1 24 -15 43t-63 30l-26 6q-18 4 -36.5 3.5t-33 -7t-24 -20t-10.5 -35.5t16.5 -43.5t61.5 -30.5l4.5 -1t9.5 -1.5t9 -1.5t5 -1q47 -8 74 8t28 51z" />
    <glyph glyph-name="paragraph" unicode="&#xb6;" horiz-adv-x="643" 
d="M590 0h-101v230h-68v-230h-101v231h-4q-122 2 -188.5 62.5t-66.5 176.5q0 108 62.5 168.5t184.5 61.5h282v-700zM421 604v-279h68v279h-68zM167 469q0 -71 35.5 -106t98.5 -37h19v278h-20q-67 -2 -100 -37.5t-33 -97.5z" />
    <glyph glyph-name="asciicircum" unicode="^" horiz-adv-x="430" 
d="M270 700l148 -321v-2h-105l-98 226l-101 -226h-101v2l149 321h108z" />
    <glyph glyph-name="asciitilde" unicode="~" horiz-adv-x="518" 
d="M507 406q-5 -71 -43 -106.5t-97 -35.5q-32 0 -62 11t-57 24q-23 11 -44.5 19.5t-43.5 8.5q-23 0 -39.5 -15t-18.5 -47l-88 13q5 72 43.5 107t98.5 35q34 0 63 -11t56 -24q23 -11 44.5 -19t41.5 -8q24 0 40 14t18 46z" />
    <glyph glyph-name="underscore" unicode="_" horiz-adv-x="455" 
d="M473 -86h-490v86h490v-86z" />
    <glyph glyph-name="quotesingle" unicode="'" horiz-adv-x="176" 
d="M41 713h99l-9 -234h-80z" />
    <glyph glyph-name="quotedbl" unicode="&#x22;" horiz-adv-x="316" 
d="M52 479l-11 234h99l-7 -234h-81zM180 713h100l-12 -234h-80z" />
    <glyph glyph-name="at" unicode="@" horiz-adv-x="792" 
d="M406 -105q-83 0 -148 25t-110 70.5t-69 109.5t-24 142t24 141.5t69 108.5t110 70t148 25q80 0 142 -23t104 -65t63.5 -100.5t21.5 -130.5q0 -89 -41.5 -140t-119.5 -51q-37 0 -63 13.5t-37 43.5q-20 -35 -51.5 -49.5t-69.5 -14.5q-67 0 -104.5 44t-37.5 132
q0 90 39.5 134t110.5 44t106 -53l5 45h70v-228q0 -30 11.5 -45.5t40.5 -15.5q40 0 65 35t25 105q0 69 -20.5 120.5t-57.5 86t-88.5 51.5t-113.5 17q-66 0 -121 -19t-94.5 -56.5t-61.5 -94t-22 -130.5q0 -75 22 -131.5t61.5 -94t94.5 -56.5t122 -19q73 0 132.5 22.5
t101.5 66.5l31 -34q-45 -48 -111.5 -74.5t-154.5 -26.5zM377 137q36 0 60.5 26.5t24.5 84.5q0 57 -24.5 83.5t-60.5 26.5q-82 0 -82 -112q0 -109 82 -109z" />
    <glyph glyph-name="at.cap" horiz-adv-x="792" 
d="M406 3q-83 0 -148 25t-110 70.5t-69 109.5t-24 142t24 141.5t69 108.5t110 70t148 25q80 0 142 -23t104 -65t63.5 -100.5t21.5 -130.5q0 -89 -41.5 -140t-119.5 -51q-37 0 -63 13.5t-37 43.5q-20 -35 -51.5 -49.5t-69.5 -14.5q-67 0 -104.5 44t-37.5 132q0 90 39.5 134
t110.5 44t106 -53l5 45h70v-228q0 -30 11.5 -45.5t40.5 -15.5q40 0 65 35t25 105q0 69 -20.5 120.5t-57.5 86t-88.5 51.5t-113.5 17q-66 0 -121 -19t-94.5 -56.5t-61.5 -94t-22 -130.5q0 -75 22 -131.5t61.5 -94t94.5 -56.5t122 -19q73 0 132.5 22.5t101.5 66.5l31 -34
q-45 -48 -111.5 -74.5t-154.5 -26.5zM377 245q36 0 60.5 26.5t24.5 84.5q0 57 -24.5 83.5t-60.5 26.5q-82 0 -82 -112q0 -109 82 -109z" />
    <glyph glyph-name="copyright" unicode="&#xa9;" horiz-adv-x="807" 
d="M57 350q0 77 23.5 140.5t68 108.5t109 69.5t147.5 24.5q82 0 146 -24.5t108.5 -69.5t68 -108.5t23.5 -140.5t-23.5 -140.5t-68 -108.5t-108.5 -70t-146 -25q-83 0 -147.5 25t-109 70t-68 108.5t-23.5 140.5zM105 350q0 -75 22 -131.5t61.5 -94t94.5 -56t122 -18.5
q66 0 121 18.5t94.5 56t61.5 94t22 131.5t-22 131t-61.5 93.5t-94.5 56.5t-121 19q-67 0 -122 -19t-94.5 -56.5t-61.5 -93.5t-22 -131zM409 171q-86 0 -131.5 44t-45.5 138q0 95 45 140t133 45q57 0 93 -20t57 -58l-60 -41q-26 53 -90 53q-50 0 -73.5 -28t-23.5 -91t24 -89
t73 -26q35 0 57 12t36 41l61 -33q-21 -45 -60.5 -66t-94.5 -21z" />
    <glyph glyph-name="registered" unicode="&#xae;" horiz-adv-x="448" 
d="M34 525q0 85 50 136.5t141 51.5t141 -51.5t50 -136.5t-50 -137t-141 -52t-141 52t-50 137zM66 525q0 -80 44 -121t115 -41q70 0 114 41t44 121q0 79 -44 120t-114 41q-71 0 -115 -41t-44 -120zM150 622h83q35 0 52.5 -16.5t17.5 -45.5q0 -23 -9.5 -37t-25.5 -22l35 -65
h-45l-30 58h-38v-58h-40v186zM190 588v-60h35q18 0 27.5 7t9.5 24q0 29 -32 29h-40z" />
    <glyph glyph-name="trademark" unicode="&#x2122;" horiz-adv-x="673" 
d="M305 700h74l98 -225l100 225h72v-294h-64l1 182l-82 -182h-56l-81 179l2 -179h-64v294zM269 700v-58h-96v-236h-66v236h-98v58h260z" />
    <glyph glyph-name="Euro" unicode="&#x20ac;" horiz-adv-x="667" 
d="M382 -13q-131 0 -206.5 59t-97.5 191h-85v73h78q-1 9 -1 19v21v12h-77v73h81q16 147 93.5 212.5t216.5 65.5q94 0 156.5 -33t97.5 -112l-92 -55q-26 60 -64.5 83.5t-98.5 23.5q-40 0 -72.5 -9t-57 -30.5t-40.5 -57t-23 -88.5h290l-19 -73h-276v-11v-21.5t1 -19.5h262
l-19 -73h-232q8 -44 24.5 -74t40 -48t54 -26t67.5 -8q59 0 101 22.5t70 78.5l90 -51q-40 -75 -104 -109.5t-158 -34.5z" />
    <glyph glyph-name="dollar" unicode="$" horiz-adv-x="568" 
d="M253 15q-70 5 -127 34t-95 93l78 55q30 -44 63 -66t81 -27v206q-104 25 -151.5 75t-47.5 122q0 75 49 122.5t150 55.5v81h73v-82q133 -12 192 -112l-81 -54q-21 33 -46.5 52t-64.5 25v-201q57 -14 96.5 -31t64.5 -39.5t36 -51.5t11 -66q0 -88 -54 -135.5t-154 -55.5v-77
h-73v77zM428 198q0 37 -23 58t-79 37v-189q53 6 77.5 29.5t24.5 64.5zM157 512q0 -36 22 -61t74 -39v184q-51 -5 -73.5 -26t-22.5 -58z" />
    <glyph glyph-name="cent" unicode="&#xa2;" horiz-adv-x="524" 
d="M246 12q-96 10 -147 68t-51 177q0 117 50.5 176t147.5 69v76h75v-75q60 -6 99.5 -32.5t64.5 -72.5l-75 -50q-28 55 -89 66v-316q34 5 56 21.5t39 51.5l79 -42q-26 -55 -70 -83t-104 -34v-74h-75v74zM154 256q0 -75 22.5 -111t69.5 -45v313q-48 -9 -70 -45t-22 -112z" />
    <glyph glyph-name="sterling" unicode="&#xa3;" horiz-adv-x="564" 
d="M21 90h36q32 0 41 27t7 79l-4 101h-80v80h78l-3 108q-2 60 14 103t46.5 71t73 41t94.5 13q77 0 126 -30.5t81 -93.5l-82 -56q-20 42 -49.5 65t-74.5 23q-62 0 -90.5 -34.5t-26.5 -107.5l4 -102h177v-80h-173l2 -105q1 -32 -3 -59t-17 -43h166q45 0 76 14t59 46l56 -66
q-35 -47 -80 -65.5t-110 -18.5h-344v90z" />
    <glyph glyph-name="florin" unicode="&#x192;" horiz-adv-x="368" 
d="M98 289h-83l13 84h83l11 68q15 96 65 138.5t126 42.5q23 0 49 -4.5t43 -14.5l-31 -84q-12 6 -25 9t-30 3q-34 0 -56.5 -20t-31.5 -74l-10 -64h135l-13 -84h-135l-49 -316q-14 -92 -63 -135.5t-126 -43.5q-21 0 -44.5 4t-41.5 12l29 85q13 -5 24.5 -8t28.5 -3q32 0 53 20
t30 76z" />
    <glyph glyph-name="yen" unicode="&#xa5;" horiz-adv-x="612" 
d="M556 215h-190v-215h-118v215h-190v73h182l-32 52h-150v73h108l-169 287h128l185 -328l183 328h123l-168 -287h108v-73h-151l-30 -52h181v-73z" />
    <glyph glyph-name="numbersign" unicode="#" horiz-adv-x="716" 
d="M103 513h111l58 187h112l-58 -187h168l58 187h112l-58 -187h109l-23 -82h-111l-45 -146h117l-24 -82h-118l-62 -203h-113l62 203h-166l-62 -203h-113l63 203h-103l24 82h103l45 146h-110zM256 285h168l45 146h-167z" />
    <glyph glyph-name="zero" unicode="0" horiz-adv-x="704" 
d="M351 713q75 0 129.5 -21t90 -65.5t52.5 -113t17 -163.5q0 -188 -69.5 -275.5t-219.5 -87.5q-74 0 -128.5 21t-89.5 65t-52 113t-17 164t17 163.5t52 113t89.5 65.5t128.5 21zM351 621q-42 0 -74 -13.5t-53.5 -45t-33 -83.5t-11.5 -130t11.5 -130t33 -83.5t53.5 -44.5
t74 -13t74.5 13t54.5 44.5t33.5 84t11.5 131.5q0 76 -11.5 127.5t-33.5 83t-54.5 45.5t-74.5 14z" />
    <glyph glyph-name="one" unicode="1" horiz-adv-x="337" 
d="M134 0v562l-90 -60l-47 91l176 109h76v-702h-115z" />
    <glyph glyph-name="two" unicode="2" horiz-adv-x="579" 
d="M36 96l232 212q35 32 60.5 58.5t42.5 50.5t25.5 47.5t8.5 48.5q0 55 -33.5 81t-93.5 26q-66 0 -104.5 -28t-67.5 -86l-80 58q41 79 103.5 114t159.5 35q109 0 170 -47.5t61 -142.5q0 -35 -9.5 -66.5t-30.5 -65t-54 -70t-79 -79.5l-163 -148l368 2v-96h-516v96z" />
    <glyph glyph-name="three" unicode="3" horiz-adv-x="594" 
d="M280 -13q-91 0 -154 30t-101 96l81 59q29 -49 69.5 -71.5t100.5 -22.5q73 0 112.5 31t39.5 95q0 54 -31 83t-98 29h-93v92h90q53 0 83.5 28t30.5 79q0 55 -35 80.5t-100 25.5q-56 0 -92 -22.5t-65 -74.5l-81 54q39 71 99 103t151 32q112 0 174.5 -47t62.5 -142
q0 -51 -24 -92t-71 -66q54 -18 83.5 -58t29.5 -102q0 -48 -16 -88t-48.5 -69t-81.5 -45.5t-116 -16.5z" />
    <glyph glyph-name="four" unicode="4" horiz-adv-x="629" 
d="M23 250l226 450h117l-222 -431h265v300h112v-300h100v-98h-100v-171h-112v171h-386v79z" />
    <glyph glyph-name="five" unicode="5" horiz-adv-x="574" 
d="M161 413q31 17 69.5 26t79.5 9q50 0 93.5 -12.5t76 -39t51 -68t18.5 -99.5q0 -54 -17.5 -99t-51.5 -76.5t-85 -49t-118 -17.5q-84 0 -149 29.5t-103 92.5l81 61q57 -94 168 -94q78 0 119.5 41t41.5 110t-40.5 102t-110.5 33q-52 0 -90.5 -15t-70.5 -41l-69 34l34 360h427
v-95h-336z" />
    <glyph glyph-name="six" unicode="6" horiz-adv-x="656" 
d="M356 -13q-66 0 -119.5 21t-92 65t-59 112t-20.5 163q0 187 76 276t218 89q85 0 144.5 -28t90.5 -87l-78 -61q-24 43 -61.5 64.5t-94.5 21.5q-41 0 -74.5 -13.5t-57.5 -46t-37 -86t-13 -133.5v-24q21 55 73.5 87t122.5 32q109 0 171.5 -56t62.5 -162q0 -52 -16 -95
t-47.5 -74t-78.5 -48t-110 -17zM202 211q0 -60 39 -98t108 -38q65 0 105 34t40 105q0 66 -35.5 103t-110.5 37q-65 0 -105.5 -38.5t-40.5 -104.5z" />
    <glyph glyph-name="seven" unicode="7" horiz-adv-x="490" 
d="M144 0q0 84 16 168.5t45.5 163t72 148t95.5 122.5l-354 -2v100h488v-90q-57 -41 -102 -105t-76 -144t-48 -172t-17 -189h-120v0z" />
    <glyph glyph-name="eight" unicode="8" horiz-adv-x="633" 
d="M316 -13q-126 0 -194 54t-68 151q0 72 36.5 114.5t94.5 57.5q-49 19 -78 58.5t-29 99.5q0 95 61 143t177 48q118 0 178.5 -48t60.5 -142q0 -60 -28.5 -100t-77.5 -59q57 -16 94 -58t37 -114q0 -97 -68 -151t-196 -54zM467 196q0 59 -40 89.5t-109 30.5
q-70 0 -110.5 -30.5t-40.5 -89.5q0 -61 39 -92t111 -31q71 0 110.5 31t39.5 92zM449 519q0 54 -34.5 81.5t-97.5 27.5q-64 0 -98 -27.5t-34 -81.5q0 -51 33.5 -81t98.5 -30q66 0 99 30t33 81z" />
    <glyph glyph-name="nine" unicode="9" horiz-adv-x="654" 
d="M298 -13q-85 0 -145 27.5t-92 85.5l77 61q26 -44 65.5 -64t93.5 -20q40 0 73.5 13.5t57.5 45.5t37.5 85.5t13.5 133.5v24q-21 -57 -73.5 -90.5t-122.5 -33.5q-109 0 -170.5 57.5t-61.5 166.5q0 52 15.5 95t47 74t78.5 48t109 17q66 0 120 -21t92 -65t58.5 -112t20.5 -163
q0 -188 -76 -276.5t-218 -88.5zM455 488q0 60 -39 98t-109 38q-64 0 -104 -35.5t-40 -107.5q0 -66 35.5 -102.5t109.5 -36.5q66 0 106.5 39.5t40.5 106.5z" />
    <glyph glyph-name="uni2070" unicode="&#x2070;" horiz-adv-x="412" 
d="M27 498q0 111 42.5 163t135.5 52t135.5 -52t42.5 -163t-42.5 -163t-135.5 -52t-135.5 51.5t-42.5 163.5zM295 498q0 41 -6 68.5t-17.5 44t-28 23.5t-38.5 7t-38.5 -7t-28 -23.5t-17.5 -44.5t-6 -69t6 -68.5t17.5 -44t28 -23.5t38.5 -7t38.5 7t28 23.5t17.5 44.5t6 69z
" />
    <glyph glyph-name="onesuperior" unicode="&#xb9;" horiz-adv-x="215" 
d="M79 294v306l-48 -30l-33 68l113 66h57v-410h-89z" />
    <glyph glyph-name="twosuperior" unicode="&#xb2;" horiz-adv-x="350" 
d="M19 362l135 118q37 33 54.5 56.5t17.5 49.5q0 29 -17.5 41t-47.5 12q-35 0 -55.5 -14t-36.5 -45l-60 43q26 49 65.5 69.5t96.5 20.5q63 0 104 -28t41 -89q0 -42 -23.5 -78t-74.5 -81l-76 -69l190 3v-77h-313v68z" />
    <glyph glyph-name="threesuperior" unicode="&#xb3;" horiz-adv-x="351" 
d="M168 283q-57 0 -95.5 18t-62.5 59l61 44q17 -27 38.5 -38.5t52.5 -11.5q37 0 57.5 14.5t20.5 44.5q0 55 -70 55h-49v67h49q28 0 43.5 13.5t15.5 39.5q0 52 -68 52q-30 0 -48.5 -11t-34.5 -40l-61 39q24 45 61 65t92 20q70 0 108.5 -29.5t38.5 -86.5q0 -61 -55 -92
q30 -12 47 -34.5t17 -58.5q0 -58 -39.5 -93.5t-118.5 -35.5z" />
    <glyph glyph-name="uni2074" unicode="&#x2074;" horiz-adv-x="381" 
d="M12 445l127 257h87l-123 -242h136v155h82v-155h53v-75h-53v-91h-82v91h-227v60z" />
    <glyph glyph-name="fraction" unicode="&#x2044;" horiz-adv-x="500" 
d="M128 0h-103l342 700h102z" />
    <glyph glyph-name="onehalf" unicode="&#xbd;" horiz-adv-x="835" 
d="M486 68l135 118q37 33 54.5 56.5t17.5 49.5q0 29 -17.5 41t-47.5 12q-35 0 -55.5 -14t-36.5 -45l-60 43q26 49 65.5 69.5t96.5 20.5q63 0 104 -28t41 -89q0 -42 -23.5 -78t-74.5 -81l-76 -69l190 3v-77h-313v68zM79 294v306l-48 -30l-33 68l113 66h57v-410h-89zM233 0
h-103l342 700h102z" />
    <glyph glyph-name="onequarter" unicode="&#xbc;" horiz-adv-x="850" 
d="M445 151l127 257h87l-123 -242h136v155h82v-155h53v-75h-53v-91h-82v91h-227v60zM79 294v306l-48 -30l-33 68l113 66h57v-410h-89zM233 0h-103l342 700h102z" />
    <glyph glyph-name="threequarters" unicode="&#xbe;" horiz-adv-x="945" 
d="M560 151l127 257h87l-123 -242h136v155h82v-155h53v-75h-53v-91h-82v91h-227v60zM168 283q-57 0 -95.5 18t-62.5 59l61 44q17 -27 38.5 -38.5t52.5 -11.5q37 0 57.5 14.5t20.5 44.5q0 55 -70 55h-49v67h49q28 0 43.5 13.5t15.5 39.5q0 52 -68 52q-30 0 -48.5 -11
t-34.5 -40l-61 39q24 45 61 65t92 20q70 0 108.5 -29.5t38.5 -86.5q0 -61 -55 -92q30 -12 47 -34.5t17 -58.5q0 -58 -39.5 -93.5t-118.5 -35.5zM349 0h-103l342 700h102z" />
    <glyph glyph-name="percent" unicode="%" horiz-adv-x="1030" 
d="M633 205q0 111 42.5 163t135.5 52t135.5 -52t42.5 -163t-42.5 -163t-135.5 -52t-135.5 51.5t-42.5 163.5zM901 205q0 41 -6 68.5t-17.5 44t-28 23.5t-38.5 7t-38.5 -7t-28 -23.5t-17.5 -44.5t-6 -69t6 -68.5t17.5 -44t28 -23.5t38.5 -7t38.5 7t28 23.5t17.5 44.5t6 69z
M27 498q0 111 42.5 163t135.5 52t135.5 -52t42.5 -163t-42.5 -163t-135.5 -52t-135.5 51.5t-42.5 163.5zM295 498q0 41 -6 68.5t-17.5 44t-28 23.5t-38.5 7t-38.5 -7t-28 -23.5t-17.5 -44.5t-6 -69t6 -68.5t17.5 -44t28 -23.5t38.5 -7t38.5 7t28 23.5t17.5 44.5t6 69zM392 0
h-103l342 700h102z" />
    <glyph glyph-name="plus" unicode="+" horiz-adv-x="482" 
d="M199 110v160h-161v79h161v162h86v-162h160v-79h-160v-160h-86z" />
    <glyph glyph-name="minus" unicode="&#x2212;" horiz-adv-x="482" 
d="M445 270h-407v79h407v-79z" />
    <glyph glyph-name="multiply" unicode="&#xd7;" horiz-adv-x="472" 
d="M56 190l123 122l-124 126l58 58l125 -125l124 124l54 -54l-124 -124l126 -126l-59 -58l-126 125l-122 -123z" />
    <glyph glyph-name="divide" unicode="&#xf7;" horiz-adv-x="482" 
d="M445 270h-407v79h407v-79zM176 142q0 31 17.5 47t47.5 16t48 -16t18 -47q0 -29 -18 -46t-48 -17t-47.5 17t-17.5 46zM176 480q0 30 17.5 46.5t47.5 16.5t48 -16.5t18 -46.5q0 -29 -18 -46t-48 -17t-47.5 17t-17.5 46z" />
    <glyph glyph-name="equal" unicode="=" horiz-adv-x="482" 
d="M445 197h-407v79h407v-79zM445 343h-407v79h407v-79z" />
    <glyph glyph-name="less" unicode="&#x3c;" horiz-adv-x="469" 
d="M398 466l-217 -156l219 -155l-51 -68l-280 198v47l281 198z" />
    <glyph glyph-name="greater" unicode="&#x3e;" horiz-adv-x="469" 
d="M73 151l218 156l-220 156l51 67l280 -198v-46l-281 -199z" />
    <glyph glyph-name="degree" unicode="&#xb0;" horiz-adv-x="443" 
d="M40 531q0 83 47.5 132.5t135.5 49.5q87 0 135 -49.5t48 -132.5q0 -41 -12.5 -74t-36 -57t-57.5 -37t-77 -13q-88 0 -135.5 50t-47.5 131zM117 531q0 -57 29 -85t77 -28q47 0 76 28t29 85t-29 85.5t-76 28.5q-48 0 -77 -28.5t-29 -85.5z" />
    </font>
</defs>
</svg>
